<svg xmlns="http://www.w3.org/2000/svg" xmlns:xlink="http://www.w3.org/1999/xlink" contentStyleType="text/css" height="138px" preserveAspectRatio="none" style="width:94px;height:138px;background:#FFFFFF;" version="1.1" viewBox="0 0 94 138" width="94px" zoomAndPan="magnify"><defs/><g><!--class Frutero--><g id="elem_Frutero"><rect fill="#F1F1F1" height="32" id="Frutero" rx="2.5" ry="2.5" style="stroke:#181818;stroke-width:0.5;" width="80.9018" x="7" y="7"/><ellipse cx="22" cy="23" fill="#ADD1B2" rx="11" ry="11" style="stroke:#181818;stroke-width:1;"/><path d="M21.4688,29.9219 Q19.7188,29.9219 18.5781,29.1875 Q17.4531,28.4375 16.8906,27.0938 Q16.3438,25.7344 16.3438,23.9375 Q16.3438,21.9063 17,20.4531 Q17.6563,19 18.9375,18.2188 Q20.2188,17.4375 22.0938,17.4375 Q22.9844,17.4375 23.6563,17.625 Q24.3281,17.7969 25.0156,18.1406 L24.2031,20.1563 Q23.5781,19.8438 23.0313,19.7188 Q22.5,19.5938 22.0156,19.5938 Q20.8438,19.5938 20.1406,20.125 Q19.4375,20.6563 19.1406,21.6094 Q18.8438,22.5625 18.8438,23.8281 Q18.8438,25.8438 19.5625,26.8125 Q20.2813,27.7656 21.875,27.7656 Q22.4688,27.7656 23.0938,27.6094 Q23.7188,27.4531 24.5469,27.0781 L24.5469,29.2969 Q23.8125,29.6094 23.0156,29.7656 Q22.2344,29.9219 21.4688,29.9219 Z " fill="#000000"/><text fill="#000000" font-family="sans-serif" font-size="14" lengthAdjust="spacing" textLength="48.9018" x="36" y="28.432">Frutero</text></g><!--class Fruta--><g id="elem_Fruta"><rect fill="#F1F1F1" height="32" id="Fruta" rx="2.5" ry="2.5" style="stroke:#181818;stroke-width:0.5;" width="66.6079" x="14.15" y="99"/><ellipse cx="29.15" cy="115" fill="#ADD1B2" rx="11" ry="11" style="stroke:#181818;stroke-width:1;"/><path d="M28.6188,121.9219 Q26.8688,121.9219 25.7281,121.1875 Q24.6031,120.4375 24.0406,119.0938 Q23.4938,117.7344 23.4938,115.9375 Q23.4938,113.9063 24.15,112.4531 Q24.8063,111 26.0875,110.2188 Q27.3688,109.4375 29.2438,109.4375 Q30.1344,109.4375 30.8063,109.625 Q31.4781,109.7969 32.1656,110.1406 L31.3531,112.1563 Q30.7281,111.8438 30.1813,111.7188 Q29.65,111.5938 29.1656,111.5938 Q27.9938,111.5938 27.2906,112.125 Q26.5875,112.6563 26.2906,113.6094 Q25.9938,114.5625 25.9938,115.8281 Q25.9938,117.8438 26.7125,118.8125 Q27.4313,119.7656 29.025,119.7656 Q29.6188,119.7656 30.2438,119.6094 Q30.8688,119.4531 31.6969,119.0781 L31.6969,121.2969 Q30.9625,121.6094 30.1656,121.7656 Q29.3844,121.9219 28.6188,121.9219 Z " fill="#000000"/><text fill="#000000" font-family="sans-serif" font-size="14" lengthAdjust="spacing" textLength="34.6079" x="43.15" y="120.432">Fruta</text></g><!--reverse link Frutero to Fruta--><g id="link_Frutero_Fruta"><path codeLine="1" d="M47.45,51.27 C47.45,67.82 47.45,82.08 47.45,98.66 " fill="none" id="Frutero-backto-Fruta" style="stroke:#181818;stroke-width:1;"/><polygon fill="none" points="47.45,39.27,43.45,45.27,47.45,51.27,51.45,45.27,47.45,39.27" style="stroke:#181818;stroke-width:1;"/><text fill="#000000" font-family="sans-serif" font-size="13" lengthAdjust="spacing" textLength="7.436" x="39.4446" y="60.8609">1</text><text fill="#000000" font-family="sans-serif" font-size="13" lengthAdjust="spacing" textLength="7.163" x="39.2735" y="87.1396">*</text></g><!--SRC=[SoigBKajobTGCbHIoDVLLL3IKb9m0uebScLafgGgvARc9gKM5GC0]--></g></svg>