<svg xmlns="http://www.w3.org/2000/svg" xmlns:xlink="http://www.w3.org/1999/xlink" contentStyleType="text/css" height="608px" preserveAspectRatio="none" style="width:404px;height:608px;background:#FFFFFF;" version="1.1" viewBox="0 0 404 608" width="404px" zoomAndPan="magnify"><defs/><g><!--class Entity--><g id="elem_Entity"><rect codeLine="1" fill="#F1F1F1" height="67.0679" id="Entity" rx="2.5" ry="2.5" style="stroke:#181818;stroke-width:0.5;" width="69.2959" x="210.24" y="172.21"/><ellipse cx="225.24" cy="188.21" fill="#ADD1B2" rx="11" ry="11" style="stroke:#181818;stroke-width:1;"/><path d="M224.7088,195.1319 Q222.9588,195.1319 221.8181,194.3975 Q220.6931,193.6475 220.1306,192.3037 Q219.5838,190.9444 219.5838,189.1475 Q219.5838,187.1162 220.24,185.6631 Q220.8963,184.21 222.1775,183.4287 Q223.4588,182.6475 225.3338,182.6475 Q226.2244,182.6475 226.8963,182.835 Q227.5681,183.0069 228.2556,183.3506 L227.4431,185.3662 Q226.8181,185.0537 226.2713,184.9287 Q225.74,184.8037 225.2556,184.8037 Q224.0838,184.8037 223.3806,185.335 Q222.6775,185.8662 222.3806,186.8194 Q222.0838,187.7725 222.0838,189.0381 Q222.0838,191.0537 222.8025,192.0225 Q223.5213,192.9756 225.115,192.9756 Q225.7088,192.9756 226.3338,192.8194 Q226.9588,192.6631 227.7869,192.2881 L227.7869,194.5069 Q227.0525,194.8194 226.2556,194.9756 Q225.4744,195.1319 224.7088,195.1319 Z " fill="#000000"/><text fill="#000000" font-family="sans-serif" font-size="14" lengthAdjust="spacing" textLength="37.2959" x="239.24" y="193.642">Entity</text><line style="stroke:#181818;stroke-width:0.5;" x1="211.24" x2="278.5359" y1="204.21" y2="204.21"/><line style="stroke:#181818;stroke-width:0.5;" x1="211.24" x2="278.5359" y1="212.21" y2="212.21"/><ellipse cx="221.24" cy="227.244" fill="#84BE84" rx="3" ry="3" style="stroke:#038048;stroke-width:1;"/><text fill="#000000" font-family="sans-serif" font-size="14" lengthAdjust="spacing" textLength="31.2619" x="230.24" y="231.1759">tick()</text></g><!--class Component--><g id="elem_Component"><rect codeLine="4" fill="#F1F1F1" height="86.1358" id="Component" rx="2.5" ry="2.5" style="stroke:#181818;stroke-width:0.5;" width="128.7876" x="114.49" y="299.27"/><ellipse cx="140.5617" cy="315.27" fill="#A9DCDF" rx="11" ry="11" style="stroke:#181818;stroke-width:1;"/><path d="M135.7336,321.02 L139.0774,308.8325 L142.218,308.8325 L145.593,321.02 L143.1242,321.02 L142.3899,318.0044 L138.8742,318.0044 L138.1242,321.02 L135.7336,321.02 Z M140.1399,312.9731 L139.3899,315.9731 L141.9055,315.9731 L141.1867,312.9731 Q141.0461,312.395 140.9211,311.8481 Q140.7961,311.2856 140.6555,310.7075 Q140.5461,311.2856 140.4055,311.8481 Q140.2649,312.395 140.1399,312.9731 Z " fill="#000000"/><text fill="#000000" font-family="sans-serif" font-size="14" font-style="italic" lengthAdjust="spacing" textLength="72.1837" x="157.0221" y="320.702">Component</text><line style="stroke:#181818;stroke-width:0.5;" x1="115.49" x2="242.2776" y1="331.27" y2="331.27"/><ellipse cx="125.49" cy="346.304" fill="none" rx="3" ry="3" style="stroke:#038048;stroke-width:1;"/><text fill="#000000" font-family="sans-serif" font-size="14" lengthAdjust="spacing" textLength="102.7876" x="134.49" y="350.2359">messageQueue</text><line style="stroke:#181818;stroke-width:0.5;" x1="115.49" x2="242.2776" y1="358.3379" y2="358.3379"/><ellipse cx="125.49" cy="373.3719" fill="#84BE84" rx="3" ry="3" style="stroke:#038048;stroke-width:1;"/><text fill="#000000" font-family="sans-serif" font-size="14" lengthAdjust="spacing" textLength="31.2619" x="134.49" y="377.3039">tick()</text></g><!--class Game--><g id="elem_Game"><rect codeLine="9" fill="#F1F1F1" height="105.2038" id="Game" rx="2.5" ry="2.5" style="stroke:#181818;stroke-width:0.5;" width="128.7876" x="268.49" y="7"/><ellipse cx="309.4801" cy="23" fill="#ADD1B2" rx="11" ry="11" style="stroke:#181818;stroke-width:1;"/><path d="M308.9488,29.9219 Q307.1988,29.9219 306.0582,29.1875 Q304.9332,28.4375 304.3707,27.0938 Q303.8238,25.7344 303.8238,23.9375 Q303.8238,21.9063 304.4801,20.4531 Q305.1363,19 306.4176,18.2188 Q307.6988,17.4375 309.5738,17.4375 Q310.4645,17.4375 311.1363,17.625 Q311.8082,17.7969 312.4957,18.1406 L311.6832,20.1563 Q311.0582,19.8438 310.5113,19.7188 Q309.9801,19.5938 309.4957,19.5938 Q308.3238,19.5938 307.6207,20.125 Q306.9176,20.6563 306.6207,21.6094 Q306.3238,22.5625 306.3238,23.8281 Q306.3238,25.8438 307.0426,26.8125 Q307.7613,27.7656 309.3551,27.7656 Q309.9488,27.7656 310.5738,27.6094 Q311.1988,27.4531 312.027,27.0781 L312.027,29.2969 Q311.2926,29.6094 310.4957,29.7656 Q309.7145,29.9219 308.9488,29.9219 Z " fill="#000000"/><text fill="#000000" font-family="sans-serif" font-size="14" lengthAdjust="spacing" textLength="39.0318" x="329.2557" y="28.432">Game</text><line style="stroke:#181818;stroke-width:0.5;" x1="269.49" x2="396.2776" y1="39" y2="39"/><ellipse cx="279.49" cy="54.034" fill="none" rx="3" ry="3" style="stroke:#038048;stroke-width:1;"/><text fill="#000000" font-family="sans-serif" font-size="14" lengthAdjust="spacing" textLength="48.4818" x="288.49" y="57.9659">entities</text><ellipse cx="279.49" cy="73.1019" fill="none" rx="3" ry="3" style="stroke:#038048;stroke-width:1;"/><text fill="#000000" font-family="sans-serif" font-size="14" lengthAdjust="spacing" textLength="102.7876" x="288.49" y="77.0339">messageQueue</text><line style="stroke:#181818;stroke-width:0.5;" x1="269.49" x2="396.2776" y1="85.1358" y2="85.1358"/><ellipse cx="279.49" cy="100.1698" fill="#84BE84" rx="3" ry="3" style="stroke:#038048;stroke-width:1;"/><text fill="#000000" font-family="sans-serif" font-size="14" lengthAdjust="spacing" textLength="31.2619" x="288.49" y="104.1018">tick()</text></g><!--class Attacker--><g id="elem_Attacker"><rect fill="#F1F1F1" height="48" id="Attacker" rx="2.5" ry="2.5" style="stroke:#181818;stroke-width:0.5;" width="86.7818" x="135.49" y="445.41"/><ellipse cx="150.49" cy="461.41" fill="#ADD1B2" rx="11" ry="11" style="stroke:#181818;stroke-width:1;"/><path d="M149.9588,468.3319 Q148.2088,468.3319 147.0681,467.5975 Q145.9431,466.8475 145.3806,465.5037 Q144.8338,464.1444 144.8338,462.3475 Q144.8338,460.3162 145.49,458.8631 Q146.1463,457.41 147.4275,456.6287 Q148.7088,455.8475 150.5838,455.8475 Q151.4744,455.8475 152.1463,456.035 Q152.8181,456.2069 153.5056,456.5506 L152.6931,458.5662 Q152.0681,458.2537 151.5213,458.1287 Q150.99,458.0037 150.5056,458.0037 Q149.3338,458.0037 148.6306,458.535 Q147.9275,459.0662 147.6306,460.0194 Q147.3338,460.9725 147.3338,462.2381 Q147.3338,464.2537 148.0525,465.2225 Q148.7713,466.1756 150.365,466.1756 Q150.9588,466.1756 151.5838,466.0194 Q152.2088,465.8631 153.0369,465.4881 L153.0369,467.7069 Q152.3025,468.0194 151.5056,468.1756 Q150.7244,468.3319 149.9588,468.3319 Z " fill="#000000"/><text fill="#000000" font-family="sans-serif" font-size="14" lengthAdjust="spacing" textLength="54.7818" x="164.49" y="466.842">Attacker</text><line style="stroke:#181818;stroke-width:0.5;" x1="136.49" x2="221.2718" y1="477.41" y2="477.41"/><line style="stroke:#181818;stroke-width:0.5;" x1="136.49" x2="221.2718" y1="485.41" y2="485.41"/></g><!--class Defender--><g id="elem_Defender"><rect fill="#F1F1F1" height="48" id="Defender" rx="2.5" ry="2.5" style="stroke:#181818;stroke-width:0.5;" width="93.7677" x="7" y="445.41"/><ellipse cx="22" cy="461.41" fill="#ADD1B2" rx="11" ry="11" style="stroke:#181818;stroke-width:1;"/><path d="M21.4688,468.3319 Q19.7188,468.3319 18.5781,467.5975 Q17.4531,466.8475 16.8906,465.5037 Q16.3438,464.1444 16.3438,462.3475 Q16.3438,460.3162 17,458.8631 Q17.6563,457.41 18.9375,456.6287 Q20.2188,455.8475 22.0938,455.8475 Q22.9844,455.8475 23.6563,456.035 Q24.3281,456.2069 25.0156,456.5506 L24.2031,458.5662 Q23.5781,458.2537 23.0313,458.1287 Q22.5,458.0037 22.0156,458.0037 Q20.8438,458.0037 20.1406,458.535 Q19.4375,459.0662 19.1406,460.0194 Q18.8438,460.9725 18.8438,462.2381 Q18.8438,464.2537 19.5625,465.2225 Q20.2813,466.1756 21.875,466.1756 Q22.4688,466.1756 23.0938,466.0194 Q23.7188,465.8631 24.5469,465.4881 L24.5469,467.7069 Q23.8125,468.0194 23.0156,468.1756 Q22.2344,468.3319 21.4688,468.3319 Z " fill="#000000"/><text fill="#000000" font-family="sans-serif" font-size="14" lengthAdjust="spacing" textLength="61.7677" x="36" y="466.842">Defender</text><line style="stroke:#181818;stroke-width:0.5;" x1="8" x2="99.7677" y1="477.41" y2="477.41"/><line style="stroke:#181818;stroke-width:0.5;" x1="8" x2="99.7677" y1="485.41" y2="485.41"/></g><!--class Message--><g id="elem_Message"><rect codeLine="20" fill="#F1F1F1" height="48" id="Message" rx="2.5" ry="2.5" style="stroke:#181818;stroke-width:0.5;" width="85.8998" x="277.93" y="318.34"/><ellipse cx="292.93" cy="334.34" fill="#A9DCDF" rx="11" ry="11" style="stroke:#181818;stroke-width:1;"/><path d="M288.1019,340.09 L291.4456,327.9025 L294.5863,327.9025 L297.9613,340.09 L295.4925,340.09 L294.7581,337.0744 L291.2425,337.0744 L290.4925,340.09 L288.1019,340.09 Z M292.5081,332.0431 L291.7581,335.0431 L294.2738,335.0431 L293.555,332.0431 Q293.4144,331.465 293.2894,330.9181 Q293.1644,330.3556 293.0238,329.7775 Q292.9144,330.3556 292.7738,330.9181 Q292.6331,331.465 292.5081,332.0431 Z " fill="#000000"/><text fill="#000000" font-family="sans-serif" font-size="14" font-style="italic" lengthAdjust="spacing" textLength="53.8998" x="306.93" y="339.772">Message</text><line style="stroke:#181818;stroke-width:0.5;" x1="278.93" x2="362.8298" y1="350.34" y2="350.34"/><line style="stroke:#181818;stroke-width:0.5;" x1="278.93" x2="362.8298" y1="358.34" y2="358.34"/></g><!--class Attack--><g id="elem_Attack"><rect fill="#F1F1F1" height="48" id="Attack" rx="2.5" ry="2.5" style="stroke:#181818;stroke-width:0.5;" width="73.1039" x="142.33" y="553.41"/><ellipse cx="157.33" cy="569.41" fill="#ADD1B2" rx="11" ry="11" style="stroke:#181818;stroke-width:1;"/><path d="M156.7988,576.3319 Q155.0488,576.3319 153.9081,575.5975 Q152.7831,574.8475 152.2206,573.5038 Q151.6738,572.1444 151.6738,570.3475 Q151.6738,568.3163 152.33,566.8631 Q152.9863,565.41 154.2675,564.6288 Q155.5488,563.8475 157.4238,563.8475 Q158.3144,563.8475 158.9863,564.035 Q159.6581,564.2069 160.3456,564.5506 L159.5331,566.5663 Q158.9081,566.2538 158.3613,566.1288 Q157.83,566.0038 157.3456,566.0038 Q156.1738,566.0038 155.4706,566.535 Q154.7675,567.0663 154.4706,568.0194 Q154.1738,568.9725 154.1738,570.2381 Q154.1738,572.2538 154.8925,573.2225 Q155.6113,574.1756 157.205,574.1756 Q157.7988,574.1756 158.4238,574.0194 Q159.0488,573.8631 159.8769,573.4881 L159.8769,575.7069 Q159.1425,576.0194 158.3456,576.1756 Q157.5644,576.3319 156.7988,576.3319 Z " fill="#000000"/><text fill="#000000" font-family="sans-serif" font-size="14" lengthAdjust="spacing" textLength="41.1039" x="171.33" y="574.842">Attack</text><line style="stroke:#181818;stroke-width:0.5;" x1="143.33" x2="214.4339" y1="585.41" y2="585.41"/><line style="stroke:#181818;stroke-width:0.5;" x1="143.33" x2="214.4339" y1="593.41" y2="593.41"/></g><!--class Presence--><g id="elem_Presence"><rect fill="#F1F1F1" height="48" id="Presence" rx="2.5" ry="2.5" style="stroke:#181818;stroke-width:0.5;" width="92.0178" x="299.88" y="553.41"/><ellipse cx="314.88" cy="569.41" fill="#ADD1B2" rx="11" ry="11" style="stroke:#181818;stroke-width:1;"/><path d="M314.3488,576.3319 Q312.5988,576.3319 311.4581,575.5975 Q310.3331,574.8475 309.7706,573.5038 Q309.2238,572.1444 309.2238,570.3475 Q309.2238,568.3163 309.88,566.8631 Q310.5363,565.41 311.8175,564.6288 Q313.0988,563.8475 314.9738,563.8475 Q315.8644,563.8475 316.5363,564.035 Q317.2081,564.2069 317.8956,564.5506 L317.0831,566.5663 Q316.4581,566.2538 315.9113,566.1288 Q315.38,566.0038 314.8956,566.0038 Q313.7238,566.0038 313.0206,566.535 Q312.3175,567.0663 312.0206,568.0194 Q311.7238,568.9725 311.7238,570.2381 Q311.7238,572.2538 312.4425,573.2225 Q313.1613,574.1756 314.755,574.1756 Q315.3488,574.1756 315.9738,574.0194 Q316.5988,573.8631 317.4269,573.4881 L317.4269,575.7069 Q316.6925,576.0194 315.8956,576.1756 Q315.1144,576.3319 314.3488,576.3319 Z " fill="#000000"/><text fill="#000000" font-family="sans-serif" font-size="14" lengthAdjust="spacing" textLength="60.0178" x="328.88" y="574.842">Presence</text><line style="stroke:#181818;stroke-width:0.5;" x1="300.88" x2="390.8978" y1="585.41" y2="585.41"/><line style="stroke:#181818;stroke-width:0.5;" x1="300.88" x2="390.8978" y1="593.41" y2="593.41"/></g><!--reverse link Component to Attacker--><g id="link_Component_Attacker"><path codeLine="14" d="M178.88,403.68 C178.88,423.53 178.88,428.41 178.88,445.07 " fill="none" id="Component-backto-Attacker" style="stroke:#181818;stroke-width:1;"/><polygon fill="none" points="178.88,385.68,172.88,403.68,184.88,403.68,178.88,385.68" style="stroke:#181818;stroke-width:1;"/></g><!--reverse link Component to Defender--><g id="link_Component_Defender"><path codeLine="15" d="M123.8385,398.4143 C104.0085,418.2643 93.86,428.41 77.21,445.07 " fill="none" id="Component-backto-Defender" style="stroke:#181818;stroke-width:1;"/><polygon fill="none" points="136.56,385.68,119.5937,394.1738,128.0833,402.6548,136.56,385.68" style="stroke:#181818;stroke-width:1;"/></g><!--reverse link Game to Message--><g id="link_Game_Message"><path codeLine="16" d="M330.1577,124.4091 C327.5377,185.7291 323.8,273.15 321.88,318.03 " fill="none" id="Game-backto-Message" style="stroke:#181818;stroke-width:1;"/><polygon fill="none" points="330.67,112.42,326.4175,118.2438,330.1577,124.4091,334.4102,118.5853,330.67,112.42" style="stroke:#181818;stroke-width:1;"/></g><!--link Entity to Message--><g id="link_Entity_Message"><path codeLine="17" d="M263.48,239.67 C277.19,263.95 292.5508,291.1649 304.7708,312.8149 " fill="none" id="Entity-to-Message" style="stroke:#181818;stroke-width:1;"/><polygon fill="#181818" points="307.72,318.04,306.7796,308.2361,305.2623,313.6857,299.8127,312.1685,307.72,318.04" style="stroke:#181818;stroke-width:1;"/></g><!--reverse link Entity to Component--><g id="link_Entity_Component"><path codeLine="18" d="M223.4558,250.4439 C214.7158,268.2639 209.1,279.71 199.73,298.83 " fill="none" id="Entity-backto-Component" style="stroke:#181818;stroke-width:1;"/><polygon fill="#181818" points="228.74,239.67,222.5066,243.2956,223.4558,250.4439,229.6892,246.8184,228.74,239.67" style="stroke:#181818;stroke-width:1;"/><text fill="#000000" font-family="sans-serif" font-size="13" lengthAdjust="spacing" textLength="7.436" x="218.279" y="261.187">1</text><text fill="#000000" font-family="sans-serif" font-size="13" lengthAdjust="spacing" textLength="7.163" x="195.5075" y="287.4945">*</text></g><!--reverse link Game to Entity--><g id="link_Game_Entity"><path codeLine="19" d="M294.858,122.8827 C282.748,142.7227 275.55,154.51 264.84,172.06 " fill="none" id="Game-backto-Entity" style="stroke:#181818;stroke-width:1;"/><polygon fill="#181818" points="301.11,112.64,294.5698,115.6774,294.858,122.8827,301.3982,119.8453,301.11,112.64" style="stroke:#181818;stroke-width:1;"/><text fill="#000000" font-family="sans-serif" font-size="13" lengthAdjust="spacing" textLength="7.436" x="289.8376" y="134.08">1</text><text fill="#000000" font-family="sans-serif" font-size="13" lengthAdjust="spacing" textLength="7.163" x="261.2501" y="160.3294">*</text></g><!--reverse link Message to Attack--><g id="link_Message_Attack"><path codeLine="22" d="M301.5147,382.9218 C286.6547,412.9418 267.28,450.13 239.88,493.41 C226.68,514.26 209.99,536.75 197.4,553.05 " fill="none" id="Message-backto-Attack" style="stroke:#181818;stroke-width:1;"/><polygon fill="none" points="309.5,366.79,296.1374,380.26,306.892,385.5836,309.5,366.79" style="stroke:#181818;stroke-width:1;"/></g><!--reverse link Message to Presence--><g id="link_Message_Presence"><path codeLine="23" d="M325.2899,384.4373 C330.0699,428.9973 338.57,508.2 343.37,552.96 " fill="none" id="Message-backto-Presence" style="stroke:#181818;stroke-width:1;"/><polygon fill="none" points="323.37,366.54,319.3241,385.0773,331.2556,383.7974,323.37,366.54" style="stroke:#181818;stroke-width:1;"/></g><!--link Game to Presence--><g id="link_Game_Presence"><path codeLine="25" d="M348.31,112.71 C365.47,176.68 389.68,288.62 380.88,385.41 C375.33,446.51 361.3518,511.4289 352.9418,547.2389 " fill="none" id="Game-to-Presence" style="stroke:#181818;stroke-width:1;"/><polygon fill="#181818" points="351.57,553.08,357.5217,545.2329,352.7132,548.2124,349.7336,543.4039,351.57,553.08" style="stroke:#181818;stroke-width:1;"/></g><!--link Attacker to Presence--><g id="link_Attacker_Presence"><path codeLine="26" d="M215.53,493.67 C243.28,511.28 276.1638,532.1654 303.9638,549.8054 " fill="none" id="Attacker-to-Presence" style="stroke:#181818;stroke-width:1;"/><polygon fill="#181818" points="309.03,553.02,303.5738,544.8206,304.8082,550.3411,299.2877,551.5755,309.03,553.02" style="stroke:#181818;stroke-width:1;"/></g><!--link Attacker to Attack--><g id="link_Attacker_Attack"><path codeLine="27" d="M178.88,493.67 C178.88,511.35 178.88,529.54 178.88,547.2 " fill="none" id="Attacker-to-Attack" style="stroke:#181818;stroke-width:1;"/><polygon fill="#181818" points="178.88,553.2,182.88,544.2,178.88,548.2,174.88,544.2,178.88,553.2" style="stroke:#181818;stroke-width:1;"/></g><!--link Defender to Attack--><g id="link_Defender_Attack"><path codeLine="28" d="M81.32,493.67 C102.16,511.35 126.1134,531.6599 146.9434,549.3199 " fill="none" id="Defender-to-Attack" style="stroke:#181818;stroke-width:1;"/><polygon fill="#181818" points="151.52,553.2,147.2419,544.3288,147.7062,549.9666,142.0684,550.4309,151.52,553.2" style="stroke:#181818;stroke-width:1;"/></g><!--SRC=[XO-n3i8m34HtVuML2Oeoi2Ca18W92JuX18CgQ8fgTq3GVoTj6hLaW4p9o_dEP- -66RTESddY2z2VcUJsDfb20-R4KXahQ3lLkYmUfICdKLWGixdIiQQQab488pjJK5HJ6v8J_vqTSXPlhN4bOkoDgfHlw4Bkx7aNKdgo3vxGrz5wcI8rLvXvfShKK2SOZB-2EktVU_a-3SJxQCDlTgY8oLc2uDxk4X52hFGBXmT2h3c67m00]--></g></svg>