<svg xmlns="http://www.w3.org/2000/svg" xmlns:xlink="http://www.w3.org/1999/xlink" contentStyleType="text/css" data-diagram-type="CLASS" height="591px" preserveAspectRatio="none" style="width:413px;height:591px;background:#FFFFFF;" version="1.1" viewBox="0 0 413 591" width="413px" zoomAndPan="magnify"><defs/><g><!--class Entity--><g id="elem_Entity"><rect codeLine="1" fill="#F1F1F1" height="64.2969" id="Entity" rx="2.5" ry="2.5" style="stroke:#181818;stroke-width:0.5;" width="72.8721" x="214.1" y="163.89"/><ellipse cx="229.1" cy="179.89" fill="#ADD1B2" rx="11" ry="11" style="stroke:#181818;stroke-width:1;"/><path d="M228.5688,186.8119 Q226.8188,186.8119 225.6781,186.0775 Q224.5531,185.3275 223.9906,183.9838 Q223.4438,182.6244 223.4438,180.8275 Q223.4438,178.7963 224.1,177.3431 Q224.7563,175.89 226.0375,175.1088 Q227.3188,174.3275 229.1938,174.3275 Q230.0844,174.3275 230.7563,174.515 Q231.4281,174.6869 232.1156,175.0306 L231.3031,177.0463 Q230.6781,176.7338 230.1313,176.6088 Q229.6,176.4838 229.1156,176.4838 Q227.9438,176.4838 227.2406,177.015 Q226.5375,177.5463 226.2406,178.4994 Q225.9438,179.4525 225.9438,180.7181 Q225.9438,182.7338 226.6625,183.7025 Q227.3813,184.6556 228.975,184.6556 Q229.5688,184.6556 230.1938,184.4994 Q230.8188,184.3431 231.6469,183.9681 L231.6469,186.1869 Q230.9125,186.4994 230.1156,186.6556 Q229.3344,186.8119 228.5688,186.8119 Z " fill="#000000"/><text fill="#000000" font-family="sans-serif" font-size="14" lengthAdjust="spacing" textLength="40.8721" x="243.1" y="184.7367">Entity</text><line style="stroke:#181818;stroke-width:0.5;" x1="215.1" x2="285.9721" y1="195.89" y2="195.89"/><line style="stroke:#181818;stroke-width:0.5;" x1="215.1" x2="285.9721" y1="203.89" y2="203.89"/><ellipse cx="225.1" cy="217.5384" fill="#84BE84" rx="3" ry="3" style="stroke:#038048;stroke-width:1;"/><text fill="#000000" font-family="sans-serif" font-size="14" lengthAdjust="spacing" textLength="36.1074" x="234.1" y="220.8851">tick()</text></g><!--class Component--><g id="elem_Component"><rect codeLine="4" fill="#F1F1F1" height="80.5938" id="Component" rx="2.5" ry="2.5" style="stroke:#181818;stroke-width:0.5;" width="134.9102" x="109.08" y="288.19"/><ellipse cx="133.8139" cy="304.19" fill="#A9DCDF" rx="11" ry="11" style="stroke:#181818;stroke-width:1;"/><path d="M128.9858,309.94 L132.3295,297.7525 L135.4701,297.7525 L138.8451,309.94 L136.3764,309.94 L135.642,306.9244 L132.1264,306.9244 L131.3764,309.94 L128.9858,309.94 Z M133.392,301.8931 L132.642,304.8931 L135.1576,304.8931 L134.4389,301.8931 Q134.2983,301.315 134.1733,300.7681 Q134.0483,300.2056 133.9076,299.6275 Q133.7983,300.2056 133.6576,300.7681 Q133.517,301.315 133.392,301.8931 Z " fill="#000000"/><text fill="#000000" font-family="sans-serif" font-size="14" font-style="italic" lengthAdjust="spacing" textLength="81.2793" x="149.977" y="309.0367">Component</text><line style="stroke:#181818;stroke-width:0.5;" x1="110.08" x2="242.9902" y1="320.19" y2="320.19"/><ellipse cx="120.08" cy="333.8384" fill="transparent" rx="3" ry="3" style="stroke:#038048;stroke-width:1;"/><text fill="#000000" font-family="sans-serif" font-size="14" lengthAdjust="spacing" textLength="108.9102" x="129.08" y="337.1851">messageQueue</text><line style="stroke:#181818;stroke-width:0.5;" x1="110.08" x2="242.9902" y1="344.4869" y2="344.4869"/><ellipse cx="120.08" cy="358.1353" fill="#84BE84" rx="3" ry="3" style="stroke:#038048;stroke-width:1;"/><text fill="#000000" font-family="sans-serif" font-size="14" lengthAdjust="spacing" textLength="36.1074" x="129.08" y="361.482">tick()</text></g><!--class Game--><g id="elem_Game"><rect codeLine="9" fill="#F1F1F1" height="96.8906" id="Game" rx="2.5" ry="2.5" style="stroke:#181818;stroke-width:0.5;" width="134.9102" x="272.08" y="7"/><ellipse cx="314.6342" cy="23" fill="#ADD1B2" rx="11" ry="11" style="stroke:#181818;stroke-width:1;"/><path d="M314.1029,29.9219 Q312.3529,29.9219 311.2123,29.1875 Q310.0873,28.4375 309.5248,27.0938 Q308.9779,25.7344 308.9779,23.9375 Q308.9779,21.9063 309.6342,20.4531 Q310.2904,19 311.5717,18.2188 Q312.8529,17.4375 314.7279,17.4375 Q315.6185,17.4375 316.2904,17.625 Q316.9623,17.7969 317.6498,18.1406 L316.8373,20.1563 Q316.2123,19.8438 315.6654,19.7188 Q315.1342,19.5938 314.6498,19.5938 Q313.4779,19.5938 312.7748,20.125 Q312.0717,20.6563 311.7748,21.6094 Q311.4779,22.5625 311.4779,23.8281 Q311.4779,25.8438 312.1967,26.8125 Q312.9154,27.7656 314.5092,27.7656 Q315.1029,27.7656 315.7279,27.6094 Q316.3529,27.4531 317.181,27.0781 L317.181,29.2969 Q316.4467,29.6094 315.6498,29.7656 Q314.8685,29.9219 314.1029,29.9219 Z " fill="#000000"/><text fill="#000000" font-family="sans-serif" font-size="14" lengthAdjust="spacing" textLength="41.6787" x="334.7573" y="27.8467">Game</text><line style="stroke:#181818;stroke-width:0.5;" x1="273.08" x2="405.9902" y1="39" y2="39"/><ellipse cx="283.08" cy="52.6484" fill="transparent" rx="3" ry="3" style="stroke:#038048;stroke-width:1;"/><text fill="#000000" font-family="sans-serif" font-size="14" lengthAdjust="spacing" textLength="52.1514" x="292.08" y="55.9951">entities</text><ellipse cx="283.08" cy="68.9453" fill="transparent" rx="3" ry="3" style="stroke:#038048;stroke-width:1;"/><text fill="#000000" font-family="sans-serif" font-size="14" lengthAdjust="spacing" textLength="108.9102" x="292.08" y="72.292">messageQueue</text><line style="stroke:#181818;stroke-width:0.5;" x1="273.08" x2="405.9902" y1="79.5938" y2="79.5938"/><ellipse cx="283.08" cy="93.2422" fill="#84BE84" rx="3" ry="3" style="stroke:#038048;stroke-width:1;"/><text fill="#000000" font-family="sans-serif" font-size="14" lengthAdjust="spacing" textLength="36.1074" x="292.08" y="96.5889">tick()</text></g><!--class Attacker--><g id="elem_Attacker"><rect fill="#F1F1F1" height="48" id="Attacker" rx="2.5" ry="2.5" style="stroke:#181818;stroke-width:0.5;" width="91.3086" x="138.88" y="428.78"/><ellipse cx="153.88" cy="444.78" fill="#ADD1B2" rx="11" ry="11" style="stroke:#181818;stroke-width:1;"/><path d="M153.3488,451.7019 Q151.5988,451.7019 150.4581,450.9675 Q149.3331,450.2175 148.7706,448.8738 Q148.2238,447.5144 148.2238,445.7175 Q148.2238,443.6863 148.88,442.2331 Q149.5363,440.78 150.8175,439.9988 Q152.0988,439.2175 153.9738,439.2175 Q154.8644,439.2175 155.5363,439.405 Q156.2081,439.5769 156.8956,439.9206 L156.0831,441.9363 Q155.4581,441.6238 154.9113,441.4988 Q154.38,441.3738 153.8956,441.3738 Q152.7238,441.3738 152.0206,441.905 Q151.3175,442.4363 151.0206,443.3894 Q150.7238,444.3425 150.7238,445.6081 Q150.7238,447.6238 151.4425,448.5925 Q152.1613,449.5456 153.755,449.5456 Q154.3488,449.5456 154.9738,449.3894 Q155.5988,449.2331 156.4269,448.8581 L156.4269,451.0769 Q155.6925,451.3894 154.8956,451.5456 Q154.1144,451.7019 153.3488,451.7019 Z " fill="#000000"/><text fill="#000000" font-family="sans-serif" font-size="14" lengthAdjust="spacing" textLength="59.3086" x="167.88" y="449.6267">Attacker</text><line style="stroke:#181818;stroke-width:0.5;" x1="139.88" x2="229.1886" y1="460.78" y2="460.78"/><line style="stroke:#181818;stroke-width:0.5;" x1="139.88" x2="229.1886" y1="468.78" y2="468.78"/></g><!--class Defender--><g id="elem_Defender"><rect fill="#F1F1F1" height="48" id="Defender" rx="2.5" ry="2.5" style="stroke:#181818;stroke-width:0.5;" width="97.0645" x="7" y="428.78"/><ellipse cx="22" cy="444.78" fill="#ADD1B2" rx="11" ry="11" style="stroke:#181818;stroke-width:1;"/><path d="M21.4688,451.7019 Q19.7188,451.7019 18.5781,450.9675 Q17.4531,450.2175 16.8906,448.8738 Q16.3438,447.5144 16.3438,445.7175 Q16.3438,443.6863 17,442.2331 Q17.6563,440.78 18.9375,439.9988 Q20.2188,439.2175 22.0938,439.2175 Q22.9844,439.2175 23.6563,439.405 Q24.3281,439.5769 25.0156,439.9206 L24.2031,441.9363 Q23.5781,441.6238 23.0313,441.4988 Q22.5,441.3738 22.0156,441.3738 Q20.8438,441.3738 20.1406,441.905 Q19.4375,442.4363 19.1406,443.3894 Q18.8438,444.3425 18.8438,445.6081 Q18.8438,447.6238 19.5625,448.5925 Q20.2813,449.5456 21.875,449.5456 Q22.4688,449.5456 23.0938,449.3894 Q23.7188,449.2331 24.5469,448.8581 L24.5469,451.0769 Q23.8125,451.3894 23.0156,451.5456 Q22.2344,451.7019 21.4688,451.7019 Z " fill="#000000"/><text fill="#000000" font-family="sans-serif" font-size="14" lengthAdjust="spacing" textLength="65.0645" x="36" y="449.6267">Defender</text><line style="stroke:#181818;stroke-width:0.5;" x1="8" x2="103.0645" y1="460.78" y2="460.78"/><line style="stroke:#181818;stroke-width:0.5;" x1="8" x2="103.0645" y1="468.78" y2="468.78"/></g><!--class Message--><g id="elem_Message"><rect codeLine="20" fill="#F1F1F1" height="48" id="Message" rx="2.5" ry="2.5" style="stroke:#181818;stroke-width:0.5;" width="93.3594" x="278.85" y="304.48"/><ellipse cx="293.85" cy="320.48" fill="#A9DCDF" rx="11" ry="11" style="stroke:#181818;stroke-width:1;"/><path d="M289.0219,326.23 L292.3656,314.0425 L295.5063,314.0425 L298.8813,326.23 L296.4125,326.23 L295.6781,323.2144 L292.1625,323.2144 L291.4125,326.23 L289.0219,326.23 Z M293.4281,318.1831 L292.6781,321.1831 L295.1938,321.1831 L294.475,318.1831 Q294.3344,317.605 294.2094,317.0581 Q294.0844,316.4956 293.9438,315.9175 Q293.8344,316.4956 293.6938,317.0581 Q293.5531,317.605 293.4281,318.1831 Z " fill="#000000"/><text fill="#000000" font-family="sans-serif" font-size="14" font-style="italic" lengthAdjust="spacing" textLength="61.3594" x="307.85" y="325.3267">Message</text><line style="stroke:#181818;stroke-width:0.5;" x1="279.85" x2="371.2094" y1="336.48" y2="336.48"/><line style="stroke:#181818;stroke-width:0.5;" x1="279.85" x2="371.2094" y1="344.48" y2="344.48"/></g><!--class Attack--><g id="elem_Attack"><rect fill="#F1F1F1" height="48" id="Attack" rx="2.5" ry="2.5" style="stroke:#181818;stroke-width:0.5;" width="76.9395" x="146.06" y="536.78"/><ellipse cx="161.06" cy="552.78" fill="#ADD1B2" rx="11" ry="11" style="stroke:#181818;stroke-width:1;"/><path d="M160.5288,559.7019 Q158.7788,559.7019 157.6381,558.9675 Q156.5131,558.2175 155.9506,556.8738 Q155.4038,555.5144 155.4038,553.7175 Q155.4038,551.6863 156.06,550.2331 Q156.7163,548.78 157.9975,547.9988 Q159.2788,547.2175 161.1538,547.2175 Q162.0444,547.2175 162.7163,547.405 Q163.3881,547.5769 164.0756,547.9206 L163.2631,549.9363 Q162.6381,549.6238 162.0913,549.4988 Q161.56,549.3738 161.0756,549.3738 Q159.9038,549.3738 159.2006,549.905 Q158.4975,550.4363 158.2006,551.3894 Q157.9038,552.3425 157.9038,553.6081 Q157.9038,555.6238 158.6225,556.5925 Q159.3413,557.5456 160.935,557.5456 Q161.5288,557.5456 162.1538,557.3894 Q162.7788,557.2331 163.6069,556.8581 L163.6069,559.0769 Q162.8725,559.3894 162.0756,559.5456 Q161.2944,559.7019 160.5288,559.7019 Z " fill="#000000"/><text fill="#000000" font-family="sans-serif" font-size="14" lengthAdjust="spacing" textLength="44.9395" x="175.06" y="557.6267">Attack</text><line style="stroke:#181818;stroke-width:0.5;" x1="147.06" x2="221.9995" y1="568.78" y2="568.78"/><line style="stroke:#181818;stroke-width:0.5;" x1="147.06" x2="221.9995" y1="576.78" y2="576.78"/></g><!--class Presence--><g id="elem_Presence"><rect fill="#F1F1F1" height="48" id="Presence" rx="2.5" ry="2.5" style="stroke:#181818;stroke-width:0.5;" width="95.9023" x="306.58" y="536.78"/><ellipse cx="321.58" cy="552.78" fill="#ADD1B2" rx="11" ry="11" style="stroke:#181818;stroke-width:1;"/><path d="M321.0488,559.7019 Q319.2988,559.7019 318.1581,558.9675 Q317.0331,558.2175 316.4706,556.8738 Q315.9238,555.5144 315.9238,553.7175 Q315.9238,551.6863 316.58,550.2331 Q317.2363,548.78 318.5175,547.9988 Q319.7988,547.2175 321.6738,547.2175 Q322.5644,547.2175 323.2363,547.405 Q323.9081,547.5769 324.5956,547.9206 L323.7831,549.9363 Q323.1581,549.6238 322.6113,549.4988 Q322.08,549.3738 321.5956,549.3738 Q320.4238,549.3738 319.7206,549.905 Q319.0175,550.4363 318.7206,551.3894 Q318.4238,552.3425 318.4238,553.6081 Q318.4238,555.6238 319.1425,556.5925 Q319.8613,557.5456 321.455,557.5456 Q322.0488,557.5456 322.6738,557.3894 Q323.2988,557.2331 324.1269,556.8581 L324.1269,559.0769 Q323.3925,559.3894 322.5956,559.5456 Q321.8144,559.7019 321.0488,559.7019 Z " fill="#000000"/><text fill="#000000" font-family="sans-serif" font-size="14" lengthAdjust="spacing" textLength="63.9023" x="335.58" y="557.6267">Presence</text><line style="stroke:#181818;stroke-width:0.5;" x1="307.58" x2="401.4823" y1="568.78" y2="568.78"/><line style="stroke:#181818;stroke-width:0.5;" x1="307.58" x2="401.4823" y1="576.78" y2="576.78"/></g><!--reverse link Component to Attacker--><g id="link_Component_Attacker"><path codeLine="14" d="M180.3072,387.1515 C181.5872,406.6815 181.9,411.59 183,428.3 " fill="transparent" id="Component-backto-Attacker" style="stroke:#181818;stroke-width:1;"/><polygon fill="transparent" points="179.13,369.19,174.32,387.5439,186.2944,386.7591,179.13,369.19" style="stroke:#181818;stroke-width:1;"/></g><!--reverse link Component to Defender--><g id="link_Component_Defender"><path codeLine="15" d="M124.5911,381.9865 C105.2711,401.5165 95.3,411.59 78.76,428.3 " fill="transparent" id="Component-backto-Defender" style="stroke:#181818;stroke-width:1;"/><polygon fill="transparent" points="137.25,369.19,120.3256,377.7669,128.8566,386.2062,137.25,369.19" style="stroke:#181818;stroke-width:1;"/></g><!--reverse link Game to Message--><g id="link_Game_Message"><path codeLine="16" d="M336.441,116.264 C333.411,174.924 329.02,260.01 326.73,304.24 " fill="transparent" id="Game-backto-Message" style="stroke:#181818;stroke-width:1;"/><polygon fill="transparent" points="337.06,104.28,332.7558,110.0657,336.441,116.264,340.7452,110.4784,337.06,104.28" style="stroke:#181818;stroke-width:1;"/></g><!--link Entity to Message--><g id="link_Entity_Message"><path codeLine="17" d="M268.69,228.61 C282.13,251.99 297.1383,278.0991 309.2583,299.1691 " fill="transparent" id="Entity-to-Message" style="stroke:#181818;stroke-width:1;"/><polygon fill="#181818" points="312.25,304.37,311.2297,294.5741,309.7569,300.0359,304.2952,298.5631,312.25,304.37" style="stroke:#181818;stroke-width:1;"/></g><!--reverse link Entity to Component--><g id="link_Entity_Component"><path codeLine="18" d="M226.6979,239.0469 C216.5979,256.8469 209.82,268.81 199.05,287.78 " fill="transparent" id="Entity-backto-Component" style="stroke:#181818;stroke-width:1;"/><polygon fill="#181818" points="232.62,228.61,226.18,231.8544,226.6979,239.0469,233.1379,235.8025,232.62,228.61" style="stroke:#181818;stroke-width:1;"/><text fill="#000000" font-family="sans-serif" font-size="13" lengthAdjust="spacing" textLength="8.271" x="220.4681" y="248.3282">1</text><text fill="#000000" font-family="sans-serif" font-size="13" lengthAdjust="spacing" textLength="6.5" x="196.2" y="277.1745">*</text></g><!--reverse link Game to Entity--><g id="link_Game_Entity"><path codeLine="19" d="M302.4158,114.2373 C289.7458,133.9673 281.89,146.2 270.6,163.79 " fill="transparent" id="Game-backto-Entity" style="stroke:#181818;stroke-width:1;"/><polygon fill="#181818" points="308.9,104.14,302.2921,107.0273,302.4158,114.2373,309.0237,111.35,308.9,104.14" style="stroke:#181818;stroke-width:1;"/><text fill="#000000" font-family="sans-serif" font-size="13" lengthAdjust="spacing" textLength="8.271" x="296.0485" y="124.1186">1</text><text fill="#000000" font-family="sans-serif" font-size="13" lengthAdjust="spacing" textLength="6.5" x="268.171" y="152.6725">*</text></g><!--reverse link Message to Attack--><g id="link_Message_Attack"><path codeLine="22" d="M306.8588,369.0808 C292.7088,398.6908 274.39,434.71 247.53,476.78 C234.1,497.82 216.84,520.3 203.79,536.55 " fill="transparent" id="Message-backto-Attack" style="stroke:#181818;stroke-width:1;"/><polygon fill="transparent" points="314.62,352.84,301.4452,366.4938,312.2725,371.6679,314.62,352.84" style="stroke:#181818;stroke-width:1;"/></g><!--reverse link Message to Presence--><g id="link_Message_Presence"><path codeLine="23" d="M330.7196,370.6889 C336.2796,414.8289 346.02,492.18 351.58,536.37 " fill="transparent" id="Message-backto-Presence" style="stroke:#181818;stroke-width:1;"/><polygon fill="transparent" points="328.47,352.83,324.7666,371.4387,336.6725,369.939,328.47,352.83" style="stroke:#181818;stroke-width:1;"/></g><!--link Game to Presence--><g id="link_Game_Presence"><path codeLine="25" d="M354.76,104.34 C372.42,165.42 398.1,274.44 389.53,368.78 C383.98,429.88 370.0018,494.7989 361.5918,530.6089 " fill="transparent" id="Game-to-Presence" style="stroke:#181818;stroke-width:1;"/><polygon fill="#181818" points="360.22,536.45,366.1717,528.6029,361.3632,531.5824,358.3836,526.7739,360.22,536.45" style="stroke:#181818;stroke-width:1;"/></g><!--link Attacker to Presence--><g id="link_Attacker_Presence"><path codeLine="26" d="M221.84,477.04 C250.09,494.65 283.6282,515.5762 311.9282,533.2162 " fill="transparent" id="Attacker-to-Presence" style="stroke:#181818;stroke-width:1;"/><polygon fill="#181818" points="317.02,536.39,311.4982,528.2347,312.7768,533.7451,307.2664,535.0238,317.02,536.39" style="stroke:#181818;stroke-width:1;"/></g><!--link Attacker to Attack--><g id="link_Attacker_Attack"><path codeLine="27" d="M184.53,477.04 C184.53,494.72 184.53,512.91 184.53,530.57 " fill="transparent" id="Attacker-to-Attack" style="stroke:#181818;stroke-width:1;"/><polygon fill="#181818" points="184.53,536.57,188.53,527.57,184.53,531.57,180.53,527.57,184.53,536.57" style="stroke:#181818;stroke-width:1;"/></g><!--link Defender to Attack--><g id="link_Defender_Attack"><path codeLine="28" d="M83.84,477.04 C105.35,494.72 130.1644,515.1006 151.6544,532.7606 " fill="transparent" id="Defender-to-Attack" style="stroke:#181818;stroke-width:1;"/><polygon fill="#181818" points="156.29,536.57,151.8763,527.7655,152.427,533.3955,146.7971,533.9463,156.29,536.57" style="stroke:#181818;stroke-width:1;"/></g><!--SRC=[XO-n3i8m34HtVuML2Oeoi2Ca18W92JuX18CgQ8fgTq3GVoTj6hLaW4p9o_dEP- -66RTESddY2z2VcUJsDfb20-R4KXahQ3lLkYmUfICdKLWGixdIiQQQab488pjJK5HJ6v8J_vqTSXPlhN4bOkoDgfHlw4Bkx7aNKdgo3vxGrz5wcI8rLvXvfShKK2SOZB-2EktVU_a-3SJxQCDlTgY8oLc2uDxk4X52hFGBXmT2h3c67m00]--></g></svg>