<svg xmlns="http://www.w3.org/2000/svg" xmlns:xlink="http://www.w3.org/1999/xlink" contentStyleType="text/css" data-diagram-type="CLASS" height="344px" preserveAspectRatio="none" style="width:165px;height:344px;background:#FFFFFF;" version="1.1" viewBox="0 0 165 344" width="165px" zoomAndPan="magnify"><defs/><g><!--class Enemy--><g id="elem_Enemy"><rect codeLine="1" fill="#F1F1F1" height="64.2969" id="Enemy" rx="2.5" ry="2.5" style="stroke:#181818;stroke-width:0.5;" width="137.9453" x="13.9" y="7"/><ellipse cx="54.8607" cy="23" fill="#ADD1B2" rx="11" ry="11" style="stroke:#181818;stroke-width:1;"/><path d="M54.3294,29.9219 Q52.5794,29.9219 51.4388,29.1875 Q50.3138,28.4375 49.7513,27.0938 Q49.2044,25.7344 49.2044,23.9375 Q49.2044,21.9063 49.8607,20.4531 Q50.5169,19 51.7982,18.2188 Q53.0794,17.4375 54.9544,17.4375 Q55.8451,17.4375 56.5169,17.625 Q57.1888,17.7969 57.8763,18.1406 L57.0638,20.1563 Q56.4388,19.8438 55.8919,19.7188 Q55.3607,19.5938 54.8763,19.5938 Q53.7044,19.5938 53.0013,20.125 Q52.2982,20.6563 52.0013,21.6094 Q51.7044,22.5625 51.7044,23.8281 Q51.7044,25.8438 52.4232,26.8125 Q53.1419,27.7656 54.7357,27.7656 Q55.3294,27.7656 55.9544,27.6094 Q56.5794,27.4531 57.4076,27.0781 L57.4076,29.2969 Q56.6732,29.6094 55.8763,29.7656 Q55.0951,29.9219 54.3294,29.9219 Z " fill="#000000"/><text fill="#000000" font-family="sans-serif" font-size="14" lengthAdjust="spacing" textLength="48.2549" x="74.6297" y="27.8467">Enemy</text><line style="stroke:#181818;stroke-width:0.5;" x1="14.9" x2="150.8453" y1="39" y2="39"/><rect fill="transparent" height="6" style="stroke:#C82930;stroke-width:1;" width="6" x="21.9" y="49.6484"/><text fill="#000000" font-family="sans-serif" font-size="14" lengthAdjust="spacing" textLength="111.9453" x="33.9" y="55.9951">Player objective</text><line style="stroke:#181818;stroke-width:0.5;" x1="14.9" x2="150.8453" y1="63.2969" y2="63.2969"/></g><!--class Player--><g id="elem_Player"><rect codeLine="4" fill="#F1F1F1" height="64.2969" id="Player" rx="2.5" ry="2.5" style="stroke:#181818;stroke-width:0.5;" width="151.7402" x="7" y="148.29"/><ellipse cx="56.8374" cy="164.29" fill="#ADD1B2" rx="11" ry="11" style="stroke:#181818;stroke-width:1;"/><path d="M56.3062,171.2119 Q54.5562,171.2119 53.4155,170.4775 Q52.2905,169.7275 51.728,168.3837 Q51.1812,167.0244 51.1812,165.2275 Q51.1812,163.1962 51.8374,161.7431 Q52.4937,160.29 53.7749,159.5087 Q55.0562,158.7275 56.9312,158.7275 Q57.8218,158.7275 58.4937,158.915 Q59.1655,159.0869 59.853,159.4306 L59.0405,161.4462 Q58.4155,161.1337 57.8687,161.0087 Q57.3374,160.8837 56.853,160.8837 Q55.6812,160.8837 54.978,161.415 Q54.2749,161.9462 53.978,162.8994 Q53.6812,163.8525 53.6812,165.1181 Q53.6812,167.1337 54.3999,168.1025 Q55.1187,169.0556 56.7124,169.0556 Q57.3062,169.0556 57.9312,168.8994 Q58.5562,168.7431 59.3843,168.3681 L59.3843,170.5869 Q58.6499,170.8994 57.853,171.0556 Q57.0718,171.2119 56.3062,171.2119 Z " fill="#000000"/><text fill="#000000" font-family="sans-serif" font-size="14" lengthAdjust="spacing" textLength="43.5654" x="77.3374" y="169.1367">Player</text><line style="stroke:#181818;stroke-width:0.5;" x1="8" x2="157.7402" y1="180.29" y2="180.29"/><rect fill="transparent" height="6" style="stroke:#C82930;stroke-width:1;" width="6" x="15" y="190.9384"/><text fill="#000000" font-family="sans-serif" font-size="14" lengthAdjust="spacing" textLength="125.7402" x="27" y="197.2851">Weapon objective</text><line style="stroke:#181818;stroke-width:0.5;" x1="8" x2="157.7402" y1="204.5869" y2="204.5869"/></g><!--class Weapon--><g id="elem_Weapon"><rect fill="#F1F1F1" height="48" id="Weapon" rx="2.5" ry="2.5" style="stroke:#181818;stroke-width:0.5;" width="89.3604" x="38.19" y="289.59"/><ellipse cx="53.19" cy="305.59" fill="#ADD1B2" rx="11" ry="11" style="stroke:#181818;stroke-width:1;"/><path d="M52.6588,312.5119 Q50.9088,312.5119 49.7681,311.7775 Q48.6431,311.0275 48.0806,309.6838 Q47.5338,308.3244 47.5338,306.5275 Q47.5338,304.4963 48.19,303.0431 Q48.8463,301.59 50.1275,300.8088 Q51.4088,300.0275 53.2838,300.0275 Q54.1744,300.0275 54.8463,300.215 Q55.5181,300.3869 56.2056,300.7306 L55.3931,302.7463 Q54.7681,302.4338 54.2213,302.3088 Q53.69,302.1838 53.2056,302.1838 Q52.0338,302.1838 51.3306,302.715 Q50.6275,303.2463 50.3306,304.1994 Q50.0338,305.1525 50.0338,306.4181 Q50.0338,308.4338 50.7525,309.4025 Q51.4713,310.3556 53.065,310.3556 Q53.6588,310.3556 54.2838,310.1994 Q54.9088,310.0431 55.7369,309.6681 L55.7369,311.8869 Q55.0025,312.1994 54.2056,312.3556 Q53.4244,312.5119 52.6588,312.5119 Z " fill="#000000"/><text fill="#000000" font-family="sans-serif" font-size="14" lengthAdjust="spacing" textLength="57.3604" x="67.19" y="310.4367">Weapon</text><line style="stroke:#181818;stroke-width:0.5;" x1="39.19" x2="126.5504" y1="321.59" y2="321.59"/><line style="stroke:#181818;stroke-width:0.5;" x1="39.19" x2="126.5504" y1="329.59" y2="329.59"/></g><!--link Player to Weapon--><g id="link_Player_Weapon"><path codeLine="7" d="M82.87,212.85 C82.87,236.35 82.87,261.95 82.87,283.24 " fill="transparent" id="Player-to-Weapon" style="stroke:#181818;stroke-width:1;"/><polygon fill="#181818" points="82.87,289.24,86.87,280.24,82.87,284.24,78.87,280.24,82.87,289.24" style="stroke:#181818;stroke-width:1;"/><text fill="#000000" font-family="sans-serif" font-size="13" lengthAdjust="spacing" textLength="22.9658" x="83.87" y="255.6569">uso</text></g><!--link Enemy to Player--><g id="link_Enemy_Player"><path codeLine="8" d="M82.87,71.75 C82.87,94.55 82.87,119.19 82.87,141.96 " fill="transparent" id="Enemy-to-Player" style="stroke:#181818;stroke-width:1;"/><polygon fill="#181818" points="82.87,147.96,86.87,138.96,82.87,142.96,78.87,138.96,82.87,147.96" style="stroke:#181818;stroke-width:1;"/><text fill="#000000" font-family="sans-serif" font-size="13" lengthAdjust="spacing" textLength="22.9658" x="83.87" y="114.3569">uso</text></g><!--SRC=[Iyv9B2vMSCrBpQrKgEPI00BTW9p4ojGYXVoahDJaaiooLAvQhcImAgW4L5buQc91VXwACgW2NLqx1QYibK9fSJuNn7YGC5G5M1W0]--></g></svg>