<svg xmlns="http://www.w3.org/2000/svg" xmlns:xlink="http://www.w3.org/1999/xlink" contentStyleType="text/css" height="354px" preserveAspectRatio="none" style="width:157px;height:354px;background:#FFFFFF;" version="1.1" viewBox="0 0 157 354" width="157px" zoomAndPan="magnify"><defs/><g><!--class Enemy--><g id="elem_Enemy"><rect codeLine="1" fill="#F1F1F1" height="67.0679" id="Enemy" rx="2.5" ry="2.5" style="stroke:#181818;stroke-width:0.5;" width="129.3756" x="13.87" y="7"/><ellipse cx="52.6362" cy="23" fill="#ADD1B2" rx="11" ry="11" style="stroke:#181818;stroke-width:1;"/><path d="M52.105,29.9219 Q50.355,29.9219 49.2143,29.1875 Q48.0893,28.4375 47.5268,27.0938 Q46.98,25.7344 46.98,23.9375 Q46.98,21.9063 47.6362,20.4531 Q48.2925,19 49.5737,18.2188 Q50.855,17.4375 52.73,17.4375 Q53.6206,17.4375 54.2925,17.625 Q54.9643,17.7969 55.6518,18.1406 L54.8393,20.1563 Q54.2143,19.8438 53.6675,19.7188 Q53.1362,19.5938 52.6518,19.5938 Q51.48,19.5938 50.7768,20.125 Q50.0737,20.6563 49.7768,21.6094 Q49.48,22.5625 49.48,23.8281 Q49.48,25.8438 50.1987,26.8125 Q50.9175,27.7656 52.5112,27.7656 Q53.105,27.7656 53.73,27.6094 Q54.355,27.4531 55.1831,27.0781 L55.1831,29.2969 Q54.4487,29.6094 53.6518,29.7656 Q52.8706,29.9219 52.105,29.9219 Z " fill="#000000"/><text fill="#000000" font-family="sans-serif" font-size="14" lengthAdjust="spacing" textLength="44.5618" x="71.9176" y="28.432">Enemy</text><line style="stroke:#181818;stroke-width:0.5;" x1="14.87" x2="142.2456" y1="39" y2="39"/><rect fill="none" height="6" style="stroke:#C82930;stroke-width:1;" width="6" x="21.87" y="51.034"/><text fill="#000000" font-family="sans-serif" font-size="14" lengthAdjust="spacing" textLength="103.3756" x="33.87" y="57.9659">Player objective</text><line style="stroke:#181818;stroke-width:0.5;" x1="14.87" x2="142.2456" y1="66.0679" y2="66.0679"/></g><!--class Player--><g id="elem_Player"><rect codeLine="4" fill="#F1F1F1" height="67.0679" id="Player" rx="2.5" ry="2.5" style="stroke:#181818;stroke-width:0.5;" width="143.1235" x="7" y="153.07"/><ellipse cx="53.9348" cy="169.07" fill="#ADD1B2" rx="11" ry="11" style="stroke:#181818;stroke-width:1;"/><path d="M53.4036,175.9919 Q51.6536,175.9919 50.513,175.2575 Q49.388,174.5075 48.8255,173.1638 Q48.2786,171.8044 48.2786,170.0075 Q48.2786,167.9763 48.9348,166.5231 Q49.5911,165.07 50.8723,164.2888 Q52.1536,163.5075 54.0286,163.5075 Q54.9192,163.5075 55.5911,163.695 Q56.263,163.8669 56.9505,164.2106 L56.138,166.2263 Q55.513,165.9138 54.9661,165.7888 Q54.4348,165.6638 53.9505,165.6638 Q52.7786,165.6638 52.0755,166.195 Q51.3723,166.7263 51.0755,167.6794 Q50.7786,168.6325 50.7786,169.8981 Q50.7786,171.9138 51.4973,172.8825 Q52.2161,173.8356 53.8098,173.8356 Q54.4036,173.8356 55.0286,173.6794 Q55.6536,173.5231 56.4817,173.1481 L56.4817,175.3669 Q55.7473,175.6794 54.9505,175.8356 Q54.1692,175.9919 53.4036,175.9919 Z " fill="#000000"/><text fill="#000000" font-family="sans-serif" font-size="14" lengthAdjust="spacing" textLength="40.7538" x="74.4348" y="174.502">Player</text><line style="stroke:#181818;stroke-width:0.5;" x1="8" x2="149.1235" y1="185.07" y2="185.07"/><rect fill="none" height="6" style="stroke:#C82930;stroke-width:1;" width="6" x="15" y="197.104"/><text fill="#000000" font-family="sans-serif" font-size="14" lengthAdjust="spacing" textLength="117.1235" x="27" y="204.0359">Weapon objective</text><line style="stroke:#181818;stroke-width:0.5;" x1="8" x2="149.1235" y1="212.1379" y2="212.1379"/></g><!--class Weapon--><g id="elem_Weapon"><rect fill="#F1F1F1" height="48" id="Weapon" rx="2.5" ry="2.5" style="stroke:#181818;stroke-width:0.5;" width="86.5018" x="35.31" y="299.14"/><ellipse cx="50.31" cy="315.14" fill="#ADD1B2" rx="11" ry="11" style="stroke:#181818;stroke-width:1;"/><path d="M49.7788,322.0619 Q48.0288,322.0619 46.8881,321.3275 Q45.7631,320.5775 45.2006,319.2338 Q44.6538,317.8744 44.6538,316.0775 Q44.6538,314.0463 45.31,312.5931 Q45.9663,311.14 47.2475,310.3588 Q48.5288,309.5775 50.4038,309.5775 Q51.2944,309.5775 51.9663,309.765 Q52.6381,309.9369 53.3256,310.2806 L52.5131,312.2963 Q51.8881,311.9838 51.3413,311.8588 Q50.81,311.7338 50.3256,311.7338 Q49.1538,311.7338 48.4506,312.265 Q47.7475,312.7963 47.4506,313.7494 Q47.1538,314.7025 47.1538,315.9681 Q47.1538,317.9838 47.8725,318.9525 Q48.5913,319.9056 50.185,319.9056 Q50.7788,319.9056 51.4038,319.7494 Q52.0288,319.5931 52.8569,319.2181 L52.8569,321.4369 Q52.1225,321.7494 51.3256,321.9056 Q50.5444,322.0619 49.7788,322.0619 Z " fill="#000000"/><text fill="#000000" font-family="sans-serif" font-size="14" lengthAdjust="spacing" textLength="54.5018" x="64.31" y="320.572">Weapon</text><line style="stroke:#181818;stroke-width:0.5;" x1="36.31" x2="120.8118" y1="331.14" y2="331.14"/><line style="stroke:#181818;stroke-width:0.5;" x1="36.31" x2="120.8118" y1="339.14" y2="339.14"/></g><!--link Player to Weapon--><g id="link_Player_Weapon"><path codeLine="7" d="M78.56,220.52 C78.56,244.79 78.56,271.21 78.56,292.85 " fill="none" id="Player-to-Weapon" style="stroke:#181818;stroke-width:1;"/><polygon fill="#181818" points="78.56,298.85,82.56,289.85,78.56,293.85,74.56,289.85,78.56,298.85" style="stroke:#181818;stroke-width:1;"/><text fill="#000000" font-family="sans-serif" font-size="13" lengthAdjust="spacing" textLength="22.126" x="79.56" y="265.037">uso</text></g><!--link Enemy to Player--><g id="link_Enemy_Player"><path codeLine="8" d="M78.56,74.23 C78.56,97.81 78.56,123.5 78.56,147.04 " fill="none" id="Enemy-to-Player" style="stroke:#181818;stroke-width:1;"/><polygon fill="#181818" points="78.56,153.04,82.56,144.04,78.56,148.04,74.56,144.04,78.56,153.04" style="stroke:#181818;stroke-width:1;"/><text fill="#000000" font-family="sans-serif" font-size="13" lengthAdjust="spacing" textLength="22.126" x="79.56" y="118.967">uso</text></g><!--SRC=[Iyv9B2vMSCrBpQrKgEPI00BTW9p4ojGYXVoahDJaaiooLAvQhcImAgW4L5buQc91VXwACgW2NLqx1QYibK9fSJuNn7YGC5G5M1W0]--></g></svg>