<svg xmlns="http://www.w3.org/2000/svg" xmlns:xlink="http://www.w3.org/1999/xlink" contentStyleType="text/css" height="88px" preserveAspectRatio="none" style="width:104px;height:88px;background:#FFFFFF;" version="1.1" viewBox="0 0 104 88" width="104px" zoomAndPan="magnify"><defs/><g><!--class Fruta--><g id="elem_Fruta"><rect codeLine="1" fill="#F1F1F1" height="67.0679" id="Fruta" rx="2.5" ry="2.5" style="stroke:#181818;stroke-width:0.5;" width="83.9317" x="7" y="7"/><ellipse cx="29.7957" cy="23" fill="#ADD1B2" rx="11" ry="11" style="stroke:#181818;stroke-width:1;"/><path d="M29.2645,29.9219 Q27.5145,29.9219 26.3739,29.1875 Q25.2489,28.4375 24.6864,27.0938 Q24.1395,25.7344 24.1395,23.9375 Q24.1395,21.9063 24.7957,20.4531 Q25.452,19 26.7332,18.2188 Q28.0145,17.4375 29.8895,17.4375 Q30.7801,17.4375 31.452,17.625 Q32.1239,17.7969 32.8114,18.1406 L31.9989,20.1563 Q31.3739,19.8438 30.827,19.7188 Q30.2957,19.5938 29.8114,19.5938 Q28.6395,19.5938 27.9364,20.125 Q27.2332,20.6563 26.9364,21.6094 Q26.6395,22.5625 26.6395,23.8281 Q26.6395,25.8438 27.3582,26.8125 Q28.077,27.7656 29.6707,27.7656 Q30.2645,27.7656 30.8895,27.6094 Q31.5145,27.4531 32.3426,27.0781 L32.3426,29.2969 Q31.6082,29.6094 30.8114,29.7656 Q30.0301,29.9219 29.2645,29.9219 Z " fill="#000000"/><text fill="#000000" font-family="sans-serif" font-size="14" lengthAdjust="spacing" textLength="34.6079" x="45.5281" y="28.432">Fruta</text><line style="stroke:#181818;stroke-width:0.5;" x1="8" x2="89.9317" y1="39" y2="39"/><text fill="#000000" font-family="sans-serif" font-size="14" lengthAdjust="spacing" textLength="71.9317" x="13" y="57.9659">int tama&#241;o</text><line style="stroke:#181818;stroke-width:0.5;" x1="8" x2="89.9317" y1="66.0679" y2="66.0679"/></g><!--SRC=[Iyv9B2vMS2igBKbKgEPI08BCl1A5aiJSnCCRyxbg0G00]--></g></svg>