<svg xmlns="http://www.w3.org/2000/svg" xmlns:xlink="http://www.w3.org/1999/xlink" contentStyleType="text/css" data-diagram-type="CLASS" height="85px" preserveAspectRatio="none" style="width:109px;height:85px;background:#FFFFFF;" version="1.1" viewBox="0 0 109 85" width="109px" zoomAndPan="magnify"><defs/><g><!--class Fruta--><g id="elem_Fruta"><rect codeLine="1" fill="#F1F1F1" height="64.2969" id="Fruta" rx="2.5" ry="2.5" style="stroke:#181818;stroke-width:0.5;" width="88.4258" x="7" y="7"/><ellipse cx="30.8541" cy="23" fill="#ADD1B2" rx="11" ry="11" style="stroke:#181818;stroke-width:1;"/><path d="M30.3229,29.9219 Q28.5729,29.9219 27.4322,29.1875 Q26.3072,28.4375 25.7447,27.0938 Q25.1979,25.7344 25.1979,23.9375 Q25.1979,21.9063 25.8541,20.4531 Q26.5104,19 27.7916,18.2188 Q29.0729,17.4375 30.9479,17.4375 Q31.8385,17.4375 32.5104,17.625 Q33.1822,17.7969 33.8697,18.1406 L33.0572,20.1563 Q32.4322,19.8438 31.8854,19.7188 Q31.3541,19.5938 30.8697,19.5938 Q29.6979,19.5938 28.9947,20.125 Q28.2916,20.6563 27.9947,21.6094 Q27.6979,22.5625 27.6979,23.8281 Q27.6979,25.8438 28.4166,26.8125 Q29.1354,27.7656 30.7291,27.7656 Q31.3229,27.7656 31.9479,27.6094 Q32.5729,27.4531 33.401,27.0781 L33.401,29.2969 Q32.6666,29.6094 31.8697,29.7656 Q31.0885,29.9219 30.3229,29.9219 Z " fill="#000000"/><text fill="#000000" font-family="sans-serif" font-size="14" lengthAdjust="spacing" textLength="36.75" x="46.8217" y="27.8467">Fruta</text><line style="stroke:#181818;stroke-width:0.5;" x1="8" x2="94.4258" y1="39" y2="39"/><text fill="#000000" font-family="sans-serif" font-size="14" lengthAdjust="spacing" textLength="76.4258" x="13" y="55.9951">int tama&#241;o</text><line style="stroke:#181818;stroke-width:0.5;" x1="8" x2="94.4258" y1="63.2969" y2="63.2969"/></g><!--SRC=[Iyv9B2vMS2igBKbKgEPI08BCl1A5aiJSnCCRyxbg0G00]--></g></svg>