<svg xmlns="http://www.w3.org/2000/svg" xmlns:xlink="http://www.w3.org/1999/xlink" contentStyleType="text/css" height="170px" preserveAspectRatio="none" style="width:167px;height:170px;background:#FFFFFF;" version="1.1" viewBox="0 0 167 170" width="167px" zoomAndPan="magnify"><defs/><g><!--class Fruta--><g id="elem_Fruta"><rect fill="#F1F1F1" height="48" id="Fruta" rx="2.5" ry="2.5" style="stroke:#181818;stroke-width:0.5;" width="66.6079" x="52.36" y="7"/><ellipse cx="67.36" cy="23" fill="#ADD1B2" rx="11" ry="11" style="stroke:#181818;stroke-width:1;"/><path d="M66.8288,29.9219 Q65.0788,29.9219 63.9381,29.1875 Q62.8131,28.4375 62.2506,27.0938 Q61.7038,25.7344 61.7038,23.9375 Q61.7038,21.9063 62.36,20.4531 Q63.0163,19 64.2975,18.2188 Q65.5788,17.4375 67.4538,17.4375 Q68.3444,17.4375 69.0163,17.625 Q69.6881,17.7969 70.3756,18.1406 L69.5631,20.1563 Q68.9381,19.8438 68.3913,19.7188 Q67.86,19.5938 67.3756,19.5938 Q66.2038,19.5938 65.5006,20.125 Q64.7975,20.6563 64.5006,21.6094 Q64.2038,22.5625 64.2038,23.8281 Q64.2038,25.8438 64.9225,26.8125 Q65.6413,27.7656 67.235,27.7656 Q67.8288,27.7656 68.4538,27.6094 Q69.0788,27.4531 69.9069,27.0781 L69.9069,29.2969 Q69.1725,29.6094 68.3756,29.7656 Q67.5944,29.9219 66.8288,29.9219 Z " fill="#000000"/><text fill="#000000" font-family="sans-serif" font-size="14" lengthAdjust="spacing" textLength="34.6079" x="81.36" y="28.432">Fruta</text><line style="stroke:#181818;stroke-width:0.5;" x1="53.36" x2="117.9679" y1="39" y2="39"/><line style="stroke:#181818;stroke-width:0.5;" x1="53.36" x2="117.9679" y1="47" y2="47"/></g><!--class Tallo--><g id="elem_Tallo"><rect fill="#F1F1F1" height="48" id="Tallo" rx="2.5" ry="2.5" style="stroke:#181818;stroke-width:0.5;" width="63.3319" x="7" y="115"/><ellipse cx="22" cy="131" fill="#ADD1B2" rx="11" ry="11" style="stroke:#181818;stroke-width:1;"/><path d="M21.4688,137.9219 Q19.7188,137.9219 18.5781,137.1875 Q17.4531,136.4375 16.8906,135.0938 Q16.3438,133.7344 16.3438,131.9375 Q16.3438,129.9063 17,128.4531 Q17.6563,127 18.9375,126.2188 Q20.2188,125.4375 22.0938,125.4375 Q22.9844,125.4375 23.6563,125.625 Q24.3281,125.7969 25.0156,126.1406 L24.2031,128.1563 Q23.5781,127.8438 23.0313,127.7188 Q22.5,127.5938 22.0156,127.5938 Q20.8438,127.5938 20.1406,128.125 Q19.4375,128.6563 19.1406,129.6094 Q18.8438,130.5625 18.8438,131.8281 Q18.8438,133.8438 19.5625,134.8125 Q20.2813,135.7656 21.875,135.7656 Q22.4688,135.7656 23.0938,135.6094 Q23.7188,135.4531 24.5469,135.0781 L24.5469,137.2969 Q23.8125,137.6094 23.0156,137.7656 Q22.2344,137.9219 21.4688,137.9219 Z " fill="#000000"/><text fill="#000000" font-family="sans-serif" font-size="14" lengthAdjust="spacing" textLength="31.3319" x="36" y="136.432">Tallo</text><line style="stroke:#181818;stroke-width:0.5;" x1="8" x2="69.3319" y1="147" y2="147"/><line style="stroke:#181818;stroke-width:0.5;" x1="8" x2="69.3319" y1="155" y2="155"/></g><!--class Piel--><g id="elem_Piel"><rect fill="#F1F1F1" height="48" id="Piel" rx="2.5" ry="2.5" style="stroke:#181818;stroke-width:0.5;" width="55.5899" x="104.87" y="115"/><ellipse cx="119.87" cy="131" fill="#ADD1B2" rx="11" ry="11" style="stroke:#181818;stroke-width:1;"/><path d="M119.3388,137.9219 Q117.5888,137.9219 116.4481,137.1875 Q115.3231,136.4375 114.7606,135.0938 Q114.2138,133.7344 114.2138,131.9375 Q114.2138,129.9063 114.87,128.4531 Q115.5263,127 116.8075,126.2188 Q118.0888,125.4375 119.9638,125.4375 Q120.8544,125.4375 121.5263,125.625 Q122.1981,125.7969 122.8856,126.1406 L122.0731,128.1563 Q121.4481,127.8438 120.9013,127.7188 Q120.37,127.5938 119.8856,127.5938 Q118.7138,127.5938 118.0106,128.125 Q117.3075,128.6563 117.0106,129.6094 Q116.7138,130.5625 116.7138,131.8281 Q116.7138,133.8438 117.4325,134.8125 Q118.1513,135.7656 119.745,135.7656 Q120.3388,135.7656 120.9638,135.6094 Q121.5888,135.4531 122.4169,135.0781 L122.4169,137.2969 Q121.6825,137.6094 120.8856,137.7656 Q120.1044,137.9219 119.3388,137.9219 Z " fill="#000000"/><text fill="#000000" font-family="sans-serif" font-size="14" lengthAdjust="spacing" textLength="23.5899" x="133.87" y="136.432">Piel</text><line style="stroke:#181818;stroke-width:0.5;" x1="105.87" x2="159.4599" y1="147" y2="147"/><line style="stroke:#181818;stroke-width:0.5;" x1="105.87" x2="159.4599" y1="155" y2="155"/></g><!--reverse link Fruta to Tallo--><g id="link_Fruta_Tallo"><path codeLine="2" d="M70.4907,66.2321 C62.6607,83.9121 56.79,97.13 48.96,114.79 " fill="none" id="Fruta-backto-Tallo" style="stroke:#181818;stroke-width:1;"/><polygon fill="#181818" points="75.35,55.26,69.263,59.1263,70.4907,66.2321,76.5777,62.3658,75.35,55.26" style="stroke:#181818;stroke-width:1;"/></g><!--reverse link Fruta to Piel--><g id="link_Fruta_Piel"><path codeLine="3" d="M100.8444,66.2298 C108.6844,83.9098 114.55,97.13 122.38,114.79 " fill="none" id="Fruta-backto-Piel" style="stroke:#181818;stroke-width:1;"/><polygon fill="#181818" points="95.98,55.26,94.7556,62.3664,100.8444,66.2298,102.0688,59.1234,95.98,55.26" style="stroke:#181818;stroke-width:1;"/></g><!--SRC=[SoigBKbKqDBLLGX9pCd9vtA3ymCoKtEu0000]--></g></svg>