<svg xmlns="http://www.w3.org/2000/svg" xmlns:xlink="http://www.w3.org/1999/xlink" contentStyleType="text/css" data-diagram-type="CLASS" height="155px" preserveAspectRatio="none" style="width:301px;height:155px;background:#FFFFFF;" version="1.1" viewBox="0 0 301 155" width="301px" zoomAndPan="magnify"><defs/><g><!--class Weapon--><g id="elem_Weapon"><rect fill="#F1F1F1" height="32" id="Weapon" rx="2.5" ry="2.5" style="stroke:#181818;stroke-width:0.5;" width="89.3604" x="102.2" y="7"/><ellipse cx="117.2" cy="23" fill="#ADD1B2" rx="11" ry="11" style="stroke:#181818;stroke-width:1;"/><path d="M116.6688,29.9219 Q114.9188,29.9219 113.7781,29.1875 Q112.6531,28.4375 112.0906,27.0938 Q111.5438,25.7344 111.5438,23.9375 Q111.5438,21.9063 112.2,20.4531 Q112.8563,19 114.1375,18.2188 Q115.4188,17.4375 117.2938,17.4375 Q118.1844,17.4375 118.8563,17.625 Q119.5281,17.7969 120.2156,18.1406 L119.4031,20.1563 Q118.7781,19.8438 118.2313,19.7188 Q117.7,19.5938 117.2156,19.5938 Q116.0438,19.5938 115.3406,20.125 Q114.6375,20.6563 114.3406,21.6094 Q114.0438,22.5625 114.0438,23.8281 Q114.0438,25.8438 114.7625,26.8125 Q115.4813,27.7656 117.075,27.7656 Q117.6688,27.7656 118.2938,27.6094 Q118.9188,27.4531 119.7469,27.0781 L119.7469,29.2969 Q119.0125,29.6094 118.2156,29.7656 Q117.4344,29.9219 116.6688,29.9219 Z " fill="#000000"/><text fill="#000000" font-family="sans-serif" font-size="14" lengthAdjust="spacing" textLength="57.3604" x="131.2" y="27.8467">Weapon</text></g><!--class AttackPower--><g id="elem_AttackPower"><rect fill="#F1F1F1" height="32" id="AttackPower" rx="2.5" ry="2.5" style="stroke:#181818;stroke-width:0.5;" width="119.7666" x="7" y="116"/><ellipse cx="22" cy="132" fill="#ADD1B2" rx="11" ry="11" style="stroke:#181818;stroke-width:1;"/><path d="M21.4688,138.9219 Q19.7188,138.9219 18.5781,138.1875 Q17.4531,137.4375 16.8906,136.0938 Q16.3438,134.7344 16.3438,132.9375 Q16.3438,130.9063 17,129.4531 Q17.6563,128 18.9375,127.2188 Q20.2188,126.4375 22.0938,126.4375 Q22.9844,126.4375 23.6563,126.625 Q24.3281,126.7969 25.0156,127.1406 L24.2031,129.1563 Q23.5781,128.8438 23.0313,128.7188 Q22.5,128.5938 22.0156,128.5938 Q20.8438,128.5938 20.1406,129.125 Q19.4375,129.6563 19.1406,130.6094 Q18.8438,131.5625 18.8438,132.8281 Q18.8438,134.8438 19.5625,135.8125 Q20.2813,136.7656 21.875,136.7656 Q22.4688,136.7656 23.0938,136.6094 Q23.7188,136.4531 24.5469,136.0781 L24.5469,138.2969 Q23.8125,138.6094 23.0156,138.7656 Q22.2344,138.9219 21.4688,138.9219 Z " fill="#000000"/><text fill="#000000" font-family="sans-serif" font-size="14" lengthAdjust="spacing" textLength="87.7666" x="36" y="136.8467">AttackPower</text></g><!--class DefensePower--><g id="elem_DefensePower"><rect fill="#F1F1F1" height="32" id="DefensePower" rx="2.5" ry="2.5" style="stroke:#181818;stroke-width:0.5;" width="132.543" x="161.61" y="116"/><ellipse cx="176.61" cy="132" fill="#ADD1B2" rx="11" ry="11" style="stroke:#181818;stroke-width:1;"/><path d="M176.0788,138.9219 Q174.3288,138.9219 173.1881,138.1875 Q172.0631,137.4375 171.5006,136.0938 Q170.9538,134.7344 170.9538,132.9375 Q170.9538,130.9063 171.61,129.4531 Q172.2663,128 173.5475,127.2188 Q174.8288,126.4375 176.7038,126.4375 Q177.5944,126.4375 178.2663,126.625 Q178.9381,126.7969 179.6256,127.1406 L178.8131,129.1563 Q178.1881,128.8438 177.6413,128.7188 Q177.11,128.5938 176.6256,128.5938 Q175.4538,128.5938 174.7506,129.125 Q174.0475,129.6563 173.7506,130.6094 Q173.4538,131.5625 173.4538,132.8281 Q173.4538,134.8438 174.1725,135.8125 Q174.8913,136.7656 176.485,136.7656 Q177.0788,136.7656 177.7038,136.6094 Q178.3288,136.4531 179.1569,136.0781 L179.1569,138.2969 Q178.4225,138.6094 177.6256,138.7656 Q176.8444,138.9219 176.0788,138.9219 Z " fill="#000000"/><text fill="#000000" font-family="sans-serif" font-size="14" lengthAdjust="spacing" textLength="100.543" x="190.61" y="136.8467">DefensePower</text></g><!--reverse link Weapon to AttackPower--><g id="link_Weapon_AttackPower"><path codeLine="1" d="M128.2336,48.9402 C113.0236,69.2802 93.52,95.37 78.32,115.7 " fill="transparent" id="Weapon-backto-AttackPower" style="stroke:#181818;stroke-width:1;"/><polygon fill="#181818" points="135.42,39.33,128.6234,41.7396,128.2336,48.9402,135.0302,46.5306,135.42,39.33" style="stroke:#181818;stroke-width:1;"/><text fill="#000000" font-family="sans-serif" font-size="13" lengthAdjust="spacing" textLength="55.0405" x="112.67" y="82.0669">parte de</text></g><!--reverse link Weapon to DefensePower--><g id="link_Weapon_DefensePower"><path codeLine="2" d="M165.7336,48.8972 C181.1336,69.2372 200.91,95.37 216.3,115.7 " fill="transparent" id="Weapon-backto-DefensePower" style="stroke:#181818;stroke-width:1;"/><polygon fill="#181818" points="158.49,39.33,158.9227,46.5281,165.7336,48.8972,165.3008,41.6991,158.49,39.33" style="stroke:#181818;stroke-width:1;"/><text fill="#000000" font-family="sans-serif" font-size="13" lengthAdjust="spacing" textLength="55.0405" x="193.23" y="82.0669">parte de</text></g><!--SRC=[2qzDBCZFKz3IrLLmB2b9JCuEo2zFBLAmKYX8B2f9LKX9vGf7g719JKlDAqx5K9AHcPAga9kQcvHQL0m0]--></g></svg>