<?xml version="1.0" encoding="UTF-8" standalone="no"?>
<!DOCTYPE svg PUBLIC "-//W3C//DTD SVG 1.1//EN"
 "http://www.w3.org/Graphics/SVG/1.1/DTD/svg11.dtd">
<!-- Generated by graphviz version 2.47.3 (20210619.1520)
 -->
<!-- Pages: 1 -->
<svg width="547pt" height="44pt"
 viewBox="0.00 0.00 546.78 44.00" xmlns="http://www.w3.org/2000/svg" xmlns:xlink="http://www.w3.org/1999/xlink">
<g id="graph0" class="graph" transform="scale(1 1) rotate(0) translate(4 40)">
<!-- processor -->
<g id="node1" class="node">
<title>processor</title>
<polygon fill="none" stroke="black" points="538.78,-36 460.78,-36 460.78,0 538.78,0 538.78,-36"/>
<text text-anchor="middle" x="499.78" y="-14.3" font-family="Times,serif" font-size="14.00">procesador</text>
</g>
<!-- compile -->
<g id="node2" class="node">
<title>compile</title>
<ellipse fill="none" stroke="black" cx="293.33" cy="-18" rx="60.39" ry="18"/>
<text text-anchor="middle" x="293.33" y="-14.3" font-family="Times,serif" font-size="14.00">código objeto</text>
</g>
<!-- compile&#45;&gt;processor -->
<g id="edge2" class="edge">
<title>compile&#45;&gt;processor</title>
<path fill="none" stroke="black" d="M354.02,-18C384.67,-18 421.53,-18 450.39,-18"/>
<polygon fill="black" stroke="black" points="450.63,-21.5 460.63,-18 450.63,-14.5 450.63,-21.5"/>
<text text-anchor="middle" x="407.28" y="-21.8" font-family="Times,serif" font-size="14.00">ejecutado en</text>
</g>
<!-- source -->
<g id="node3" class="node">
<title>source</title>
<ellipse fill="none" stroke="black" cx="60.44" cy="-18" rx="60.39" ry="18"/>
<text text-anchor="middle" x="60.44" y="-14.3" font-family="Times,serif" font-size="14.00">código fuente</text>
</g>
<!-- source&#45;&gt;compile -->
<g id="edge1" class="edge">
<title>source&#45;&gt;compile</title>
<path fill="none" stroke="black" d="M120.9,-18C151.89,-18 189.98,-18 222.37,-18"/>
<polygon fill="black" stroke="black" points="222.67,-21.5 232.67,-18 222.67,-14.5 222.67,-21.5"/>
<text text-anchor="middle" x="176.89" y="-21.8" font-family="Times,serif" font-size="14.00">compilado en</text>
</g>
</g>
</svg>
