<svg xmlns="http://www.w3.org/2000/svg" xmlns:xlink="http://www.w3.org/1999/xlink" contentStyleType="text/css" height="157px" preserveAspectRatio="none" style="width:291px;height:157px;background:#FFFFFF;" version="1.1" viewBox="0 0 291 157" width="291px" zoomAndPan="magnify"><defs/><g><!--class Weapon--><g id="elem_Weapon"><rect fill="#F1F1F1" height="32" id="Weapon" rx="2.5" ry="2.5" style="stroke:#181818;stroke-width:0.5;" width="86.5018" x="99.11" y="7"/><ellipse cx="114.11" cy="23" fill="#ADD1B2" rx="11" ry="11" style="stroke:#181818;stroke-width:1;"/><path d="M113.5788,29.9219 Q111.8288,29.9219 110.6881,29.1875 Q109.5631,28.4375 109.0006,27.0938 Q108.4538,25.7344 108.4538,23.9375 Q108.4538,21.9063 109.11,20.4531 Q109.7663,19 111.0475,18.2188 Q112.3288,17.4375 114.2038,17.4375 Q115.0944,17.4375 115.7663,17.625 Q116.4381,17.7969 117.1256,18.1406 L116.3131,20.1563 Q115.6881,19.8438 115.1413,19.7188 Q114.61,19.5938 114.1256,19.5938 Q112.9538,19.5938 112.2506,20.125 Q111.5475,20.6563 111.2506,21.6094 Q110.9538,22.5625 110.9538,23.8281 Q110.9538,25.8438 111.6725,26.8125 Q112.3913,27.7656 113.985,27.7656 Q114.5788,27.7656 115.2038,27.6094 Q115.8288,27.4531 116.6569,27.0781 L116.6569,29.2969 Q115.9225,29.6094 115.1256,29.7656 Q114.3444,29.9219 113.5788,29.9219 Z " fill="#000000"/><text fill="#000000" font-family="sans-serif" font-size="14" lengthAdjust="spacing" textLength="54.5018" x="128.11" y="28.432">Weapon</text></g><!--class AttackPower--><g id="elem_AttackPower"><rect fill="#F1F1F1" height="32" id="AttackPower" rx="2.5" ry="2.5" style="stroke:#181818;stroke-width:0.5;" width="114.7257" x="7" y="118"/><ellipse cx="22" cy="134" fill="#ADD1B2" rx="11" ry="11" style="stroke:#181818;stroke-width:1;"/><path d="M21.4688,140.9219 Q19.7188,140.9219 18.5781,140.1875 Q17.4531,139.4375 16.8906,138.0938 Q16.3438,136.7344 16.3438,134.9375 Q16.3438,132.9063 17,131.4531 Q17.6563,130 18.9375,129.2188 Q20.2188,128.4375 22.0938,128.4375 Q22.9844,128.4375 23.6563,128.625 Q24.3281,128.7969 25.0156,129.1406 L24.2031,131.1563 Q23.5781,130.8438 23.0313,130.7188 Q22.5,130.5938 22.0156,130.5938 Q20.8438,130.5938 20.1406,131.125 Q19.4375,131.6563 19.1406,132.6094 Q18.8438,133.5625 18.8438,134.8281 Q18.8438,136.8438 19.5625,137.8125 Q20.2813,138.7656 21.875,138.7656 Q22.4688,138.7656 23.0938,138.6094 Q23.7188,138.4531 24.5469,138.0781 L24.5469,140.2969 Q23.8125,140.6094 23.0156,140.7656 Q22.2344,140.9219 21.4688,140.9219 Z " fill="#000000"/><text fill="#000000" font-family="sans-serif" font-size="14" lengthAdjust="spacing" textLength="82.7257" x="36" y="139.432">AttackPower</text></g><!--class DefensePower--><g id="elem_DefensePower"><rect fill="#F1F1F1" height="32" id="DefensePower" rx="2.5" ry="2.5" style="stroke:#181818;stroke-width:0.5;" width="127.7036" x="156.51" y="118"/><ellipse cx="171.51" cy="134" fill="#ADD1B2" rx="11" ry="11" style="stroke:#181818;stroke-width:1;"/><path d="M170.9788,140.9219 Q169.2288,140.9219 168.0881,140.1875 Q166.9631,139.4375 166.4006,138.0938 Q165.8538,136.7344 165.8538,134.9375 Q165.8538,132.9063 166.51,131.4531 Q167.1663,130 168.4475,129.2188 Q169.7288,128.4375 171.6038,128.4375 Q172.4944,128.4375 173.1663,128.625 Q173.8381,128.7969 174.5256,129.1406 L173.7131,131.1563 Q173.0881,130.8438 172.5413,130.7188 Q172.01,130.5938 171.5256,130.5938 Q170.3538,130.5938 169.6506,131.125 Q168.9475,131.6563 168.6506,132.6094 Q168.3538,133.5625 168.3538,134.8281 Q168.3538,136.8438 169.0725,137.8125 Q169.7913,138.7656 171.385,138.7656 Q171.9788,138.7656 172.6038,138.6094 Q173.2288,138.4531 174.0569,138.0781 L174.0569,140.2969 Q173.3225,140.6094 172.5256,140.7656 Q171.7444,140.9219 170.9788,140.9219 Z " fill="#000000"/><text fill="#000000" font-family="sans-serif" font-size="14" lengthAdjust="spacing" textLength="95.7036" x="185.51" y="139.432">DefensePower</text></g><!--reverse link Weapon to AttackPower--><g id="link_Weapon_AttackPower"><path codeLine="1" d="M124.5344,48.9172 C109.7144,69.6172 90.27,96.8 75.37,117.62 " fill="none" id="Weapon-backto-AttackPower" style="stroke:#181818;stroke-width:1;"/><polygon fill="#181818" points="131.52,39.16,124.7748,41.7101,124.5344,48.9172,131.2796,46.3671,131.52,39.16" style="stroke:#181818;stroke-width:1;"/><text fill="#000000" font-family="sans-serif" font-size="13" lengthAdjust="spacing" textLength="51.389" x="109.03" y="83.897">parte de</text></g><!--reverse link Weapon to DefensePower--><g id="link_Weapon_DefensePower"><path codeLine="2" d="M160.1956,48.9172 C175.0156,69.6172 194.46,96.8 209.36,117.62 " fill="none" id="Weapon-backto-DefensePower" style="stroke:#181818;stroke-width:1;"/><polygon fill="#181818" points="153.21,39.16,153.4504,46.3671,160.1956,48.9172,159.9552,41.7101,153.21,39.16" style="stroke:#181818;stroke-width:1;"/><text fill="#000000" font-family="sans-serif" font-size="13" lengthAdjust="spacing" textLength="51.389" x="187.03" y="83.897">parte de</text></g><!--SRC=[2qzDBCZFKz3IrLLmB2b9JCuEo2zFBLAmKYX8B2f9LKX9vGf7g719JKlDAqx5K9AHcPAga9kQcvHQL0m0]--></g></svg>