<?xml version="1.0" encoding="UTF-8" standalone="no"?>
<!DOCTYPE svg PUBLIC "-//W3C//DTD SVG 1.1//EN"
 "http://www.w3.org/Graphics/SVG/1.1/DTD/svg11.dtd">
<!-- Generated by graphviz version 2.47.3 (20210619.1520)
 -->
<!-- Pages: 1 -->
<svg width="540pt" height="116pt"
 viewBox="0.00 0.00 539.98 116.00" xmlns="http://www.w3.org/2000/svg" xmlns:xlink="http://www.w3.org/1999/xlink">
<g id="graph0" class="graph" transform="scale(1 1) rotate(0) translate(4 112)">
<!-- processor -->
<g id="node1" class="node">
<title>processor</title>
<polygon fill="none" stroke="black" points="518.48,-36 440.48,-36 440.48,0 518.48,0 518.48,-36"/>
<text text-anchor="middle" x="479.48" y="-14.3" font-family="Times,serif" font-size="14.00">procesador</text>
</g>
<!-- vm -->
<g id="node2" class="node">
<title>vm</title>
<polygon fill="none" stroke="black" points="531.98,-108 426.98,-108 426.98,-72 531.98,-72 531.98,-108"/>
<text text-anchor="middle" x="479.48" y="-86.3" font-family="Times,serif" font-size="14.00">máquina virtual</text>
</g>
<!-- vm&#45;&gt;processor -->
<g id="edge3" class="edge">
<title>vm&#45;&gt;processor</title>
<path fill="none" stroke="black" d="M479.48,-71.59C479.48,-63.94 479.48,-54.89 479.48,-46.43"/>
<polygon fill="black" stroke="black" points="482.98,-46.17 479.48,-36.17 475.98,-46.17 482.98,-46.17"/>
<text text-anchor="middle" x="468.98" y="-50.3" font-family="Times,serif" font-size="14.00">ejecuta programa en</text>
</g>
<!-- compile -->
<g id="node3" class="node">
<title>compile</title>
<ellipse fill="none" stroke="black" cx="276.44" cy="-90" rx="43.59" ry="18"/>
<text text-anchor="middle" x="276.44" y="-86.3" font-family="Times,serif" font-size="14.00">bytecode</text>
</g>
<!-- compile&#45;&gt;vm -->
<g id="edge2" class="edge">
<title>compile&#45;&gt;vm</title>
<path fill="none" stroke="black" d="M320.07,-90C348.03,-90 385.06,-90 416.28,-90"/>
<polygon fill="black" stroke="black" points="416.63,-93.5 426.63,-90 416.63,-86.5 416.63,-93.5"/>
<text text-anchor="middle" x="373.48" y="-93.8" font-family="Times,serif" font-size="14.00">ejecutado en</text>
</g>
<!-- source -->
<g id="node4" class="node">
<title>source</title>
<ellipse fill="none" stroke="black" cx="60.44" cy="-90" rx="60.39" ry="18"/>
<text text-anchor="middle" x="60.44" y="-86.3" font-family="Times,serif" font-size="14.00">código fuente</text>
</g>
<!-- source&#45;&gt;compile -->
<g id="edge1" class="edge">
<title>source&#45;&gt;compile</title>
<path fill="none" stroke="black" d="M121.05,-90C152.94,-90 191.87,-90 222.65,-90"/>
<polygon fill="black" stroke="black" points="222.76,-93.5 232.76,-90 222.76,-86.5 222.76,-93.5"/>
<text text-anchor="middle" x="176.89" y="-93.8" font-family="Times,serif" font-size="14.00">compilado en</text>
</g>
</g>
</svg>
