<?xml version="1.0" encoding="us-ascii" standalone="no"?><svg xmlns="http://www.w3.org/2000/svg" xmlns:xlink="http://www.w3.org/1999/xlink" contentStyleType="text/css" height="170px" preserveAspectRatio="none" style="width:169px;height:170px;background:#FFFFFF;" version="1.1" viewBox="0 0 169 170" width="169px" zoomAndPan="magnify"><defs/><g><!--class Fruta--><g id="elem_Fruta"><rect fill="#F1F1F1" height="48" id="Fruta" rx="2.5" ry="2.5" style="stroke:#181818;stroke-width:0.5;" width="67" x="52.5" y="7"/><ellipse cx="67.5" cy="23" fill="#ADD1B2" rx="11" ry="11" style="stroke:#181818;stroke-width:1.0;"/><path d="M66.9688,29.9219 Q65.2188,29.9219 64.0781,29.1875 Q62.9531,28.4375 62.3906,27.0938 Q61.8438,25.7344 61.8438,23.9375 Q61.8438,21.9063 62.5,20.4531 Q63.1563,19 64.4375,18.2188 Q65.7188,17.4375 67.5938,17.4375 Q68.4844,17.4375 69.1563,17.625 Q69.8281,17.7969 70.5156,18.1406 L69.7031,20.1563 Q69.0781,19.8438 68.5313,19.7188 Q68,19.5938 67.5156,19.5938 Q66.3438,19.5938 65.6406,20.125 Q64.9375,20.6563 64.6406,21.6094 Q64.3438,22.5625 64.3438,23.8281 Q64.3438,25.8438 65.0625,26.8125 Q65.7813,27.7656 67.375,27.7656 Q67.9688,27.7656 68.5938,27.6094 Q69.2188,27.4531 70.0469,27.0781 L70.0469,29.2969 Q69.3125,29.6094 68.5156,29.7656 Q67.7344,29.9219 66.9688,29.9219 Z " fill="#000000"/><text fill="#000000" font-family="sans-serif" font-size="14" lengthAdjust="spacing" textLength="35" x="81.5" y="28.432">Fruta</text><line style="stroke:#181818;stroke-width:0.5;" x1="53.5" x2="118.5" y1="39" y2="39"/><line style="stroke:#181818;stroke-width:0.5;" x1="53.5" x2="118.5" y1="47" y2="47"/></g><!--class Tallo--><g id="elem_Tallo"><rect fill="#F1F1F1" height="48" id="Tallo" rx="2.5" ry="2.5" style="stroke:#181818;stroke-width:0.5;" width="64" x="7" y="115"/><ellipse cx="22" cy="131" fill="#ADD1B2" rx="11" ry="11" style="stroke:#181818;stroke-width:1.0;"/><path d="M21.4688,137.9219 Q19.7188,137.9219 18.5781,137.1875 Q17.4531,136.4375 16.8906,135.0938 Q16.3438,133.7344 16.3438,131.9375 Q16.3438,129.9063 17,128.4531 Q17.6563,127 18.9375,126.2188 Q20.2188,125.4375 22.0938,125.4375 Q22.9844,125.4375 23.6563,125.625 Q24.3281,125.7969 25.0156,126.1406 L24.2031,128.1563 Q23.5781,127.8438 23.0313,127.7188 Q22.5,127.5938 22.0156,127.5938 Q20.8438,127.5938 20.1406,128.125 Q19.4375,128.6563 19.1406,129.6094 Q18.8438,130.5625 18.8438,131.8281 Q18.8438,133.8438 19.5625,134.8125 Q20.2813,135.7656 21.875,135.7656 Q22.4688,135.7656 23.0938,135.6094 Q23.7188,135.4531 24.5469,135.0781 L24.5469,137.2969 Q23.8125,137.6094 23.0156,137.7656 Q22.2344,137.9219 21.4688,137.9219 Z " fill="#000000"/><text fill="#000000" font-family="sans-serif" font-size="14" lengthAdjust="spacing" textLength="32" x="36" y="136.432">Tallo</text><line style="stroke:#181818;stroke-width:0.5;" x1="8" x2="70" y1="147" y2="147"/><line style="stroke:#181818;stroke-width:0.5;" x1="8" x2="70" y1="155" y2="155"/></g><!--class Piel--><g id="elem_Piel"><rect fill="#F1F1F1" height="48" id="Piel" rx="2.5" ry="2.5" style="stroke:#181818;stroke-width:0.5;" width="56" x="106" y="115"/><ellipse cx="121" cy="131" fill="#ADD1B2" rx="11" ry="11" style="stroke:#181818;stroke-width:1.0;"/><path d="M120.4688,137.9219 Q118.7188,137.9219 117.5781,137.1875 Q116.4531,136.4375 115.8906,135.0938 Q115.3438,133.7344 115.3438,131.9375 Q115.3438,129.9063 116,128.4531 Q116.6563,127 117.9375,126.2188 Q119.2188,125.4375 121.0938,125.4375 Q121.9844,125.4375 122.6563,125.625 Q123.3281,125.7969 124.0156,126.1406 L123.2031,128.1563 Q122.5781,127.8438 122.0313,127.7188 Q121.5,127.5938 121.0156,127.5938 Q119.8438,127.5938 119.1406,128.125 Q118.4375,128.6563 118.1406,129.6094 Q117.8438,130.5625 117.8438,131.8281 Q117.8438,133.8438 118.5625,134.8125 Q119.2813,135.7656 120.875,135.7656 Q121.4688,135.7656 122.0938,135.6094 Q122.7188,135.4531 123.5469,135.0781 L123.5469,137.2969 Q122.8125,137.6094 122.0156,137.7656 Q121.2344,137.9219 120.4688,137.9219 Z " fill="#000000"/><text fill="#000000" font-family="sans-serif" font-size="14" lengthAdjust="spacing" textLength="24" x="135" y="136.432">Piel</text><line style="stroke:#181818;stroke-width:0.5;" x1="107" x2="161" y1="147" y2="147"/><line style="stroke:#181818;stroke-width:0.5;" x1="107" x2="161" y1="155" y2="155"/></g><!--reverse link Fruta to Tallo--><g id="link_Fruta_Tallo"><path codeLine="2" d="M70.8256,66.2298 C62.9856,83.9098 57.12,97.13 49.29,114.79 " fill="none" id="Fruta-backto-Tallo" style="stroke:#181818;stroke-width:1.0;"/><polygon fill="#181818" points="75.69,55.26,69.6012,59.1234,70.8256,66.2298,76.9144,62.3664,75.69,55.26" style="stroke:#181818;stroke-width:1.0;"/></g><!--reverse link Fruta to Piel--><g id="link_Fruta_Piel"><path codeLine="3" d="M101.4821,66.1905 C109.4921,83.8705 115.49,97.13 123.49,114.79 " fill="none" id="Fruta-backto-Piel" style="stroke:#181818;stroke-width:1.0;"/><polygon fill="#181818" points="96.53,55.26,95.3626,62.376,101.4821,66.1905,102.6496,59.0746,96.53,55.26" style="stroke:#181818;stroke-width:1.0;"/></g><!--SRC=[SoigBKbKqDBLLGX9pCd9vtA3ymCoKtEu0000]--></g></svg>