<svg xmlns="http://www.w3.org/2000/svg" xmlns:xlink="http://www.w3.org/1999/xlink" contentStyleType="text/css" data-diagram-type="CLASS" height="170px" preserveAspectRatio="none" style="width:171px;height:170px;background:#FFFFFF;" version="1.1" viewBox="0 0 171 170" width="171px" zoomAndPan="magnify"><defs/><g><!--class Fruta--><g id="elem_Fruta"><rect fill="#F1F1F1" height="48" id="Fruta" rx="2.5" ry="2.5" style="stroke:#181818;stroke-width:0.5;" width="68.75" x="53.36" y="7"/><ellipse cx="68.36" cy="23" fill="#ADD1B2" rx="11" ry="11" style="stroke:#181818;stroke-width:1;"/><path d="M67.8288,29.9219 Q66.0788,29.9219 64.9381,29.1875 Q63.8131,28.4375 63.2506,27.0938 Q62.7038,25.7344 62.7038,23.9375 Q62.7038,21.9063 63.36,20.4531 Q64.0163,19 65.2975,18.2188 Q66.5788,17.4375 68.4538,17.4375 Q69.3444,17.4375 70.0163,17.625 Q70.6881,17.7969 71.3756,18.1406 L70.5631,20.1563 Q69.9381,19.8438 69.3913,19.7188 Q68.86,19.5938 68.3756,19.5938 Q67.2038,19.5938 66.5006,20.125 Q65.7975,20.6563 65.5006,21.6094 Q65.2038,22.5625 65.2038,23.8281 Q65.2038,25.8438 65.9225,26.8125 Q66.6413,27.7656 68.235,27.7656 Q68.8288,27.7656 69.4538,27.6094 Q70.0788,27.4531 70.9069,27.0781 L70.9069,29.2969 Q70.1725,29.6094 69.3756,29.7656 Q68.5944,29.9219 67.8288,29.9219 Z " fill="#000000"/><text fill="#000000" font-family="sans-serif" font-size="14" lengthAdjust="spacing" textLength="36.75" x="82.36" y="27.8467">Fruta</text><line style="stroke:#181818;stroke-width:0.5;" x1="54.36" x2="121.11" y1="39" y2="39"/><line style="stroke:#181818;stroke-width:0.5;" x1="54.36" x2="121.11" y1="47" y2="47"/></g><!--class Tallo--><g id="elem_Tallo"><rect fill="#F1F1F1" height="48" id="Tallo" rx="2.5" ry="2.5" style="stroke:#181818;stroke-width:0.5;" width="65.4756" x="7" y="115"/><ellipse cx="22" cy="131" fill="#ADD1B2" rx="11" ry="11" style="stroke:#181818;stroke-width:1;"/><path d="M21.4688,137.9219 Q19.7188,137.9219 18.5781,137.1875 Q17.4531,136.4375 16.8906,135.0938 Q16.3438,133.7344 16.3438,131.9375 Q16.3438,129.9063 17,128.4531 Q17.6563,127 18.9375,126.2188 Q20.2188,125.4375 22.0938,125.4375 Q22.9844,125.4375 23.6563,125.625 Q24.3281,125.7969 25.0156,126.1406 L24.2031,128.1563 Q23.5781,127.8438 23.0313,127.7188 Q22.5,127.5938 22.0156,127.5938 Q20.8438,127.5938 20.1406,128.125 Q19.4375,128.6563 19.1406,129.6094 Q18.8438,130.5625 18.8438,131.8281 Q18.8438,133.8438 19.5625,134.8125 Q20.2813,135.7656 21.875,135.7656 Q22.4688,135.7656 23.0938,135.6094 Q23.7188,135.4531 24.5469,135.0781 L24.5469,137.2969 Q23.8125,137.6094 23.0156,137.7656 Q22.2344,137.9219 21.4688,137.9219 Z " fill="#000000"/><text fill="#000000" font-family="sans-serif" font-size="14" lengthAdjust="spacing" textLength="33.4756" x="36" y="135.8467">Tallo</text><line style="stroke:#181818;stroke-width:0.5;" x1="8" x2="71.4756" y1="147" y2="147"/><line style="stroke:#181818;stroke-width:0.5;" x1="8" x2="71.4756" y1="155" y2="155"/></g><!--class Piel--><g id="elem_Piel"><rect fill="#F1F1F1" height="48" id="Piel" rx="2.5" ry="2.5" style="stroke:#181818;stroke-width:0.5;" width="56.835" x="107.32" y="115"/><ellipse cx="122.32" cy="131" fill="#ADD1B2" rx="11" ry="11" style="stroke:#181818;stroke-width:1;"/><path d="M121.7888,137.9219 Q120.0388,137.9219 118.8981,137.1875 Q117.7731,136.4375 117.2106,135.0938 Q116.6638,133.7344 116.6638,131.9375 Q116.6638,129.9063 117.32,128.4531 Q117.9763,127 119.2575,126.2188 Q120.5388,125.4375 122.4138,125.4375 Q123.3044,125.4375 123.9763,125.625 Q124.6481,125.7969 125.3356,126.1406 L124.5231,128.1563 Q123.8981,127.8438 123.3513,127.7188 Q122.82,127.5938 122.3356,127.5938 Q121.1638,127.5938 120.4606,128.125 Q119.7575,128.6563 119.4606,129.6094 Q119.1638,130.5625 119.1638,131.8281 Q119.1638,133.8438 119.8825,134.8125 Q120.6013,135.7656 122.195,135.7656 Q122.7888,135.7656 123.4138,135.6094 Q124.0388,135.4531 124.8669,135.0781 L124.8669,137.2969 Q124.1325,137.6094 123.3356,137.7656 Q122.5544,137.9219 121.7888,137.9219 Z " fill="#000000"/><text fill="#000000" font-family="sans-serif" font-size="14" lengthAdjust="spacing" textLength="24.835" x="136.32" y="135.8467">Piel</text><line style="stroke:#181818;stroke-width:0.5;" x1="108.32" x2="163.155" y1="147" y2="147"/><line style="stroke:#181818;stroke-width:0.5;" x1="108.32" x2="163.155" y1="155" y2="155"/></g><!--reverse link Fruta to Tallo--><g id="link_Fruta_Tallo"><path codeLine="2" d="M72.253,66.1929 C64.253,83.8729 58.24,97.13 50.25,114.79 " fill="transparent" id="Fruta-backto-Tallo" style="stroke:#181818;stroke-width:1;"/><polygon fill="#181818" points="77.2,55.26,71.0822,59.0774,72.253,66.1929,78.3708,62.3754,77.2,55.26" style="stroke:#181818;stroke-width:1;"/></g><!--reverse link Fruta to Piel--><g id="link_Fruta_Piel"><path codeLine="3" d="M103.217,66.1929 C111.217,83.8729 117.23,97.13 125.23,114.79 " fill="transparent" id="Fruta-backto-Piel" style="stroke:#181818;stroke-width:1;"/><polygon fill="#181818" points="98.27,55.26,97.0992,62.3754,103.217,66.1929,104.3878,59.0774,98.27,55.26" style="stroke:#181818;stroke-width:1;"/></g><!--SRC=[SoigBKbKqDBLLGX9pCd9vtA3ymCoKtEu0000]--></g></svg>