<svg xmlns="http://www.w3.org/2000/svg" xmlns:xlink="http://www.w3.org/1999/xlink" contentStyleType="text/css" height="379px" preserveAspectRatio="none" style="width:102px;height:379px;background:#FFFFFF;" version="1.1" viewBox="0 0 102 379" width="102px" zoomAndPan="magnify"><defs/><g><!--class Entity--><g id="elem_Entity"><rect fill="#F1F1F1" height="32" id="Entity" rx="2.5" ry="2.5" style="stroke:#181818;stroke-width:0.5;" width="69.2959" x="16.48" y="7"/><ellipse cx="31.48" cy="23" fill="#ADD1B2" rx="11" ry="11" style="stroke:#181818;stroke-width:1;"/><path d="M30.9488,29.9219 Q29.1988,29.9219 28.0581,29.1875 Q26.9331,28.4375 26.3706,27.0938 Q25.8238,25.7344 25.8238,23.9375 Q25.8238,21.9063 26.48,20.4531 Q27.1363,19 28.4175,18.2188 Q29.6988,17.4375 31.5738,17.4375 Q32.4644,17.4375 33.1363,17.625 Q33.8081,17.7969 34.4956,18.1406 L33.6831,20.1563 Q33.0581,19.8438 32.5113,19.7188 Q31.98,19.5938 31.4956,19.5938 Q30.3238,19.5938 29.6206,20.125 Q28.9175,20.6563 28.6206,21.6094 Q28.3238,22.5625 28.3238,23.8281 Q28.3238,25.8438 29.0425,26.8125 Q29.7613,27.7656 31.355,27.7656 Q31.9488,27.7656 32.5738,27.6094 Q33.1988,27.4531 34.0269,27.0781 L34.0269,29.2969 Q33.2925,29.6094 32.4956,29.7656 Q31.7144,29.9219 30.9488,29.9219 Z " fill="#000000"/><text fill="#000000" font-family="sans-serif" font-size="14" lengthAdjust="spacing" textLength="37.2959" x="45.48" y="28.432">Entity</text></g><!--class Movable--><g id="elem_Movable"><rect fill="#F1F1F1" height="32" id="Movable" rx="2.5" ry="2.5" style="stroke:#181818;stroke-width:0.5;" width="88.2518" x="7" y="118"/><ellipse cx="22" cy="134" fill="#ADD1B2" rx="11" ry="11" style="stroke:#181818;stroke-width:1;"/><path d="M21.4688,140.9219 Q19.7188,140.9219 18.5781,140.1875 Q17.4531,139.4375 16.8906,138.0938 Q16.3438,136.7344 16.3438,134.9375 Q16.3438,132.9063 17,131.4531 Q17.6563,130 18.9375,129.2188 Q20.2188,128.4375 22.0938,128.4375 Q22.9844,128.4375 23.6563,128.625 Q24.3281,128.7969 25.0156,129.1406 L24.2031,131.1563 Q23.5781,130.8438 23.0313,130.7188 Q22.5,130.5938 22.0156,130.5938 Q20.8438,130.5938 20.1406,131.125 Q19.4375,131.6563 19.1406,132.6094 Q18.8438,133.5625 18.8438,134.8281 Q18.8438,136.8438 19.5625,137.8125 Q20.2813,138.7656 21.875,138.7656 Q22.4688,138.7656 23.0938,138.6094 Q23.7188,138.4531 24.5469,138.0781 L24.5469,140.2969 Q23.8125,140.6094 23.0156,140.7656 Q22.2344,140.9219 21.4688,140.9219 Z " fill="#000000"/><text fill="#000000" font-family="sans-serif" font-size="14" lengthAdjust="spacing" textLength="56.2518" x="36" y="139.432">Movable</text></g><!--class Visible--><g id="elem_Visible"><rect fill="#F1F1F1" height="32" id="Visible" rx="2.5" ry="2.5" style="stroke:#181818;stroke-width:0.5;" width="74.4478" x="13.9" y="229"/><ellipse cx="28.9" cy="245" fill="#ADD1B2" rx="11" ry="11" style="stroke:#181818;stroke-width:1;"/><path d="M28.3688,251.9219 Q26.6188,251.9219 25.4781,251.1875 Q24.3531,250.4375 23.7906,249.0938 Q23.2438,247.7344 23.2438,245.9375 Q23.2438,243.9063 23.9,242.4531 Q24.5563,241 25.8375,240.2188 Q27.1188,239.4375 28.9938,239.4375 Q29.8844,239.4375 30.5563,239.625 Q31.2281,239.7969 31.9156,240.1406 L31.1031,242.1563 Q30.4781,241.8438 29.9313,241.7188 Q29.4,241.5938 28.9156,241.5938 Q27.7438,241.5938 27.0406,242.125 Q26.3375,242.6563 26.0406,243.6094 Q25.7438,244.5625 25.7438,245.8281 Q25.7438,247.8438 26.4625,248.8125 Q27.1813,249.7656 28.775,249.7656 Q29.3688,249.7656 29.9938,249.6094 Q30.6188,249.4531 31.4469,249.0781 L31.4469,251.2969 Q30.7125,251.6094 29.9156,251.7656 Q29.1344,251.9219 28.3688,251.9219 Z " fill="#000000"/><text fill="#000000" font-family="sans-serif" font-size="14" lengthAdjust="spacing" textLength="42.4478" x="42.9" y="250.432">Visible</text></g><!--class Player--><g id="elem_Player"><rect fill="#F1F1F1" height="32" id="Player" rx="2.5" ry="2.5" style="stroke:#181818;stroke-width:0.5;" width="72.7538" x="14.75" y="340"/><ellipse cx="29.75" cy="356" fill="#ADD1B2" rx="11" ry="11" style="stroke:#181818;stroke-width:1;"/><path d="M29.2188,362.9219 Q27.4688,362.9219 26.3281,362.1875 Q25.2031,361.4375 24.6406,360.0938 Q24.0938,358.7344 24.0938,356.9375 Q24.0938,354.9063 24.75,353.4531 Q25.4063,352 26.6875,351.2188 Q27.9688,350.4375 29.8438,350.4375 Q30.7344,350.4375 31.4063,350.625 Q32.0781,350.7969 32.7656,351.1406 L31.9531,353.1563 Q31.3281,352.8438 30.7813,352.7188 Q30.25,352.5938 29.7656,352.5938 Q28.5938,352.5938 27.8906,353.125 Q27.1875,353.6563 26.8906,354.6094 Q26.5938,355.5625 26.5938,356.8281 Q26.5938,358.8438 27.3125,359.8125 Q28.0313,360.7656 29.625,360.7656 Q30.2188,360.7656 30.8438,360.6094 Q31.4688,360.4531 32.2969,360.0781 L32.2969,362.2969 Q31.5625,362.6094 30.7656,362.7656 Q29.9844,362.9219 29.2188,362.9219 Z " fill="#000000"/><text fill="#000000" font-family="sans-serif" font-size="14" lengthAdjust="spacing" textLength="40.7538" x="43.75" y="361.432">Player</text></g><!--reverse link Entity to Movable--><g id="link_Entity_Movable"><path codeLine="1" d="M51.13,57.16 C51.13,77.86 51.13,96.8 51.13,117.62 " fill="none" id="Entity-backto-Movable" style="stroke:#181818;stroke-width:1;"/><polygon fill="none" points="51.13,39.16,45.13,57.16,57.13,57.16,51.13,39.16" style="stroke:#181818;stroke-width:1;"/><text fill="#000000" font-family="sans-serif" font-size="13" lengthAdjust="spacing" textLength="33.813" x="52.13" y="83.897">es-un</text></g><!--reverse link Movable to Visible--><g id="link_Movable_Visible"><path codeLine="2" d="M51.13,168.16 C51.13,188.86 51.13,207.8 51.13,228.62 " fill="none" id="Movable-backto-Visible" style="stroke:#181818;stroke-width:1;"/><polygon fill="none" points="51.13,150.16,45.13,168.16,57.13,168.16,51.13,150.16" style="stroke:#181818;stroke-width:1;"/><text fill="#000000" font-family="sans-serif" font-size="13" lengthAdjust="spacing" textLength="33.813" x="52.13" y="194.897">es-un</text></g><!--reverse link Visible to Player--><g id="link_Visible_Player"><path codeLine="3" d="M51.13,279.16 C51.13,299.86 51.13,318.8 51.13,339.62 " fill="none" id="Visible-backto-Player" style="stroke:#181818;stroke-width:1;"/><polygon fill="none" points="51.13,261.16,45.13,279.16,57.13,279.16,51.13,261.16" style="stroke:#181818;stroke-width:1;"/><text fill="#000000" font-family="sans-serif" font-size="13" lengthAdjust="spacing" textLength="33.813" x="52.13" y="305.897">es-un</text></g><!--SRC=[SyqhoIofLB2fqTLLyCqlIqpAILMmKaWjrYtDuuBomN9XcSMPo79GFbWk82UnChK8BfMHcPAga9kQcvHQL0m0]--></g></svg>