<svg xmlns="http://www.w3.org/2000/svg" xmlns:xlink="http://www.w3.org/1999/xlink" contentStyleType="text/css" height="316px" preserveAspectRatio="none" style="width:256px;height:316px;background:#FFFFFF;" version="1.1" viewBox="0 0 256 316" width="256px" zoomAndPan="magnify"><defs/><g><!--class Fruta--><g id="elem_Fruta"><rect codeLine="1" fill="#F1F1F1" height="86.1358" id="Fruta" rx="2.5" ry="2.5" style="stroke:#181818;stroke-width:0.5;" width="93.8017" x="115.82" y="7"/><ellipse cx="143.0572" cy="23" fill="#ADD1B2" rx="11" ry="11" style="stroke:#181818;stroke-width:1;"/><path d="M142.526,29.9219 Q140.776,29.9219 139.6353,29.1875 Q138.5103,28.4375 137.9478,27.0938 Q137.401,25.7344 137.401,23.9375 Q137.401,21.9063 138.0572,20.4531 Q138.7135,19 139.9947,18.2188 Q141.276,17.4375 143.151,17.4375 Q144.0416,17.4375 144.7135,17.625 Q145.3853,17.7969 146.0728,18.1406 L145.2603,20.1563 Q144.6353,19.8438 144.0885,19.7188 Q143.5572,19.5938 143.0728,19.5938 Q141.901,19.5938 141.1978,20.125 Q140.4947,20.6563 140.1978,21.6094 Q139.901,22.5625 139.901,23.8281 Q139.901,25.8438 140.6197,26.8125 Q141.3385,27.7656 142.9322,27.7656 Q143.526,27.7656 144.151,27.6094 Q144.776,27.4531 145.6041,27.0781 L145.6041,29.2969 Q144.8697,29.6094 144.0728,29.7656 Q143.2916,29.9219 142.526,29.9219 Z " fill="#000000"/><text fill="#000000" font-family="sans-serif" font-size="14" lengthAdjust="spacing" textLength="34.6079" x="159.7766" y="28.432">Fruta</text><line style="stroke:#181818;stroke-width:0.5;" x1="116.82" x2="208.6217" y1="39" y2="39"/><text fill="#000000" font-family="sans-serif" font-size="14" lengthAdjust="spacing" textLength="71.9317" x="121.82" y="57.9659">int tama&#241;o</text><line style="stroke:#181818;stroke-width:0.5;" x1="116.82" x2="208.6217" y1="66.0679" y2="66.0679"/><text fill="#000000" font-family="sans-serif" font-size="14" lengthAdjust="spacing" textLength="81.8017" x="121.82" y="85.0339">void comer()</text></g><!--class Manzana--><g id="elem_Manzana"><rect fill="#F1F1F1" height="48" id="Manzana" rx="2.5" ry="2.5" style="stroke:#181818;stroke-width:0.5;" width="92.1438" x="60.64" y="153.14"/><ellipse cx="75.64" cy="169.14" fill="#ADD1B2" rx="11" ry="11" style="stroke:#181818;stroke-width:1;"/><path d="M75.1088,176.0619 Q73.3588,176.0619 72.2181,175.3275 Q71.0931,174.5775 70.5306,173.2338 Q69.9838,171.8744 69.9838,170.0775 Q69.9838,168.0463 70.64,166.5931 Q71.2963,165.14 72.5775,164.3588 Q73.8588,163.5775 75.7338,163.5775 Q76.6244,163.5775 77.2963,163.765 Q77.9681,163.9369 78.6556,164.2806 L77.8431,166.2963 Q77.2181,165.9838 76.6713,165.8588 Q76.14,165.7338 75.6556,165.7338 Q74.4838,165.7338 73.7806,166.265 Q73.0775,166.7963 72.7806,167.7494 Q72.4838,168.7025 72.4838,169.9681 Q72.4838,171.9838 73.2025,172.9525 Q73.9213,173.9056 75.515,173.9056 Q76.1088,173.9056 76.7338,173.7494 Q77.3588,173.5931 78.1869,173.2181 L78.1869,175.4369 Q77.4525,175.7494 76.6556,175.9056 Q75.8744,176.0619 75.1088,176.0619 Z " fill="#000000"/><text fill="#000000" font-family="sans-serif" font-size="14" lengthAdjust="spacing" textLength="60.1438" x="89.64" y="174.572">Manzana</text><line style="stroke:#181818;stroke-width:0.5;" x1="61.64" x2="151.7838" y1="185.14" y2="185.14"/><line style="stroke:#181818;stroke-width:0.5;" x1="61.64" x2="151.7838" y1="193.14" y2="193.14"/></g><!--class Pera--><g id="elem_Pera"><rect fill="#F1F1F1" height="48" id="Pera" rx="2.5" ry="2.5" style="stroke:#181818;stroke-width:0.5;" width="62.0019" x="187.71" y="153.14"/><ellipse cx="202.71" cy="169.14" fill="#ADD1B2" rx="11" ry="11" style="stroke:#181818;stroke-width:1;"/><path d="M202.1788,176.0619 Q200.4288,176.0619 199.2881,175.3275 Q198.1631,174.5775 197.6006,173.2338 Q197.0538,171.8744 197.0538,170.0775 Q197.0538,168.0463 197.71,166.5931 Q198.3663,165.14 199.6475,164.3588 Q200.9288,163.5775 202.8038,163.5775 Q203.6944,163.5775 204.3663,163.765 Q205.0381,163.9369 205.7256,164.2806 L204.9131,166.2963 Q204.2881,165.9838 203.7413,165.8588 Q203.21,165.7338 202.7256,165.7338 Q201.5538,165.7338 200.8506,166.265 Q200.1475,166.7963 199.8506,167.7494 Q199.5538,168.7025 199.5538,169.9681 Q199.5538,171.9838 200.2725,172.9525 Q200.9913,173.9056 202.585,173.9056 Q203.1788,173.9056 203.8038,173.7494 Q204.4288,173.5931 205.2569,173.2181 L205.2569,175.4369 Q204.5225,175.7494 203.7256,175.9056 Q202.9444,176.0619 202.1788,176.0619 Z " fill="#000000"/><text fill="#000000" font-family="sans-serif" font-size="14" lengthAdjust="spacing" textLength="30.0019" x="216.71" y="174.572">Pera</text><line style="stroke:#181818;stroke-width:0.5;" x1="188.71" x2="248.7119" y1="185.14" y2="185.14"/><line style="stroke:#181818;stroke-width:0.5;" x1="188.71" x2="248.7119" y1="193.14" y2="193.14"/></g><!--class Golden--><g id="elem_Golden"><rect fill="#F1F1F1" height="48" id="Golden" rx="2.5" ry="2.5" style="stroke:#181818;stroke-width:0.5;" width="79.4318" x="7" y="261.14"/><ellipse cx="22" cy="277.14" fill="#ADD1B2" rx="11" ry="11" style="stroke:#181818;stroke-width:1;"/><path d="M21.4688,284.0619 Q19.7188,284.0619 18.5781,283.3275 Q17.4531,282.5775 16.8906,281.2338 Q16.3438,279.8744 16.3438,278.0775 Q16.3438,276.0463 17,274.5931 Q17.6563,273.14 18.9375,272.3588 Q20.2188,271.5775 22.0938,271.5775 Q22.9844,271.5775 23.6563,271.765 Q24.3281,271.9369 25.0156,272.2806 L24.2031,274.2963 Q23.5781,273.9838 23.0313,273.8588 Q22.5,273.7338 22.0156,273.7338 Q20.8438,273.7338 20.1406,274.265 Q19.4375,274.7963 19.1406,275.7494 Q18.8438,276.7025 18.8438,277.9681 Q18.8438,279.9838 19.5625,280.9525 Q20.2813,281.9056 21.875,281.9056 Q22.4688,281.9056 23.0938,281.7494 Q23.7188,281.5931 24.5469,281.2181 L24.5469,283.4369 Q23.8125,283.7494 23.0156,283.9056 Q22.2344,284.0619 21.4688,284.0619 Z " fill="#000000"/><text fill="#000000" font-family="sans-serif" font-size="14" lengthAdjust="spacing" textLength="47.4318" x="36" y="282.572">Golden</text><line style="stroke:#181818;stroke-width:0.5;" x1="8" x2="85.4318" y1="293.14" y2="293.14"/><line style="stroke:#181818;stroke-width:0.5;" x1="8" x2="85.4318" y1="301.14" y2="301.14"/></g><!--class PinkLady--><g id="elem_PinkLady"><rect fill="#F1F1F1" height="48" id="PinkLady" rx="2.5" ry="2.5" style="stroke:#181818;stroke-width:0.5;" width="91.1498" x="121.14" y="261.14"/><ellipse cx="136.14" cy="277.14" fill="#ADD1B2" rx="11" ry="11" style="stroke:#181818;stroke-width:1;"/><path d="M135.6088,284.0619 Q133.8588,284.0619 132.7181,283.3275 Q131.5931,282.5775 131.0306,281.2338 Q130.4838,279.8744 130.4838,278.0775 Q130.4838,276.0463 131.14,274.5931 Q131.7963,273.14 133.0775,272.3588 Q134.3588,271.5775 136.2338,271.5775 Q137.1244,271.5775 137.7963,271.765 Q138.4681,271.9369 139.1556,272.2806 L138.3431,274.2963 Q137.7181,273.9838 137.1713,273.8588 Q136.64,273.7338 136.1556,273.7338 Q134.9838,273.7338 134.2806,274.265 Q133.5775,274.7963 133.2806,275.7494 Q132.9838,276.7025 132.9838,277.9681 Q132.9838,279.9838 133.7025,280.9525 Q134.4213,281.9056 136.015,281.9056 Q136.6088,281.9056 137.2338,281.7494 Q137.8588,281.5931 138.6869,281.2181 L138.6869,283.4369 Q137.9525,283.7494 137.1556,283.9056 Q136.3744,284.0619 135.6088,284.0619 Z " fill="#000000"/><text fill="#000000" font-family="sans-serif" font-size="14" lengthAdjust="spacing" textLength="59.1498" x="150.14" y="282.572">PinkLady</text><line style="stroke:#181818;stroke-width:0.5;" x1="122.14" x2="211.2898" y1="293.14" y2="293.14"/><line style="stroke:#181818;stroke-width:0.5;" x1="122.14" x2="211.2898" y1="301.14" y2="301.14"/></g><!--reverse link Fruta to Manzana--><g id="link_Fruta_Manzana"><path codeLine="6" d="M136.4027,109.8377 C127.5127,129.6877 124.63,136.14 117.17,152.8 " fill="none" id="Fruta-backto-Manzana" style="stroke:#181818;stroke-width:1;"/><polygon fill="none" points="143.76,93.41,130.9268,107.3853,141.8786,112.2902,143.76,93.41" style="stroke:#181818;stroke-width:1;"/></g><!--reverse link Fruta to Pera--><g id="link_Fruta_Pera"><path codeLine="7" d="M189.0273,109.8377 C197.9173,129.6877 200.8,136.14 208.26,152.8 " fill="none" id="Fruta-backto-Pera" style="stroke:#181818;stroke-width:1;"/><polygon fill="none" points="181.67,93.41,183.5514,112.2902,194.5032,107.3853,181.67,93.41" style="stroke:#181818;stroke-width:1;"/></g><!--reverse link Manzana to Golden--><g id="link_Manzana_Golden"><path codeLine="9" d="M84.6816,217.0637 C74.6716,234.7437 69.85,243.27 59.85,260.93 " fill="none" id="Manzana-backto-Golden" style="stroke:#181818;stroke-width:1;"/><polygon fill="none" points="93.55,201.4,79.4604,214.1076,89.9028,220.0198,93.55,201.4" style="stroke:#181818;stroke-width:1;"/></g><!--reverse link Manzana to PinkLady--><g id="link_Manzana_PinkLady"><path codeLine="10" d="M128.7484,217.0637 C138.7584,234.7437 143.58,243.27 153.58,260.93 " fill="none" id="Manzana-backto-PinkLady" style="stroke:#181818;stroke-width:1;"/><polygon fill="none" points="119.88,201.4,123.5272,220.0198,133.9696,214.1076,119.88,201.4" style="stroke:#181818;stroke-width:1;"/></g><!--SRC=[Iyv9B2vMS2igBKbKgEPI08BCl1A5aiJSnCCRyy7yilpC58Na_DpK8WrDhbekBeXQcnfTNGNVnBognBn4PA60rA94BYwe14J8FJyd9JKFLImWCo_R9p6b4W00]--></g></svg>