<svg xmlns="http://www.w3.org/2000/svg" xmlns:xlink="http://www.w3.org/1999/xlink" contentStyleType="text/css" data-diagram-type="CLASS" height="310px" preserveAspectRatio="none" style="width:261px;height:310px;background:#FFFFFF;" version="1.1" viewBox="0 0 261 310" width="261px" zoomAndPan="magnify"><defs/><g><!--class Fruta--><g id="elem_Fruta"><rect codeLine="1" fill="#F1F1F1" height="80.5938" id="Fruta" rx="2.5" ry="2.5" style="stroke:#181818;stroke-width:0.5;" width="101.2705" x="115.2" y="7"/><ellipse cx="144.8342" cy="23" fill="#ADD1B2" rx="11" ry="11" style="stroke:#181818;stroke-width:1;"/><path d="M144.303,29.9219 Q142.553,29.9219 141.4124,29.1875 Q140.2874,28.4375 139.7249,27.0938 Q139.178,25.7344 139.178,23.9375 Q139.178,21.9063 139.8342,20.4531 Q140.4905,19 141.7717,18.2188 Q143.053,17.4375 144.928,17.4375 Q145.8186,17.4375 146.4905,17.625 Q147.1624,17.7969 147.8499,18.1406 L147.0374,20.1563 Q146.4124,19.8438 145.8655,19.7188 Q145.3342,19.5938 144.8499,19.5938 Q143.678,19.5938 142.9749,20.125 Q142.2717,20.6563 141.9749,21.6094 Q141.678,22.5625 141.678,23.8281 Q141.678,25.8438 142.3967,26.8125 Q143.1155,27.7656 144.7092,27.7656 Q145.303,27.7656 145.928,27.6094 Q146.553,27.4531 147.3811,27.0781 L147.3811,29.2969 Q146.6467,29.6094 145.8499,29.7656 Q145.0686,29.9219 144.303,29.9219 Z " fill="#000000"/><text fill="#000000" font-family="sans-serif" font-size="14" lengthAdjust="spacing" textLength="36.75" x="162.0863" y="27.8467">Fruta</text><line style="stroke:#181818;stroke-width:0.5;" x1="116.2" x2="215.4705" y1="39" y2="39"/><text fill="#000000" font-family="sans-serif" font-size="14" lengthAdjust="spacing" textLength="76.4258" x="121.2" y="55.9951">int tama&#241;o</text><line style="stroke:#181818;stroke-width:0.5;" x1="116.2" x2="215.4705" y1="63.2969" y2="63.2969"/><text fill="#000000" font-family="sans-serif" font-size="14" lengthAdjust="spacing" textLength="89.2705" x="121.2" y="80.292">void comer()</text></g><!--class Manzana--><g id="elem_Manzana"><rect fill="#F1F1F1" height="48" id="Manzana" rx="2.5" ry="2.5" style="stroke:#181818;stroke-width:0.5;" width="94.9111" x="61.38" y="147.59"/><ellipse cx="76.38" cy="163.59" fill="#ADD1B2" rx="11" ry="11" style="stroke:#181818;stroke-width:1;"/><path d="M75.8488,170.5119 Q74.0988,170.5119 72.9581,169.7775 Q71.8331,169.0275 71.2706,167.6837 Q70.7238,166.3244 70.7238,164.5275 Q70.7238,162.4962 71.38,161.0431 Q72.0363,159.59 73.3175,158.8087 Q74.5988,158.0275 76.4738,158.0275 Q77.3644,158.0275 78.0363,158.215 Q78.7081,158.3869 79.3956,158.7306 L78.5831,160.7462 Q77.9581,160.4337 77.4113,160.3087 Q76.88,160.1837 76.3956,160.1837 Q75.2238,160.1837 74.5206,160.715 Q73.8175,161.2462 73.5206,162.1994 Q73.2238,163.1525 73.2238,164.4181 Q73.2238,166.4337 73.9425,167.4025 Q74.6613,168.3556 76.255,168.3556 Q76.8488,168.3556 77.4738,168.1994 Q78.0988,168.0431 78.9269,167.6681 L78.9269,169.8869 Q78.1925,170.1994 77.3956,170.3556 Q76.6144,170.5119 75.8488,170.5119 Z " fill="#000000"/><text fill="#000000" font-family="sans-serif" font-size="14" lengthAdjust="spacing" textLength="62.9111" x="90.38" y="168.4367">Manzana</text><line style="stroke:#181818;stroke-width:0.5;" x1="62.38" x2="155.2911" y1="179.59" y2="179.59"/><line style="stroke:#181818;stroke-width:0.5;" x1="62.38" x2="155.2911" y1="187.59" y2="187.59"/></g><!--class Pera--><g id="elem_Pera"><rect fill="#F1F1F1" height="48" id="Pera" rx="2.5" ry="2.5" style="stroke:#181818;stroke-width:0.5;" width="63.3906" x="191.14" y="147.59"/><ellipse cx="206.14" cy="163.59" fill="#ADD1B2" rx="11" ry="11" style="stroke:#181818;stroke-width:1;"/><path d="M205.6088,170.5119 Q203.8588,170.5119 202.7181,169.7775 Q201.5931,169.0275 201.0306,167.6837 Q200.4838,166.3244 200.4838,164.5275 Q200.4838,162.4962 201.14,161.0431 Q201.7963,159.59 203.0775,158.8087 Q204.3588,158.0275 206.2338,158.0275 Q207.1244,158.0275 207.7963,158.215 Q208.4681,158.3869 209.1556,158.7306 L208.3431,160.7462 Q207.7181,160.4337 207.1713,160.3087 Q206.64,160.1837 206.1556,160.1837 Q204.9838,160.1837 204.2806,160.715 Q203.5775,161.2462 203.2806,162.1994 Q202.9838,163.1525 202.9838,164.4181 Q202.9838,166.4337 203.7025,167.4025 Q204.4213,168.3556 206.015,168.3556 Q206.6088,168.3556 207.2338,168.1994 Q207.8588,168.0431 208.6869,167.6681 L208.6869,169.8869 Q207.9525,170.1994 207.1556,170.3556 Q206.3744,170.5119 205.6088,170.5119 Z " fill="#000000"/><text fill="#000000" font-family="sans-serif" font-size="14" lengthAdjust="spacing" textLength="31.3906" x="220.14" y="168.4367">Pera</text><line style="stroke:#181818;stroke-width:0.5;" x1="192.14" x2="253.5306" y1="179.59" y2="179.59"/><line style="stroke:#181818;stroke-width:0.5;" x1="192.14" x2="253.5306" y1="187.59" y2="187.59"/></g><!--class Golden--><g id="elem_Golden"><rect fill="#F1F1F1" height="48" id="Golden" rx="2.5" ry="2.5" style="stroke:#181818;stroke-width:0.5;" width="81.6768" x="7" y="255.59"/><ellipse cx="22" cy="271.59" fill="#ADD1B2" rx="11" ry="11" style="stroke:#181818;stroke-width:1;"/><path d="M21.4688,278.5119 Q19.7188,278.5119 18.5781,277.7775 Q17.4531,277.0275 16.8906,275.6838 Q16.3438,274.3244 16.3438,272.5275 Q16.3438,270.4963 17,269.0431 Q17.6563,267.59 18.9375,266.8088 Q20.2188,266.0275 22.0938,266.0275 Q22.9844,266.0275 23.6563,266.215 Q24.3281,266.3869 25.0156,266.7306 L24.2031,268.7463 Q23.5781,268.4338 23.0313,268.3088 Q22.5,268.1838 22.0156,268.1838 Q20.8438,268.1838 20.1406,268.715 Q19.4375,269.2463 19.1406,270.1994 Q18.8438,271.1525 18.8438,272.4181 Q18.8438,274.4338 19.5625,275.4025 Q20.2813,276.3556 21.875,276.3556 Q22.4688,276.3556 23.0938,276.1994 Q23.7188,276.0431 24.5469,275.6681 L24.5469,277.8869 Q23.8125,278.1994 23.0156,278.3556 Q22.2344,278.5119 21.4688,278.5119 Z " fill="#000000"/><text fill="#000000" font-family="sans-serif" font-size="14" lengthAdjust="spacing" textLength="49.6768" x="36" y="276.4367">Golden</text><line style="stroke:#181818;stroke-width:0.5;" x1="8" x2="87.6768" y1="287.59" y2="287.59"/><line style="stroke:#181818;stroke-width:0.5;" x1="8" x2="87.6768" y1="295.59" y2="295.59"/></g><!--class PinkLady--><g id="elem_PinkLady"><rect fill="#F1F1F1" height="48" id="PinkLady" rx="2.5" ry="2.5" style="stroke:#181818;stroke-width:0.5;" width="94.8633" x="123.41" y="255.59"/><ellipse cx="138.41" cy="271.59" fill="#ADD1B2" rx="11" ry="11" style="stroke:#181818;stroke-width:1;"/><path d="M137.8788,278.5119 Q136.1288,278.5119 134.9881,277.7775 Q133.8631,277.0275 133.3006,275.6838 Q132.7538,274.3244 132.7538,272.5275 Q132.7538,270.4963 133.41,269.0431 Q134.0663,267.59 135.3475,266.8088 Q136.6288,266.0275 138.5038,266.0275 Q139.3944,266.0275 140.0663,266.215 Q140.7381,266.3869 141.4256,266.7306 L140.6131,268.7463 Q139.9881,268.4338 139.4413,268.3088 Q138.91,268.1838 138.4256,268.1838 Q137.2538,268.1838 136.5506,268.715 Q135.8475,269.2463 135.5506,270.1994 Q135.2538,271.1525 135.2538,272.4181 Q135.2538,274.4338 135.9725,275.4025 Q136.6913,276.3556 138.285,276.3556 Q138.8788,276.3556 139.5038,276.1994 Q140.1288,276.0431 140.9569,275.6681 L140.9569,277.8869 Q140.2225,278.1994 139.4256,278.3556 Q138.6444,278.5119 137.8788,278.5119 Z " fill="#000000"/><text fill="#000000" font-family="sans-serif" font-size="14" lengthAdjust="spacing" textLength="62.8633" x="152.41" y="276.4367">PinkLady</text><line style="stroke:#181818;stroke-width:0.5;" x1="124.41" x2="217.2733" y1="287.59" y2="287.59"/><line style="stroke:#181818;stroke-width:0.5;" x1="124.41" x2="217.2733" y1="295.59" y2="295.59"/></g><!--reverse link Fruta to Manzana--><g id="link_Fruta_Manzana"><path codeLine="6" d="M139.7277,104.3158 C130.6277,123.8458 127.57,130.4 119.78,147.11 " fill="transparent" id="Fruta-backto-Manzana" style="stroke:#181818;stroke-width:1;"/><polygon fill="transparent" points="147.33,88,134.2891,101.7817,145.1663,106.8499,147.33,88" style="stroke:#181818;stroke-width:1;"/></g><!--reverse link Fruta to Pera--><g id="link_Fruta_Pera"><path codeLine="7" d="M191.9492,104.3126 C201.0592,123.8426 204.11,130.4 211.9,147.11 " fill="transparent" id="Fruta-backto-Pera" style="stroke:#181818;stroke-width:1;"/><polygon fill="transparent" points="184.34,88,186.5117,106.849,197.3867,101.7762,184.34,88" style="stroke:#181818;stroke-width:1;"/></g><!--reverse link Manzana to Golden--><g id="link_Manzana_Golden"><path codeLine="9" d="M86.4749,211.4528 C76.3049,229.1328 71.36,237.72 61.19,255.38 " fill="transparent" id="Manzana-backto-Golden" style="stroke:#181818;stroke-width:1;"/><polygon fill="transparent" points="95.45,195.85,81.2739,208.4611,91.6758,214.4445,95.45,195.85" style="stroke:#181818;stroke-width:1;"/></g><!--reverse link Manzana to PinkLady--><g id="link_Manzana_PinkLady"><path codeLine="10" d="M131.5272,211.3878 C141.8672,229.0678 146.93,237.72 157.26,255.38 " fill="transparent" id="Manzana-backto-PinkLady" style="stroke:#181818;stroke-width:1;"/><polygon fill="transparent" points="122.44,195.85,126.3479,214.4169,136.7064,208.3588,122.44,195.85" style="stroke:#181818;stroke-width:1;"/></g><!--SRC=[Iyv9B2vMS2igBKbKgEPI08BCl1A5aiJSnCCRyy7yilpC58Na_DpK8WrDhbekBeXQcnfTNGNVnBognBn4PA60rA94BYwe14J8FJyd9JKFLImWCo_R9p6b4W00]--></g></svg>