<svg xmlns="http://www.w3.org/2000/svg" xmlns:xlink="http://www.w3.org/1999/xlink" contentStyleType="text/css" data-diagram-type="CLASS" height="341px" preserveAspectRatio="none" style="width:236px;height:341px;background:#FFFFFF;" version="1.1" viewBox="0 0 236 341" width="236px" zoomAndPan="magnify"><defs/><g><!--class Entity--><g id="elem_Entity"><rect fill="#F1F1F1" height="32" id="Entity" rx="2.5" ry="2.5" style="stroke:#181818;stroke-width:0.5;" width="72.8721" x="93.58" y="7"/><ellipse cx="108.58" cy="23" fill="#ADD1B2" rx="11" ry="11" style="stroke:#181818;stroke-width:1;"/><path d="M108.0488,29.9219 Q106.2988,29.9219 105.1581,29.1875 Q104.0331,28.4375 103.4706,27.0938 Q102.9238,25.7344 102.9238,23.9375 Q102.9238,21.9063 103.58,20.4531 Q104.2363,19 105.5175,18.2188 Q106.7988,17.4375 108.6738,17.4375 Q109.5644,17.4375 110.2363,17.625 Q110.9081,17.7969 111.5956,18.1406 L110.7831,20.1563 Q110.1581,19.8438 109.6113,19.7188 Q109.08,19.5938 108.5956,19.5938 Q107.4238,19.5938 106.7206,20.125 Q106.0175,20.6563 105.7206,21.6094 Q105.4238,22.5625 105.4238,23.8281 Q105.4238,25.8438 106.1425,26.8125 Q106.8613,27.7656 108.455,27.7656 Q109.0488,27.7656 109.6738,27.6094 Q110.2988,27.4531 111.1269,27.0781 L111.1269,29.2969 Q110.3925,29.6094 109.5956,29.7656 Q108.8144,29.9219 108.0488,29.9219 Z " fill="#000000"/><text fill="#000000" font-family="sans-serif" font-size="14" lengthAdjust="spacing" textLength="40.8721" x="122.58" y="27.8467">Entity</text></g><!--class Movable--><g id="elem_Movable"><rect fill="#F1F1F1" height="32" id="Movable" rx="2.5" ry="2.5" style="stroke:#181818;stroke-width:0.5;" width="90.8984" x="35.57" y="100"/><ellipse cx="50.57" cy="116" fill="#ADD1B2" rx="11" ry="11" style="stroke:#181818;stroke-width:1;"/><path d="M50.0388,122.9219 Q48.2888,122.9219 47.1481,122.1875 Q46.0231,121.4375 45.4606,120.0938 Q44.9138,118.7344 44.9138,116.9375 Q44.9138,114.9063 45.57,113.4531 Q46.2263,112 47.5075,111.2188 Q48.7888,110.4375 50.6638,110.4375 Q51.5544,110.4375 52.2263,110.625 Q52.8981,110.7969 53.5856,111.1406 L52.7731,113.1563 Q52.1481,112.8438 51.6013,112.7188 Q51.07,112.5938 50.5856,112.5938 Q49.4138,112.5938 48.7106,113.125 Q48.0075,113.6563 47.7106,114.6094 Q47.4138,115.5625 47.4138,116.8281 Q47.4138,118.8438 48.1325,119.8125 Q48.8513,120.7656 50.445,120.7656 Q51.0388,120.7656 51.6638,120.6094 Q52.2888,120.4531 53.1169,120.0781 L53.1169,122.2969 Q52.3825,122.6094 51.5856,122.7656 Q50.8044,122.9219 50.0388,122.9219 Z " fill="#000000"/><text fill="#000000" font-family="sans-serif" font-size="14" lengthAdjust="spacing" textLength="58.8984" x="64.57" y="120.8467">Movable</text></g><!--class Visible--><g id="elem_Visible"><rect fill="#F1F1F1" height="32" id="Visible" rx="2.5" ry="2.5" style="stroke:#181818;stroke-width:0.5;" width="78.04" x="7" y="209"/><ellipse cx="22" cy="225" fill="#ADD1B2" rx="11" ry="11" style="stroke:#181818;stroke-width:1;"/><path d="M21.4688,231.9219 Q19.7188,231.9219 18.5781,231.1875 Q17.4531,230.4375 16.8906,229.0938 Q16.3438,227.7344 16.3438,225.9375 Q16.3438,223.9063 17,222.4531 Q17.6563,221 18.9375,220.2188 Q20.2188,219.4375 22.0938,219.4375 Q22.9844,219.4375 23.6563,219.625 Q24.3281,219.7969 25.0156,220.1406 L24.2031,222.1563 Q23.5781,221.8438 23.0313,221.7188 Q22.5,221.5938 22.0156,221.5938 Q20.8438,221.5938 20.1406,222.125 Q19.4375,222.6563 19.1406,223.6094 Q18.8438,224.5625 18.8438,225.8281 Q18.8438,227.8438 19.5625,228.8125 Q20.2813,229.7656 21.875,229.7656 Q22.4688,229.7656 23.0938,229.6094 Q23.7188,229.4531 24.5469,229.0781 L24.5469,231.2969 Q23.8125,231.6094 23.0156,231.7656 Q22.2344,231.9219 21.4688,231.9219 Z " fill="#000000"/><text fill="#000000" font-family="sans-serif" font-size="14" lengthAdjust="spacing" textLength="46.04" x="36" y="229.8467">Visible</text></g><!--class Player--><g id="elem_Player"><rect fill="#F1F1F1" height="32" id="Player" rx="2.5" ry="2.5" style="stroke:#181818;stroke-width:0.5;" width="75.5654" x="72.24" y="302"/><ellipse cx="87.24" cy="318" fill="#ADD1B2" rx="11" ry="11" style="stroke:#181818;stroke-width:1;"/><path d="M86.7088,324.9219 Q84.9588,324.9219 83.8181,324.1875 Q82.6931,323.4375 82.1306,322.0938 Q81.5838,320.7344 81.5838,318.9375 Q81.5838,316.9063 82.24,315.4531 Q82.8963,314 84.1775,313.2188 Q85.4588,312.4375 87.3338,312.4375 Q88.2244,312.4375 88.8963,312.625 Q89.5681,312.7969 90.2556,313.1406 L89.4431,315.1563 Q88.8181,314.8438 88.2713,314.7188 Q87.74,314.5938 87.2556,314.5938 Q86.0838,314.5938 85.3806,315.125 Q84.6775,315.6563 84.3806,316.6094 Q84.0838,317.5625 84.0838,318.8281 Q84.0838,320.8438 84.8025,321.8125 Q85.5213,322.7656 87.115,322.7656 Q87.7088,322.7656 88.3338,322.6094 Q88.9588,322.4531 89.7869,322.0781 L89.7869,324.2969 Q89.0525,324.6094 88.2556,324.7656 Q87.4744,324.9219 86.7088,324.9219 Z " fill="#000000"/><text fill="#000000" font-family="sans-serif" font-size="14" lengthAdjust="spacing" textLength="43.5654" x="101.24" y="322.8467">Player</text></g><!--class NoMovable--><g id="elem_NoMovable"><rect fill="#F1F1F1" height="32" id="NoMovable" rx="2.5" ry="2.5" style="stroke:#181818;stroke-width:0.5;" width="109.9365" x="120.05" y="209"/><ellipse cx="135.05" cy="225" fill="#ADD1B2" rx="11" ry="11" style="stroke:#181818;stroke-width:1;"/><path d="M134.5188,231.9219 Q132.7688,231.9219 131.6281,231.1875 Q130.5031,230.4375 129.9406,229.0938 Q129.3938,227.7344 129.3938,225.9375 Q129.3938,223.9063 130.05,222.4531 Q130.7063,221 131.9875,220.2188 Q133.2688,219.4375 135.1438,219.4375 Q136.0344,219.4375 136.7063,219.625 Q137.3781,219.7969 138.0656,220.1406 L137.2531,222.1563 Q136.6281,221.8438 136.0813,221.7188 Q135.55,221.5938 135.0656,221.5938 Q133.8938,221.5938 133.1906,222.125 Q132.4875,222.6563 132.1906,223.6094 Q131.8938,224.5625 131.8938,225.8281 Q131.8938,227.8438 132.6125,228.8125 Q133.3313,229.7656 134.925,229.7656 Q135.5188,229.7656 136.1438,229.6094 Q136.7688,229.4531 137.5969,229.0781 L137.5969,231.2969 Q136.8625,231.6094 136.0656,231.7656 Q135.2844,231.9219 134.5188,231.9219 Z " fill="#000000"/><text fill="#000000" font-family="sans-serif" font-size="14" lengthAdjust="spacing" textLength="77.9365" x="149.05" y="229.8467">NoMovable</text></g><!--reverse link Entity to Movable--><g id="link_Entity_Movable"><path codeLine="1" d="M113.1706,55.2855 C104.1006,72.1155 98.23,83.05 89.21,99.79 " fill="transparent" id="Entity-backto-Movable" style="stroke:#181818;stroke-width:1;"/><polygon fill="transparent" points="121.71,39.44,107.8888,52.439,118.4524,58.1319,121.71,39.44" style="stroke:#181818;stroke-width:1;"/></g><!--reverse link Movable to Visible--><g id="link_Movable_Visible"><path codeLine="2" d="M70.4088,149.4363 C63.7488,169.7763 57.67,188.37 51.03,208.7 " fill="transparent" id="Movable-backto-Visible" style="stroke:#181818;stroke-width:1;"/><polygon fill="transparent" points="76.01,132.33,64.7067,147.5693,76.1109,151.3034,76.01,132.33" style="stroke:#181818;stroke-width:1;"/></g><!--reverse link Visible to Player--><g id="link_Visible_Player"><path codeLine="3" d="M67.2369,256.1619 C79.0769,272.9919 87.55,285.05 99.32,301.79 " fill="transparent" id="Visible-backto-Player" style="stroke:#181818;stroke-width:1;"/><polygon fill="transparent" points="56.88,241.44,62.3296,259.6142,72.1442,252.7096,56.88,241.44" style="stroke:#181818;stroke-width:1;"/></g><!--reverse link Entity to NoMovable--><g id="link_Entity_NoMovable"><path codeLine="4" d="M137.4282,56.9217 C145.7982,94.1517 163.16,171.3 171.55,208.59 " fill="transparent" id="Entity-backto-NoMovable" style="stroke:#181818;stroke-width:1;"/><polygon fill="transparent" points="133.48,39.36,131.5743,58.2377,143.2821,55.6056,133.48,39.36" style="stroke:#181818;stroke-width:1;"/></g><!--reverse link NoMovable to Player--><g id="link_NoMovable_Player"><path codeLine="5" d="M153.5285,256.0878 C141.5085,272.9178 132.84,285.05 120.88,301.79 " fill="transparent" id="NoMovable-backto-Player" style="stroke:#181818;stroke-width:1;"/><polygon fill="transparent" points="163.99,241.44,148.6459,252.6006,158.4111,259.5749,163.99,241.44" style="stroke:#181818;stroke-width:1;"/></g><!--link Movable to NoMovable--><g id="link_Movable_NoMovable"><path codeLine="6" d="M83.9419,138.3523 C86.2719,151.8323 90.3,165.42 101.02,179 C110.9,191.51 119.9983,198.5333 133.4683,205.7933 " fill="transparent" id="Movable-NoMovable" style="stroke:#181818;stroke-width:1;"/><polygon fill="#181818" points="82.92,132.44,80.5114,141.9898,83.7716,137.3669,88.3945,140.6272,82.92,132.44" style="stroke:#181818;stroke-width:1;"/><polygon fill="#181818" points="138.75,208.64,132.7253,200.8488,134.3486,206.2677,128.9297,207.8911,138.75,208.64" style="stroke:#181818;stroke-width:1;"/><text fill="#000000" font-family="sans-serif" font-size="13" lengthAdjust="spacing" textLength="50.7559" x="102.02" y="175.0669">ERROR!</text></g><!--SRC=[SyqhoIofLB2fqTLLyCqlIqpAIUM2qc2niCpYJ21RWGlA00i6v2HMfXPnkIBfzSk7wOQpa9L2XHHiT7Nj46eLh1HSWuByWnIvCZ9JKXLoKtEJKekA0G00]--></g></svg>