<svg xmlns="http://www.w3.org/2000/svg" xmlns:xlink="http://www.w3.org/1999/xlink" contentStyleType="text/css" data-diagram-type="CLASS" height="373px" preserveAspectRatio="none" style="width:104px;height:373px;background:#FFFFFF;" version="1.1" viewBox="0 0 104 373" width="104px" zoomAndPan="magnify"><defs/><g><!--class Entity--><g id="elem_Entity"><rect fill="#F1F1F1" height="32" id="Entity" rx="2.5" ry="2.5" style="stroke:#181818;stroke-width:0.5;" width="72.8721" x="16.01" y="7"/><ellipse cx="31.01" cy="23" fill="#ADD1B2" rx="11" ry="11" style="stroke:#181818;stroke-width:1;"/><path d="M30.4787,29.9219 Q28.7287,29.9219 27.5881,29.1875 Q26.4631,28.4375 25.9006,27.0938 Q25.3537,25.7344 25.3537,23.9375 Q25.3537,21.9063 26.01,20.4531 Q26.6662,19 27.9475,18.2188 Q29.2287,17.4375 31.1037,17.4375 Q31.9944,17.4375 32.6663,17.625 Q33.3381,17.7969 34.0256,18.1406 L33.2131,20.1563 Q32.5881,19.8438 32.0413,19.7188 Q31.51,19.5938 31.0256,19.5938 Q29.8537,19.5938 29.1506,20.125 Q28.4475,20.6563 28.1506,21.6094 Q27.8537,22.5625 27.8537,23.8281 Q27.8537,25.8438 28.5725,26.8125 Q29.2912,27.7656 30.885,27.7656 Q31.4787,27.7656 32.1038,27.6094 Q32.7288,27.4531 33.5569,27.0781 L33.5569,29.2969 Q32.8225,29.6094 32.0256,29.7656 Q31.2444,29.9219 30.4787,29.9219 Z " fill="#000000"/><text fill="#000000" font-family="sans-serif" font-size="14" lengthAdjust="spacing" textLength="40.8721" x="45.01" y="27.8467">Entity</text></g><!--class Movable--><g id="elem_Movable"><rect fill="#F1F1F1" height="32" id="Movable" rx="2.5" ry="2.5" style="stroke:#181818;stroke-width:0.5;" width="90.8984" x="7" y="116"/><ellipse cx="22" cy="132" fill="#ADD1B2" rx="11" ry="11" style="stroke:#181818;stroke-width:1;"/><path d="M21.4688,138.9219 Q19.7188,138.9219 18.5781,138.1875 Q17.4531,137.4375 16.8906,136.0938 Q16.3438,134.7344 16.3438,132.9375 Q16.3438,130.9063 17,129.4531 Q17.6563,128 18.9375,127.2188 Q20.2188,126.4375 22.0938,126.4375 Q22.9844,126.4375 23.6563,126.625 Q24.3281,126.7969 25.0156,127.1406 L24.2031,129.1563 Q23.5781,128.8438 23.0313,128.7188 Q22.5,128.5938 22.0156,128.5938 Q20.8438,128.5938 20.1406,129.125 Q19.4375,129.6563 19.1406,130.6094 Q18.8438,131.5625 18.8438,132.8281 Q18.8438,134.8438 19.5625,135.8125 Q20.2813,136.7656 21.875,136.7656 Q22.4688,136.7656 23.0938,136.6094 Q23.7188,136.4531 24.5469,136.0781 L24.5469,138.2969 Q23.8125,138.6094 23.0156,138.7656 Q22.2344,138.9219 21.4688,138.9219 Z " fill="#000000"/><text fill="#000000" font-family="sans-serif" font-size="14" lengthAdjust="spacing" textLength="58.8984" x="36" y="136.8467">Movable</text></g><!--class Visible--><g id="elem_Visible"><rect fill="#F1F1F1" height="32" id="Visible" rx="2.5" ry="2.5" style="stroke:#181818;stroke-width:0.5;" width="78.04" x="13.43" y="225"/><ellipse cx="28.43" cy="241" fill="#ADD1B2" rx="11" ry="11" style="stroke:#181818;stroke-width:1;"/><path d="M27.8988,247.9219 Q26.1488,247.9219 25.0081,247.1875 Q23.8831,246.4375 23.3206,245.0938 Q22.7738,243.7344 22.7738,241.9375 Q22.7738,239.9063 23.43,238.4531 Q24.0863,237 25.3675,236.2188 Q26.6488,235.4375 28.5238,235.4375 Q29.4144,235.4375 30.0863,235.625 Q30.7581,235.7969 31.4456,236.1406 L30.6331,238.1563 Q30.0081,237.8438 29.4613,237.7188 Q28.93,237.5938 28.4456,237.5938 Q27.2738,237.5938 26.5706,238.125 Q25.8675,238.6563 25.5706,239.6094 Q25.2738,240.5625 25.2738,241.8281 Q25.2738,243.8438 25.9925,244.8125 Q26.7113,245.7656 28.305,245.7656 Q28.8988,245.7656 29.5238,245.6094 Q30.1488,245.4531 30.9769,245.0781 L30.9769,247.2969 Q30.2425,247.6094 29.4456,247.7656 Q28.6644,247.9219 27.8988,247.9219 Z " fill="#000000"/><text fill="#000000" font-family="sans-serif" font-size="14" lengthAdjust="spacing" textLength="46.04" x="42.43" y="245.8467">Visible</text></g><!--class Player--><g id="elem_Player"><rect fill="#F1F1F1" height="32" id="Player" rx="2.5" ry="2.5" style="stroke:#181818;stroke-width:0.5;" width="75.5654" x="14.67" y="334"/><ellipse cx="29.67" cy="350" fill="#ADD1B2" rx="11" ry="11" style="stroke:#181818;stroke-width:1;"/><path d="M29.1388,356.9219 Q27.3888,356.9219 26.2481,356.1875 Q25.1231,355.4375 24.5606,354.0938 Q24.0138,352.7344 24.0138,350.9375 Q24.0138,348.9063 24.67,347.4531 Q25.3263,346 26.6075,345.2188 Q27.8888,344.4375 29.7638,344.4375 Q30.6544,344.4375 31.3263,344.625 Q31.9981,344.7969 32.6856,345.1406 L31.8731,347.1563 Q31.2481,346.8438 30.7013,346.7188 Q30.17,346.5938 29.6856,346.5938 Q28.5138,346.5938 27.8106,347.125 Q27.1075,347.6563 26.8106,348.6094 Q26.5138,349.5625 26.5138,350.8281 Q26.5138,352.8438 27.2325,353.8125 Q27.9513,354.7656 29.545,354.7656 Q30.1388,354.7656 30.7638,354.6094 Q31.3888,354.4531 32.2169,354.0781 L32.2169,356.2969 Q31.4825,356.6094 30.6856,356.7656 Q29.9044,356.9219 29.1388,356.9219 Z " fill="#000000"/><text fill="#000000" font-family="sans-serif" font-size="14" lengthAdjust="spacing" textLength="43.5654" x="43.67" y="354.8467">Player</text></g><!--reverse link Entity to Movable--><g id="link_Entity_Movable"><path codeLine="1" d="M52.45,57.33 C52.45,77.67 52.45,95.37 52.45,115.7 " fill="transparent" id="Entity-backto-Movable" style="stroke:#181818;stroke-width:1;"/><polygon fill="transparent" points="52.45,39.33,46.45,57.33,58.45,57.33,52.45,39.33" style="stroke:#181818;stroke-width:1;"/><text fill="#000000" font-family="sans-serif" font-size="13" lengthAdjust="spacing" textLength="35.9404" x="53.45" y="82.0669">es-un</text></g><!--reverse link Movable to Visible--><g id="link_Movable_Visible"><path codeLine="2" d="M52.45,166.33 C52.45,186.67 52.45,204.37 52.45,224.7 " fill="transparent" id="Movable-backto-Visible" style="stroke:#181818;stroke-width:1;"/><polygon fill="transparent" points="52.45,148.33,46.45,166.33,58.45,166.33,52.45,148.33" style="stroke:#181818;stroke-width:1;"/><text fill="#000000" font-family="sans-serif" font-size="13" lengthAdjust="spacing" textLength="35.9404" x="53.45" y="191.0669">es-un</text></g><!--reverse link Visible to Player--><g id="link_Visible_Player"><path codeLine="3" d="M52.45,275.33 C52.45,295.67 52.45,313.37 52.45,333.7 " fill="transparent" id="Visible-backto-Player" style="stroke:#181818;stroke-width:1;"/><polygon fill="transparent" points="52.45,257.33,46.45,275.33,58.45,275.33,52.45,257.33" style="stroke:#181818;stroke-width:1;"/><text fill="#000000" font-family="sans-serif" font-size="13" lengthAdjust="spacing" textLength="35.9404" x="53.45" y="300.0669">es-un</text></g><!--SRC=[SyqhoIofLB2fqTLLyCqlIqpAILMmKaWjrYtDuuBomN9XcSMPo79GFbWk82UnChK8BfMHcPAga9kQcvHQL0m0]--></g></svg>