<svg xmlns="http://www.w3.org/2000/svg" xmlns:xlink="http://www.w3.org/1999/xlink" contentStyleType="text/css" height="343px" preserveAspectRatio="none" style="width:230px;height:343px;background:#FFFFFF;" version="1.1" viewBox="0 0 230 343" width="230px" zoomAndPan="magnify"><defs/><g><!--class Entity--><g id="elem_Entity"><rect fill="#F1F1F1" height="32" id="Entity" rx="2.5" ry="2.5" style="stroke:#181818;stroke-width:0.5;" width="69.2959" x="88.58" y="7"/><ellipse cx="103.58" cy="23" fill="#ADD1B2" rx="11" ry="11" style="stroke:#181818;stroke-width:1;"/><path d="M103.0488,29.9219 Q101.2988,29.9219 100.1581,29.1875 Q99.0331,28.4375 98.4706,27.0938 Q97.9238,25.7344 97.9238,23.9375 Q97.9238,21.9063 98.58,20.4531 Q99.2363,19 100.5175,18.2188 Q101.7988,17.4375 103.6738,17.4375 Q104.5644,17.4375 105.2363,17.625 Q105.9081,17.7969 106.5956,18.1406 L105.7831,20.1563 Q105.1581,19.8438 104.6113,19.7188 Q104.08,19.5938 103.5956,19.5938 Q102.4238,19.5938 101.7206,20.125 Q101.0175,20.6563 100.7206,21.6094 Q100.4238,22.5625 100.4238,23.8281 Q100.4238,25.8438 101.1425,26.8125 Q101.8613,27.7656 103.455,27.7656 Q104.0488,27.7656 104.6738,27.6094 Q105.2988,27.4531 106.1269,27.0781 L106.1269,29.2969 Q105.3925,29.6094 104.5956,29.7656 Q103.8144,29.9219 103.0488,29.9219 Z " fill="#000000"/><text fill="#000000" font-family="sans-serif" font-size="14" lengthAdjust="spacing" textLength="37.2959" x="117.58" y="28.432">Entity</text></g><!--class Movable--><g id="elem_Movable"><rect fill="#F1F1F1" height="32" id="Movable" rx="2.5" ry="2.5" style="stroke:#181818;stroke-width:0.5;" width="88.2518" x="31.1" y="100"/><ellipse cx="46.1" cy="116" fill="#ADD1B2" rx="11" ry="11" style="stroke:#181818;stroke-width:1;"/><path d="M45.5688,122.9219 Q43.8188,122.9219 42.6781,122.1875 Q41.5531,121.4375 40.9906,120.0938 Q40.4438,118.7344 40.4438,116.9375 Q40.4438,114.9063 41.1,113.4531 Q41.7563,112 43.0375,111.2188 Q44.3188,110.4375 46.1938,110.4375 Q47.0844,110.4375 47.7563,110.625 Q48.4281,110.7969 49.1156,111.1406 L48.3031,113.1563 Q47.6781,112.8438 47.1313,112.7188 Q46.6,112.5938 46.1156,112.5938 Q44.9438,112.5938 44.2406,113.125 Q43.5375,113.6563 43.2406,114.6094 Q42.9438,115.5625 42.9438,116.8281 Q42.9438,118.8438 43.6625,119.8125 Q44.3813,120.7656 45.975,120.7656 Q46.5688,120.7656 47.1938,120.6094 Q47.8188,120.4531 48.6469,120.0781 L48.6469,122.2969 Q47.9125,122.6094 47.1156,122.7656 Q46.3344,122.9219 45.5688,122.9219 Z " fill="#000000"/><text fill="#000000" font-family="sans-serif" font-size="14" lengthAdjust="spacing" textLength="56.2518" x="60.1" y="121.432">Movable</text></g><!--class Visible--><g id="elem_Visible"><rect fill="#F1F1F1" height="32" id="Visible" rx="2.5" ry="2.5" style="stroke:#181818;stroke-width:0.5;" width="74.4478" x="7" y="211"/><ellipse cx="22" cy="227" fill="#ADD1B2" rx="11" ry="11" style="stroke:#181818;stroke-width:1;"/><path d="M21.4688,233.9219 Q19.7188,233.9219 18.5781,233.1875 Q17.4531,232.4375 16.8906,231.0938 Q16.3438,229.7344 16.3438,227.9375 Q16.3438,225.9063 17,224.4531 Q17.6563,223 18.9375,222.2188 Q20.2188,221.4375 22.0938,221.4375 Q22.9844,221.4375 23.6563,221.625 Q24.3281,221.7969 25.0156,222.1406 L24.2031,224.1563 Q23.5781,223.8438 23.0313,223.7188 Q22.5,223.5938 22.0156,223.5938 Q20.8438,223.5938 20.1406,224.125 Q19.4375,224.6563 19.1406,225.6094 Q18.8438,226.5625 18.8438,227.8281 Q18.8438,229.8438 19.5625,230.8125 Q20.2813,231.7656 21.875,231.7656 Q22.4688,231.7656 23.0938,231.6094 Q23.7188,231.4531 24.5469,231.0781 L24.5469,233.2969 Q23.8125,233.6094 23.0156,233.7656 Q22.2344,233.9219 21.4688,233.9219 Z " fill="#000000"/><text fill="#000000" font-family="sans-serif" font-size="14" lengthAdjust="spacing" textLength="42.4478" x="36" y="232.432">Visible</text></g><!--class Player--><g id="elem_Player"><rect fill="#F1F1F1" height="32" id="Player" rx="2.5" ry="2.5" style="stroke:#181818;stroke-width:0.5;" width="72.7538" x="69.85" y="304"/><ellipse cx="84.85" cy="320" fill="#ADD1B2" rx="11" ry="11" style="stroke:#181818;stroke-width:1;"/><path d="M84.3188,326.9219 Q82.5688,326.9219 81.4281,326.1875 Q80.3031,325.4375 79.7406,324.0938 Q79.1938,322.7344 79.1938,320.9375 Q79.1938,318.9063 79.85,317.4531 Q80.5063,316 81.7875,315.2188 Q83.0688,314.4375 84.9438,314.4375 Q85.8344,314.4375 86.5063,314.625 Q87.1781,314.7969 87.8656,315.1406 L87.0531,317.1563 Q86.4281,316.8438 85.8813,316.7188 Q85.35,316.5938 84.8656,316.5938 Q83.6938,316.5938 82.9906,317.125 Q82.2875,317.6563 81.9906,318.6094 Q81.6938,319.5625 81.6938,320.8281 Q81.6938,322.8438 82.4125,323.8125 Q83.1313,324.7656 84.725,324.7656 Q85.3188,324.7656 85.9438,324.6094 Q86.5688,324.4531 87.3969,324.0781 L87.3969,326.2969 Q86.6625,326.6094 85.8656,326.7656 Q85.0844,326.9219 84.3188,326.9219 Z " fill="#000000"/><text fill="#000000" font-family="sans-serif" font-size="14" lengthAdjust="spacing" textLength="40.7538" x="98.85" y="325.432">Player</text></g><!--class NoMovable--><g id="elem_NoMovable"><rect fill="#F1F1F1" height="32" id="NoMovable" rx="2.5" ry="2.5" style="stroke:#181818;stroke-width:0.5;" width="107.3617" x="116.54" y="211"/><ellipse cx="131.54" cy="227" fill="#ADD1B2" rx="11" ry="11" style="stroke:#181818;stroke-width:1;"/><path d="M131.0088,233.9219 Q129.2588,233.9219 128.1181,233.1875 Q126.9931,232.4375 126.4306,231.0938 Q125.8838,229.7344 125.8838,227.9375 Q125.8838,225.9063 126.54,224.4531 Q127.1963,223 128.4775,222.2188 Q129.7588,221.4375 131.6338,221.4375 Q132.5244,221.4375 133.1963,221.625 Q133.8681,221.7969 134.5556,222.1406 L133.7431,224.1563 Q133.1181,223.8438 132.5713,223.7188 Q132.04,223.5938 131.5556,223.5938 Q130.3838,223.5938 129.6806,224.125 Q128.9775,224.6563 128.6806,225.6094 Q128.3838,226.5625 128.3838,227.8281 Q128.3838,229.8438 129.1025,230.8125 Q129.8213,231.7656 131.415,231.7656 Q132.0088,231.7656 132.6338,231.6094 Q133.2588,231.4531 134.0869,231.0781 L134.0869,233.2969 Q133.3525,233.6094 132.5556,233.7656 Q131.7744,233.9219 131.0088,233.9219 Z " fill="#000000"/><text fill="#000000" font-family="sans-serif" font-size="14" lengthAdjust="spacing" textLength="75.3617" x="145.54" y="232.432">NoMovable</text></g><!--reverse link Entity to Movable--><g id="link_Entity_Movable"><path codeLine="1" d="M106.6802,55.3599 C97.8002,72.1899 92.08,83.05 83.25,99.79 " fill="none" id="Entity-backto-Movable" style="stroke:#181818;stroke-width:1;"/><polygon fill="none" points="115.08,39.44,101.3736,52.56,111.9868,58.1598,115.08,39.44" style="stroke:#181818;stroke-width:1;"/></g><!--reverse link Movable to Visible--><g id="link_Movable_Visible"><path codeLine="2" d="M65.9838,149.4728 C60.0938,170.1728 54.52,189.8 48.6,210.62 " fill="none" id="Movable-backto-Visible" style="stroke:#181818;stroke-width:1;"/><polygon fill="none" points="70.91,132.16,60.2129,147.8307,71.7547,151.1149,70.91,132.16" style="stroke:#181818;stroke-width:1;"/></g><!--reverse link Visible to Player--><g id="link_Visible_Player"><path codeLine="3" d="M64.877,258.3141 C76.347,275.1441 84.45,287.05 95.86,303.79 " fill="none" id="Visible-backto-Player" style="stroke:#181818;stroke-width:1;"/><polygon fill="none" points="54.74,243.44,59.919,261.6932,69.8351,254.9351,54.74,243.44" style="stroke:#181818;stroke-width:1;"/></g><!--reverse link Entity to NoMovable--><g id="link_Entity_NoMovable"><path codeLine="4" d="M130.8386,56.7118 C139.5486,94.1518 157.9,173.02 166.65,210.64 " fill="none" id="Entity-backto-NoMovable" style="stroke:#181818;stroke-width:1;"/><polygon fill="none" points="126.76,39.18,124.9946,58.0714,136.6825,55.3523,126.76,39.18" style="stroke:#181818;stroke-width:1;"/></g><!--reverse link NoMovable to Player--><g id="link_NoMovable_Player"><path codeLine="5" d="M149.0131,258.1619 C137.1731,274.9919 128.7,287.05 116.92,303.79 " fill="none" id="NoMovable-backto-Player" style="stroke:#181818;stroke-width:1;"/><polygon fill="none" points="159.37,243.44,144.1058,254.7096,153.9204,261.6142,159.37,243.44" style="stroke:#181818;stroke-width:1;"/></g><!--link Movable to NoMovable--><g id="link_Movable_NoMovable"><path codeLine="6" d="M79.4152,138.2073 C82.6152,152.1173 87.63,166.72 99.22,181 C109.16,193.23 118.1234,200.2033 131.2134,207.5833 " fill="none" id="Movable-NoMovable" style="stroke:#181818;stroke-width:1;"/><polygon fill="#181818" points="78.07,132.36,76.1896,142.0277,79.191,137.2327,83.9859,140.2341,78.07,132.36" style="stroke:#181818;stroke-width:1;"/><polygon fill="#181818" points="136.44,210.53,130.5646,202.6256,132.0845,208.0744,126.6357,209.5944,136.44,210.53" style="stroke:#181818;stroke-width:1;"/><text fill="#000000" font-family="sans-serif" font-size="13" lengthAdjust="spacing" textLength="45.1361" x="100.22" y="176.897">ERROR!</text></g><!--SRC=[SyqhoIofLB2fqTLLyCqlIqpAIUM2qc2niCpYJ21RWGlA00i6v2HMfXPnkIBfzSk7wOQpa9L2XHHiT7Nj46eLh1HSWuByWnIvCZ9JKXLoKtEJKekA0G00]--></g></svg>