<svg xmlns="http://www.w3.org/2000/svg" xmlns:xlink="http://www.w3.org/1999/xlink" contentStyleType="text/css" data-diagram-type="CLASS" height="402px" preserveAspectRatio="none" style="width:261px;height:402px;background:#FFFFFF;" version="1.1" viewBox="0 0 261 402" width="261px" zoomAndPan="magnify"><defs/><g><!--class EsComible--><g id="elem_EsComible"><rect codeLine="1" fill="#F1F1F1" height="64.2969" id="EsComible" rx="2.5" ry="2.5" style="stroke:#181818;stroke-width:0.5;" width="105.3975" x="113.14" y="7"/><ellipse cx="128.14" cy="23" fill="#ADD1B2" rx="11" ry="11" style="stroke:#181818;stroke-width:1;"/><path d="M127.6087,29.9219 Q125.8587,29.9219 124.7181,29.1875 Q123.5931,28.4375 123.0306,27.0938 Q122.4837,25.7344 122.4837,23.9375 Q122.4837,21.9063 123.14,20.4531 Q123.7962,19 125.0775,18.2188 Q126.3587,17.4375 128.2338,17.4375 Q129.1244,17.4375 129.7963,17.625 Q130.4681,17.7969 131.1556,18.1406 L130.3431,20.1563 Q129.7181,19.8438 129.1713,19.7188 Q128.64,19.5938 128.1556,19.5938 Q126.9837,19.5938 126.2806,20.125 Q125.5775,20.6563 125.2806,21.6094 Q124.9837,22.5625 124.9837,23.8281 Q124.9837,25.8438 125.7025,26.8125 Q126.4212,27.7656 128.015,27.7656 Q128.6088,27.7656 129.2338,27.6094 Q129.8588,27.4531 130.6869,27.0781 L130.6869,29.2969 Q129.9525,29.6094 129.1556,29.7656 Q128.3744,29.9219 127.6087,29.9219 Z " fill="#000000"/><text fill="#000000" font-family="sans-serif" font-size="14" lengthAdjust="spacing" textLength="73.3975" x="142.14" y="27.8467">EsComible</text><line style="stroke:#181818;stroke-width:0.5;" x1="114.14" x2="217.5375" y1="39" y2="39"/><line style="stroke:#181818;stroke-width:0.5;" x1="114.14" x2="217.5375" y1="47" y2="47"/><text fill="#000000" font-family="sans-serif" font-size="14" lengthAdjust="spacing" textLength="89.2705" x="119.14" y="63.9951">void comer()</text></g><!--class Fruta--><g id="elem_Fruta"><rect fill="#F1F1F1" height="48" id="Fruta" rx="2.5" ry="2.5" style="stroke:#181818;stroke-width:0.5;" width="68.75" x="131.46" y="131.3"/><ellipse cx="146.46" cy="147.3" fill="#ADD1B2" rx="11" ry="11" style="stroke:#181818;stroke-width:1;"/><path d="M145.9287,154.2219 Q144.1787,154.2219 143.0381,153.4875 Q141.9131,152.7375 141.3506,151.3938 Q140.8037,150.0344 140.8037,148.2375 Q140.8037,146.2063 141.46,144.7531 Q142.1162,143.3 143.3975,142.5188 Q144.6787,141.7375 146.5537,141.7375 Q147.4444,141.7375 148.1162,141.925 Q148.7881,142.0969 149.4756,142.4406 L148.6631,144.4563 Q148.0381,144.1438 147.4912,144.0188 Q146.96,143.8938 146.4756,143.8938 Q145.3037,143.8938 144.6006,144.425 Q143.8975,144.9563 143.6006,145.9094 Q143.3037,146.8625 143.3037,148.1281 Q143.3037,150.1438 144.0225,151.1125 Q144.7412,152.0656 146.335,152.0656 Q146.9287,152.0656 147.5537,151.9094 Q148.1787,151.7531 149.0069,151.3781 L149.0069,153.5969 Q148.2725,153.9094 147.4756,154.0656 Q146.6944,154.2219 145.9287,154.2219 Z " fill="#000000"/><text fill="#000000" font-family="sans-serif" font-size="14" lengthAdjust="spacing" textLength="36.75" x="160.46" y="152.1467">Fruta</text><line style="stroke:#181818;stroke-width:0.5;" x1="132.46" x2="199.21" y1="163.3" y2="163.3"/><line style="stroke:#181818;stroke-width:0.5;" x1="132.46" x2="199.21" y1="171.3" y2="171.3"/></g><!--class Manzana--><g id="elem_Manzana"><rect fill="#F1F1F1" height="48" id="Manzana" rx="2.5" ry="2.5" style="stroke:#181818;stroke-width:0.5;" width="94.9111" x="61.38" y="239.3"/><ellipse cx="76.38" cy="255.3" fill="#ADD1B2" rx="11" ry="11" style="stroke:#181818;stroke-width:1;"/><path d="M75.8488,262.2219 Q74.0988,262.2219 72.9581,261.4875 Q71.8331,260.7375 71.2706,259.3938 Q70.7238,258.0344 70.7238,256.2375 Q70.7238,254.2063 71.38,252.7531 Q72.0363,251.3 73.3175,250.5188 Q74.5988,249.7375 76.4738,249.7375 Q77.3644,249.7375 78.0363,249.925 Q78.7081,250.0969 79.3956,250.4406 L78.5831,252.4563 Q77.9581,252.1438 77.4113,252.0188 Q76.88,251.8938 76.3956,251.8938 Q75.2238,251.8938 74.5206,252.425 Q73.8175,252.9563 73.5206,253.9094 Q73.2238,254.8625 73.2238,256.1281 Q73.2238,258.1438 73.9425,259.1125 Q74.6613,260.0656 76.255,260.0656 Q76.8488,260.0656 77.4738,259.9094 Q78.0988,259.7531 78.9269,259.3781 L78.9269,261.5969 Q78.1925,261.9094 77.3956,262.0656 Q76.6144,262.2219 75.8488,262.2219 Z " fill="#000000"/><text fill="#000000" font-family="sans-serif" font-size="14" lengthAdjust="spacing" textLength="62.9111" x="90.38" y="260.1467">Manzana</text><line style="stroke:#181818;stroke-width:0.5;" x1="62.38" x2="155.2911" y1="271.3" y2="271.3"/><line style="stroke:#181818;stroke-width:0.5;" x1="62.38" x2="155.2911" y1="279.3" y2="279.3"/></g><!--class Pera--><g id="elem_Pera"><rect fill="#F1F1F1" height="48" id="Pera" rx="2.5" ry="2.5" style="stroke:#181818;stroke-width:0.5;" width="63.3906" x="191.14" y="239.3"/><ellipse cx="206.14" cy="255.3" fill="#ADD1B2" rx="11" ry="11" style="stroke:#181818;stroke-width:1;"/><path d="M205.6088,262.2219 Q203.8588,262.2219 202.7181,261.4875 Q201.5931,260.7375 201.0306,259.3938 Q200.4838,258.0344 200.4838,256.2375 Q200.4838,254.2063 201.14,252.7531 Q201.7963,251.3 203.0775,250.5188 Q204.3588,249.7375 206.2338,249.7375 Q207.1244,249.7375 207.7963,249.925 Q208.4681,250.0969 209.1556,250.4406 L208.3431,252.4563 Q207.7181,252.1438 207.1713,252.0188 Q206.64,251.8938 206.1556,251.8938 Q204.9838,251.8938 204.2806,252.425 Q203.5775,252.9563 203.2806,253.9094 Q202.9838,254.8625 202.9838,256.1281 Q202.9838,258.1438 203.7025,259.1125 Q204.4213,260.0656 206.015,260.0656 Q206.6088,260.0656 207.2338,259.9094 Q207.8588,259.7531 208.6869,259.3781 L208.6869,261.5969 Q207.9525,261.9094 207.1556,262.0656 Q206.3744,262.2219 205.6088,262.2219 Z " fill="#000000"/><text fill="#000000" font-family="sans-serif" font-size="14" lengthAdjust="spacing" textLength="31.3906" x="220.14" y="260.1467">Pera</text><line style="stroke:#181818;stroke-width:0.5;" x1="192.14" x2="253.5306" y1="271.3" y2="271.3"/><line style="stroke:#181818;stroke-width:0.5;" x1="192.14" x2="253.5306" y1="279.3" y2="279.3"/></g><!--class Golden--><g id="elem_Golden"><rect fill="#F1F1F1" height="48" id="Golden" rx="2.5" ry="2.5" style="stroke:#181818;stroke-width:0.5;" width="81.6768" x="7" y="347.3"/><ellipse cx="22" cy="363.3" fill="#ADD1B2" rx="11" ry="11" style="stroke:#181818;stroke-width:1;"/><path d="M21.4688,370.2219 Q19.7188,370.2219 18.5781,369.4875 Q17.4531,368.7375 16.8906,367.3938 Q16.3438,366.0344 16.3438,364.2375 Q16.3438,362.2063 17,360.7531 Q17.6563,359.3 18.9375,358.5188 Q20.2188,357.7375 22.0938,357.7375 Q22.9844,357.7375 23.6563,357.925 Q24.3281,358.0969 25.0156,358.4406 L24.2031,360.4563 Q23.5781,360.1438 23.0313,360.0188 Q22.5,359.8938 22.0156,359.8938 Q20.8438,359.8938 20.1406,360.425 Q19.4375,360.9563 19.1406,361.9094 Q18.8438,362.8625 18.8438,364.1281 Q18.8438,366.1438 19.5625,367.1125 Q20.2813,368.0656 21.875,368.0656 Q22.4688,368.0656 23.0938,367.9094 Q23.7188,367.7531 24.5469,367.3781 L24.5469,369.5969 Q23.8125,369.9094 23.0156,370.0656 Q22.2344,370.2219 21.4688,370.2219 Z " fill="#000000"/><text fill="#000000" font-family="sans-serif" font-size="14" lengthAdjust="spacing" textLength="49.6768" x="36" y="368.1467">Golden</text><line style="stroke:#181818;stroke-width:0.5;" x1="8" x2="87.6768" y1="379.3" y2="379.3"/><line style="stroke:#181818;stroke-width:0.5;" x1="8" x2="87.6768" y1="387.3" y2="387.3"/></g><!--class PinkLady--><g id="elem_PinkLady"><rect fill="#F1F1F1" height="48" id="PinkLady" rx="2.5" ry="2.5" style="stroke:#181818;stroke-width:0.5;" width="94.8633" x="123.41" y="347.3"/><ellipse cx="138.41" cy="363.3" fill="#ADD1B2" rx="11" ry="11" style="stroke:#181818;stroke-width:1;"/><path d="M137.8788,370.2219 Q136.1288,370.2219 134.9881,369.4875 Q133.8631,368.7375 133.3006,367.3938 Q132.7538,366.0344 132.7538,364.2375 Q132.7538,362.2063 133.41,360.7531 Q134.0663,359.3 135.3475,358.5188 Q136.6288,357.7375 138.5038,357.7375 Q139.3944,357.7375 140.0663,357.925 Q140.7381,358.0969 141.4256,358.4406 L140.6131,360.4563 Q139.9881,360.1438 139.4413,360.0188 Q138.91,359.8938 138.4256,359.8938 Q137.2538,359.8938 136.5506,360.425 Q135.8475,360.9563 135.5506,361.9094 Q135.2538,362.8625 135.2538,364.1281 Q135.2538,366.1438 135.9725,367.1125 Q136.6913,368.0656 138.285,368.0656 Q138.8788,368.0656 139.5038,367.9094 Q140.1288,367.7531 140.9569,367.3781 L140.9569,369.5969 Q140.2225,369.9094 139.4256,370.0656 Q138.6444,370.2219 137.8788,370.2219 Z " fill="#000000"/><text fill="#000000" font-family="sans-serif" font-size="14" lengthAdjust="spacing" textLength="62.8633" x="152.41" y="368.1467">PinkLady</text><line style="stroke:#181818;stroke-width:0.5;" x1="124.41" x2="217.2733" y1="379.3" y2="379.3"/><line style="stroke:#181818;stroke-width:0.5;" x1="124.41" x2="217.2733" y1="387.3" y2="387.3"/></g><!--reverse link Fruta to Manzana--><g id="link_Fruta_Manzana"><path codeLine="5" d="M144.8101,195.416 C135.3101,213.096 130.81,221.43 121.32,239.09 " fill="transparent" id="Fruta-backto-Manzana" style="stroke:#181818;stroke-width:1;"/><polygon fill="transparent" points="153.33,179.56,139.5248,192.576,150.0954,198.2559,153.33,179.56" style="stroke:#181818;stroke-width:1;"/></g><!--reverse link Fruta to Pera--><g id="link_Fruta_Pera"><path codeLine="6" d="M186.8699,195.416 C196.3699,213.096 200.86,221.43 210.36,239.09 " fill="transparent" id="Fruta-backto-Pera" style="stroke:#181818;stroke-width:1;"/><polygon fill="transparent" points="178.35,179.56,181.5846,198.2559,192.1552,192.576,178.35,179.56" style="stroke:#181818;stroke-width:1;"/></g><!--reverse link EsComible to Fruta--><g id="link_EsComible_Fruta"><path codeLine="8" d="M165.84,89.65 C165.84,108.39 165.84,113.77 165.84,130.88 " fill="transparent" id="EsComible-backto-Fruta" style="stroke:#181818;stroke-width:1;stroke-dasharray:7.0,7.0;"/><polygon fill="transparent" points="165.84,71.65,159.84,89.65,171.84,89.65,165.84,71.65" style="stroke:#181818;stroke-width:1;"/></g><!--reverse link Manzana to Golden--><g id="link_Manzana_Golden"><path codeLine="11" d="M86.4749,303.1628 C76.3049,320.8428 71.36,329.43 61.19,347.09 " fill="transparent" id="Manzana-backto-Golden" style="stroke:#181818;stroke-width:1;"/><polygon fill="transparent" points="95.45,287.56,81.2739,300.1711,91.6758,306.1545,95.45,287.56" style="stroke:#181818;stroke-width:1;"/></g><!--reverse link Manzana to PinkLady--><g id="link_Manzana_PinkLady"><path codeLine="12" d="M131.5272,303.0978 C141.8672,320.7778 146.93,329.43 157.26,347.09 " fill="transparent" id="Manzana-backto-PinkLady" style="stroke:#181818;stroke-width:1;"/><polygon fill="transparent" points="122.44,287.56,126.3479,306.1269,136.7064,300.0688,122.44,287.56" style="stroke:#181818;stroke-width:1;"/></g><!--SRC=[Iyv9B2vMS2rspi_DJCf9LQZcKW22ilpC58Na_DpK8WrDhbekBhUYqf941PiQNLq5tyIygiIyH6IXWDIYH2ukX1asDNfw2c1vBYukg7g8IlVyd9JKF5InWCoyR9_4b4e0]--></g></svg>