<svg xmlns="http://www.w3.org/2000/svg" xmlns:xlink="http://www.w3.org/1999/xlink" contentStyleType="text/css" height="405px" preserveAspectRatio="none" style="width:256px;height:405px;background:#FFFFFF;" version="1.1" viewBox="0 0 256 405" width="256px" zoomAndPan="magnify"><defs/><g><!--class EsComible--><g id="elem_EsComible"><rect codeLine="1" fill="#F1F1F1" height="67.0679" id="EsComible" rx="2.5" ry="2.5" style="stroke:#181818;stroke-width:0.5;" width="100.6277" x="112.4" y="7"/><ellipse cx="127.4" cy="23" fill="#ADD1B2" rx="11" ry="11" style="stroke:#181818;stroke-width:1;"/><path d="M126.8688,29.9219 Q125.1188,29.9219 123.9781,29.1875 Q122.8531,28.4375 122.2906,27.0938 Q121.7438,25.7344 121.7438,23.9375 Q121.7438,21.9063 122.4,20.4531 Q123.0563,19 124.3375,18.2188 Q125.6188,17.4375 127.4938,17.4375 Q128.3844,17.4375 129.0563,17.625 Q129.7281,17.7969 130.4156,18.1406 L129.6031,20.1563 Q128.9781,19.8438 128.4313,19.7188 Q127.9,19.5938 127.4156,19.5938 Q126.2438,19.5938 125.5406,20.125 Q124.8375,20.6563 124.5406,21.6094 Q124.2438,22.5625 124.2438,23.8281 Q124.2438,25.8438 124.9625,26.8125 Q125.6813,27.7656 127.275,27.7656 Q127.8688,27.7656 128.4938,27.6094 Q129.1188,27.4531 129.9469,27.0781 L129.9469,29.2969 Q129.2125,29.6094 128.4156,29.7656 Q127.6344,29.9219 126.8688,29.9219 Z " fill="#000000"/><text fill="#000000" font-family="sans-serif" font-size="14" lengthAdjust="spacing" textLength="68.6277" x="141.4" y="28.432">EsComible</text><line style="stroke:#181818;stroke-width:0.5;" x1="113.4" x2="212.0277" y1="39" y2="39"/><line style="stroke:#181818;stroke-width:0.5;" x1="113.4" x2="212.0277" y1="47" y2="47"/><text fill="#000000" font-family="sans-serif" font-size="14" lengthAdjust="spacing" textLength="81.8017" x="118.4" y="65.9659">void comer()</text></g><!--class Fruta--><g id="elem_Fruta"><rect fill="#F1F1F1" height="48" id="Fruta" rx="2.5" ry="2.5" style="stroke:#181818;stroke-width:0.5;" width="66.6079" x="129.41" y="134.07"/><ellipse cx="144.41" cy="150.07" fill="#ADD1B2" rx="11" ry="11" style="stroke:#181818;stroke-width:1;"/><path d="M143.8788,156.9919 Q142.1288,156.9919 140.9881,156.2575 Q139.8631,155.5075 139.3006,154.1638 Q138.7538,152.8044 138.7538,151.0075 Q138.7538,148.9763 139.41,147.5231 Q140.0663,146.07 141.3475,145.2888 Q142.6288,144.5075 144.5038,144.5075 Q145.3944,144.5075 146.0663,144.695 Q146.7381,144.8669 147.4256,145.2106 L146.6131,147.2263 Q145.9881,146.9138 145.4413,146.7888 Q144.91,146.6638 144.4256,146.6638 Q143.2538,146.6638 142.5506,147.195 Q141.8475,147.7263 141.5506,148.6794 Q141.2538,149.6325 141.2538,150.8981 Q141.2538,152.9138 141.9725,153.8825 Q142.6913,154.8356 144.285,154.8356 Q144.8788,154.8356 145.5038,154.6794 Q146.1288,154.5231 146.9569,154.1481 L146.9569,156.3669 Q146.2225,156.6794 145.4256,156.8356 Q144.6444,156.9919 143.8788,156.9919 Z " fill="#000000"/><text fill="#000000" font-family="sans-serif" font-size="14" lengthAdjust="spacing" textLength="34.6079" x="158.41" y="155.502">Fruta</text><line style="stroke:#181818;stroke-width:0.5;" x1="130.41" x2="195.0179" y1="166.07" y2="166.07"/><line style="stroke:#181818;stroke-width:0.5;" x1="130.41" x2="195.0179" y1="174.07" y2="174.07"/></g><!--class Manzana--><g id="elem_Manzana"><rect fill="#F1F1F1" height="48" id="Manzana" rx="2.5" ry="2.5" style="stroke:#181818;stroke-width:0.5;" width="92.1438" x="60.64" y="242.07"/><ellipse cx="75.64" cy="258.07" fill="#ADD1B2" rx="11" ry="11" style="stroke:#181818;stroke-width:1;"/><path d="M75.1088,264.9919 Q73.3588,264.9919 72.2181,264.2575 Q71.0931,263.5075 70.5306,262.1638 Q69.9838,260.8044 69.9838,259.0075 Q69.9838,256.9763 70.64,255.5231 Q71.2963,254.07 72.5775,253.2888 Q73.8588,252.5075 75.7338,252.5075 Q76.6244,252.5075 77.2963,252.695 Q77.9681,252.8669 78.6556,253.2106 L77.8431,255.2263 Q77.2181,254.9138 76.6713,254.7888 Q76.14,254.6638 75.6556,254.6638 Q74.4838,254.6638 73.7806,255.195 Q73.0775,255.7263 72.7806,256.6794 Q72.4838,257.6325 72.4838,258.8981 Q72.4838,260.9138 73.2025,261.8825 Q73.9213,262.8356 75.515,262.8356 Q76.1088,262.8356 76.7338,262.6794 Q77.3588,262.5231 78.1869,262.1481 L78.1869,264.3669 Q77.4525,264.6794 76.6556,264.8356 Q75.8744,264.9919 75.1088,264.9919 Z " fill="#000000"/><text fill="#000000" font-family="sans-serif" font-size="14" lengthAdjust="spacing" textLength="60.1438" x="89.64" y="263.502">Manzana</text><line style="stroke:#181818;stroke-width:0.5;" x1="61.64" x2="151.7838" y1="274.07" y2="274.07"/><line style="stroke:#181818;stroke-width:0.5;" x1="61.64" x2="151.7838" y1="282.07" y2="282.07"/></g><!--class Pera--><g id="elem_Pera"><rect fill="#F1F1F1" height="48" id="Pera" rx="2.5" ry="2.5" style="stroke:#181818;stroke-width:0.5;" width="62.0019" x="187.71" y="242.07"/><ellipse cx="202.71" cy="258.07" fill="#ADD1B2" rx="11" ry="11" style="stroke:#181818;stroke-width:1;"/><path d="M202.1788,264.9919 Q200.4288,264.9919 199.2881,264.2575 Q198.1631,263.5075 197.6006,262.1638 Q197.0538,260.8044 197.0538,259.0075 Q197.0538,256.9763 197.71,255.5231 Q198.3663,254.07 199.6475,253.2888 Q200.9288,252.5075 202.8038,252.5075 Q203.6944,252.5075 204.3663,252.695 Q205.0381,252.8669 205.7256,253.2106 L204.9131,255.2263 Q204.2881,254.9138 203.7413,254.7888 Q203.21,254.6638 202.7256,254.6638 Q201.5538,254.6638 200.8506,255.195 Q200.1475,255.7263 199.8506,256.6794 Q199.5538,257.6325 199.5538,258.8981 Q199.5538,260.9138 200.2725,261.8825 Q200.9913,262.8356 202.585,262.8356 Q203.1788,262.8356 203.8038,262.6794 Q204.4288,262.5231 205.2569,262.1481 L205.2569,264.3669 Q204.5225,264.6794 203.7256,264.8356 Q202.9444,264.9919 202.1788,264.9919 Z " fill="#000000"/><text fill="#000000" font-family="sans-serif" font-size="14" lengthAdjust="spacing" textLength="30.0019" x="216.71" y="263.502">Pera</text><line style="stroke:#181818;stroke-width:0.5;" x1="188.71" x2="248.7119" y1="274.07" y2="274.07"/><line style="stroke:#181818;stroke-width:0.5;" x1="188.71" x2="248.7119" y1="282.07" y2="282.07"/></g><!--class Golden--><g id="elem_Golden"><rect fill="#F1F1F1" height="48" id="Golden" rx="2.5" ry="2.5" style="stroke:#181818;stroke-width:0.5;" width="79.4318" x="7" y="350.07"/><ellipse cx="22" cy="366.07" fill="#ADD1B2" rx="11" ry="11" style="stroke:#181818;stroke-width:1;"/><path d="M21.4688,372.9919 Q19.7188,372.9919 18.5781,372.2575 Q17.4531,371.5075 16.8906,370.1638 Q16.3438,368.8044 16.3438,367.0075 Q16.3438,364.9763 17,363.5231 Q17.6563,362.07 18.9375,361.2888 Q20.2188,360.5075 22.0938,360.5075 Q22.9844,360.5075 23.6563,360.695 Q24.3281,360.8669 25.0156,361.2106 L24.2031,363.2263 Q23.5781,362.9138 23.0313,362.7888 Q22.5,362.6638 22.0156,362.6638 Q20.8438,362.6638 20.1406,363.195 Q19.4375,363.7263 19.1406,364.6794 Q18.8438,365.6325 18.8438,366.8981 Q18.8438,368.9138 19.5625,369.8825 Q20.2813,370.8356 21.875,370.8356 Q22.4688,370.8356 23.0938,370.6794 Q23.7188,370.5231 24.5469,370.1481 L24.5469,372.3669 Q23.8125,372.6794 23.0156,372.8356 Q22.2344,372.9919 21.4688,372.9919 Z " fill="#000000"/><text fill="#000000" font-family="sans-serif" font-size="14" lengthAdjust="spacing" textLength="47.4318" x="36" y="371.502">Golden</text><line style="stroke:#181818;stroke-width:0.5;" x1="8" x2="85.4318" y1="382.07" y2="382.07"/><line style="stroke:#181818;stroke-width:0.5;" x1="8" x2="85.4318" y1="390.07" y2="390.07"/></g><!--class PinkLady--><g id="elem_PinkLady"><rect fill="#F1F1F1" height="48" id="PinkLady" rx="2.5" ry="2.5" style="stroke:#181818;stroke-width:0.5;" width="91.1498" x="121.14" y="350.07"/><ellipse cx="136.14" cy="366.07" fill="#ADD1B2" rx="11" ry="11" style="stroke:#181818;stroke-width:1;"/><path d="M135.6088,372.9919 Q133.8588,372.9919 132.7181,372.2575 Q131.5931,371.5075 131.0306,370.1638 Q130.4838,368.8044 130.4838,367.0075 Q130.4838,364.9763 131.14,363.5231 Q131.7963,362.07 133.0775,361.2888 Q134.3588,360.5075 136.2338,360.5075 Q137.1244,360.5075 137.7963,360.695 Q138.4681,360.8669 139.1556,361.2106 L138.3431,363.2263 Q137.7181,362.9138 137.1713,362.7888 Q136.64,362.6638 136.1556,362.6638 Q134.9838,362.6638 134.2806,363.195 Q133.5775,363.7263 133.2806,364.6794 Q132.9838,365.6325 132.9838,366.8981 Q132.9838,368.9138 133.7025,369.8825 Q134.4213,370.8356 136.015,370.8356 Q136.6088,370.8356 137.2338,370.6794 Q137.8588,370.5231 138.6869,370.1481 L138.6869,372.3669 Q137.9525,372.6794 137.1556,372.8356 Q136.3744,372.9919 135.6088,372.9919 Z " fill="#000000"/><text fill="#000000" font-family="sans-serif" font-size="14" lengthAdjust="spacing" textLength="59.1498" x="150.14" y="371.502">PinkLady</text><line style="stroke:#181818;stroke-width:0.5;" x1="122.14" x2="211.2898" y1="382.07" y2="382.07"/><line style="stroke:#181818;stroke-width:0.5;" x1="122.14" x2="211.2898" y1="390.07" y2="390.07"/></g><!--reverse link Fruta to Manzana--><g id="link_Fruta_Manzana"><path codeLine="5" d="M142.0221,198.2456 C132.6821,215.9256 128.31,224.2 118.98,241.86 " fill="none" id="Fruta-backto-Manzana" style="stroke:#181818;stroke-width:1;"/><polygon fill="none" points="150.43,182.33,136.7169,195.443,147.3273,201.0483,150.43,182.33" style="stroke:#181818;stroke-width:1;"/></g><!--reverse link Fruta to Pera--><g id="link_Fruta_Pera"><path codeLine="6" d="M183.4109,198.2493 C192.7409,215.9293 197.13,224.2 206.46,241.86 " fill="none" id="Fruta-backto-Pera" style="stroke:#181818;stroke-width:1;"/><polygon fill="none" points="175.01,182.33,178.1044,201.0496,188.7173,195.449,175.01,182.33" style="stroke:#181818;stroke-width:1;"/></g><!--reverse link EsComible to Fruta--><g id="link_EsComible_Fruta"><path codeLine="8" d="M162.72,92.33 C162.72,111.28 162.72,116.66 162.72,133.73 " fill="none" id="EsComible-backto-Fruta" style="stroke:#181818;stroke-width:1;stroke-dasharray:7.0,7.0;"/><polygon fill="none" points="162.72,74.33,156.72,92.33,168.72,92.33,162.72,74.33" style="stroke:#181818;stroke-width:1;"/></g><!--reverse link Manzana to Golden--><g id="link_Manzana_Golden"><path codeLine="11" d="M84.6816,305.9937 C74.6716,323.6737 69.85,332.2 59.85,349.86 " fill="none" id="Manzana-backto-Golden" style="stroke:#181818;stroke-width:1;"/><polygon fill="none" points="93.55,290.33,79.4604,303.0376,89.9028,308.9498,93.55,290.33" style="stroke:#181818;stroke-width:1;"/></g><!--reverse link Manzana to PinkLady--><g id="link_Manzana_PinkLady"><path codeLine="12" d="M128.7484,305.9937 C138.7584,323.6737 143.58,332.2 153.58,349.86 " fill="none" id="Manzana-backto-PinkLady" style="stroke:#181818;stroke-width:1;"/><polygon fill="none" points="119.88,290.33,123.5272,308.9498,133.9696,303.0376,119.88,290.33" style="stroke:#181818;stroke-width:1;"/></g><!--SRC=[Iyv9B2vMS2rspi_DJCf9LQZcKW22ilpC58Na_DpK8WrDhbekBhUYqf941PiQNLq5tyIygiIyH6IXWDIYH2ukX1asDNfw2c1vBYukg7g8IlVyd9JKF5InWCoyR9_4b4e0]--></g></svg>