<?xml version="1.0" encoding="UTF-8" standalone="no"?>
<!DOCTYPE svg PUBLIC "-//W3C//DTD SVG 1.1//EN"
 "http://www.w3.org/Graphics/SVG/1.1/DTD/svg11.dtd">
<!-- Generated by graphviz version 2.47.3 (20210619.1520)
 -->
<!-- Pages: 1 -->
<svg width="360pt" height="116pt"
 viewBox="0.00 0.00 359.89 116.00" xmlns="http://www.w3.org/2000/svg" xmlns:xlink="http://www.w3.org/1999/xlink">
<g id="graph0" class="graph" transform="scale(1 1) rotate(0) translate(4 112)">
<!-- processor -->
<g id="node1" class="node">
<title>processor</title>
<polygon fill="none" stroke="black" points="338.39,-36 260.39,-36 260.39,0 338.39,0 338.39,-36"/>
<text text-anchor="middle" x="299.39" y="-14.3" font-family="Times,serif" font-size="14.00">procesador</text>
</g>
<!-- vm -->
<g id="node2" class="node">
<title>vm</title>
<polygon fill="none" stroke="black" points="351.89,-108 246.89,-108 246.89,-72 351.89,-72 351.89,-108"/>
<text text-anchor="middle" x="299.39" y="-86.3" font-family="Times,serif" font-size="14.00">intérprete</text>
</g>
<!-- vm&#45;&gt;processor -->
<g id="edge2" class="edge">
<title>vm&#45;&gt;processor</title>
<path fill="none" stroke="black" d="M299.39,-71.59C299.39,-63.94 299.39,-54.89 299.39,-46.43"/>
<polygon fill="black" stroke="black" points="302.89,-46.17 299.39,-36.17 295.89,-46.17 302.89,-46.17"/>
<text text-anchor="middle" x="288.89" y="-50.3" font-family="Times,serif" font-size="14.00">ejecuta programa en</text>
</g>
<!-- source -->
<g id="node3" class="node">
<title>source</title>
<ellipse fill="none" stroke="black" cx="60.44" cy="-90" rx="60.39" ry="18"/>
<text text-anchor="middle" x="60.44" y="-86.3" font-family="Times,serif" font-size="14.00">código fuente</text>
</g>
<!-- source&#45;&gt;vm -->
<g id="edge1" class="edge">
<title>source&#45;&gt;vm</title>
<path fill="none" stroke="black" d="M120.93,-90C156.11,-90 200.62,-90 236.26,-90"/>
<polygon fill="black" stroke="black" points="236.53,-93.5 246.53,-90 236.53,-86.5 236.53,-93.5"/>
<text text-anchor="middle" x="183.89" y="-93.8" font-family="Times,serif" font-size="14.00">interpretado por</text>
</g>
</g>
</svg>
