<svg xmlns="http://www.w3.org/2000/svg" xmlns:xlink="http://www.w3.org/1999/xlink" contentStyleType="text/css" data-diagram-type="CLASS" height="101px" preserveAspectRatio="none" style="width:122px;height:101px;background:#FFFFFF;" version="1.1" viewBox="0 0 122 101" width="122px" zoomAndPan="magnify"><defs/><g><!--class Fruta--><g id="elem_Fruta"><rect codeLine="1" fill="#F1F1F1" height="80.5938" id="Fruta" rx="2.5" ry="2.5" style="stroke:#181818;stroke-width:0.5;" width="101.2705" x="7" y="7"/><ellipse cx="36.6342" cy="23" fill="#ADD1B2" rx="11" ry="11" style="stroke:#181818;stroke-width:1;"/><path d="M36.103,29.9219 Q34.353,29.9219 33.2124,29.1875 Q32.0874,28.4375 31.5249,27.0938 Q30.978,25.7344 30.978,23.9375 Q30.978,21.9063 31.6342,20.4531 Q32.2905,19 33.5717,18.2188 Q34.853,17.4375 36.728,17.4375 Q37.6186,17.4375 38.2905,17.625 Q38.9624,17.7969 39.6499,18.1406 L38.8374,20.1563 Q38.2124,19.8438 37.6655,19.7188 Q37.1342,19.5938 36.6499,19.5938 Q35.478,19.5938 34.7749,20.125 Q34.0717,20.6563 33.7749,21.6094 Q33.478,22.5625 33.478,23.8281 Q33.478,25.8438 34.1967,26.8125 Q34.9155,27.7656 36.5092,27.7656 Q37.103,27.7656 37.728,27.6094 Q38.353,27.4531 39.1811,27.0781 L39.1811,29.2969 Q38.4467,29.6094 37.6499,29.7656 Q36.8686,29.9219 36.103,29.9219 Z " fill="#000000"/><text fill="#000000" font-family="sans-serif" font-size="14" lengthAdjust="spacing" textLength="36.75" x="53.8863" y="27.8467">Fruta</text><line style="stroke:#181818;stroke-width:0.5;" x1="8" x2="107.2705" y1="39" y2="39"/><text fill="#000000" font-family="sans-serif" font-size="14" lengthAdjust="spacing" textLength="76.4258" x="13" y="55.9951">int tama&#241;o</text><line style="stroke:#181818;stroke-width:0.5;" x1="8" x2="107.2705" y1="63.2969" y2="63.2969"/><text fill="#000000" font-family="sans-serif" font-size="14" lengthAdjust="spacing" textLength="89.2705" x="13" y="80.292">void comer()</text></g><!--SRC=[Iyv9B2vMS2igBKbKgEPI08BCl1A5aiJSnCCRyy7yilpC58Na_DpK8WrDhbe0]--></g></svg>