<svg xmlns="http://www.w3.org/2000/svg" xmlns:xlink="http://www.w3.org/1999/xlink" contentStyleType="text/css" height="107px" preserveAspectRatio="none" style="width:114px;height:107px;background:#FFFFFF;" version="1.1" viewBox="0 0 114 107" width="114px" zoomAndPan="magnify"><defs/><g><!--class Fruta--><g id="elem_Fruta"><rect codeLine="1" fill="#F1F1F1" height="86.1358" id="Fruta" rx="2.5" ry="2.5" style="stroke:#181818;stroke-width:0.5;" width="93.8017" x="7" y="7"/><ellipse cx="34.2372" cy="23" fill="#ADD1B2" rx="11" ry="11" style="stroke:#181818;stroke-width:1;"/><path d="M33.706,29.9219 Q31.956,29.9219 30.8153,29.1875 Q29.6903,28.4375 29.1278,27.0938 Q28.581,25.7344 28.581,23.9375 Q28.581,21.9063 29.2372,20.4531 Q29.8935,19 31.1747,18.2188 Q32.456,17.4375 34.331,17.4375 Q35.2216,17.4375 35.8935,17.625 Q36.5653,17.7969 37.2528,18.1406 L36.4403,20.1563 Q35.8153,19.8438 35.2685,19.7188 Q34.7372,19.5938 34.2528,19.5938 Q33.081,19.5938 32.3778,20.125 Q31.6747,20.6563 31.3778,21.6094 Q31.081,22.5625 31.081,23.8281 Q31.081,25.8438 31.7997,26.8125 Q32.5185,27.7656 34.1122,27.7656 Q34.706,27.7656 35.331,27.6094 Q35.956,27.4531 36.7841,27.0781 L36.7841,29.2969 Q36.0497,29.6094 35.2528,29.7656 Q34.4716,29.9219 33.706,29.9219 Z " fill="#000000"/><text fill="#000000" font-family="sans-serif" font-size="14" lengthAdjust="spacing" textLength="34.6079" x="50.9566" y="28.432">Fruta</text><line style="stroke:#181818;stroke-width:0.5;" x1="8" x2="99.8017" y1="39" y2="39"/><text fill="#000000" font-family="sans-serif" font-size="14" lengthAdjust="spacing" textLength="71.9317" x="13" y="57.9659">int tama&#241;o</text><line style="stroke:#181818;stroke-width:0.5;" x1="8" x2="99.8017" y1="66.0679" y2="66.0679"/><text fill="#000000" font-family="sans-serif" font-size="14" lengthAdjust="spacing" textLength="81.8017" x="13" y="85.0339">void comer()</text></g><!--SRC=[Iyv9B2vMS2igBKbKgEPI08BCl1A5aiJSnCCRyy7yilpC58Na_DpK8WrDhbe0]--></g></svg>