<svg xmlns="http://www.w3.org/2000/svg" xmlns:xlink="http://www.w3.org/1999/xlink" contentStyleType="text/css" height="290px" preserveAspectRatio="none" style="width:147px;height:290px;background:#FFFFFF;" version="1.1" viewBox="0 0 147 290" width="147px" zoomAndPan="magnify"><defs/><g><!--class Object--><g id="elem_Object"><rect fill="#F1F1F1" height="32" id="Object" rx="2.5" ry="2.5" style="stroke:#181818;stroke-width:0.5;" width="74.8258" x="36.4" y="7"/><ellipse cx="51.4" cy="23" fill="#ADD1B2" rx="11" ry="11" style="stroke:#181818;stroke-width:1;"/><path d="M50.8688,29.9219 Q49.1188,29.9219 47.9781,29.1875 Q46.8531,28.4375 46.2906,27.0938 Q45.7438,25.7344 45.7438,23.9375 Q45.7438,21.9063 46.4,20.4531 Q47.0563,19 48.3375,18.2188 Q49.6188,17.4375 51.4938,17.4375 Q52.3844,17.4375 53.0563,17.625 Q53.7281,17.7969 54.4156,18.1406 L53.6031,20.1563 Q52.9781,19.8438 52.4313,19.7188 Q51.9,19.5938 51.4156,19.5938 Q50.2438,19.5938 49.5406,20.125 Q48.8375,20.6563 48.5406,21.6094 Q48.2438,22.5625 48.2438,23.8281 Q48.2438,25.8438 48.9625,26.8125 Q49.6813,27.7656 51.275,27.7656 Q51.8688,27.7656 52.4938,27.6094 Q53.1188,27.4531 53.9469,27.0781 L53.9469,29.2969 Q53.2125,29.6094 52.4156,29.7656 Q51.6344,29.9219 50.8688,29.9219 Z " fill="#000000"/><text fill="#000000" font-family="sans-serif" font-size="14" lengthAdjust="spacing" textLength="42.8258" x="65.4" y="28.432">Object</text></g><!--class Sword--><g id="elem_Sword"><rect fill="#F1F1F1" height="32" id="Sword" rx="2.5" ry="2.5" style="stroke:#181818;stroke-width:0.5;" width="73.5518" x="37.03" y="100"/><ellipse cx="52.03" cy="116" fill="#ADD1B2" rx="11" ry="11" style="stroke:#181818;stroke-width:1;"/><path d="M51.4988,122.9219 Q49.7488,122.9219 48.6081,122.1875 Q47.4831,121.4375 46.9206,120.0938 Q46.3738,118.7344 46.3738,116.9375 Q46.3738,114.9063 47.03,113.4531 Q47.6863,112 48.9675,111.2188 Q50.2488,110.4375 52.1238,110.4375 Q53.0144,110.4375 53.6863,110.625 Q54.3581,110.7969 55.0456,111.1406 L54.2331,113.1563 Q53.6081,112.8438 53.0613,112.7188 Q52.53,112.5938 52.0456,112.5938 Q50.8738,112.5938 50.1706,113.125 Q49.4675,113.6563 49.1706,114.6094 Q48.8738,115.5625 48.8738,116.8281 Q48.8738,118.8438 49.5925,119.8125 Q50.3113,120.7656 51.905,120.7656 Q52.4988,120.7656 53.1238,120.6094 Q53.7488,120.4531 54.5769,120.0781 L54.5769,122.2969 Q53.8425,122.6094 53.0456,122.7656 Q52.2644,122.9219 51.4988,122.9219 Z " fill="#000000"/><text fill="#000000" font-family="sans-serif" font-size="14" lengthAdjust="spacing" textLength="41.5518" x="66.03" y="121.432">Sword</text></g><!--class Takeable--><g id="elem_Takeable"><rect codeLine="3" fill="#F1F1F1" height="72.4799" id="Takeable" rx="2.5" ry="2.5" style="stroke:#181818;stroke-width:0.5;" width="133.6176" x="7" y="211"/><ellipse cx="41.1861" cy="233.706" fill="#ADD1B2" rx="11" ry="11" style="stroke:#181818;stroke-width:1;"/><path d="M40.6549,240.6279 Q38.9049,240.6279 37.7642,239.8935 Q36.6392,239.1435 36.0767,237.7998 Q35.5299,236.4404 35.5299,234.6435 Q35.5299,232.6123 36.1861,231.1591 Q36.8424,229.706 38.1236,228.9248 Q39.4049,228.1435 41.2799,228.1435 Q42.1705,228.1435 42.8424,228.331 Q43.5142,228.5029 44.2017,228.8466 L43.3892,230.8623 Q42.7642,230.5498 42.2174,230.4248 Q41.6861,230.2998 41.2017,230.2998 Q40.0299,230.2998 39.3267,230.831 Q38.6236,231.3623 38.3267,232.3154 Q38.0299,233.2685 38.0299,234.5341 Q38.0299,236.5498 38.7486,237.5185 Q39.4674,238.4716 41.0611,238.4716 Q41.6549,238.4716 42.2799,238.3154 Q42.9049,238.1591 43.733,237.7841 L43.733,240.0029 Q42.9986,240.3154 42.2017,240.4716 Q41.4205,240.6279 40.6549,240.6279 Z " fill="#000000"/><text fill="#000000" font-family="sans-serif" font-size="12" font-style="italic" lengthAdjust="spacing" textLength="40.8843" x="68.4984" y="228.8281">&#171;mixin&#187;</text><text fill="#000000" font-family="sans-serif" font-size="14" lengthAdjust="spacing" textLength="58.9818" x="59.4497" y="247.31">Takeable</text><line style="stroke:#181818;stroke-width:0.5;" x1="8" x2="139.6176" y1="256.412" y2="256.412"/><ellipse cx="18" cy="271.446" fill="#84BE84" rx="3" ry="3" style="stroke:#038048;stroke-width:1;"/><text fill="#000000" font-family="sans-serif" font-size="14" lengthAdjust="spacing" textLength="107.6176" x="27" y="275.378">putInInventory()</text></g><!--reverse link Object to Sword--><g id="link_Object_Sword"><path codeLine="2" d="M73.81,57.44 C73.81,74.27 73.81,83.05 73.81,99.79 " fill="none" id="Object-backto-Sword" style="stroke:#181818;stroke-width:1;"/><polygon fill="none" points="73.81,39.44,67.81,57.44,79.81,57.44,73.81,39.44" style="stroke:#181818;stroke-width:1;"/></g><!--link Sword to Takeable--><g id="link_Sword_Takeable"><path codeLine="6" d="M73.81,132.33 C73.81,151.52 73.81,184.99 73.81,210.7 " fill="none" id="Sword-Takeable" style="stroke:#181818;stroke-width:1;"/><text fill="#000000" font-family="sans-serif" font-size="13" lengthAdjust="spacing" textLength="39.13" x="74.81" y="176.897">assign</text></g><!--SRC=[yq_AIaqkKR2fqTLL22xFBqhXIiv9B2vM24dCJarCoabLiB79pQp8pBEpKwZcKW02xOBI4iyypxoorBoI_A9A3KskMYwmHWMW2N1TLWf0GpBJyxWoCbDI5L9p2qeg5N9JSvDIYugv0000]--></g></svg>