<svg xmlns="http://www.w3.org/2000/svg" xmlns:xlink="http://www.w3.org/1999/xlink" contentStyleType="text/css" data-diagram-type="CLASS" height="280px" preserveAspectRatio="none" style="width:154px;height:280px;background:#FFFFFF;" version="1.1" viewBox="0 0 154 280" width="154px" zoomAndPan="magnify"><defs/><g><!--class Object--><g id="elem_Object"><rect fill="#F1F1F1" height="32" id="Object" rx="2.5" ry="2.5" style="stroke:#181818;stroke-width:0.5;" width="77.5957" x="38.22" y="7"/><ellipse cx="53.22" cy="23" fill="#ADD1B2" rx="11" ry="11" style="stroke:#181818;stroke-width:1;"/><path d="M52.6888,29.9219 Q50.9388,29.9219 49.7981,29.1875 Q48.6731,28.4375 48.1106,27.0938 Q47.5638,25.7344 47.5638,23.9375 Q47.5638,21.9063 48.22,20.4531 Q48.8763,19 50.1575,18.2188 Q51.4388,17.4375 53.3138,17.4375 Q54.2044,17.4375 54.8763,17.625 Q55.5481,17.7969 56.2356,18.1406 L55.4231,20.1563 Q54.7981,19.8438 54.2513,19.7188 Q53.72,19.5938 53.2356,19.5938 Q52.0638,19.5938 51.3606,20.125 Q50.6575,20.6563 50.3606,21.6094 Q50.0638,22.5625 50.0638,23.8281 Q50.0638,25.8438 50.7825,26.8125 Q51.5013,27.7656 53.095,27.7656 Q53.6888,27.7656 54.3138,27.6094 Q54.9388,27.4531 55.7669,27.0781 L55.7669,29.2969 Q55.0325,29.6094 54.2356,29.7656 Q53.4544,29.9219 52.6888,29.9219 Z " fill="#000000"/><text fill="#000000" font-family="sans-serif" font-size="14" lengthAdjust="spacing" textLength="45.5957" x="67.22" y="27.8467">Object</text></g><!--class Sword--><g id="elem_Sword"><rect fill="#F1F1F1" height="32" id="Sword" rx="2.5" ry="2.5" style="stroke:#181818;stroke-width:0.5;" width="75.5449" x="39.25" y="100"/><ellipse cx="54.25" cy="116" fill="#ADD1B2" rx="11" ry="11" style="stroke:#181818;stroke-width:1;"/><path d="M53.7188,122.9219 Q51.9688,122.9219 50.8281,122.1875 Q49.7031,121.4375 49.1406,120.0938 Q48.5938,118.7344 48.5938,116.9375 Q48.5938,114.9063 49.25,113.4531 Q49.9063,112 51.1875,111.2188 Q52.4688,110.4375 54.3438,110.4375 Q55.2344,110.4375 55.9063,110.625 Q56.5781,110.7969 57.2656,111.1406 L56.4531,113.1563 Q55.8281,112.8438 55.2813,112.7188 Q54.75,112.5938 54.2656,112.5938 Q53.0938,112.5938 52.3906,113.125 Q51.6875,113.6563 51.3906,114.6094 Q51.0938,115.5625 51.0938,116.8281 Q51.0938,118.8438 51.8125,119.8125 Q52.5313,120.7656 54.125,120.7656 Q54.7188,120.7656 55.3438,120.6094 Q55.9688,120.4531 56.7969,120.0781 L56.7969,122.2969 Q56.0625,122.6094 55.2656,122.7656 Q54.4844,122.9219 53.7188,122.9219 Z " fill="#000000"/><text fill="#000000" font-family="sans-serif" font-size="14" lengthAdjust="spacing" textLength="43.5449" x="68.25" y="120.8467">Sword</text></g><!--class Takeable--><g id="elem_Takeable"><rect codeLine="3" fill="#F1F1F1" height="64.5625" id="Takeable" rx="2.5" ry="2.5" style="stroke:#181818;stroke-width:0.5;" width="140.0439" x="7" y="209"/><ellipse cx="41.9006" cy="229.1328" fill="#ADD1B2" rx="11" ry="11" style="stroke:#181818;stroke-width:1;"/><path d="M41.3694,236.0547 Q39.6194,236.0547 38.4788,235.3203 Q37.3538,234.5703 36.7913,233.2266 Q36.2444,231.8672 36.2444,230.0703 Q36.2444,228.0391 36.9006,226.5859 Q37.5569,225.1328 38.8381,224.3516 Q40.1194,223.5703 41.9944,223.5703 Q42.885,223.5703 43.5569,223.7578 Q44.2288,223.9297 44.9163,224.2734 L44.1038,226.2891 Q43.4788,225.9766 42.9319,225.8516 Q42.4006,225.7266 41.9163,225.7266 Q40.7444,225.7266 40.0413,226.2578 Q39.3381,226.7891 39.0413,227.7422 Q38.7444,228.6953 38.7444,229.9609 Q38.7444,231.9766 39.4631,232.9453 Q40.1819,233.8984 41.7756,233.8984 Q42.3694,233.8984 42.9944,233.7422 Q43.6194,233.5859 44.4475,233.2109 L44.4475,235.4297 Q43.7131,235.7422 42.9163,235.8984 Q42.135,236.0547 41.3694,236.0547 Z " fill="#000000"/><text fill="#000000" font-family="sans-serif" font-size="12" font-style="italic" lengthAdjust="spacing" textLength="47.877" x="68.2947" y="225.1387">&#171;mixin&#187;</text><text fill="#000000" font-family="sans-serif" font-size="14" lengthAdjust="spacing" textLength="63.8203" x="60.323" y="240.9639">Takeable</text><line style="stroke:#181818;stroke-width:0.5;" x1="8" x2="146.0439" y1="249.2656" y2="249.2656"/><ellipse cx="18" cy="262.9141" fill="#84BE84" rx="3" ry="3" style="stroke:#038048;stroke-width:1;"/><text fill="#000000" font-family="sans-serif" font-size="14" lengthAdjust="spacing" textLength="114.0439" x="27" y="266.2607">putInInventory()</text></g><!--reverse link Object to Sword--><g id="link_Object_Sword"><path codeLine="2" d="M77.02,57.43 C77.02,74.27 77.02,83.04 77.02,99.79 " fill="transparent" id="Object-backto-Sword" style="stroke:#181818;stroke-width:1;"/><polygon fill="transparent" points="77.02,39.43,71.02,57.43,83.02,57.43,77.02,39.43" style="stroke:#181818;stroke-width:1;"/></g><!--link Sword to Takeable--><g id="link_Sword_Takeable"><path codeLine="6" d="M77.02,132.36 C77.02,151.34 77.02,184.1 77.02,208.57 " fill="transparent" id="Sword-Takeable" style="stroke:#181818;stroke-width:1;"/><text fill="#000000" font-family="sans-serif" font-size="13" lengthAdjust="spacing" textLength="41.6152" x="78.02" y="175.0669">assign</text></g><!--SRC=[yq_AIaqkKR2fqTLL22xFBqhXIiv9B2vM24dCJarCoabLiB79pQp8pBEpKwZcKW02xOBI4iyypxoorBoI_A9A3KskMYwmHWMW2N1TLWf0GpBJyxWoCbDI5L9p2qeg5N9JSvDIYugv0000]--></g></svg>