<svg xmlns="http://www.w3.org/2000/svg" xmlns:xlink="http://www.w3.org/1999/xlink" contentStyleType="text/css" data-diagram-type="CLASS" height="202px" preserveAspectRatio="none" style="width:245px;height:202px;background:#FFFFFF;" version="1.1" viewBox="0 0 245 202" width="245px" zoomAndPan="magnify"><defs/><g><!--class Fruta--><g id="elem_Fruta"><rect codeLine="1" fill="#F1F1F1" height="80.5938" id="Fruta" rx="2.5" ry="2.5" style="stroke:#181818;stroke-width:0.5;" width="101.2705" x="7" y="7"/><ellipse cx="36.6342" cy="23" fill="#ADD1B2" rx="11" ry="11" style="stroke:#181818;stroke-width:1;"/><path d="M36.103,29.9219 Q34.353,29.9219 33.2124,29.1875 Q32.0874,28.4375 31.5249,27.0938 Q30.978,25.7344 30.978,23.9375 Q30.978,21.9063 31.6342,20.4531 Q32.2905,19 33.5717,18.2188 Q34.853,17.4375 36.728,17.4375 Q37.6186,17.4375 38.2905,17.625 Q38.9624,17.7969 39.6499,18.1406 L38.8374,20.1563 Q38.2124,19.8438 37.6655,19.7188 Q37.1342,19.5938 36.6499,19.5938 Q35.478,19.5938 34.7749,20.125 Q34.0717,20.6563 33.7749,21.6094 Q33.478,22.5625 33.478,23.8281 Q33.478,25.8438 34.1967,26.8125 Q34.9155,27.7656 36.5092,27.7656 Q37.103,27.7656 37.728,27.6094 Q38.353,27.4531 39.1811,27.0781 L39.1811,29.2969 Q38.4467,29.6094 37.6499,29.7656 Q36.8686,29.9219 36.103,29.9219 Z " fill="#000000"/><text fill="#000000" font-family="sans-serif" font-size="14" lengthAdjust="spacing" textLength="36.75" x="53.8863" y="27.8467">Fruta</text><line style="stroke:#181818;stroke-width:0.5;" x1="8" x2="107.2705" y1="39" y2="39"/><text fill="#000000" font-family="sans-serif" font-size="14" lengthAdjust="spacing" textLength="76.4258" x="13" y="55.9951">int tama&#241;o</text><line style="stroke:#181818;stroke-width:0.5;" x1="8" x2="107.2705" y1="63.2969" y2="63.2969"/><text fill="#000000" font-family="sans-serif" font-size="14" lengthAdjust="spacing" textLength="89.2705" x="13" y="80.292">void comer()</text></g><!--class Manzana--><g id="elem_Manzana"><rect codeLine="6" fill="#F1F1F1" height="48" id="Manzana" rx="2.5" ry="2.5" style="stroke:#181818;stroke-width:0.5;" width="94.9111" x="143.18" y="23.29"/><ellipse cx="158.18" cy="39.29" fill="#ADD1B2" rx="11" ry="11" style="stroke:#181818;stroke-width:1;"/><path d="M157.6488,46.2119 Q155.8988,46.2119 154.7581,45.4775 Q153.6331,44.7275 153.0706,43.3837 Q152.5238,42.0244 152.5238,40.2275 Q152.5238,38.1962 153.18,36.7431 Q153.8363,35.29 155.1175,34.5087 Q156.3988,33.7275 158.2738,33.7275 Q159.1644,33.7275 159.8363,33.915 Q160.5081,34.0869 161.1956,34.4306 L160.3831,36.4462 Q159.7581,36.1337 159.2113,36.0087 Q158.68,35.8837 158.1956,35.8837 Q157.0238,35.8837 156.3206,36.415 Q155.6175,36.9462 155.3206,37.8994 Q155.0238,38.8525 155.0238,40.1181 Q155.0238,42.1337 155.7425,43.1025 Q156.4613,44.0556 158.055,44.0556 Q158.6488,44.0556 159.2738,43.8994 Q159.8988,43.7431 160.7269,43.3681 L160.7269,45.5869 Q159.9925,45.8994 159.1956,46.0556 Q158.4144,46.2119 157.6488,46.2119 Z " fill="#000000"/><text fill="#000000" font-family="sans-serif" font-size="14" lengthAdjust="spacing" textLength="62.9111" x="172.18" y="44.1367">Manzana</text><line style="stroke:#181818;stroke-width:0.5;" x1="144.18" x2="237.0911" y1="55.29" y2="55.29"/><line style="stroke:#181818;stroke-width:0.5;" x1="144.18" x2="237.0911" y1="63.29" y2="63.29"/></g><!--class Pera--><g id="elem_Pera"><rect codeLine="7" fill="#F1F1F1" height="48" id="Pera" rx="2.5" ry="2.5" style="stroke:#181818;stroke-width:0.5;" width="63.3906" x="25.94" y="147.59"/><ellipse cx="40.94" cy="163.59" fill="#ADD1B2" rx="11" ry="11" style="stroke:#181818;stroke-width:1;"/><path d="M40.4088,170.5119 Q38.6588,170.5119 37.5181,169.7775 Q36.3931,169.0275 35.8306,167.6838 Q35.2838,166.3244 35.2838,164.5275 Q35.2838,162.4963 35.94,161.0431 Q36.5963,159.59 37.8775,158.8088 Q39.1588,158.0275 41.0338,158.0275 Q41.9244,158.0275 42.5963,158.215 Q43.2681,158.3869 43.9556,158.7306 L43.1431,160.7463 Q42.5181,160.4338 41.9713,160.3088 Q41.44,160.1838 40.9556,160.1838 Q39.7838,160.1838 39.0806,160.715 Q38.3775,161.2463 38.0806,162.1994 Q37.7838,163.1525 37.7838,164.4181 Q37.7838,166.4338 38.5025,167.4025 Q39.2213,168.3556 40.815,168.3556 Q41.4088,168.3556 42.0338,168.1994 Q42.6588,168.0431 43.4869,167.6681 L43.4869,169.8869 Q42.7525,170.1994 41.9556,170.3556 Q41.1744,170.5119 40.4088,170.5119 Z " fill="#000000"/><text fill="#000000" font-family="sans-serif" font-size="14" lengthAdjust="spacing" textLength="31.3906" x="54.94" y="168.4367">Pera</text><line style="stroke:#181818;stroke-width:0.5;" x1="26.94" x2="88.3306" y1="179.59" y2="179.59"/><line style="stroke:#181818;stroke-width:0.5;" x1="26.94" x2="88.3306" y1="187.59" y2="187.59"/></g><!--SRC=[Iyv9B2vMS2igBKbKgEPI08BCl1A5aiJSnCCRyy7yilpC58Na_DpK8WrDhbekhcIm3j_4lAh4l4GeBo2rA140]--></g></svg>