<svg xmlns="http://www.w3.org/2000/svg" xmlns:xlink="http://www.w3.org/1999/xlink" contentStyleType="text/css" height="208px" preserveAspectRatio="none" style="width:237px;height:208px;background:#FFFFFF;" version="1.1" viewBox="0 0 237 208" width="237px" zoomAndPan="magnify"><defs/><g><!--class Fruta--><g id="elem_Fruta"><rect codeLine="1" fill="#F1F1F1" height="86.1358" id="Fruta" rx="2.5" ry="2.5" style="stroke:#181818;stroke-width:0.5;" width="94" x="7" y="7"/><ellipse cx="34.15" cy="23" fill="#ADD1B2" rx="11" ry="11" style="stroke:#181818;stroke-width:1.0;"/><path d="M33.6188,29.9219 Q31.8688,29.9219 30.7281,29.1875 Q29.6031,28.4375 29.0406,27.0938 Q28.4938,25.7344 28.4938,23.9375 Q28.4938,21.9063 29.15,20.4531 Q29.8063,19 31.0875,18.2188 Q32.3688,17.4375 34.2438,17.4375 Q35.1344,17.4375 35.8063,17.625 Q36.4781,17.7969 37.1656,18.1406 L36.3531,20.1563 Q35.7281,19.8438 35.1813,19.7188 Q34.65,19.5938 34.1656,19.5938 Q32.9938,19.5938 32.2906,20.125 Q31.5875,20.6563 31.2906,21.6094 Q30.9938,22.5625 30.9938,23.8281 Q30.9938,25.8438 31.7125,26.8125 Q32.4313,27.7656 34.025,27.7656 Q34.6188,27.7656 35.2438,27.6094 Q35.8688,27.4531 36.6969,27.0781 L36.6969,29.2969 Q35.9625,29.6094 35.1656,29.7656 Q34.3844,29.9219 33.6188,29.9219 Z " fill="#000000"/><text fill="#000000" font-family="sans-serif" font-size="14" lengthAdjust="spacing" textLength="35" x="50.85" y="28.432">Fruta</text><line style="stroke:#181818;stroke-width:0.5;" x1="8" x2="100" y1="39" y2="39"/><text fill="#000000" font-family="sans-serif" font-size="14" lengthAdjust="spacing" textLength="73" x="13" y="57.9659">int tama&#241;o</text><line style="stroke:#181818;stroke-width:0.5;" x1="8" x2="100" y1="66.0679" y2="66.0679"/><text fill="#000000" font-family="sans-serif" font-size="14" lengthAdjust="spacing" textLength="82" x="13" y="85.0339">void comer()</text></g><!--class Manzana--><g id="elem_Manzana"><rect codeLine="6" fill="#F1F1F1" height="48" id="Manzana" rx="2.5" ry="2.5" style="stroke:#181818;stroke-width:0.5;" width="94" x="136" y="26.07"/><ellipse cx="151" cy="42.07" fill="#ADD1B2" rx="11" ry="11" style="stroke:#181818;stroke-width:1.0;"/><path d="M150.4688,48.9919 Q148.7188,48.9919 147.5781,48.2575 Q146.4531,47.5075 145.8906,46.1637 Q145.3438,44.8044 145.3438,43.0075 Q145.3438,40.9762 146,39.5231 Q146.6563,38.07 147.9375,37.2887 Q149.2188,36.5075 151.0938,36.5075 Q151.9844,36.5075 152.6563,36.695 Q153.3281,36.8669 154.0156,37.2106 L153.2031,39.2262 Q152.5781,38.9137 152.0313,38.7887 Q151.5,38.6637 151.0156,38.6637 Q149.8438,38.6637 149.1406,39.195 Q148.4375,39.7262 148.1406,40.6794 Q147.8438,41.6325 147.8438,42.8981 Q147.8438,44.9137 148.5625,45.8825 Q149.2813,46.8356 150.875,46.8356 Q151.4688,46.8356 152.0938,46.6794 Q152.7188,46.5231 153.5469,46.1481 L153.5469,48.3669 Q152.8125,48.6794 152.0156,48.8356 Q151.2344,48.9919 150.4688,48.9919 Z " fill="#000000"/><text fill="#000000" font-family="sans-serif" font-size="14" lengthAdjust="spacing" textLength="62" x="165" y="47.502">Manzana</text><line style="stroke:#181818;stroke-width:0.5;" x1="137" x2="229" y1="58.07" y2="58.07"/><line style="stroke:#181818;stroke-width:0.5;" x1="137" x2="229" y1="66.07" y2="66.07"/></g><!--class Pera--><g id="elem_Pera"><rect codeLine="7" fill="#F1F1F1" height="48" id="Pera" rx="2.5" ry="2.5" style="stroke:#181818;stroke-width:0.5;" width="62" x="23" y="153.14"/><ellipse cx="38" cy="169.14" fill="#ADD1B2" rx="11" ry="11" style="stroke:#181818;stroke-width:1.0;"/><path d="M37.4688,176.0619 Q35.7188,176.0619 34.5781,175.3275 Q33.4531,174.5775 32.8906,173.2338 Q32.3438,171.8744 32.3438,170.0775 Q32.3438,168.0463 33,166.5931 Q33.6563,165.14 34.9375,164.3588 Q36.2188,163.5775 38.0938,163.5775 Q38.9844,163.5775 39.6563,163.765 Q40.3281,163.9369 41.0156,164.2806 L40.2031,166.2963 Q39.5781,165.9838 39.0313,165.8588 Q38.5,165.7338 38.0156,165.7338 Q36.8438,165.7338 36.1406,166.265 Q35.4375,166.7963 35.1406,167.7494 Q34.8438,168.7025 34.8438,169.9681 Q34.8438,171.9838 35.5625,172.9525 Q36.2813,173.9056 37.875,173.9056 Q38.4688,173.9056 39.0938,173.7494 Q39.7188,173.5931 40.5469,173.2181 L40.5469,175.4369 Q39.8125,175.7494 39.0156,175.9056 Q38.2344,176.0619 37.4688,176.0619 Z " fill="#000000"/><text fill="#000000" font-family="sans-serif" font-size="14" lengthAdjust="spacing" textLength="30" x="52" y="174.572">Pera</text><line style="stroke:#181818;stroke-width:0.5;" x1="24" x2="84" y1="185.14" y2="185.14"/><line style="stroke:#181818;stroke-width:0.5;" x1="24" x2="84" y1="193.14" y2="193.14"/></g><!--SRC=[Iyv9B2vMS2igBKbKgEPI08BCl1A5aiJSnCCRyy7yilpC58Na_DpK8WrDhbekhcIm3j_4lAh4l4GeBo2rA140]--></g></svg>