<?xml version="1.0" encoding="UTF-8" standalone="no"?>
<!DOCTYPE svg PUBLIC "-//W3C//DTD SVG 1.1//EN"
 "http://www.w3.org/Graphics/SVG/1.1/DTD/svg11.dtd">
<!-- Generated by graphviz version 12.1.0 (20240811.2233)
 -->
<!-- Title: nodos Pages: 1 -->
<svg width="335pt" height="101pt"
 viewBox="0.00 0.00 334.56 101.00" xmlns="http://www.w3.org/2000/svg" xmlns:xlink="http://www.w3.org/1999/xlink">
<g id="graph0" class="graph" transform="scale(1 1) rotate(0) translate(4 97)">
<title>nodos</title>
<polygon fill="ghostwhite" stroke="none" points="-4,4 -4,-97 330.56,-97 330.56,4 -4,4"/>
<g id="clust1" class="cluster">
<title>cluster_0</title>
<polygon fill="ghostwhite" stroke="black" points="8,-8 8,-85 318.56,-85 318.56,-8 8,-8"/>
<text text-anchor="middle" x="163.28" y="-67.7" font-family="Times,serif" font-size="14.00">audio</text>
</g>
<!-- oscillator -->
<g id="node1" class="node">
<title>oscillator</title>
<ellipse fill="none" stroke="black" cx="61.21" cy="-34" rx="45.21" ry="18"/>
<text text-anchor="middle" x="61.21" y="-28.95" font-family="Times,serif" font-size="14.00">oscillator</text>
</g>
<!-- gain -->
<g id="node2" class="node">
<title>gain</title>
<ellipse fill="none" stroke="black" cx="169.42" cy="-34" rx="27" ry="18"/>
<text text-anchor="middle" x="169.42" y="-28.95" font-family="Times,serif" font-size="14.00">gain</text>
</g>
<!-- oscillator&#45;&gt;gain -->
<g id="edge1" class="edge">
<title>oscillator&#45;&gt;gain</title>
<path fill="none" stroke="black" d="M106.64,-34C114.64,-34 122.91,-34 130.7,-34"/>
<polygon fill="black" stroke="black" points="130.54,-37.5 140.54,-34 130.54,-30.5 130.54,-37.5"/>
</g>
<!-- speaker -->
<g id="node3" class="node">
<title>speaker</title>
<ellipse fill="none" stroke="black" cx="271.49" cy="-34" rx="39.07" ry="18"/>
<text text-anchor="middle" x="271.49" y="-28.95" font-family="Times,serif" font-size="14.00">speaker</text>
</g>
<!-- gain&#45;&gt;speaker -->
<g id="edge2" class="edge">
<title>gain&#45;&gt;speaker</title>
<path fill="none" stroke="black" d="M196.71,-34C204.03,-34 212.24,-34 220.44,-34"/>
<polygon fill="black" stroke="black" points="220.43,-37.5 230.43,-34 220.43,-30.5 220.43,-37.5"/>
</g>
</g>
</svg>
