<?xml version="1.0" encoding="UTF-8" standalone="no"?>
<!DOCTYPE svg PUBLIC "-//W3C//DTD SVG 1.1//EN"
 "http://www.w3.org/Graphics/SVG/1.1/DTD/svg11.dtd">
<!-- Generated by graphviz version 8.1.0 (20230707.0739)
 -->
<!-- Title: nodos Pages: 1 -->
<svg width="394pt" height="101pt"
 viewBox="0.00 0.00 393.99 101.00" xmlns="http://www.w3.org/2000/svg" xmlns:xlink="http://www.w3.org/1999/xlink">
<g id="graph0" class="graph" transform="scale(1 1) rotate(0) translate(4 97)">
<title>nodos</title>
<g id="clust1" class="cluster">
<title>cluster_0</title>
<polygon fill="none" stroke="black" points="8,-8 8,-85 377.99,-85 377.99,-8 8,-8"/>
<text text-anchor="middle" x="193" y="-67.7" font-family="Times,serif" font-size="14.00">audio</text>
</g>
<!-- oscillator -->
<g id="node1" class="node">
<title>oscillator</title>
<ellipse fill="none" stroke="black" cx="73.52" cy="-34" rx="57.52" ry="18"/>
<text text-anchor="middle" x="73.52" y="-29.32" font-family="Times,serif" font-size="14.00">oscillator</text>
</g>
<!-- gain -->
<g id="node2" class="node">
<title>gain</title>
<ellipse fill="none" stroke="black" cx="199.84" cy="-34" rx="32.79" ry="18"/>
<text text-anchor="middle" x="199.84" y="-29.32" font-family="Times,serif" font-size="14.00">gain</text>
</g>
<!-- oscillator&#45;&gt;gain -->
<g id="edge1" class="edge">
<title>oscillator&#45;&gt;gain</title>
<path fill="none" stroke="black" d="M131.22,-34C139.49,-34 147.89,-34 155.83,-34"/>
<polygon fill="black" stroke="black" points="155.68,-37.5 165.68,-34 155.68,-30.5 155.68,-37.5"/>
</g>
<!-- speaker -->
<g id="node3" class="node">
<title>speaker</title>
<ellipse fill="none" stroke="black" cx="319.31" cy="-34" rx="50.68" ry="18"/>
<text text-anchor="middle" x="319.31" y="-29.32" font-family="Times,serif" font-size="14.00">speaker</text>
</g>
<!-- gain&#45;&gt;speaker -->
<g id="edge2" class="edge">
<title>gain&#45;&gt;speaker</title>
<path fill="none" stroke="black" d="M232.94,-34C240.5,-34 248.8,-34 257.17,-34"/>
<polygon fill="black" stroke="black" points="257.15,-37.5 267.15,-34 257.15,-30.5 257.15,-37.5"/>
</g>
</g>
</svg>
