<svg xmlns="http://www.w3.org/2000/svg" xmlns:xlink="http://www.w3.org/1999/xlink" contentStyleType="text/css" data-diagram-type="CLASS" height="414px" preserveAspectRatio="none" style="width:475px;height:414px;background:#FFFFFF;" version="1.1" viewBox="0 0 475 414" width="475px" zoomAndPan="magnify"><defs/><g><!--class Manager--><g id="elem_Manager"><rect codeLine="1" fill="#F1F1F1" height="32" id="Manager" rx="2.5" ry="2.5" style="stroke:#181818;stroke-width:0.5;" width="93.3662" x="174.96" y="191"/><ellipse cx="189.96" cy="207" fill="#A9DCDF" rx="11" ry="11" style="stroke:#181818;stroke-width:1;"/><path d="M185.1319,212.75 L188.4756,200.5625 L191.6163,200.5625 L194.9913,212.75 L192.5225,212.75 L191.7881,209.7344 L188.2725,209.7344 L187.5225,212.75 L185.1319,212.75 Z M189.5381,204.7031 L188.7881,207.7031 L191.3038,207.7031 L190.585,204.7031 Q190.4444,204.125 190.3194,203.5781 Q190.1944,203.0156 190.0538,202.4375 Q189.9444,203.0156 189.8038,203.5781 Q189.6631,204.125 189.5381,204.7031 Z " fill="#000000"/><text fill="#000000" font-family="sans-serif" font-size="14" font-style="italic" lengthAdjust="spacing" textLength="61.3662" x="203.96" y="211.8467">Manager</text></g><!--class Component--><g id="elem_Component"><rect codeLine="2" fill="#F1F1F1" height="32" id="Component" rx="2.5" ry="2.5" style="stroke:#181818;stroke-width:0.5;" width="113.2793" x="7" y="283"/><ellipse cx="22" cy="299" fill="#A9DCDF" rx="11" ry="11" style="stroke:#181818;stroke-width:1;"/><path d="M17.1719,304.75 L20.5156,292.5625 L23.6563,292.5625 L27.0313,304.75 L24.5625,304.75 L23.8281,301.7344 L20.3125,301.7344 L19.5625,304.75 L17.1719,304.75 Z M21.5781,296.7031 L20.8281,299.7031 L23.3438,299.7031 L22.625,296.7031 Q22.4844,296.125 22.3594,295.5781 Q22.2344,295.0156 22.0938,294.4375 Q21.9844,295.0156 21.8438,295.5781 Q21.7031,296.125 21.5781,296.7031 Z " fill="#000000"/><text fill="#000000" font-family="sans-serif" font-size="14" font-style="italic" lengthAdjust="spacing" textLength="81.2793" x="36" y="303.8467">Component</text></g><!--class PhysicsManager--><g id="elem_PhysicsManager"><rect fill="#F1F1F1" height="32" id="PhysicsManager" rx="2.5" ry="2.5" style="stroke:#181818;stroke-width:0.5;" width="145.1416" x="323.07" y="283"/><ellipse cx="338.07" cy="299" fill="#ADD1B2" rx="11" ry="11" style="stroke:#181818;stroke-width:1;"/><path d="M337.5388,305.9219 Q335.7888,305.9219 334.6481,305.1875 Q333.5231,304.4375 332.9606,303.0938 Q332.4138,301.7344 332.4138,299.9375 Q332.4138,297.9063 333.07,296.4531 Q333.7263,295 335.0075,294.2188 Q336.2888,293.4375 338.1638,293.4375 Q339.0544,293.4375 339.7263,293.625 Q340.3981,293.7969 341.0856,294.1406 L340.2731,296.1563 Q339.6481,295.8438 339.1013,295.7188 Q338.57,295.5938 338.0856,295.5938 Q336.9138,295.5938 336.2106,296.125 Q335.5075,296.6563 335.2106,297.6094 Q334.9138,298.5625 334.9138,299.8281 Q334.9138,301.8438 335.6325,302.8125 Q336.3513,303.7656 337.945,303.7656 Q338.5388,303.7656 339.1638,303.6094 Q339.7888,303.4531 340.6169,303.0781 L340.6169,305.2969 Q339.8825,305.6094 339.0856,305.7656 Q338.3044,305.9219 337.5388,305.9219 Z " fill="#000000"/><text fill="#000000" font-family="sans-serif" font-size="14" lengthAdjust="spacing" textLength="113.1416" x="352.07" y="303.8467">PhysicsManager</text></g><!--class AudioManager--><g id="elem_AudioManager"><rect fill="#F1F1F1" height="32" id="AudioManager" rx="2.5" ry="2.5" style="stroke:#181818;stroke-width:0.5;" width="133.1582" x="155.06" y="283"/><ellipse cx="170.06" cy="299" fill="#ADD1B2" rx="11" ry="11" style="stroke:#181818;stroke-width:1;"/><path d="M169.5288,305.9219 Q167.7788,305.9219 166.6381,305.1875 Q165.5131,304.4375 164.9506,303.0938 Q164.4038,301.7344 164.4038,299.9375 Q164.4038,297.9063 165.06,296.4531 Q165.7163,295 166.9975,294.2188 Q168.2788,293.4375 170.1538,293.4375 Q171.0444,293.4375 171.7163,293.625 Q172.3881,293.7969 173.0756,294.1406 L172.2631,296.1563 Q171.6381,295.8438 171.0913,295.7188 Q170.56,295.5938 170.0756,295.5938 Q168.9038,295.5938 168.2006,296.125 Q167.4975,296.6563 167.2006,297.6094 Q166.9038,298.5625 166.9038,299.8281 Q166.9038,301.8438 167.6225,302.8125 Q168.3413,303.7656 169.935,303.7656 Q170.5288,303.7656 171.1538,303.6094 Q171.7788,303.4531 172.6069,303.0781 L172.6069,305.2969 Q171.8725,305.6094 171.0756,305.7656 Q170.2944,305.9219 169.5288,305.9219 Z " fill="#000000"/><text fill="#000000" font-family="sans-serif" font-size="14" lengthAdjust="spacing" textLength="101.1582" x="184.06" y="303.8467">AudioManager</text></g><!--class Game--><g id="elem_Game"><rect fill="#F1F1F1" height="32" id="Game" rx="2.5" ry="2.5" style="stroke:#181818;stroke-width:0.5;" width="73.6787" x="105.8" y="7"/><ellipse cx="120.8" cy="23" fill="#ADD1B2" rx="11" ry="11" style="stroke:#181818;stroke-width:1;"/><path d="M120.2688,29.9219 Q118.5188,29.9219 117.3781,29.1875 Q116.2531,28.4375 115.6906,27.0938 Q115.1438,25.7344 115.1438,23.9375 Q115.1438,21.9063 115.8,20.4531 Q116.4563,19 117.7375,18.2188 Q119.0188,17.4375 120.8938,17.4375 Q121.7844,17.4375 122.4563,17.625 Q123.1281,17.7969 123.8156,18.1406 L123.0031,20.1563 Q122.3781,19.8438 121.8313,19.7188 Q121.3,19.5938 120.8156,19.5938 Q119.6438,19.5938 118.9406,20.125 Q118.2375,20.6563 117.9406,21.6094 Q117.6438,22.5625 117.6438,23.8281 Q117.6438,25.8438 118.3625,26.8125 Q119.0813,27.7656 120.675,27.7656 Q121.2688,27.7656 121.8938,27.6094 Q122.5188,27.4531 123.3469,27.0781 L123.3469,29.2969 Q122.6125,29.6094 121.8156,29.7656 Q121.0344,29.9219 120.2688,29.9219 Z " fill="#000000"/><text fill="#000000" font-family="sans-serif" font-size="14" lengthAdjust="spacing" textLength="41.6787" x="134.8" y="27.8467">Game</text></g><!--class Scenario--><g id="elem_Scenario"><rect fill="#F1F1F1" height="32" id="Scenario" rx="2.5" ry="2.5" style="stroke:#181818;stroke-width:0.5;" width="92.8604" x="42.21" y="99"/><ellipse cx="57.21" cy="115" fill="#ADD1B2" rx="11" ry="11" style="stroke:#181818;stroke-width:1;"/><path d="M56.6788,121.9219 Q54.9288,121.9219 53.7881,121.1875 Q52.6631,120.4375 52.1006,119.0938 Q51.5538,117.7344 51.5538,115.9375 Q51.5538,113.9063 52.21,112.4531 Q52.8663,111 54.1475,110.2188 Q55.4288,109.4375 57.3038,109.4375 Q58.1944,109.4375 58.8663,109.625 Q59.5381,109.7969 60.2256,110.1406 L59.4131,112.1563 Q58.7881,111.8438 58.2413,111.7188 Q57.71,111.5938 57.2256,111.5938 Q56.0538,111.5938 55.3506,112.125 Q54.6475,112.6563 54.3506,113.6094 Q54.0538,114.5625 54.0538,115.8281 Q54.0538,117.8438 54.7725,118.8125 Q55.4913,119.7656 57.085,119.7656 Q57.6788,119.7656 58.3038,119.6094 Q58.9288,119.4531 59.7569,119.0781 L59.7569,121.2969 Q59.0225,121.6094 58.2256,121.7656 Q57.4444,121.9219 56.6788,121.9219 Z " fill="#000000"/><text fill="#000000" font-family="sans-serif" font-size="14" lengthAdjust="spacing" textLength="60.8604" x="71.21" y="119.8467">Scenario</text></g><!--class Entity--><g id="elem_Entity"><rect fill="#F1F1F1" height="32" id="Entity" rx="2.5" ry="2.5" style="stroke:#181818;stroke-width:0.5;" width="72.8721" x="47.2" y="191"/><ellipse cx="62.2" cy="207" fill="#ADD1B2" rx="11" ry="11" style="stroke:#181818;stroke-width:1;"/><path d="M61.6688,213.9219 Q59.9188,213.9219 58.7781,213.1875 Q57.6531,212.4375 57.0906,211.0938 Q56.5438,209.7344 56.5438,207.9375 Q56.5438,205.9063 57.2,204.4531 Q57.8563,203 59.1375,202.2188 Q60.4188,201.4375 62.2938,201.4375 Q63.1844,201.4375 63.8563,201.625 Q64.5281,201.7969 65.2156,202.1406 L64.4031,204.1563 Q63.7781,203.8438 63.2313,203.7188 Q62.7,203.5938 62.2156,203.5938 Q61.0438,203.5938 60.3406,204.125 Q59.6375,204.6563 59.3406,205.6094 Q59.0438,206.5625 59.0438,207.8281 Q59.0438,209.8438 59.7625,210.8125 Q60.4813,211.7656 62.075,211.7656 Q62.6688,211.7656 63.2938,211.6094 Q63.9188,211.4531 64.7469,211.0781 L64.7469,213.2969 Q64.0125,213.6094 63.2156,213.7656 Q62.4344,213.9219 61.6688,213.9219 Z " fill="#000000"/><text fill="#000000" font-family="sans-serif" font-size="14" lengthAdjust="spacing" textLength="40.8721" x="76.2" y="211.8467">Entity</text></g><!--class PhysicsComponent--><g id="elem_PhysicsComponent"><rect fill="#F1F1F1" height="32" id="PhysicsComponent" rx="2.5" ry="2.5" style="stroke:#181818;stroke-width:0.5;" width="165.0547" x="278.11" y="375"/><ellipse cx="293.11" cy="391" fill="#ADD1B2" rx="11" ry="11" style="stroke:#181818;stroke-width:1;"/><path d="M292.5788,397.9219 Q290.8288,397.9219 289.6881,397.1875 Q288.5631,396.4375 288.0006,395.0938 Q287.4538,393.7344 287.4538,391.9375 Q287.4538,389.9063 288.11,388.4531 Q288.7663,387 290.0475,386.2188 Q291.3288,385.4375 293.2038,385.4375 Q294.0944,385.4375 294.7663,385.625 Q295.4381,385.7969 296.1256,386.1406 L295.3131,388.1563 Q294.6881,387.8438 294.1413,387.7188 Q293.61,387.5938 293.1256,387.5938 Q291.9538,387.5938 291.2506,388.125 Q290.5475,388.6563 290.2506,389.6094 Q289.9538,390.5625 289.9538,391.8281 Q289.9538,393.8438 290.6725,394.8125 Q291.3913,395.7656 292.985,395.7656 Q293.5788,395.7656 294.2038,395.6094 Q294.8288,395.4531 295.6569,395.0781 L295.6569,397.2969 Q294.9225,397.6094 294.1256,397.7656 Q293.3444,397.9219 292.5788,397.9219 Z " fill="#000000"/><text fill="#000000" font-family="sans-serif" font-size="14" lengthAdjust="spacing" textLength="133.0547" x="307.11" y="395.8467">PhysicsComponent</text></g><!--class AudioComponent--><g id="elem_AudioComponent"><rect fill="#F1F1F1" height="32" id="AudioComponent" rx="2.5" ry="2.5" style="stroke:#181818;stroke-width:0.5;" width="153.0713" x="56.1" y="375"/><ellipse cx="71.1" cy="391" fill="#ADD1B2" rx="11" ry="11" style="stroke:#181818;stroke-width:1;"/><path d="M70.5688,397.9219 Q68.8188,397.9219 67.6781,397.1875 Q66.5531,396.4375 65.9906,395.0938 Q65.4438,393.7344 65.4438,391.9375 Q65.4438,389.9063 66.1,388.4531 Q66.7563,387 68.0375,386.2188 Q69.3188,385.4375 71.1938,385.4375 Q72.0844,385.4375 72.7563,385.625 Q73.4281,385.7969 74.1156,386.1406 L73.3031,388.1563 Q72.6781,387.8438 72.1313,387.7188 Q71.6,387.5938 71.1156,387.5938 Q69.9438,387.5938 69.2406,388.125 Q68.5375,388.6563 68.2406,389.6094 Q67.9438,390.5625 67.9438,391.8281 Q67.9438,393.8438 68.6625,394.8125 Q69.3813,395.7656 70.975,395.7656 Q71.5688,395.7656 72.1938,395.6094 Q72.8188,395.4531 73.6469,395.0781 L73.6469,397.2969 Q72.9125,397.6094 72.1156,397.7656 Q71.3344,397.9219 70.5688,397.9219 Z " fill="#000000"/><text fill="#000000" font-family="sans-serif" font-size="14" lengthAdjust="spacing" textLength="121.0713" x="85.1" y="395.8467">AudioComponent</text></g><!--reverse link Manager to PhysicsManager--><g id="link_Manager_PhysicsManager"><path codeLine="3" d="M267.5371,231.7411 C299.5071,248.2811 333.9,266.06 365.83,282.58 " fill="transparent" id="Manager-backto-PhysicsManager" style="stroke:#181818;stroke-width:1;"/><polygon fill="transparent" points="251.55,223.47,264.7801,237.0702,270.2942,226.4121,251.55,223.47" style="stroke:#181818;stroke-width:1;"/></g><!--reverse link Manager to AudioManager--><g id="link_Manager_AudioManager"><path codeLine="4" d="M221.64,241.27 C221.64,257.82 221.64,266.08 221.64,282.66 " fill="transparent" id="Manager-backto-AudioManager" style="stroke:#181818;stroke-width:1;"/><polygon fill="transparent" points="221.64,223.27,215.64,241.27,227.64,241.27,221.64,223.27" style="stroke:#181818;stroke-width:1;"/></g><!--reverse link Game to Manager--><g id="link_Game_Manager"><path codeLine="5" d="M154.0178,50.2079 C168.8878,84.4679 200.1,156.37 215,190.71 " fill="transparent" id="Game-backto-Manager" style="stroke:#181818;stroke-width:1;"/><polygon fill="#181818" points="149.24,39.2,147.9596,46.2965,154.0178,50.2079,155.2982,43.1113,149.24,39.2" style="stroke:#181818;stroke-width:1;"/><text fill="#000000" font-family="sans-serif" font-size="13" lengthAdjust="spacing" textLength="8.271" x="142.1463" y="59.1395">1</text><text fill="#000000" font-family="sans-serif" font-size="13" lengthAdjust="spacing" textLength="6.5" x="205.8885" y="179.9185">*</text></g><!--reverse link Game to Scenario--><g id="link_Game_Scenario"><path codeLine="6" d="M127.3061,49.5599 C117.3761,66.1099 107.79,82.08 97.84,98.66 " fill="transparent" id="Game-backto-Scenario" style="stroke:#181818;stroke-width:1;"/><polygon fill="#181818" points="133.48,39.27,126.9631,42.357,127.3061,49.5599,133.823,46.4729,133.48,39.27" style="stroke:#181818;stroke-width:1;"/></g><!--reverse link Scenario to Entity--><g id="link_Scenario_Entity"><path codeLine="7" d="M87.124,143.2515 C86.204,159.8015 85.41,174.08 84.49,190.66 " fill="transparent" id="Scenario-backto-Entity" style="stroke:#181818;stroke-width:1;"/><polygon fill="#181818" points="87.79,131.27,83.4631,137.0387,87.124,143.2515,91.4508,137.4828,87.79,131.27" style="stroke:#181818;stroke-width:1;"/><text fill="#000000" font-family="sans-serif" font-size="13" lengthAdjust="spacing" textLength="8.271" x="78.2872" y="150.9347">1</text><text fill="#000000" font-family="sans-serif" font-size="13" lengthAdjust="spacing" textLength="36.5625" x="42.9035" y="179.8519">many</text></g><!--reverse link Entity to Component--><g id="link_Entity_Component"><path codeLine="8" d="M77.6453,234.9839 C73.9653,251.5339 70.73,266.08 67.05,282.66 " fill="transparent" id="Entity-backto-Component" style="stroke:#181818;stroke-width:1;"/><polygon fill="#181818" points="80.25,223.27,75.043,228.2587,77.6453,234.9839,82.8523,229.9952,80.25,223.27" style="stroke:#181818;stroke-width:1;"/><text fill="#000000" font-family="sans-serif" font-size="13" lengthAdjust="spacing" textLength="8.271" x="69.9389" y="242.9347">1</text><text fill="#000000" font-family="sans-serif" font-size="13" lengthAdjust="spacing" textLength="36.5625" x="26.3103" y="271.8519">many</text></g><!--reverse link Component to PhysicsComponent--><g id="link_Component_PhysicsComponent"><path codeLine="9" d="M131.9259,320.6921 C186.4859,337.2321 255.25,358.06 309.75,374.58 " fill="transparent" id="Component-backto-PhysicsComponent" style="stroke:#181818;stroke-width:1;"/><polygon fill="transparent" points="114.7,315.47,130.1852,326.434,133.6665,314.9501,114.7,315.47" style="stroke:#181818;stroke-width:1;"/></g><!--reverse link Component to AudioComponent--><g id="link_Component_AudioComponent"><path codeLine="10" d="M86.2927,329.5542 C98.9827,346.1042 108.17,358.08 120.88,374.66 " fill="transparent" id="Component-backto-AudioComponent" style="stroke:#181818;stroke-width:1;"/><polygon fill="transparent" points="75.34,315.27,81.5313,333.2051,91.0541,325.9033,75.34,315.27" style="stroke:#181818;stroke-width:1;"/></g><!--link PhysicsManager to PhysicsComponent--><g id="link_PhysicsManager_PhysicsComponent"><path codeLine="11" d="M389.7,315.27 C383.27,331.82 375.2224,352.4871 368.7824,369.0671 " fill="transparent" id="PhysicsManager-to-PhysicsComponent" style="stroke:#181818;stroke-width:1;"/><polygon fill="#181818" points="366.61,374.66,373.5972,367.7189,368.4203,369.9992,366.14,364.8224,366.61,374.66" style="stroke:#181818;stroke-width:1;"/></g><!--link AudioManager to AudioComponent--><g id="link_AudioManager_AudioComponent"><path codeLine="12" d="M206.54,315.27 C190.18,331.82 168.4294,353.8143 152.0294,370.3943 " fill="transparent" id="AudioManager-to-AudioComponent" style="stroke:#181818;stroke-width:1;"/><polygon fill="#181818" points="147.81,374.66,156.983,371.0743,151.3262,371.1052,151.2953,365.4485,147.81,374.66" style="stroke:#181818;stroke-width:1;"/></g><!--SRC=[TO-n2W8n44JxVCMIyY25lGWYOYK8Vi5URl6so4QIM0JkuzNJ67DYjSE-OPZ1FgQ0Di4H1IyK59R7phkh5vAatWZMap5m6dDa6ukzOTlRmBwG0pe2lTBGFOZkD3JW-JnR4WpiLH7Lxb2oXhqaJbczpXBMVX_LDFpBvvQLjeF0cCrlmlUmsR7867aWSEHw2l4E]--></g></svg>