<svg xmlns="http://www.w3.org/2000/svg" xmlns:xlink="http://www.w3.org/1999/xlink" contentStyleType="text/css" height="414px" preserveAspectRatio="none" style="width:456px;height:414px;background:#FFFFFF;" version="1.1" viewBox="0 0 456 414" width="456px" zoomAndPan="magnify"><defs/><g><!--class Manager--><g id="elem_Manager"><rect codeLine="1" fill="#F1F1F1" height="32" id="Manager" rx="2.5" ry="2.5" style="stroke:#181818;stroke-width:0.5;" width="88.4478" x="166.87" y="191"/><ellipse cx="181.87" cy="207" fill="#A9DCDF" rx="11" ry="11" style="stroke:#181818;stroke-width:1;"/><path d="M177.0419,212.75 L180.3856,200.5625 L183.5263,200.5625 L186.9013,212.75 L184.4325,212.75 L183.6981,209.7344 L180.1825,209.7344 L179.4325,212.75 L177.0419,212.75 Z M181.4481,204.7031 L180.6981,207.7031 L183.2138,207.7031 L182.495,204.7031 Q182.3544,204.125 182.2294,203.5781 Q182.1044,203.0156 181.9638,202.4375 Q181.8544,203.0156 181.7138,203.5781 Q181.5731,204.125 181.4481,204.7031 Z " fill="#000000"/><text fill="#000000" font-family="sans-serif" font-size="14" font-style="italic" lengthAdjust="spacing" textLength="56.4478" x="195.87" y="212.432">Manager</text></g><!--class Component--><g id="elem_Component"><rect codeLine="2" fill="#F1F1F1" height="32" id="Component" rx="2.5" ry="2.5" style="stroke:#181818;stroke-width:0.5;" width="104.1837" x="7" y="283"/><ellipse cx="22" cy="299" fill="#A9DCDF" rx="11" ry="11" style="stroke:#181818;stroke-width:1;"/><path d="M17.1719,304.75 L20.5156,292.5625 L23.6563,292.5625 L27.0313,304.75 L24.5625,304.75 L23.8281,301.7344 L20.3125,301.7344 L19.5625,304.75 L17.1719,304.75 Z M21.5781,296.7031 L20.8281,299.7031 L23.3438,299.7031 L22.625,296.7031 Q22.4844,296.125 22.3594,295.5781 Q22.2344,295.0156 22.0938,294.4375 Q21.9844,295.0156 21.8438,295.5781 Q21.7031,296.125 21.5781,296.7031 Z " fill="#000000"/><text fill="#000000" font-family="sans-serif" font-size="14" font-style="italic" lengthAdjust="spacing" textLength="72.1837" x="36" y="304.432">Component</text></g><!--class PhysicsManager--><g id="elem_PhysicsManager"><rect fill="#F1F1F1" height="32" id="PhysicsManager" rx="2.5" ry="2.5" style="stroke:#181818;stroke-width:0.5;" width="139.3516" x="310.42" y="283"/><ellipse cx="325.42" cy="299" fill="#ADD1B2" rx="11" ry="11" style="stroke:#181818;stroke-width:1;"/><path d="M324.8888,305.9219 Q323.1388,305.9219 321.9981,305.1875 Q320.8731,304.4375 320.3106,303.0938 Q319.7638,301.7344 319.7638,299.9375 Q319.7638,297.9063 320.42,296.4531 Q321.0763,295 322.3575,294.2188 Q323.6388,293.4375 325.5138,293.4375 Q326.4044,293.4375 327.0763,293.625 Q327.7481,293.7969 328.4356,294.1406 L327.6231,296.1563 Q326.9981,295.8438 326.4513,295.7188 Q325.92,295.5938 325.4356,295.5938 Q324.2638,295.5938 323.5606,296.125 Q322.8575,296.6563 322.5606,297.6094 Q322.2638,298.5625 322.2638,299.8281 Q322.2638,301.8438 322.9825,302.8125 Q323.7013,303.7656 325.295,303.7656 Q325.8888,303.7656 326.5138,303.6094 Q327.1388,303.4531 327.9669,303.0781 L327.9669,305.2969 Q327.2325,305.6094 326.4356,305.7656 Q325.6544,305.9219 324.8888,305.9219 Z " fill="#000000"/><text fill="#000000" font-family="sans-serif" font-size="14" lengthAdjust="spacing" textLength="107.3516" x="339.42" y="304.432">PhysicsManager</text></g><!--class AudioManager--><g id="elem_AudioManager"><rect fill="#F1F1F1" height="32" id="AudioManager" rx="2.5" ry="2.5" style="stroke:#181818;stroke-width:0.5;" width="129.6356" x="146.27" y="283"/><ellipse cx="161.27" cy="299" fill="#ADD1B2" rx="11" ry="11" style="stroke:#181818;stroke-width:1;"/><path d="M160.7388,305.9219 Q158.9888,305.9219 157.8481,305.1875 Q156.7231,304.4375 156.1606,303.0938 Q155.6138,301.7344 155.6138,299.9375 Q155.6138,297.9063 156.27,296.4531 Q156.9263,295 158.2075,294.2188 Q159.4888,293.4375 161.3638,293.4375 Q162.2544,293.4375 162.9263,293.625 Q163.5981,293.7969 164.2856,294.1406 L163.4731,296.1563 Q162.8481,295.8438 162.3013,295.7188 Q161.77,295.5938 161.2856,295.5938 Q160.1138,295.5938 159.4106,296.125 Q158.7075,296.6563 158.4106,297.6094 Q158.1138,298.5625 158.1138,299.8281 Q158.1138,301.8438 158.8325,302.8125 Q159.5513,303.7656 161.145,303.7656 Q161.7388,303.7656 162.3638,303.6094 Q162.9888,303.4531 163.8169,303.0781 L163.8169,305.2969 Q163.0825,305.6094 162.2856,305.7656 Q161.5044,305.9219 160.7388,305.9219 Z " fill="#000000"/><text fill="#000000" font-family="sans-serif" font-size="14" lengthAdjust="spacing" textLength="97.6356" x="175.27" y="304.432">AudioManager</text></g><!--class Game--><g id="elem_Game"><rect fill="#F1F1F1" height="32" id="Game" rx="2.5" ry="2.5" style="stroke:#181818;stroke-width:0.5;" width="71.0318" x="98.58" y="7"/><ellipse cx="113.58" cy="23" fill="#ADD1B2" rx="11" ry="11" style="stroke:#181818;stroke-width:1;"/><path d="M113.0488,29.9219 Q111.2988,29.9219 110.1581,29.1875 Q109.0331,28.4375 108.4706,27.0938 Q107.9238,25.7344 107.9238,23.9375 Q107.9238,21.9063 108.58,20.4531 Q109.2363,19 110.5175,18.2188 Q111.7988,17.4375 113.6738,17.4375 Q114.5644,17.4375 115.2363,17.625 Q115.9081,17.7969 116.5956,18.1406 L115.7831,20.1563 Q115.1581,19.8438 114.6113,19.7188 Q114.08,19.5938 113.5956,19.5938 Q112.4238,19.5938 111.7206,20.125 Q111.0175,20.6563 110.7206,21.6094 Q110.4238,22.5625 110.4238,23.8281 Q110.4238,25.8438 111.1425,26.8125 Q111.8613,27.7656 113.455,27.7656 Q114.0488,27.7656 114.6738,27.6094 Q115.2988,27.4531 116.1269,27.0781 L116.1269,29.2969 Q115.3925,29.6094 114.5956,29.7656 Q113.8144,29.9219 113.0488,29.9219 Z " fill="#000000"/><text fill="#000000" font-family="sans-serif" font-size="14" lengthAdjust="spacing" textLength="39.0318" x="127.58" y="28.432">Game</text></g><!--class Scenario--><g id="elem_Scenario"><rect fill="#F1F1F1" height="32" id="Scenario" rx="2.5" ry="2.5" style="stroke:#181818;stroke-width:0.5;" width="88.6718" x="41.76" y="99"/><ellipse cx="56.76" cy="115" fill="#ADD1B2" rx="11" ry="11" style="stroke:#181818;stroke-width:1;"/><path d="M56.2288,121.9219 Q54.4788,121.9219 53.3381,121.1875 Q52.2131,120.4375 51.6506,119.0938 Q51.1038,117.7344 51.1038,115.9375 Q51.1038,113.9063 51.76,112.4531 Q52.4163,111 53.6975,110.2188 Q54.9788,109.4375 56.8538,109.4375 Q57.7444,109.4375 58.4163,109.625 Q59.0881,109.7969 59.7756,110.1406 L58.9631,112.1563 Q58.3381,111.8438 57.7913,111.7188 Q57.26,111.5938 56.7756,111.5938 Q55.6038,111.5938 54.9006,112.125 Q54.1975,112.6563 53.9006,113.6094 Q53.6038,114.5625 53.6038,115.8281 Q53.6038,117.8438 54.3225,118.8125 Q55.0413,119.7656 56.635,119.7656 Q57.2288,119.7656 57.8538,119.6094 Q58.4788,119.4531 59.3069,119.0781 L59.3069,121.2969 Q58.5725,121.6094 57.7756,121.7656 Q56.9944,121.9219 56.2288,121.9219 Z " fill="#000000"/><text fill="#000000" font-family="sans-serif" font-size="14" lengthAdjust="spacing" textLength="56.6718" x="70.76" y="120.432">Scenario</text></g><!--class Entity--><g id="elem_Entity"><rect fill="#F1F1F1" height="32" id="Entity" rx="2.5" ry="2.5" style="stroke:#181818;stroke-width:0.5;" width="69.2959" x="43.44" y="191"/><ellipse cx="58.44" cy="207" fill="#ADD1B2" rx="11" ry="11" style="stroke:#181818;stroke-width:1;"/><path d="M57.9088,213.9219 Q56.1588,213.9219 55.0181,213.1875 Q53.8931,212.4375 53.3306,211.0938 Q52.7838,209.7344 52.7838,207.9375 Q52.7838,205.9063 53.44,204.4531 Q54.0963,203 55.3775,202.2188 Q56.6588,201.4375 58.5338,201.4375 Q59.4244,201.4375 60.0963,201.625 Q60.7681,201.7969 61.4556,202.1406 L60.6431,204.1563 Q60.0181,203.8438 59.4713,203.7188 Q58.94,203.5938 58.4556,203.5938 Q57.2838,203.5938 56.5806,204.125 Q55.8775,204.6563 55.5806,205.6094 Q55.2838,206.5625 55.2838,207.8281 Q55.2838,209.8438 56.0025,210.8125 Q56.7213,211.7656 58.315,211.7656 Q58.9088,211.7656 59.5338,211.6094 Q60.1588,211.4531 60.9869,211.0781 L60.9869,213.2969 Q60.2525,213.6094 59.4556,213.7656 Q58.6744,213.9219 57.9088,213.9219 Z " fill="#000000"/><text fill="#000000" font-family="sans-serif" font-size="14" lengthAdjust="spacing" textLength="37.2959" x="72.44" y="212.432">Entity</text></g><!--class PhysicsComponent--><g id="elem_PhysicsComponent"><rect fill="#F1F1F1" height="32" id="PhysicsComponent" rx="2.5" ry="2.5" style="stroke:#181818;stroke-width:0.5;" width="157.7475" x="267.22" y="375"/><ellipse cx="282.22" cy="391" fill="#ADD1B2" rx="11" ry="11" style="stroke:#181818;stroke-width:1;"/><path d="M281.6888,397.9219 Q279.9388,397.9219 278.7981,397.1875 Q277.6731,396.4375 277.1106,395.0938 Q276.5638,393.7344 276.5638,391.9375 Q276.5638,389.9063 277.22,388.4531 Q277.8763,387 279.1575,386.2188 Q280.4388,385.4375 282.3138,385.4375 Q283.2044,385.4375 283.8763,385.625 Q284.5481,385.7969 285.2356,386.1406 L284.4231,388.1563 Q283.7981,387.8438 283.2513,387.7188 Q282.72,387.5938 282.2356,387.5938 Q281.0638,387.5938 280.3606,388.125 Q279.6575,388.6563 279.3606,389.6094 Q279.0638,390.5625 279.0638,391.8281 Q279.0638,393.8438 279.7825,394.8125 Q280.5013,395.7656 282.095,395.7656 Q282.6888,395.7656 283.3138,395.6094 Q283.9388,395.4531 284.7669,395.0781 L284.7669,397.2969 Q284.0325,397.6094 283.2356,397.7656 Q282.4544,397.9219 281.6888,397.9219 Z " fill="#000000"/><text fill="#000000" font-family="sans-serif" font-size="14" lengthAdjust="spacing" textLength="125.7475" x="296.22" y="396.432">PhysicsComponent</text></g><!--class AudioComponent--><g id="elem_AudioComponent"><rect fill="#F1F1F1" height="32" id="AudioComponent" rx="2.5" ry="2.5" style="stroke:#181818;stroke-width:0.5;" width="148.0316" x="51.08" y="375"/><ellipse cx="66.08" cy="391" fill="#ADD1B2" rx="11" ry="11" style="stroke:#181818;stroke-width:1;"/><path d="M65.5488,397.9219 Q63.7988,397.9219 62.6581,397.1875 Q61.5331,396.4375 60.9706,395.0938 Q60.4238,393.7344 60.4238,391.9375 Q60.4238,389.9063 61.08,388.4531 Q61.7363,387 63.0175,386.2188 Q64.2988,385.4375 66.1738,385.4375 Q67.0644,385.4375 67.7363,385.625 Q68.4081,385.7969 69.0956,386.1406 L68.2831,388.1563 Q67.6581,387.8438 67.1113,387.7188 Q66.58,387.5938 66.0956,387.5938 Q64.9238,387.5938 64.2206,388.125 Q63.5175,388.6563 63.2206,389.6094 Q62.9238,390.5625 62.9238,391.8281 Q62.9238,393.8438 63.6425,394.8125 Q64.3613,395.7656 65.955,395.7656 Q66.5488,395.7656 67.1738,395.6094 Q67.7988,395.4531 68.6269,395.0781 L68.6269,397.2969 Q67.8925,397.6094 67.0956,397.7656 Q66.3144,397.9219 65.5488,397.9219 Z " fill="#000000"/><text fill="#000000" font-family="sans-serif" font-size="14" lengthAdjust="spacing" textLength="116.0316" x="80.08" y="396.432">AudioComponent</text></g><!--reverse link Manager to PhysicsManager--><g id="link_Manager_PhysicsManager"><path codeLine="3" d="M256.0266,231.9326 C287.0766,248.4726 320.12,266.06 351.14,282.58 " fill="none" id="Manager-backto-PhysicsManager" style="stroke:#181818;stroke-width:1;"/><polygon fill="none" points="240.14,223.47,253.2057,237.2282,258.8475,226.6371,240.14,223.47" style="stroke:#181818;stroke-width:1;"/></g><!--reverse link Manager to AudioManager--><g id="link_Manager_AudioManager"><path codeLine="4" d="M211.09,241.27 C211.09,257.82 211.09,266.08 211.09,282.66 " fill="none" id="Manager-backto-AudioManager" style="stroke:#181818;stroke-width:1;"/><polygon fill="none" points="211.09,223.27,205.09,241.27,217.09,241.27,211.09,223.27" style="stroke:#181818;stroke-width:1;"/></g><!--reverse link Game to Manager--><g id="link_Game_Manager"><path codeLine="5" d="M145.1972,50.251 C159.6972,84.511 190.1,156.37 204.62,190.71 " fill="none" id="Game-backto-Manager" style="stroke:#181818;stroke-width:1;"/><polygon fill="#181818" points="140.52,39.2,139.1749,46.2845,145.1972,50.251,146.5422,43.1664,140.52,39.2" style="stroke:#181818;stroke-width:1;"/><text fill="#000000" font-family="sans-serif" font-size="13" lengthAdjust="spacing" textLength="7.436" x="134.4823" y="60.7695">1</text><text fill="#000000" font-family="sans-serif" font-size="13" lengthAdjust="spacing" textLength="7.163" x="194.2195" y="179.2068">*</text></g><!--reverse link Game to Scenario--><g id="link_Game_Scenario"><path codeLine="6" d="M120.3013,49.8573 C111.4713,66.4073 103.12,82.08 94.27,98.66 " fill="none" id="Game-backto-Scenario" style="stroke:#181818;stroke-width:1;"/><polygon fill="#181818" points="125.95,39.27,119.5965,42.6808,120.3013,49.8573,126.6548,46.4466,125.95,39.27" style="stroke:#181818;stroke-width:1;"/></g><!--reverse link Scenario to Entity--><g id="link_Scenario_Entity"><path codeLine="7" d="M83.6683,143.2229 C82.1983,159.7729 80.93,174.08 79.46,190.66 " fill="none" id="Scenario-backto-Entity" style="stroke:#181818;stroke-width:1;"/><polygon fill="#181818" points="84.73,131.27,80.2148,136.8926,83.6683,143.2229,88.1835,137.6004,84.73,131.27" style="stroke:#181818;stroke-width:1;"/><text fill="#000000" font-family="sans-serif" font-size="13" lengthAdjust="spacing" textLength="7.436" x="76.3066" y="152.8609">1</text><text fill="#000000" font-family="sans-serif" font-size="13" lengthAdjust="spacing" textLength="34.112" x="40.1072" y="179.1396">many</text></g><!--reverse link Entity to Component--><g id="link_Entity_Component"><path codeLine="8" d="M72.3871,235.0103 C68.8871,251.5603 65.83,266.08 62.33,282.66 " fill="none" id="Entity-backto-Component" style="stroke:#181818;stroke-width:1;"/><polygon fill="#181818" points="74.87,223.27,69.7151,228.3126,72.3871,235.0103,77.542,229.9678,74.87,223.27" style="stroke:#181818;stroke-width:1;"/><text fill="#000000" font-family="sans-serif" font-size="13" lengthAdjust="spacing" textLength="7.436" x="65.8794" y="244.8609">1</text><text fill="#000000" font-family="sans-serif" font-size="13" lengthAdjust="spacing" textLength="34.112" x="23.6186" y="271.1396">many</text></g><!--reverse link Component to PhysicsComponent--><g id="link_Component_PhysicsComponent"><path codeLine="9" d="M125.6049,320.8573 C178.3349,337.3973 244.25,358.06 296.92,374.58 " fill="none" id="Component-backto-PhysicsComponent" style="stroke:#181818;stroke-width:1;"/><polygon fill="none" points="108.43,315.47,123.8091,326.5823,127.4007,315.1323,108.43,315.47" style="stroke:#181818;stroke-width:1;"/></g><!--reverse link Component to AudioComponent--><g id="link_Component_AudioComponent"><path codeLine="10" d="M80.9307,329.7881 C93.0607,346.3381 101.68,358.08 113.84,374.66 " fill="none" id="Component-backto-AudioComponent" style="stroke:#181818;stroke-width:1;"/><polygon fill="none" points="70.29,315.27,76.0914,333.335,85.7701,326.2412,70.29,315.27" style="stroke:#181818;stroke-width:1;"/></g><!--link PhysicsManager to PhysicsComponent--><g id="link_PhysicsManager_PhysicsComponent"><path codeLine="11" d="M374.32,315.27 C368.07,331.82 360.2693,352.4668 354.0093,369.0468 " fill="none" id="PhysicsManager-to-PhysicsComponent" style="stroke:#181818;stroke-width:1;"/><polygon fill="#181818" points="351.89,374.66,358.8112,367.6531,353.6561,369.9823,351.3269,364.8273,351.89,374.66" style="stroke:#181818;stroke-width:1;"/></g><!--link AudioManager to AudioComponent--><g id="link_AudioManager_AudioComponent"><path codeLine="12" d="M196.5,315.27 C180.69,331.82 159.7347,353.7416 143.8947,370.3216 " fill="none" id="AudioManager-to-AudioComponent" style="stroke:#181818;stroke-width:1;"/><polygon fill="#181818" points="139.75,374.66,148.8593,370.9156,143.2039,371.0447,143.0748,365.3893,139.75,374.66" style="stroke:#181818;stroke-width:1;"/></g><!--SRC=[TO-n2W8n44JxVCMIyY25lGWYOYK8Vi5URl6so4QIM0JkuzNJ67DYjSE-OPZ1FgQ0Di4H1IyK59R7phkh5vAatWZMap5m6dDa6ukzOTlRmBwG0pe2lTBGFOZkD3JW-JnR4WpiLH7Lxb2oXhqaJbczpXBMVX_LDFpBvvQLjeF0cCrlmlUmsR7867aWSEHw2l4E]--></g></svg>