<svg xmlns="http://www.w3.org/2000/svg" xmlns:xlink="http://www.w3.org/1999/xlink" contentStyleType="text/css" data-diagram-type="CLASS" height="434px" preserveAspectRatio="none" style="width:245px;height:434px;background:#FFFFFF;" version="1.1" viewBox="0 0 245 434" width="245px" zoomAndPan="magnify"><defs/><g><!--class Entity--><g id="elem_Entity"><rect codeLine="1" fill="#F1F1F1" height="32" id="Entity" rx="2.5" ry="2.5" style="stroke:#181818;stroke-width:0.5;" width="72.8721" x="165.35" y="100"/><ellipse cx="180.35" cy="116" fill="#A9DCDF" rx="11" ry="11" style="stroke:#181818;stroke-width:1;"/><path d="M175.5219,121.75 L178.8656,109.5625 L182.0063,109.5625 L185.3813,121.75 L182.9125,121.75 L182.1781,118.7344 L178.6625,118.7344 L177.9125,121.75 L175.5219,121.75 Z M179.9281,113.7031 L179.1781,116.7031 L181.6938,116.7031 L180.975,113.7031 Q180.8344,113.125 180.7094,112.5781 Q180.5844,112.0156 180.4438,111.4375 Q180.3344,112.0156 180.1938,112.5781 Q180.0531,113.125 179.9281,113.7031 Z " fill="#000000"/><text fill="#000000" font-family="sans-serif" font-size="14" font-style="italic" lengthAdjust="spacing" textLength="40.8721" x="194.35" y="120.8467">Entity</text></g><!--class Movable--><g id="elem_Movable"><rect codeLine="4" fill="#F1F1F1" height="32" id="Movable" rx="2.5" ry="2.5" style="stroke:#181818;stroke-width:0.5;" width="90.8984" x="107.33" y="193"/><ellipse cx="122.33" cy="209" fill="#A9DCDF" rx="11" ry="11" style="stroke:#181818;stroke-width:1;"/><path d="M117.5019,214.75 L120.8456,202.5625 L123.9863,202.5625 L127.3613,214.75 L124.8925,214.75 L124.1581,211.7344 L120.6425,211.7344 L119.8925,214.75 L117.5019,214.75 Z M121.9081,206.7031 L121.1581,209.7031 L123.6738,209.7031 L122.955,206.7031 Q122.8144,206.125 122.6894,205.5781 Q122.5644,205.0156 122.4238,204.4375 Q122.3144,205.0156 122.1738,205.5781 Q122.0331,206.125 121.9081,206.7031 Z " fill="#000000"/><text fill="#000000" font-family="sans-serif" font-size="14" font-style="italic" lengthAdjust="spacing" textLength="58.8984" x="136.33" y="213.8467">Movable</text></g><!--class Weapon--><g id="elem_Weapon"><rect fill="#F1F1F1" height="32" id="Weapon" rx="2.5" ry="2.5" style="stroke:#181818;stroke-width:0.5;" width="89.3604" x="103.1" y="395"/><ellipse cx="118.1" cy="411" fill="#ADD1B2" rx="11" ry="11" style="stroke:#181818;stroke-width:1;"/><path d="M117.5688,417.9219 Q115.8188,417.9219 114.6781,417.1875 Q113.5531,416.4375 112.9906,415.0938 Q112.4438,413.7344 112.4438,411.9375 Q112.4438,409.9063 113.1,408.4531 Q113.7563,407 115.0375,406.2188 Q116.3188,405.4375 118.1938,405.4375 Q119.0844,405.4375 119.7563,405.625 Q120.4281,405.7969 121.1156,406.1406 L120.3031,408.1563 Q119.6781,407.8438 119.1313,407.7188 Q118.6,407.5938 118.1156,407.5938 Q116.9438,407.5938 116.2406,408.125 Q115.5375,408.6563 115.2406,409.6094 Q114.9438,410.5625 114.9438,411.8281 Q114.9438,413.8438 115.6625,414.8125 Q116.3813,415.7656 117.975,415.7656 Q118.5688,415.7656 119.1938,415.6094 Q119.8188,415.4531 120.6469,415.0781 L120.6469,417.2969 Q119.9125,417.6094 119.1156,417.7656 Q118.3344,417.9219 117.5688,417.9219 Z " fill="#000000"/><text fill="#000000" font-family="sans-serif" font-size="14" lengthAdjust="spacing" textLength="57.3604" x="132.1" y="415.8467">Weapon</text></g><!--class Player--><g id="elem_Player"><rect fill="#F1F1F1" height="32" id="Player" rx="2.5" ry="2.5" style="stroke:#181818;stroke-width:0.5;" width="75.5654" x="7" y="286"/><ellipse cx="22" cy="302" fill="#ADD1B2" rx="11" ry="11" style="stroke:#181818;stroke-width:1;"/><path d="M21.4688,308.9219 Q19.7188,308.9219 18.5781,308.1875 Q17.4531,307.4375 16.8906,306.0938 Q16.3438,304.7344 16.3438,302.9375 Q16.3438,300.9063 17,299.4531 Q17.6563,298 18.9375,297.2188 Q20.2188,296.4375 22.0938,296.4375 Q22.9844,296.4375 23.6563,296.625 Q24.3281,296.7969 25.0156,297.1406 L24.2031,299.1563 Q23.5781,298.8438 23.0313,298.7188 Q22.5,298.5938 22.0156,298.5938 Q20.8438,298.5938 20.1406,299.125 Q19.4375,299.6563 19.1406,300.6094 Q18.8438,301.5625 18.8438,302.8281 Q18.8438,304.8438 19.5625,305.8125 Q20.2813,306.7656 21.875,306.7656 Q22.4688,306.7656 23.0938,306.6094 Q23.7188,306.4531 24.5469,306.0781 L24.5469,308.2969 Q23.8125,308.6094 23.0156,308.7656 Q22.2344,308.9219 21.4688,308.9219 Z " fill="#000000"/><text fill="#000000" font-family="sans-serif" font-size="14" lengthAdjust="spacing" textLength="43.5654" x="36" y="306.8467">Player</text></g><!--class Enemy--><g id="elem_Enemy"><rect fill="#F1F1F1" height="32" id="Enemy" rx="2.5" ry="2.5" style="stroke:#181818;stroke-width:0.5;" width="80.2549" x="117.66" y="286"/><ellipse cx="132.66" cy="302" fill="#ADD1B2" rx="11" ry="11" style="stroke:#181818;stroke-width:1;"/><path d="M132.1288,308.9219 Q130.3788,308.9219 129.2381,308.1875 Q128.1131,307.4375 127.5506,306.0938 Q127.0038,304.7344 127.0038,302.9375 Q127.0038,300.9063 127.66,299.4531 Q128.3163,298 129.5975,297.2188 Q130.8788,296.4375 132.7538,296.4375 Q133.6444,296.4375 134.3163,296.625 Q134.9881,296.7969 135.6756,297.1406 L134.8631,299.1563 Q134.2381,298.8438 133.6913,298.7188 Q133.16,298.5938 132.6756,298.5938 Q131.5038,298.5938 130.8006,299.125 Q130.0975,299.6563 129.8006,300.6094 Q129.5038,301.5625 129.5038,302.8281 Q129.5038,304.8438 130.2225,305.8125 Q130.9413,306.7656 132.535,306.7656 Q133.1288,306.7656 133.7538,306.6094 Q134.3788,306.4531 135.2069,306.0781 L135.2069,308.2969 Q134.4725,308.6094 133.6756,308.7656 Q132.8944,308.9219 132.1288,308.9219 Z " fill="#000000"/><text fill="#000000" font-family="sans-serif" font-size="14" lengthAdjust="spacing" textLength="48.2549" x="146.66" y="306.8467">Enemy</text></g><!--class Game--><g id="elem_Game"><rect fill="#F1F1F1" height="32" id="Game" rx="2.5" ry="2.5" style="stroke:#181818;stroke-width:0.5;" width="73.6787" x="164.94" y="7"/><ellipse cx="179.94" cy="23" fill="#ADD1B2" rx="11" ry="11" style="stroke:#181818;stroke-width:1;"/><path d="M179.4088,29.9219 Q177.6588,29.9219 176.5181,29.1875 Q175.3931,28.4375 174.8306,27.0938 Q174.2838,25.7344 174.2838,23.9375 Q174.2838,21.9063 174.94,20.4531 Q175.5963,19 176.8775,18.2188 Q178.1588,17.4375 180.0338,17.4375 Q180.9244,17.4375 181.5963,17.625 Q182.2681,17.7969 182.9556,18.1406 L182.1431,20.1563 Q181.5181,19.8438 180.9713,19.7188 Q180.44,19.5938 179.9556,19.5938 Q178.7838,19.5938 178.0806,20.125 Q177.3775,20.6563 177.0806,21.6094 Q176.7838,22.5625 176.7838,23.8281 Q176.7838,25.8438 177.5025,26.8125 Q178.2213,27.7656 179.815,27.7656 Q180.4088,27.7656 181.0338,27.6094 Q181.6588,27.4531 182.4869,27.0781 L182.4869,29.2969 Q181.7525,29.6094 180.9556,29.7656 Q180.1744,29.9219 179.4088,29.9219 Z " fill="#000000"/><text fill="#000000" font-family="sans-serif" font-size="14" lengthAdjust="spacing" textLength="41.6787" x="193.94" y="27.8467">Game</text></g><!--reverse link Entity to Movable--><g id="link_Entity_Movable"><path codeLine="2" d="M184.9379,148.2894 C175.8779,165.1194 169.99,176.05 160.97,192.79 " fill="transparent" id="Entity-backto-Movable" style="stroke:#181818;stroke-width:1;"/><polygon fill="transparent" points="193.47,132.44,179.6548,145.4453,190.221,151.1334,193.47,132.44" style="stroke:#181818;stroke-width:1;"/></g><!--reverse link Entity to Weapon--><g id="link_Entity_Weapon"><path codeLine="3" d="M210.5436,149.8427 C219.3036,183.9027 232.63,250.46 215.78,318 C208,349.22 182.83,377.77 165.4,394.52 " fill="transparent" id="Entity-backto-Weapon" style="stroke:#181818;stroke-width:1;"/><polygon fill="transparent" points="206.06,132.41,204.7327,151.3372,216.3544,148.3481,206.06,132.41" style="stroke:#181818;stroke-width:1;"/></g><!--reverse link Movable to Player--><g id="link_Movable_Player"><path codeLine="5" d="M120.6932,237.0364 C100.7132,253.8664 82.71,269.05 62.83,285.79 " fill="transparent" id="Movable-backto-Player" style="stroke:#181818;stroke-width:1;"/><polygon fill="transparent" points="134.46,225.44,116.8278,232.4474,124.5587,241.6253,134.46,225.44" style="stroke:#181818;stroke-width:1;"/></g><!--reverse link Movable to Enemy--><g id="link_Movable_Enemy"><path codeLine="6" d="M154.6231,243.4126 C155.5531,260.2426 156.03,269.05 156.95,285.79 " fill="transparent" id="Movable-backto-Enemy" style="stroke:#181818;stroke-width:1;"/><polygon fill="transparent" points="153.63,225.44,148.6323,243.7436,160.614,243.0815,153.63,225.44" style="stroke:#181818;stroke-width:1;"/></g><!--reverse link Game to Entity--><g id="link_Game_Entity"><path codeLine="7" d="M201.78,51.44 C201.78,68.27 201.78,83.05 201.78,99.79 " fill="transparent" id="Game-backto-Entity" style="stroke:#181818;stroke-width:1;"/><polygon fill="#181818" points="201.78,39.44,197.78,45.44,201.78,51.44,205.78,45.44,201.78,39.44" style="stroke:#181818;stroke-width:1;"/><text fill="#000000" font-family="sans-serif" font-size="13" lengthAdjust="spacing" textLength="8.271" x="192.5484" y="59.1589">1</text><text fill="#000000" font-family="sans-serif" font-size="13" lengthAdjust="spacing" textLength="6.5" x="194.8671" y="89.025">*</text></g><!--reverse link Player to Weapon--><g id="link_Player_Weapon"><path codeLine="8" d="M67.8622,326.9753 C87.4422,347.3153 113.49,374.37 133.05,394.7 " fill="transparent" id="Player-backto-Weapon" style="stroke:#181818;stroke-width:1;"/><polygon fill="transparent" points="59.54,318.33,60.8194,325.4267,67.8622,326.9753,66.5829,319.8786,59.54,318.33" style="stroke:#181818;stroke-width:1;"/><text fill="#000000" font-family="sans-serif" font-size="13" lengthAdjust="spacing" textLength="78.9331" x="103.45" y="361.0669">aggregation</text></g><!--SRC=[IqmgBYbAJ2vHSCqhoIofv89G2ZOrkheAllbbYKavgIXYuQc91VbvN8amRJ0rK1gYA20diJAr25NCDIyrjvBBFJ4tLK79K4b12oYafAK4inQYGo4VReE2bK9YUdfHQdfYIIRGlepCb5I5tDJSfDIYOW00]--></g></svg>