<svg xmlns="http://www.w3.org/2000/svg" xmlns:xlink="http://www.w3.org/1999/xlink" contentStyleType="text/css" height="436px" preserveAspectRatio="none" style="width:238px;height:436px;background:#FFFFFF;" version="1.1" viewBox="0 0 238 436" width="238px" zoomAndPan="magnify"><defs/><g><!--class Entity--><g id="elem_Entity"><rect codeLine="1" fill="#F1F1F1" height="32" id="Entity" rx="2.5" ry="2.5" style="stroke:#181818;stroke-width:0.5;" width="66.7479" x="163" y="100"/><ellipse cx="178" cy="116" fill="#A9DCDF" rx="11" ry="11" style="stroke:#181818;stroke-width:1;"/><path d="M173.1719,121.75 L176.5156,109.5625 L179.6563,109.5625 L183.0313,121.75 L180.5625,121.75 L179.8281,118.7344 L176.3125,118.7344 L175.5625,121.75 L173.1719,121.75 Z M177.5781,113.7031 L176.8281,116.7031 L179.3438,116.7031 L178.625,113.7031 Q178.4844,113.125 178.3594,112.5781 Q178.2344,112.0156 178.0938,111.4375 Q177.9844,112.0156 177.8438,112.5781 Q177.7031,113.125 177.5781,113.7031 Z " fill="#000000"/><text fill="#000000" font-family="sans-serif" font-size="14" font-style="italic" lengthAdjust="spacing" textLength="34.7479" x="192" y="121.432">Entity</text></g><!--class Movable--><g id="elem_Movable"><rect codeLine="4" fill="#F1F1F1" height="32" id="Movable" rx="2.5" ry="2.5" style="stroke:#181818;stroke-width:0.5;" width="84.8498" x="106.95" y="193"/><ellipse cx="121.95" cy="209" fill="#A9DCDF" rx="11" ry="11" style="stroke:#181818;stroke-width:1;"/><path d="M117.1219,214.75 L120.4656,202.5625 L123.6063,202.5625 L126.9813,214.75 L124.5125,214.75 L123.7781,211.7344 L120.2625,211.7344 L119.5125,214.75 L117.1219,214.75 Z M121.5281,206.7031 L120.7781,209.7031 L123.2938,209.7031 L122.575,206.7031 Q122.4344,206.125 122.3094,205.5781 Q122.1844,205.0156 122.0438,204.4375 Q121.9344,205.0156 121.7938,205.5781 Q121.6531,206.125 121.5281,206.7031 Z " fill="#000000"/><text fill="#000000" font-family="sans-serif" font-size="14" font-style="italic" lengthAdjust="spacing" textLength="52.8498" x="135.95" y="214.432">Movable</text></g><!--class Weapon--><g id="elem_Weapon"><rect fill="#F1F1F1" height="32" id="Weapon" rx="2.5" ry="2.5" style="stroke:#181818;stroke-width:0.5;" width="86.5018" x="101.13" y="397"/><ellipse cx="116.13" cy="413" fill="#ADD1B2" rx="11" ry="11" style="stroke:#181818;stroke-width:1;"/><path d="M115.5988,419.9219 Q113.8488,419.9219 112.7081,419.1875 Q111.5831,418.4375 111.0206,417.0938 Q110.4738,415.7344 110.4738,413.9375 Q110.4738,411.9063 111.13,410.4531 Q111.7863,409 113.0675,408.2188 Q114.3488,407.4375 116.2238,407.4375 Q117.1144,407.4375 117.7863,407.625 Q118.4581,407.7969 119.1456,408.1406 L118.3331,410.1563 Q117.7081,409.8438 117.1613,409.7188 Q116.63,409.5938 116.1456,409.5938 Q114.9738,409.5938 114.2706,410.125 Q113.5675,410.6563 113.2706,411.6094 Q112.9738,412.5625 112.9738,413.8281 Q112.9738,415.8438 113.6925,416.8125 Q114.4113,417.7656 116.005,417.7656 Q116.5988,417.7656 117.2238,417.6094 Q117.8488,417.4531 118.6769,417.0781 L118.6769,419.2969 Q117.9425,419.6094 117.1456,419.7656 Q116.3644,419.9219 115.5988,419.9219 Z " fill="#000000"/><text fill="#000000" font-family="sans-serif" font-size="14" lengthAdjust="spacing" textLength="54.5018" x="130.13" y="418.432">Weapon</text></g><!--class Player--><g id="elem_Player"><rect fill="#F1F1F1" height="32" id="Player" rx="2.5" ry="2.5" style="stroke:#181818;stroke-width:0.5;" width="72.7538" x="7" y="286"/><ellipse cx="22" cy="302" fill="#ADD1B2" rx="11" ry="11" style="stroke:#181818;stroke-width:1;"/><path d="M21.4688,308.9219 Q19.7188,308.9219 18.5781,308.1875 Q17.4531,307.4375 16.8906,306.0938 Q16.3438,304.7344 16.3438,302.9375 Q16.3438,300.9063 17,299.4531 Q17.6563,298 18.9375,297.2188 Q20.2188,296.4375 22.0938,296.4375 Q22.9844,296.4375 23.6563,296.625 Q24.3281,296.7969 25.0156,297.1406 L24.2031,299.1563 Q23.5781,298.8438 23.0313,298.7188 Q22.5,298.5938 22.0156,298.5938 Q20.8438,298.5938 20.1406,299.125 Q19.4375,299.6563 19.1406,300.6094 Q18.8438,301.5625 18.8438,302.8281 Q18.8438,304.8438 19.5625,305.8125 Q20.2813,306.7656 21.875,306.7656 Q22.4688,306.7656 23.0938,306.6094 Q23.7188,306.4531 24.5469,306.0781 L24.5469,308.2969 Q23.8125,308.6094 23.0156,308.7656 Q22.2344,308.9219 21.4688,308.9219 Z " fill="#000000"/><text fill="#000000" font-family="sans-serif" font-size="14" lengthAdjust="spacing" textLength="40.7538" x="36" y="307.432">Player</text></g><!--class Enemy--><g id="elem_Enemy"><rect fill="#F1F1F1" height="32" id="Enemy" rx="2.5" ry="2.5" style="stroke:#181818;stroke-width:0.5;" width="76.5618" x="115.1" y="286"/><ellipse cx="130.1" cy="302" fill="#ADD1B2" rx="11" ry="11" style="stroke:#181818;stroke-width:1;"/><path d="M129.5688,308.9219 Q127.8188,308.9219 126.6781,308.1875 Q125.5531,307.4375 124.9906,306.0938 Q124.4438,304.7344 124.4438,302.9375 Q124.4438,300.9063 125.1,299.4531 Q125.7563,298 127.0375,297.2188 Q128.3188,296.4375 130.1938,296.4375 Q131.0844,296.4375 131.7563,296.625 Q132.4281,296.7969 133.1156,297.1406 L132.3031,299.1563 Q131.6781,298.8438 131.1313,298.7188 Q130.6,298.5938 130.1156,298.5938 Q128.9438,298.5938 128.2406,299.125 Q127.5375,299.6563 127.2406,300.6094 Q126.9438,301.5625 126.9438,302.8281 Q126.9438,304.8438 127.6625,305.8125 Q128.3813,306.7656 129.975,306.7656 Q130.5688,306.7656 131.1938,306.6094 Q131.8188,306.4531 132.6469,306.0781 L132.6469,308.2969 Q131.9125,308.6094 131.1156,308.7656 Q130.3344,308.9219 129.5688,308.9219 Z " fill="#000000"/><text fill="#000000" font-family="sans-serif" font-size="14" lengthAdjust="spacing" textLength="44.5618" x="144.1" y="307.432">Enemy</text></g><!--class Game--><g id="elem_Game"><rect fill="#F1F1F1" height="32" id="Game" rx="2.5" ry="2.5" style="stroke:#181818;stroke-width:0.5;" width="71.0318" x="160.86" y="7"/><ellipse cx="175.86" cy="23" fill="#ADD1B2" rx="11" ry="11" style="stroke:#181818;stroke-width:1;"/><path d="M175.3288,29.9219 Q173.5788,29.9219 172.4381,29.1875 Q171.3131,28.4375 170.7506,27.0938 Q170.2038,25.7344 170.2038,23.9375 Q170.2038,21.9063 170.86,20.4531 Q171.5163,19 172.7975,18.2188 Q174.0788,17.4375 175.9538,17.4375 Q176.8444,17.4375 177.5163,17.625 Q178.1881,17.7969 178.8756,18.1406 L178.0631,20.1563 Q177.4381,19.8438 176.8913,19.7188 Q176.36,19.5938 175.8756,19.5938 Q174.7038,19.5938 174.0006,20.125 Q173.2975,20.6563 173.0006,21.6094 Q172.7038,22.5625 172.7038,23.8281 Q172.7038,25.8438 173.4225,26.8125 Q174.1413,27.7656 175.735,27.7656 Q176.3288,27.7656 176.9538,27.6094 Q177.5788,27.4531 178.4069,27.0781 L178.4069,29.2969 Q177.6725,29.6094 176.8756,29.7656 Q176.0944,29.9219 175.3288,29.9219 Z " fill="#000000"/><text fill="#000000" font-family="sans-serif" font-size="14" lengthAdjust="spacing" textLength="39.0318" x="189.86" y="28.432">Game</text></g><!--reverse link Entity to Movable--><g id="link_Entity_Movable"><path codeLine="2" d="M180.1418,148.4338 C171.4518,165.2638 165.88,176.05 157.23,192.79 " fill="none" id="Entity-backto-Movable" style="stroke:#181818;stroke-width:1;"/><polygon fill="none" points="188.4,132.44,174.8105,145.6811,185.473,151.1865,188.4,132.44" style="stroke:#181818;stroke-width:1;"/></g><!--reverse link Entity to Weapon--><g id="link_Entity_Weapon"><path codeLine="3" d="M204.5631,149.8724 C212.7231,183.8524 225.09,250.21 209.38,318 C202.03,349.7 177.42,379.36 160.68,396.59 " fill="none" id="Entity-backto-Weapon" style="stroke:#181818;stroke-width:1;"/><polygon fill="none" points="200.36,132.37,198.7289,151.2734,210.3972,148.4714,200.36,132.37" style="stroke:#181818;stroke-width:1;"/></g><!--reverse link Movable to Player--><g id="link_Movable_Player"><path codeLine="5" d="M117.7408,237.1628 C98.1308,253.9928 80.6,269.05 61.09,285.79 " fill="none" id="Movable-backto-Player" style="stroke:#181818;stroke-width:1;"/><polygon fill="none" points="131.4,225.44,113.8331,232.6098,121.6484,241.7159,131.4,225.44" style="stroke:#181818;stroke-width:1;"/></g><!--reverse link Movable to Enemy--><g id="link_Movable_Enemy"><path codeLine="6" d="M150.8507,243.4226 C151.5907,260.2526 151.97,269.05 152.71,285.79 " fill="none" id="Movable-backto-Enemy" style="stroke:#181818;stroke-width:1;"/><polygon fill="none" points="150.06,225.44,144.8565,243.6862,156.8449,243.1591,150.06,225.44" style="stroke:#181818;stroke-width:1;"/></g><!--reverse link Game to Entity--><g id="link_Game_Entity"><path codeLine="7" d="M196.38,51.44 C196.38,68.27 196.38,83.05 196.38,99.79 " fill="none" id="Game-backto-Entity" style="stroke:#181818;stroke-width:1;"/><polygon fill="#181818" points="196.38,39.44,192.38,45.44,196.38,51.44,200.38,45.44,196.38,39.44" style="stroke:#181818;stroke-width:1;"/><text fill="#000000" font-family="sans-serif" font-size="13" lengthAdjust="spacing" textLength="7.436" x="188.4171" y="60.7668">1</text><text fill="#000000" font-family="sans-serif" font-size="13" lengthAdjust="spacing" textLength="7.163" x="188.207" y="88.3143">*</text></g><!--reverse link Player to Weapon--><g id="link_Player_Weapon"><path codeLine="8" d="M65.5782,326.9602 C84.7682,347.6602 110.83,375.8 130.13,396.62 " fill="none" id="Player-backto-Weapon" style="stroke:#181818;stroke-width:1;"/><polygon fill="none" points="57.42,318.16,58.5657,325.2795,65.5782,326.9602,64.4325,319.8407,57.42,318.16" style="stroke:#181818;stroke-width:1;"/><text fill="#000000" font-family="sans-serif" font-size="13" lengthAdjust="spacing" textLength="75.2181" x="100.92" y="362.897">aggregation</text></g><!--SRC=[IqmgBYbAJ2vHSCqhoIofv89G2ZOrkheAllbbYKavgIXYuQc91VbvN8amRJ0rK1gYA20diJAr25NCDIyrjvBBFJ4tLK79K4b12oYafAK4inQYGo4VReE2bK9YUdfHQdfYIIRGlepCb5I5tDJSfDIYOW00]--></g></svg>