<svg xmlns="http://www.w3.org/2000/svg" width="94" height="138" preserveAspectRatio="none" style="background:#fff;width:94px;height:138px"><g id="elem_Frutero"><rect id="Frutero" width="80.902" height="32" x="7" y="7" fill="#F1F1F1" rx="2.5" ry="2.5" style="stroke:#181818;stroke-width:.5px"/><circle cx="22" cy="23" r="11" fill="#ADD1B2" style="stroke:#181818;stroke-width:1px"/><path d="M21.469 29.922q-1.75 0-2.89-.735-1.126-.75-1.688-2.093-.547-1.36-.547-3.157 0-2.03.656-3.484.656-1.453 1.938-2.234 1.28-.782 3.156-.782.89 0 1.562.188.672.172 1.36.516l-.813 2.015q-.625-.312-1.172-.437-.531-.125-1.015-.125-1.172 0-1.875.531t-1 1.484-.297 2.22q0 2.015.718 2.983.72.954 2.313.954.594 0 1.219-.157.625-.156 1.453-.53v2.218q-.735.312-1.531.469-.782.156-1.547.156"/><text x="36" y="28.432" font-family="sans-serif" font-size="14" textLength="48.902">Frutero</text></g><g id="elem_Fruta"><rect id="Fruta" width="66.608" height="32" x="14.15" y="99" fill="#F1F1F1" rx="2.5" ry="2.5" style="stroke:#181818;stroke-width:.5px"/><circle cx="29.15" cy="115" r="11" fill="#ADD1B2" style="stroke:#181818;stroke-width:1px"/><path d="M28.619 121.922q-1.75 0-2.89-.734-1.126-.75-1.688-2.094-.547-1.36-.547-3.156 0-2.032.656-3.485t1.938-2.234q1.28-.781 3.156-.781.89 0 1.562.187.672.172 1.36.516l-.813 2.015q-.625-.312-1.172-.437-.531-.125-1.015-.125-1.172 0-1.875.531t-1 1.484-.297 2.22q0 2.015.718 2.984.72.953 2.313.953.594 0 1.219-.157.625-.156 1.453-.53v2.218q-.735.312-1.531.469-.782.156-1.547.156"/><text x="43.15" y="120.432" font-family="sans-serif" font-size="14" textLength="34.608">Fruta</text></g><g id="link_Frutero_Fruta"><path id="Frutero-backto-Fruta" fill="none" d="M47.45 51.27v47.39" style="stroke:#181818;stroke-width:1px"/><path fill="none" d="m47.45 39.27-4 6 4 6 4-6z" style="stroke:#181818;stroke-width:1px"/><text x="39.445" y="60.861" font-family="sans-serif" font-size="13" textLength="7.436">1</text><text x="39.273" y="87.14" font-family="sans-serif" font-size="13" textLength="7.163">*</text></g></svg>