<svg xmlns="http://www.w3.org/2000/svg" data-diagram-type="CLASS" height="138" preserveAspectRatio="none" style="background:#fff;width:97px;height:138px" width="97"><g id="elem_Frutero"><rect fill="#F1F1F1" height="32" id="Frutero" rx="2.5" ry="2.5" style="stroke:#181818;stroke-width:.5px" width="83.106" x="7" y="7"/><circle cx="22" cy="23" fill="#ADD1B2" style="stroke:#181818;stroke-width:1px" r="11"/><path d="M21.469 29.922q-1.75 0-2.89-.735-1.126-.75-1.688-2.093-.547-1.36-.547-3.157 0-2.03.656-3.484.656-1.453 1.938-2.234 1.28-.782 3.156-.782.89 0 1.562.188.672.172 1.36.516l-.813 2.015q-.625-.312-1.172-.437-.531-.125-1.015-.125-1.172 0-1.875.531-.703.531-1 1.484-.297.953-.297 2.22 0 2.015.718 2.983.72.954 2.313.954.594 0 1.219-.157.625-.156 1.453-.53v2.218q-.735.312-1.531.469-.782.156-1.547.156Z"/><text font-family="sans-serif" font-size="14" textLength="51.105" x="36" y="27.847">Frutero</text></g><g id="elem_Fruta"><rect fill="#F1F1F1" height="32" id="Fruta" rx="2.5" ry="2.5" style="stroke:#181818;stroke-width:.5px" width="68.75" x="14.18" y="99"/><circle cx="29.18" cy="115" fill="#ADD1B2" style="stroke:#181818;stroke-width:1px" r="11"/><path d="M28.649 121.922q-1.75 0-2.89-.734-1.126-.75-1.688-2.094-.547-1.36-.547-3.156 0-2.032.656-3.485.656-1.453 1.938-2.234 1.28-.781 3.156-.781.89 0 1.562.187.672.172 1.36.516l-.813 2.015q-.625-.312-1.172-.437-.531-.125-1.015-.125-1.172 0-1.875.531-.704.531-1 1.484-.297.954-.297 2.22 0 2.015.718 2.984.72.953 2.313.953.594 0 1.219-.157.625-.156 1.453-.53v2.218q-.735.312-1.531.469-.782.156-1.547.156Z"/><text font-family="sans-serif" font-size="14" textLength="36.75" x="43.18" y="119.847">Fruta</text></g><g id="link_Frutero_Fruta"><path d="M48.55 51.27v47.39" fill="transparent" id="Frutero-backto-Fruta" style="stroke:#181818;stroke-width:1px"/><path fill="transparent" style="stroke:#181818;stroke-width:1px" d="m48.55 39.27-4 6 4 6 4-6-4-6z"/><text font-family="sans-serif" font-size="13" textLength="8.271" x="39.317" y="58.935">1</text><text font-family="sans-serif" font-size="13" textLength="6.5" x="41.637" y="87.852">*</text></g></svg>