<svg xmlns="http://www.w3.org/2000/svg" width="413" height="591" data-diagram-type="CLASS" preserveAspectRatio="none" style="background:#fff;width:413px;height:591px"><g id="elem_Entity"><rect id="Entity" width="72.872" height="64.297" x="214.1" y="163.89" fill="#F1F1F1" rx="2.5" ry="2.5" style="stroke:#181818;stroke-width:.5px"/><circle cx="229.1" cy="179.89" r="11" fill="#ADD1B2" style="stroke:#181818;stroke-width:1px"/><path d="M228.569 186.812q-1.75 0-2.89-.735-1.126-.75-1.688-2.093-.547-1.36-.547-3.157 0-2.03.656-3.484.656-1.453 1.938-2.234 1.28-.782 3.156-.782.89 0 1.562.188.672.172 1.36.516l-.813 2.015q-.625-.312-1.172-.437-.531-.125-1.015-.125-1.172 0-1.875.531t-1 1.484-.297 2.22q0 2.015.719 2.983.718.954 2.312.954.594 0 1.219-.157.625-.156 1.453-.53v2.218q-.734.312-1.531.469-.782.156-1.547.156"/><text x="243.1" y="184.737" font-family="sans-serif" font-size="14" textLength="40.872">Entity</text><path d="M215.1 195.89h70.872M215.1 203.89h70.872" style="stroke:#181818;stroke-width:.5px"/><circle cx="225.1" cy="217.538" r="3" fill="#84BE84" style="stroke:#038048;stroke-width:1px"/><text x="234.1" y="220.885" font-family="sans-serif" font-size="14" textLength="36.107">tick()</text></g><g id="elem_Component"><rect id="Component" width="134.91" height="80.594" x="109.08" y="288.19" fill="#F1F1F1" rx="2.5" ry="2.5" style="stroke:#181818;stroke-width:.5px"/><circle cx="133.814" cy="304.19" r="11" fill="#A9DCDF" style="stroke:#181818;stroke-width:1px"/><path d="m128.986 309.94 3.344-12.187h3.14l3.375 12.187h-2.469l-.734-3.016h-3.516l-.75 3.016zm4.406-8.047-.75 3h2.516l-.72-3q-.14-.578-.265-1.125-.125-.562-.265-1.14-.11.578-.25 1.14-.141.547-.266 1.125"/><text x="149.977" y="309.037" font-family="sans-serif" font-size="14" font-style="italic" textLength="81.279">Component</text><path d="M110.08 320.19h132.91" style="stroke:#181818;stroke-width:.5px"/><circle cx="120.08" cy="333.838" r="3" fill="transparent" style="stroke:#038048;stroke-width:1px"/><text x="129.08" y="337.185" font-family="sans-serif" font-size="14" textLength="108.91">messageQueue</text><path d="M110.08 344.487h132.91" style="stroke:#181818;stroke-width:.5px"/><circle cx="120.08" cy="358.135" r="3" fill="#84BE84" style="stroke:#038048;stroke-width:1px"/><text x="129.08" y="361.482" font-family="sans-serif" font-size="14" textLength="36.107">tick()</text></g><g id="elem_Game"><rect id="Game" width="134.91" height="96.891" x="272.08" y="7" fill="#F1F1F1" rx="2.5" ry="2.5" style="stroke:#181818;stroke-width:.5px"/><circle cx="314.634" cy="23" r="11" fill="#ADD1B2" style="stroke:#181818;stroke-width:1px"/><path d="M314.103 29.922q-1.75 0-2.89-.735-1.126-.75-1.688-2.093-.547-1.36-.547-3.157 0-2.03.656-3.484.656-1.453 1.938-2.234 1.28-.782 3.156-.782.89 0 1.562.188.672.172 1.36.516l-.813 2.015q-.625-.312-1.172-.437-.53-.125-1.015-.125-1.172 0-1.875.531t-1 1.484-.297 2.22q0 2.015.719 2.983.718.954 2.312.954.594 0 1.219-.157.625-.156 1.453-.53v2.218q-.734.312-1.531.469-.781.156-1.547.156"/><text x="334.757" y="27.847" font-family="sans-serif" font-size="14" textLength="41.679">Game</text><path d="M273.08 39h132.91" style="stroke:#181818;stroke-width:.5px"/><circle cx="283.08" cy="52.648" r="3" fill="transparent" style="stroke:#038048;stroke-width:1px"/><text x="292.08" y="55.995" font-family="sans-serif" font-size="14" textLength="52.151">entities</text><circle cx="283.08" cy="68.945" r="3" fill="transparent" style="stroke:#038048;stroke-width:1px"/><text x="292.08" y="72.292" font-family="sans-serif" font-size="14" textLength="108.91">messageQueue</text><path d="M273.08 79.594h132.91" style="stroke:#181818;stroke-width:.5px"/><circle cx="283.08" cy="93.242" r="3" fill="#84BE84" style="stroke:#038048;stroke-width:1px"/><text x="292.08" y="96.589" font-family="sans-serif" font-size="14" textLength="36.107">tick()</text></g><g id="elem_Attacker"><rect id="Attacker" width="91.309" height="48" x="138.88" y="428.78" fill="#F1F1F1" rx="2.5" ry="2.5" style="stroke:#181818;stroke-width:.5px"/><circle cx="153.88" cy="444.78" r="11" fill="#ADD1B2" style="stroke:#181818;stroke-width:1px"/><path d="M153.349 451.702q-1.75 0-2.89-.735-1.126-.75-1.688-2.093-.547-1.36-.547-3.157 0-2.03.656-3.484.656-1.453 1.938-2.234 1.28-.782 3.156-.782.89 0 1.562.188.672.172 1.36.516l-.813 2.015q-.625-.312-1.172-.437-.531-.125-1.015-.125-1.172 0-1.875.531t-1 1.484-.297 2.22q0 2.015.719 2.983.718.954 2.312.954.594 0 1.219-.157.625-.156 1.453-.53v2.218q-.734.312-1.531.469-.782.156-1.547.156"/><text x="167.88" y="449.627" font-family="sans-serif" font-size="14" textLength="59.309">Attacker</text><path d="M139.88 460.78h89.309M139.88 468.78h89.309" style="stroke:#181818;stroke-width:.5px"/></g><g id="elem_Defender"><rect id="Defender" width="97.064" height="48" x="7" y="428.78" fill="#F1F1F1" rx="2.5" ry="2.5" style="stroke:#181818;stroke-width:.5px"/><circle cx="22" cy="444.78" r="11" fill="#ADD1B2" style="stroke:#181818;stroke-width:1px"/><path d="M21.469 451.702q-1.75 0-2.89-.735-1.126-.75-1.688-2.093-.547-1.36-.547-3.157 0-2.03.656-3.484.656-1.453 1.938-2.234 1.28-.782 3.156-.782.89 0 1.562.188.672.172 1.36.516l-.813 2.015q-.625-.312-1.172-.437-.531-.125-1.015-.125-1.172 0-1.875.531t-1 1.484-.297 2.22q0 2.015.718 2.983.72.954 2.313.954.594 0 1.219-.157.625-.156 1.453-.53v2.218q-.735.312-1.531.469-.782.156-1.547.156"/><text x="36" y="449.627" font-family="sans-serif" font-size="14" textLength="65.064">Defender</text><path d="M8 460.78h95.064M8 468.78h95.064" style="stroke:#181818;stroke-width:.5px"/></g><g id="elem_Message"><rect id="Message" width="93.359" height="48" x="278.85" y="304.48" fill="#F1F1F1" rx="2.5" ry="2.5" style="stroke:#181818;stroke-width:.5px"/><circle cx="293.85" cy="320.48" r="11" fill="#A9DCDF" style="stroke:#181818;stroke-width:1px"/><path d="m289.022 326.23 3.344-12.187h3.14l3.375 12.187h-2.468l-.735-3.016h-3.515l-.75 3.016zm4.406-8.047-.75 3h2.516l-.719-3q-.14-.578-.266-1.125-.125-.562-.265-1.14-.11.578-.25 1.14-.14.547-.266 1.125"/><text x="307.85" y="325.327" font-family="sans-serif" font-size="14" font-style="italic" textLength="61.359">Message</text><path d="M279.85 336.48h91.359M279.85 344.48h91.359" style="stroke:#181818;stroke-width:.5px"/></g><g id="elem_Attack"><rect id="Attack" width="76.939" height="48" x="146.06" y="536.78" fill="#F1F1F1" rx="2.5" ry="2.5" style="stroke:#181818;stroke-width:.5px"/><circle cx="161.06" cy="552.78" r="11" fill="#ADD1B2" style="stroke:#181818;stroke-width:1px"/><path d="M160.529 559.702q-1.75 0-2.89-.735-1.126-.75-1.688-2.093-.547-1.36-.547-3.157 0-2.03.656-3.484.656-1.453 1.938-2.234 1.28-.782 3.156-.782.89 0 1.562.188.672.172 1.36.516l-.813 2.015q-.625-.312-1.172-.437-.531-.125-1.015-.125-1.172 0-1.875.531t-1 1.484-.297 2.22q0 2.015.719 2.983.718.954 2.312.954.594 0 1.219-.157.625-.156 1.453-.53v2.218q-.734.312-1.531.469-.782.156-1.547.156"/><text x="175.06" y="557.627" font-family="sans-serif" font-size="14" textLength="44.94">Attack</text><path d="M147.06 568.78H222M147.06 576.78H222" style="stroke:#181818;stroke-width:.5px"/></g><g id="elem_Presence"><rect id="Presence" width="95.902" height="48" x="306.58" y="536.78" fill="#F1F1F1" rx="2.5" ry="2.5" style="stroke:#181818;stroke-width:.5px"/><circle cx="321.58" cy="552.78" r="11" fill="#ADD1B2" style="stroke:#181818;stroke-width:1px"/><path d="M321.049 559.702q-1.75 0-2.89-.735-1.126-.75-1.688-2.093-.547-1.36-.547-3.157 0-2.03.656-3.484.656-1.453 1.938-2.234 1.28-.782 3.156-.782.89 0 1.562.188.672.172 1.36.516l-.813 2.015q-.625-.312-1.172-.437-.531-.125-1.015-.125-1.172 0-1.875.531t-1 1.484-.297 2.22q0 2.015.719 2.983.718.954 2.312.954.594 0 1.219-.157.625-.156 1.453-.53v2.218q-.735.312-1.531.469-.782.156-1.547.156"/><text x="335.58" y="557.627" font-family="sans-serif" font-size="14" textLength="63.902">Presence</text><path d="M307.58 568.78h93.902M307.58 576.78h93.902" style="stroke:#181818;stroke-width:.5px"/></g><g id="link_Component_Attacker" fill="transparent"><path id="Component-backto-Attacker" d="M180.307 387.152c1.28 19.53 1.593 24.438 2.693 41.148" style="stroke:#181818;stroke-width:1px"/><path d="m179.13 369.19-4.81 18.354 11.974-.785z" style="stroke:#181818;stroke-width:1px"/></g><g id="link_Component_Defender" fill="transparent"><path id="Component-backto-Defender" d="M124.591 381.987C105.271 401.516 95.3 411.59 78.76 428.3" style="stroke:#181818;stroke-width:1px"/><path d="m137.25 369.19-16.924 8.577 8.53 8.44z" style="stroke:#181818;stroke-width:1px"/></g><g id="link_Game_Message" fill="transparent"><path id="Game-backto-Message" d="M336.441 116.264c-3.03 58.66-7.421 143.746-9.711 187.976" style="stroke:#181818;stroke-width:1px"/><path d="m337.06 104.28-4.304 5.786 3.685 6.198 4.304-5.786z" style="stroke:#181818;stroke-width:1px"/></g><g id="link_Entity_Message"><path id="Entity-to-Message" fill="transparent" d="M268.69 228.61c13.44 23.38 28.448 49.49 40.568 70.56" style="stroke:#181818;stroke-width:1px"/><path fill="#181818" d="m312.25 304.37-1.02-9.796-1.473 5.462-5.462-1.473z" style="stroke:#181818;stroke-width:1px"/></g><g id="link_Entity_Component"><path id="Entity-backto-Component" fill="transparent" d="M226.698 239.047c-10.1 17.8-16.878 29.763-27.648 48.733" style="stroke:#181818;stroke-width:1px"/><path fill="#181818" d="m232.62 228.61-6.44 3.244.518 7.193 6.44-3.244z" style="stroke:#181818;stroke-width:1px"/><text x="220.468" y="248.328" font-family="sans-serif" font-size="13" textLength="8.271">1</text><text x="196.2" y="277.175" font-family="sans-serif" font-size="13" textLength="6.5">*</text></g><g id="link_Game_Entity"><path id="Game-backto-Entity" fill="transparent" d="M302.416 114.237c-12.67 19.73-20.526 31.963-31.816 49.553" style="stroke:#181818;stroke-width:1px"/><path fill="#181818" d="m308.9 104.14-6.608 2.887.124 7.21 6.608-2.887z" style="stroke:#181818;stroke-width:1px"/><text x="296.048" y="124.119" font-family="sans-serif" font-size="13" textLength="8.271">1</text><text x="268.171" y="152.673" font-family="sans-serif" font-size="13" textLength="6.5">*</text></g><g id="link_Message_Attack" fill="transparent"><path id="Message-backto-Attack" d="M306.859 369.08c-14.15 29.61-32.469 65.63-59.329 107.7-13.43 21.04-30.69 43.52-43.74 59.77" style="stroke:#181818;stroke-width:1px"/><path d="m314.62 352.84-13.175 13.654 10.827 5.174z" style="stroke:#181818;stroke-width:1px"/></g><g id="link_Message_Presence" fill="transparent"><path id="Message-backto-Presence" d="M330.72 370.689c5.56 44.14 15.3 121.491 20.86 165.681" style="stroke:#181818;stroke-width:1px"/><path d="m328.47 352.83-3.703 18.609 11.906-1.5z" style="stroke:#181818;stroke-width:1px"/></g><g id="link_Game_Presence"><path id="Game-to-Presence" fill="transparent" d="M354.76 104.34c17.66 61.08 43.34 170.1 34.77 264.44-5.55 61.1-19.528 126.019-27.938 161.829" style="stroke:#181818;stroke-width:1px"/><path fill="#181818" d="m360.22 536.45 5.952-7.847-4.809 2.98-2.98-4.81z" style="stroke:#181818;stroke-width:1px"/></g><g id="link_Attacker_Presence"><path id="Attacker-to-Presence" fill="transparent" d="M221.84 477.04c28.25 17.61 61.788 38.536 90.088 56.176" style="stroke:#181818;stroke-width:1px"/><path fill="#181818" d="m317.02 536.39-5.522-8.155 1.279 5.51-5.51 1.279z" style="stroke:#181818;stroke-width:1px"/></g><g id="link_Attacker_Attack"><path id="Attacker-to-Attack" fill="transparent" d="M184.53 477.04v53.53" style="stroke:#181818;stroke-width:1px"/><path fill="#181818" d="m184.53 536.57 4-9-4 4-4-4z" style="stroke:#181818;stroke-width:1px"/></g><g id="link_Defender_Attack"><path id="Defender-to-Attack" fill="transparent" d="M83.84 477.04c21.51 17.68 46.324 38.06 67.814 55.72" style="stroke:#181818;stroke-width:1px"/><path fill="#181818" d="m156.29 536.57-4.414-8.805.551 5.63-5.63.551z" style="stroke:#181818;stroke-width:1px"/></g></svg>