<svg xmlns="http://www.w3.org/2000/svg" width="404" height="608" preserveAspectRatio="none" style="background:#fff;width:404px;height:608px"><g id="elem_Entity"><rect id="Entity" width="69.296" height="67.068" x="210.24" y="172.21" fill="#F1F1F1" rx="2.5" ry="2.5" style="stroke:#181818;stroke-width:.5px"/><circle cx="225.24" cy="188.21" r="11" fill="#ADD1B2" style="stroke:#181818;stroke-width:1px"/><path d="M224.709 195.132q-1.75 0-2.89-.734-1.126-.75-1.688-2.094-.547-1.36-.547-3.156 0-2.032.656-3.485t1.938-2.234q1.28-.781 3.156-.781.89 0 1.562.187.672.172 1.36.516l-.813 2.015q-.625-.312-1.172-.437-.531-.125-1.015-.125-1.172 0-1.875.531t-1 1.484-.297 2.22q0 2.015.719 2.984.718.953 2.312.953.594 0 1.219-.157.625-.156 1.453-.53v2.218q-.734.312-1.531.469-.782.156-1.547.156"/><text x="239.24" y="193.642" font-family="sans-serif" font-size="14" textLength="37.296">Entity</text><path d="M211.24 204.21h67.296M211.24 212.21h67.296" style="stroke:#181818;stroke-width:.5px"/><circle cx="221.24" cy="227.244" r="3" fill="#84BE84" style="stroke:#038048;stroke-width:1px"/><text x="230.24" y="231.176" font-family="sans-serif" font-size="14" textLength="31.262">tick()</text></g><g id="elem_Component"><rect id="Component" width="128.788" height="86.136" x="114.49" y="299.27" fill="#F1F1F1" rx="2.5" ry="2.5" style="stroke:#181818;stroke-width:.5px"/><circle cx="140.562" cy="315.27" r="11" fill="#A9DCDF" style="stroke:#181818;stroke-width:1px"/><path d="m135.734 321.02 3.343-12.187h3.141l3.375 12.187h-2.469l-.734-3.016h-3.516l-.75 3.016zm4.406-8.047-.75 3h2.516l-.72-3q-.14-.578-.265-1.125-.125-.562-.266-1.14-.109.578-.25 1.14-.14.547-.265 1.125"/><text x="157.022" y="320.702" font-family="sans-serif" font-size="14" font-style="italic" textLength="72.184">Component</text><path d="M115.49 331.27h126.788" style="stroke:#181818;stroke-width:.5px"/><circle cx="125.49" cy="346.304" r="3" fill="none" style="stroke:#038048;stroke-width:1px"/><text x="134.49" y="350.236" font-family="sans-serif" font-size="14" textLength="102.788">messageQueue</text><path d="M115.49 358.338h126.788" style="stroke:#181818;stroke-width:.5px"/><circle cx="125.49" cy="373.372" r="3" fill="#84BE84" style="stroke:#038048;stroke-width:1px"/><text x="134.49" y="377.304" font-family="sans-serif" font-size="14" textLength="31.262">tick()</text></g><g id="elem_Game"><rect id="Game" width="128.788" height="105.204" x="268.49" y="7" fill="#F1F1F1" rx="2.5" ry="2.5" style="stroke:#181818;stroke-width:.5px"/><circle cx="309.48" cy="23" r="11" fill="#ADD1B2" style="stroke:#181818;stroke-width:1px"/><path d="M308.949 29.922q-1.75 0-2.89-.735-1.126-.75-1.688-2.093-.547-1.36-.547-3.157 0-2.03.656-3.484.656-1.453 1.938-2.234 1.28-.782 3.156-.782.89 0 1.562.188.672.172 1.36.516l-.813 2.015q-.625-.312-1.172-.437-.53-.125-1.015-.125-1.172 0-1.875.531t-1 1.484-.297 2.22q0 2.015.719 2.983.718.954 2.312.954.594 0 1.219-.157.625-.156 1.453-.53v2.218q-.734.312-1.531.469-.781.156-1.547.156"/><text x="329.256" y="28.432" font-family="sans-serif" font-size="14" textLength="39.032">Game</text><path d="M269.49 39h126.788" style="stroke:#181818;stroke-width:.5px"/><circle cx="279.49" cy="54.034" r="3" fill="none" style="stroke:#038048;stroke-width:1px"/><text x="288.49" y="57.966" font-family="sans-serif" font-size="14" textLength="48.482">entities</text><circle cx="279.49" cy="73.102" r="3" fill="none" style="stroke:#038048;stroke-width:1px"/><text x="288.49" y="77.034" font-family="sans-serif" font-size="14" textLength="102.788">messageQueue</text><path d="M269.49 85.136h126.788" style="stroke:#181818;stroke-width:.5px"/><circle cx="279.49" cy="100.17" r="3" fill="#84BE84" style="stroke:#038048;stroke-width:1px"/><text x="288.49" y="104.102" font-family="sans-serif" font-size="14" textLength="31.262">tick()</text></g><g id="elem_Attacker"><rect id="Attacker" width="86.782" height="48" x="135.49" y="445.41" fill="#F1F1F1" rx="2.5" ry="2.5" style="stroke:#181818;stroke-width:.5px"/><circle cx="150.49" cy="461.41" r="11" fill="#ADD1B2" style="stroke:#181818;stroke-width:1px"/><path d="M149.959 468.332q-1.75 0-2.89-.734-1.126-.75-1.688-2.094-.547-1.36-.547-3.156 0-2.032.656-3.485t1.938-2.234q1.28-.781 3.156-.781.89 0 1.562.187.672.172 1.36.516l-.813 2.015q-.625-.312-1.172-.437-.531-.125-1.015-.125-1.172 0-1.875.531t-1 1.484-.297 2.22q0 2.015.719 2.984.718.953 2.312.953.594 0 1.219-.157.625-.156 1.453-.53v2.218q-.734.312-1.531.469-.782.156-1.547.156"/><text x="164.49" y="466.842" font-family="sans-serif" font-size="14" textLength="54.782">Attacker</text><path d="M136.49 477.41h84.782M136.49 485.41h84.782" style="stroke:#181818;stroke-width:.5px"/></g><g id="elem_Defender"><rect id="Defender" width="93.768" height="48" x="7" y="445.41" fill="#F1F1F1" rx="2.5" ry="2.5" style="stroke:#181818;stroke-width:.5px"/><circle cx="22" cy="461.41" r="11" fill="#ADD1B2" style="stroke:#181818;stroke-width:1px"/><path d="M21.469 468.332q-1.75 0-2.89-.734-1.126-.75-1.688-2.094-.547-1.36-.547-3.156 0-2.032.656-3.485t1.938-2.234q1.28-.781 3.156-.781.89 0 1.562.187.672.172 1.36.516l-.813 2.015q-.625-.312-1.172-.437-.531-.125-1.015-.125-1.172 0-1.875.531t-1 1.484-.297 2.22q0 2.015.718 2.984.72.953 2.313.953.594 0 1.219-.157.625-.156 1.453-.53v2.218q-.735.312-1.531.469-.782.156-1.547.156"/><text x="36" y="466.842" font-family="sans-serif" font-size="14" textLength="61.768">Defender</text><path d="M8 477.41h91.768M8 485.41h91.768" style="stroke:#181818;stroke-width:.5px"/></g><g id="elem_Message"><rect id="Message" width="85.9" height="48" x="277.93" y="318.34" fill="#F1F1F1" rx="2.5" ry="2.5" style="stroke:#181818;stroke-width:.5px"/><circle cx="292.93" cy="334.34" r="11" fill="#A9DCDF" style="stroke:#181818;stroke-width:1px"/><path d="m288.102 340.09 3.344-12.187h3.14l3.375 12.187h-2.469l-.734-3.016h-3.515l-.75 3.016zm4.406-8.047-.75 3h2.516l-.719-3q-.14-.578-.266-1.125-.125-.562-.265-1.14-.11.578-.25 1.14-.14.547-.266 1.125"/><text x="306.93" y="339.772" font-family="sans-serif" font-size="14" font-style="italic" textLength="53.9">Message</text><path d="M278.93 350.34h83.9M278.93 358.34h83.9" style="stroke:#181818;stroke-width:.5px"/></g><g id="elem_Attack"><rect id="Attack" width="73.104" height="48" x="142.33" y="553.41" fill="#F1F1F1" rx="2.5" ry="2.5" style="stroke:#181818;stroke-width:.5px"/><circle cx="157.33" cy="569.41" r="11" fill="#ADD1B2" style="stroke:#181818;stroke-width:1px"/><path d="M156.799 576.332q-1.75 0-2.89-.735-1.126-.75-1.688-2.093-.547-1.36-.547-3.157 0-2.03.656-3.484.656-1.453 1.938-2.234 1.28-.782 3.156-.782.89 0 1.562.188.672.172 1.36.516l-.813 2.015q-.625-.312-1.172-.437-.531-.125-1.015-.125-1.172 0-1.875.531t-1 1.484-.297 2.22q0 2.015.719 2.983.718.954 2.312.954.594 0 1.219-.157.625-.156 1.453-.53v2.218q-.734.312-1.531.469-.782.156-1.547.156"/><text x="171.33" y="574.842" font-family="sans-serif" font-size="14" textLength="41.104">Attack</text><path d="M143.33 585.41h71.104M143.33 593.41h71.104" style="stroke:#181818;stroke-width:.5px"/></g><g id="elem_Presence"><rect id="Presence" width="92.018" height="48" x="299.88" y="553.41" fill="#F1F1F1" rx="2.5" ry="2.5" style="stroke:#181818;stroke-width:.5px"/><circle cx="314.88" cy="569.41" r="11" fill="#ADD1B2" style="stroke:#181818;stroke-width:1px"/><path d="M314.349 576.332q-1.75 0-2.89-.735-1.126-.75-1.688-2.093-.547-1.36-.547-3.157 0-2.03.656-3.484.656-1.453 1.938-2.234 1.28-.782 3.156-.782.89 0 1.562.188.672.172 1.36.516l-.813 2.015q-.625-.312-1.172-.437-.531-.125-1.015-.125-1.172 0-1.875.531t-1 1.484-.297 2.22q0 2.015.719 2.983.718.954 2.312.954.594 0 1.219-.157.625-.156 1.453-.53v2.218q-.735.312-1.531.469-.782.156-1.547.156"/><text x="328.88" y="574.842" font-family="sans-serif" font-size="14" textLength="60.018">Presence</text><path d="M300.88 585.41h90.018M300.88 593.41h90.018" style="stroke:#181818;stroke-width:.5px"/></g><g id="link_Component_Attacker" fill="none"><path id="Component-backto-Attacker" d="M178.88 403.68v41.39" style="stroke:#181818;stroke-width:1px"/><path d="m178.88 385.68-6 18h12z" style="stroke:#181818;stroke-width:1px"/></g><g id="link_Component_Defender" fill="none"><path id="Component-backto-Defender" d="M123.839 398.414c-19.83 19.85-29.979 29.996-46.629 46.656" style="stroke:#181818;stroke-width:1px"/><path d="m136.56 385.68-16.966 8.494 8.49 8.48z" style="stroke:#181818;stroke-width:1px"/></g><g id="link_Game_Message" fill="none"><path id="Game-backto-Message" d="M330.158 124.41c-2.62 61.32-6.358 148.74-8.278 193.62" style="stroke:#181818;stroke-width:1px"/><path d="m330.67 112.42-4.252 5.824 3.74 6.165 4.252-5.824z" style="stroke:#181818;stroke-width:1px"/></g><g id="link_Entity_Message"><path id="Entity-to-Message" fill="none" d="M263.48 239.67c13.71 24.28 29.07 51.495 41.29 73.145" style="stroke:#181818;stroke-width:1px"/><path fill="#181818" d="m307.72 318.04-.94-9.804-1.518 5.45-5.45-1.517z" style="stroke:#181818;stroke-width:1px"/></g><g id="link_Entity_Component"><path id="Entity-backto-Component" fill="none" d="M223.456 250.444c-8.74 17.82-14.356 29.266-23.726 48.386" style="stroke:#181818;stroke-width:1px"/><path fill="#181818" d="m228.74 239.67-6.233 3.626.949 7.148 6.233-3.626z" style="stroke:#181818;stroke-width:1px"/><text x="218.279" y="261.187" font-family="sans-serif" font-size="13" textLength="7.436">1</text><text x="195.507" y="287.495" font-family="sans-serif" font-size="13" textLength="7.163">*</text></g><g id="link_Game_Entity"><path id="Game-backto-Entity" fill="none" d="M294.858 122.883c-12.11 19.84-19.308 31.627-30.018 49.177" style="stroke:#181818;stroke-width:1px"/><path fill="#181818" d="m301.11 112.64-6.54 3.037.288 7.206 6.54-3.038z" style="stroke:#181818;stroke-width:1px"/><text x="289.838" y="134.08" font-family="sans-serif" font-size="13" textLength="7.436">1</text><text x="261.25" y="160.329" font-family="sans-serif" font-size="13" textLength="7.163">*</text></g><g id="link_Message_Attack" fill="none"><path id="Message-backto-Attack" d="M301.515 382.922c-14.86 30.02-34.235 67.208-61.635 110.488-13.2 20.85-29.89 43.34-42.48 59.64" style="stroke:#181818;stroke-width:1px"/><path d="m309.5 366.79-13.363 13.47 10.755 5.324z" style="stroke:#181818;stroke-width:1px"/></g><g id="link_Message_Presence" fill="none"><path id="Message-backto-Presence" d="M325.29 384.437c4.78 44.56 13.28 123.763 18.08 168.523" style="stroke:#181818;stroke-width:1px"/><path d="m323.37 366.54-4.046 18.537 11.932-1.28z" style="stroke:#181818;stroke-width:1px"/></g><g id="link_Game_Presence"><path id="Game-to-Presence" fill="none" d="M348.31 112.71c17.16 63.97 41.37 175.91 32.57 272.7-5.55 61.1-19.528 126.019-27.938 161.829" style="stroke:#181818;stroke-width:1px"/><path fill="#181818" d="m351.57 553.08 5.952-7.847-4.809 2.98-2.98-4.81z" style="stroke:#181818;stroke-width:1px"/></g><g id="link_Attacker_Presence"><path id="Attacker-to-Presence" fill="none" d="M215.53 493.67c27.75 17.61 60.634 38.495 88.434 56.135" style="stroke:#181818;stroke-width:1px"/><path fill="#181818" d="m309.03 553.02-5.456-8.2 1.234 5.521-5.52 1.235z" style="stroke:#181818;stroke-width:1px"/></g><g id="link_Attacker_Attack"><path id="Attacker-to-Attack" fill="none" d="M178.88 493.67v53.53" style="stroke:#181818;stroke-width:1px"/><path fill="#181818" d="m178.88 553.2 4-9-4 4-4-4z" style="stroke:#181818;stroke-width:1px"/></g><g id="link_Defender_Attack"><path id="Defender-to-Attack" fill="none" d="M81.32 493.67c20.84 17.68 44.793 37.99 65.623 55.65" style="stroke:#181818;stroke-width:1px"/><path fill="#181818" d="m151.52 553.2-4.278-8.871.464 5.638-5.638.464z" style="stroke:#181818;stroke-width:1px"/></g></svg>