<svg xmlns="http://www.w3.org/2000/svg" data-diagram-type="CLASS" height="591" preserveAspectRatio="none" style="background:#fff;width:413px;height:591px" width="413"><g id="elem_Entity"><rect fill="#F1F1F1" height="64.297" id="Entity" rx="2.5" ry="2.5" style="stroke:#181818;stroke-width:.5px" width="72.872" x="214.1" y="163.89"/><circle cx="229.1" cy="179.89" fill="#ADD1B2" style="stroke:#181818;stroke-width:1px" r="11"/><path d="M228.569 186.812q-1.75 0-2.89-.735-1.126-.75-1.688-2.093-.547-1.36-.547-3.157 0-2.03.656-3.484.656-1.453 1.938-2.234 1.28-.782 3.156-.782.89 0 1.562.188.672.172 1.36.516l-.813 2.015q-.625-.312-1.172-.437-.531-.125-1.015-.125-1.172 0-1.875.531-.704.531-1 1.484-.297.953-.297 2.22 0 2.015.719 2.983.718.954 2.312.954.594 0 1.219-.157.625-.156 1.453-.53v2.218q-.734.312-1.531.469-.782.156-1.547.156Z"/><text font-family="sans-serif" font-size="14" textLength="40.872" x="243.1" y="184.737">Entity</text><path style="stroke:#181818;stroke-width:.5px" d="M215.1 195.89h70.872M215.1 203.89h70.872"/><circle cx="225.1" cy="217.538" fill="#84BE84" style="stroke:#038048;stroke-width:1px" r="3"/><text font-family="sans-serif" font-size="14" textLength="36.107" x="234.1" y="220.885">tick()</text></g><g id="elem_Component"><rect fill="#F1F1F1" height="80.594" id="Component" rx="2.5" ry="2.5" style="stroke:#181818;stroke-width:.5px" width="134.91" x="109.08" y="288.19"/><circle cx="133.814" cy="304.19" fill="#A9DCDF" style="stroke:#181818;stroke-width:1px" r="11"/><path d="m128.986 309.94 3.344-12.188h3.14l3.375 12.188h-2.469l-.734-3.016h-3.516l-.75 3.016h-2.39Zm4.406-8.047-.75 3h2.516l-.72-3q-.14-.578-.265-1.125-.125-.562-.265-1.14-.11.578-.25 1.14-.141.547-.266 1.125Z"/><text font-family="sans-serif" font-size="14" font-style="italic" textLength="81.279" x="149.977" y="309.037">Component</text><path style="stroke:#181818;stroke-width:.5px" d="M110.08 320.19h132.91"/><circle cx="120.08" cy="333.838" fill="transparent" style="stroke:#038048;stroke-width:1px" r="3"/><text font-family="sans-serif" font-size="14" textLength="108.91" x="129.08" y="337.185">messageQueue</text><path style="stroke:#181818;stroke-width:.5px" d="M110.08 344.487h132.91"/><circle cx="120.08" cy="358.135" fill="#84BE84" style="stroke:#038048;stroke-width:1px" r="3"/><text font-family="sans-serif" font-size="14" textLength="36.107" x="129.08" y="361.482">tick()</text></g><g id="elem_Game"><rect fill="#F1F1F1" height="96.891" id="Game" rx="2.5" ry="2.5" style="stroke:#181818;stroke-width:.5px" width="134.91" x="272.08" y="7"/><circle cx="314.634" cy="23" fill="#ADD1B2" style="stroke:#181818;stroke-width:1px" r="11"/><path d="M314.103 29.922q-1.75 0-2.89-.735-1.126-.75-1.688-2.093-.547-1.36-.547-3.157 0-2.03.656-3.484.656-1.453 1.938-2.234 1.28-.782 3.156-.782.89 0 1.562.188.672.172 1.36.516l-.813 2.015q-.625-.312-1.172-.437-.53-.125-1.015-.125-1.172 0-1.875.531-.703.531-1 1.484-.297.953-.297 2.22 0 2.015.719 2.983.718.954 2.312.954.594 0 1.219-.157.625-.156 1.453-.53v2.218q-.734.312-1.531.469-.781.156-1.547.156Z"/><text font-family="sans-serif" font-size="14" textLength="41.679" x="334.757" y="27.847">Game</text><path style="stroke:#181818;stroke-width:.5px" d="M273.08 39h132.91"/><circle cx="283.08" cy="52.648" fill="transparent" style="stroke:#038048;stroke-width:1px" r="3"/><text font-family="sans-serif" font-size="14" textLength="52.151" x="292.08" y="55.995">entities</text><circle cx="283.08" cy="68.945" fill="transparent" style="stroke:#038048;stroke-width:1px" r="3"/><text font-family="sans-serif" font-size="14" textLength="108.91" x="292.08" y="72.292">messageQueue</text><path style="stroke:#181818;stroke-width:.5px" d="M273.08 79.594h132.91"/><circle cx="283.08" cy="93.242" fill="#84BE84" style="stroke:#038048;stroke-width:1px" r="3"/><text font-family="sans-serif" font-size="14" textLength="36.107" x="292.08" y="96.589">tick()</text></g><g id="elem_Attacker"><rect fill="#F1F1F1" height="48" id="Attacker" rx="2.5" ry="2.5" style="stroke:#181818;stroke-width:.5px" width="91.309" x="138.88" y="428.78"/><circle cx="153.88" cy="444.78" fill="#ADD1B2" style="stroke:#181818;stroke-width:1px" r="11"/><path d="M153.349 451.702q-1.75 0-2.89-.735-1.126-.75-1.688-2.093-.547-1.36-.547-3.157 0-2.03.656-3.484.656-1.453 1.938-2.234 1.28-.782 3.156-.782.89 0 1.562.188.672.172 1.36.516l-.813 2.015q-.625-.312-1.172-.437-.531-.125-1.015-.125-1.172 0-1.875.531-.703.531-1 1.484-.297.953-.297 2.22 0 2.015.719 2.983.718.954 2.312.954.594 0 1.219-.157.625-.156 1.453-.53v2.218q-.734.312-1.531.469-.782.156-1.547.156Z"/><text font-family="sans-serif" font-size="14" textLength="59.309" x="167.88" y="449.627">Attacker</text><path style="stroke:#181818;stroke-width:.5px" d="M139.88 460.78h89.309M139.88 468.78h89.309"/></g><g id="elem_Defender"><rect fill="#F1F1F1" height="48" id="Defender" rx="2.5" ry="2.5" style="stroke:#181818;stroke-width:.5px" width="97.064" x="7" y="428.78"/><circle cx="22" cy="444.78" fill="#ADD1B2" style="stroke:#181818;stroke-width:1px" r="11"/><path d="M21.469 451.702q-1.75 0-2.89-.735-1.126-.75-1.688-2.093-.547-1.36-.547-3.157 0-2.03.656-3.484.656-1.453 1.938-2.234 1.28-.782 3.156-.782.89 0 1.562.188.672.172 1.36.516l-.813 2.015q-.625-.312-1.172-.437-.531-.125-1.015-.125-1.172 0-1.875.531-.703.531-1 1.484-.297.953-.297 2.22 0 2.015.718 2.983.72.954 2.313.954.594 0 1.219-.157.625-.156 1.453-.53v2.218q-.735.312-1.531.469-.782.156-1.547.156Z"/><text font-family="sans-serif" font-size="14" textLength="65.064" x="36" y="449.627">Defender</text><path style="stroke:#181818;stroke-width:.5px" d="M8 460.78h95.064M8 468.78h95.064"/></g><g id="elem_Message"><rect fill="#F1F1F1" height="48" id="Message" rx="2.5" ry="2.5" style="stroke:#181818;stroke-width:.5px" width="93.359" x="278.85" y="304.48"/><circle cx="293.85" cy="320.48" fill="#A9DCDF" style="stroke:#181818;stroke-width:1px" r="11"/><path d="m289.022 326.23 3.344-12.188h3.14l3.375 12.188h-2.468l-.735-3.016h-3.515l-.75 3.016h-2.391Zm4.406-8.047-.75 3h2.516l-.719-3q-.14-.578-.266-1.125-.125-.562-.265-1.14-.11.578-.25 1.14-.14.547-.266 1.125Z"/><text font-family="sans-serif" font-size="14" font-style="italic" textLength="61.359" x="307.85" y="325.327">Message</text><path style="stroke:#181818;stroke-width:.5px" d="M279.85 336.48h91.359M279.85 344.48h91.359"/></g><g id="elem_Attack"><rect fill="#F1F1F1" height="48" id="Attack" rx="2.5" ry="2.5" style="stroke:#181818;stroke-width:.5px" width="76.939" x="146.06" y="536.78"/><circle cx="161.06" cy="552.78" fill="#ADD1B2" style="stroke:#181818;stroke-width:1px" r="11"/><path d="M160.529 559.702q-1.75 0-2.89-.735-1.126-.75-1.688-2.093-.547-1.36-.547-3.157 0-2.03.656-3.484.656-1.453 1.938-2.234 1.28-.782 3.156-.782.89 0 1.562.188.672.172 1.36.516l-.813 2.015q-.625-.312-1.172-.437-.531-.125-1.015-.125-1.172 0-1.875.531-.703.531-1 1.484-.297.953-.297 2.22 0 2.015.719 2.983.718.954 2.312.954.594 0 1.219-.157.625-.156 1.453-.53v2.218q-.734.312-1.531.469-.782.156-1.547.156Z"/><text font-family="sans-serif" font-size="14" textLength="44.94" x="175.06" y="557.627">Attack</text><path style="stroke:#181818;stroke-width:.5px" d="M147.06 568.78H222M147.06 576.78H222"/></g><g id="elem_Presence"><rect fill="#F1F1F1" height="48" id="Presence" rx="2.5" ry="2.5" style="stroke:#181818;stroke-width:.5px" width="95.902" x="306.58" y="536.78"/><circle cx="321.58" cy="552.78" fill="#ADD1B2" style="stroke:#181818;stroke-width:1px" r="11"/><path d="M321.049 559.702q-1.75 0-2.89-.735-1.126-.75-1.688-2.093-.547-1.36-.547-3.157 0-2.03.656-3.484.656-1.453 1.938-2.234 1.28-.782 3.156-.782.89 0 1.562.188.672.172 1.36.516l-.813 2.015q-.625-.312-1.172-.437-.531-.125-1.015-.125-1.172 0-1.875.531-.704.531-1 1.484-.297.953-.297 2.22 0 2.015.719 2.983.718.954 2.312.954.594 0 1.219-.157.625-.156 1.453-.53v2.218q-.735.312-1.531.469-.782.156-1.547.156Z"/><text font-family="sans-serif" font-size="14" textLength="63.902" x="335.58" y="557.627">Presence</text><path style="stroke:#181818;stroke-width:.5px" d="M307.58 568.78h93.902M307.58 576.78h93.902"/></g><g id="link_Component_Attacker" fill="transparent"><path d="M180.307 387.151c1.28 19.53 1.593 24.439 2.693 41.149" id="Component-backto-Attacker" style="stroke:#181818;stroke-width:1px"/><path style="stroke:#181818;stroke-width:1px" d="m179.13 369.19-4.81 18.354 11.974-.785-7.164-17.569z"/></g><g id="link_Component_Defender" fill="transparent"><path d="M124.591 381.986C105.271 401.516 95.3 411.59 78.76 428.3" id="Component-backto-Defender" style="stroke:#181818;stroke-width:1px"/><path style="stroke:#181818;stroke-width:1px" d="m137.25 369.19-16.924 8.577 8.53 8.44 8.394-17.017z"/></g><g id="link_Game_Message" fill="transparent"><path d="M336.441 116.264c-3.03 58.66-7.421 143.746-9.711 187.976" id="Game-backto-Message" style="stroke:#181818;stroke-width:1px"/><path style="stroke:#181818;stroke-width:1px" d="m337.06 104.28-4.304 5.786 3.685 6.198 4.304-5.786-3.685-6.198z"/></g><g id="link_Entity_Message"><path d="M268.69 228.61c13.44 23.38 28.448 49.49 40.568 70.56" fill="transparent" id="Entity-to-Message" style="stroke:#181818;stroke-width:1px"/><path fill="#181818" style="stroke:#181818;stroke-width:1px" d="m312.25 304.37-1.02-9.796-1.473 5.462-5.462-1.473 7.955 5.807z"/></g><g id="link_Entity_Component"><path d="M226.698 239.047c-10.1 17.8-16.878 29.763-27.648 48.733" fill="transparent" id="Entity-backto-Component" style="stroke:#181818;stroke-width:1px"/><path fill="#181818" style="stroke:#181818;stroke-width:1px" d="m232.62 228.61-6.44 3.244.518 7.193 6.44-3.244-.518-7.193z"/><text font-family="sans-serif" font-size="13" textLength="8.271" x="220.468" y="248.328">1</text><text font-family="sans-serif" font-size="13" textLength="6.5" x="196.2" y="277.175">*</text></g><g id="link_Game_Entity"><path d="M302.416 114.237c-12.67 19.73-20.526 31.963-31.816 49.553" fill="transparent" id="Game-backto-Entity" style="stroke:#181818;stroke-width:1px"/><path fill="#181818" style="stroke:#181818;stroke-width:1px" d="m308.9 104.14-6.608 2.887.124 7.21 6.608-2.887-.124-7.21z"/><text font-family="sans-serif" font-size="13" textLength="8.271" x="296.048" y="124.119">1</text><text font-family="sans-serif" font-size="13" textLength="6.5" x="268.171" y="152.673">*</text></g><g id="link_Message_Attack" fill="transparent"><path d="M306.859 369.08c-14.15 29.61-32.469 65.63-59.329 107.7-13.43 21.04-30.69 43.52-43.74 59.77" id="Message-backto-Attack" style="stroke:#181818;stroke-width:1px"/><path style="stroke:#181818;stroke-width:1px" d="m314.62 352.84-13.175 13.654 10.827 5.174 2.348-18.828z"/></g><g id="link_Message_Presence" fill="transparent"><path d="M330.72 370.689c5.56 44.14 15.3 121.491 20.86 165.681" id="Message-backto-Presence" style="stroke:#181818;stroke-width:1px"/><path style="stroke:#181818;stroke-width:1px" d="m328.47 352.83-3.703 18.609 11.906-1.5-8.203-17.109z"/></g><g id="link_Game_Presence"><path d="M354.76 104.34c17.66 61.08 43.34 170.1 34.77 264.44-5.55 61.1-19.528 126.019-27.938 161.829" fill="transparent" id="Game-to-Presence" style="stroke:#181818;stroke-width:1px"/><path fill="#181818" style="stroke:#181818;stroke-width:1px" d="m360.22 536.45 5.952-7.847-4.809 2.98-2.98-4.81 1.837 9.677z"/></g><g id="link_Attacker_Presence"><path d="M221.84 477.04c28.25 17.61 61.788 38.536 90.088 56.176" fill="transparent" id="Attacker-to-Presence" style="stroke:#181818;stroke-width:1px"/><path fill="#181818" style="stroke:#181818;stroke-width:1px" d="m317.02 536.39-5.522-8.155 1.279 5.51-5.51 1.279 9.753 1.366z"/></g><g id="link_Attacker_Attack"><path d="M184.53 477.04v53.53" fill="transparent" id="Attacker-to-Attack" style="stroke:#181818;stroke-width:1px"/><path fill="#181818" style="stroke:#181818;stroke-width:1px" d="m184.53 536.57 4-9-4 4-4-4 4 9z"/></g><g id="link_Defender_Attack"><path d="M83.84 477.04c21.51 17.68 46.324 38.06 67.814 55.72" fill="transparent" id="Defender-to-Attack" style="stroke:#181818;stroke-width:1px"/><path fill="#181818" style="stroke:#181818;stroke-width:1px" d="m156.29 536.57-4.414-8.805.551 5.63-5.63.551 9.493 2.624z"/></g></svg>