<svg xmlns="http://www.w3.org/2000/svg" height="608" preserveAspectRatio="none" style="background:#fff;width:407px;height:608px" width="407"><g id="elem_Entity"><rect fill="#F1F1F1" height="67.068" id="Entity" rx="2.5" ry="2.5" style="stroke:#181818;stroke-width:.5px" width="70" x="211.5" y="172.21"/><circle cx="226.5" cy="188.21" fill="#ADD1B2" style="stroke:#181818;stroke-width:1px" r="11"/><path d="M225.969 195.132q-1.75 0-2.89-.734-1.126-.75-1.688-2.094-.547-1.36-.547-3.156 0-2.032.656-3.485.656-1.453 1.938-2.234 1.28-.781 3.156-.781.89 0 1.562.187.672.172 1.36.516l-.813 2.015q-.625-.312-1.172-.437-.531-.125-1.015-.125-1.172 0-1.875.531-.703.531-1 1.484-.297.954-.297 2.22 0 2.015.719 2.984.718.953 2.312.953.594 0 1.219-.157.625-.156 1.453-.53v2.218q-.734.312-1.531.469-.782.156-1.547.156Z"/><text font-family="sans-serif" font-size="14" textLength="38" x="240.5" y="193.642">Entity</text><path style="stroke:#181818;stroke-width:.5px" d="M212.5 204.21h68M212.5 212.21h68"/><circle cx="222.5" cy="227.244" fill="#84BE84" style="stroke:#038048;stroke-width:1px" r="3"/><text font-family="sans-serif" font-size="14" textLength="31" x="231.5" y="231.176">tick()</text></g><g id="elem_Component"><rect fill="#F1F1F1" height="86.136" id="Component" rx="2.5" ry="2.5" style="stroke:#181818;stroke-width:.5px" width="131" x="114" y="299.27"/><circle cx="141.15" cy="315.27" fill="#A9DCDF" style="stroke:#181818;stroke-width:1px" r="11"/><path d="m136.322 321.02 3.344-12.188h3.14l3.375 12.188h-2.469l-.734-3.016h-3.516l-.75 3.016h-2.39Zm4.406-8.047-.75 3h2.516l-.719-3q-.14-.578-.266-1.125-.125-.562-.265-1.14-.11.578-.25 1.14-.14.547-.266 1.125Z"/><text font-family="sans-serif" font-size="14" font-style="italic" textLength="72" x="157.85" y="320.702">Component</text><path style="stroke:#181818;stroke-width:.5px" d="M115 331.27h129"/><circle cx="125" cy="346.304" fill="none" style="stroke:#038048;stroke-width:1px" r="3"/><text font-family="sans-serif" font-size="14" textLength="105" x="134" y="350.236">messageQueue</text><path style="stroke:#181818;stroke-width:.5px" d="M115 358.338h129"/><circle cx="125" cy="373.372" fill="#84BE84" style="stroke:#038048;stroke-width:1px" r="3"/><text font-family="sans-serif" font-size="14" textLength="31" x="134" y="377.304">tick()</text></g><g id="elem_Game"><rect fill="#F1F1F1" height="105.204" id="Game" rx="2.5" ry="2.5" style="stroke:#181818;stroke-width:.5px" width="131" x="269" y="7"/><circle cx="311" cy="23" fill="#ADD1B2" style="stroke:#181818;stroke-width:1px" r="11"/><path d="M310.469 29.922q-1.75 0-2.89-.735-1.126-.75-1.688-2.093-.547-1.36-.547-3.157 0-2.03.656-3.484.656-1.453 1.938-2.234 1.28-.782 3.156-.782.89 0 1.562.188.672.172 1.36.516l-.813 2.015q-.625-.312-1.172-.437-.531-.125-1.015-.125-1.172 0-1.875.531-.704.531-1 1.484-.297.953-.297 2.22 0 2.015.719 2.983.718.954 2.312.954.594 0 1.219-.157.625-.156 1.453-.53v2.218q-.735.312-1.531.469-.782.156-1.547.156Z"/><text font-family="sans-serif" font-size="14" textLength="39" x="331" y="28.432">Game</text><path style="stroke:#181818;stroke-width:.5px" d="M270 39h129"/><circle cx="280" cy="54.034" fill="none" style="stroke:#038048;stroke-width:1px" r="3"/><text font-family="sans-serif" font-size="14" textLength="50" x="289" y="57.966">entities</text><circle cx="280" cy="73.102" fill="none" style="stroke:#038048;stroke-width:1px" r="3"/><text font-family="sans-serif" font-size="14" textLength="105" x="289" y="77.034">messageQueue</text><path style="stroke:#181818;stroke-width:.5px" d="M270 85.136h129"/><circle cx="280" cy="100.17" fill="#84BE84" style="stroke:#038048;stroke-width:1px" r="3"/><text font-family="sans-serif" font-size="14" textLength="31" x="289" y="104.102">tick()</text></g><g id="elem_Attacker"><rect fill="#F1F1F1" height="48" id="Attacker" rx="2.5" ry="2.5" style="stroke:#181818;stroke-width:.5px" width="87" x="137" y="445.41"/><circle cx="152" cy="461.41" fill="#ADD1B2" style="stroke:#181818;stroke-width:1px" r="11"/><path d="M151.469 468.332q-1.75 0-2.89-.734-1.126-.75-1.688-2.094-.547-1.36-.547-3.156 0-2.032.656-3.485.656-1.453 1.938-2.234 1.28-.781 3.156-.781.89 0 1.562.187.672.172 1.36.516l-.813 2.015q-.625-.312-1.172-.437-.531-.125-1.015-.125-1.172 0-1.875.531-.703.531-1 1.484-.297.954-.297 2.22 0 2.015.719 2.984.718.953 2.312.953.594 0 1.219-.157.625-.156 1.453-.53v2.218q-.734.312-1.531.469-.782.156-1.547.156Z"/><text font-family="sans-serif" font-size="14" textLength="55" x="166" y="466.842">Attacker</text><path style="stroke:#181818;stroke-width:.5px" d="M138 477.41h85M138 485.41h85"/></g><g id="elem_Defender"><rect fill="#F1F1F1" height="48" id="Defender" rx="2.5" ry="2.5" style="stroke:#181818;stroke-width:.5px" width="95" x="7" y="445.41"/><circle cx="22" cy="461.41" fill="#ADD1B2" style="stroke:#181818;stroke-width:1px" r="11"/><path d="M21.469 468.332q-1.75 0-2.89-.734-1.126-.75-1.688-2.094-.547-1.36-.547-3.156 0-2.032.656-3.485.656-1.453 1.938-2.234 1.28-.781 3.156-.781.89 0 1.562.187.672.172 1.36.516l-.813 2.015q-.625-.312-1.172-.437-.531-.125-1.015-.125-1.172 0-1.875.531-.703.531-1 1.484-.297.954-.297 2.22 0 2.015.718 2.984.72.953 2.313.953.594 0 1.219-.157.625-.156 1.453-.53v2.218q-.735.312-1.531.469-.782.156-1.547.156Z"/><text font-family="sans-serif" font-size="14" textLength="63" x="36" y="466.842">Defender</text><path style="stroke:#181818;stroke-width:.5px" d="M8 477.41h93M8 485.41h93"/></g><g id="elem_Message"><rect fill="#F1F1F1" height="48" id="Message" rx="2.5" ry="2.5" style="stroke:#181818;stroke-width:.5px" width="86" x="279.5" y="318.34"/><circle cx="294.5" cy="334.34" fill="#A9DCDF" style="stroke:#181818;stroke-width:1px" r="11"/><path d="m289.672 340.09 3.344-12.188h3.14l3.375 12.188h-2.469l-.734-3.016h-3.515l-.75 3.016h-2.391Zm4.406-8.047-.75 3h2.516l-.719-3q-.14-.578-.266-1.125-.125-.562-.265-1.14-.11.578-.25 1.14-.14.547-.266 1.125Z"/><text font-family="sans-serif" font-size="14" font-style="italic" textLength="54" x="308.5" y="339.772">Message</text><path style="stroke:#181818;stroke-width:.5px" d="M280.5 350.34h84M280.5 358.34h84"/></g><g id="elem_Attack"><rect fill="#F1F1F1" height="48" id="Attack" rx="2.5" ry="2.5" style="stroke:#181818;stroke-width:.5px" width="73" x="144" y="553.41"/><circle cx="159" cy="569.41" fill="#ADD1B2" style="stroke:#181818;stroke-width:1px" r="11"/><path d="M158.469 576.332q-1.75 0-2.89-.735-1.126-.75-1.688-2.093-.547-1.36-.547-3.157 0-2.03.656-3.484.656-1.453 1.938-2.234 1.28-.782 3.156-.782.89 0 1.562.188.672.172 1.36.516l-.813 2.015q-.625-.312-1.172-.437-.531-.125-1.015-.125-1.172 0-1.875.531-.703.531-1 1.484-.297.953-.297 2.22 0 2.015.719 2.983.718.954 2.312.954.594 0 1.219-.157.625-.156 1.453-.53v2.218q-.734.312-1.531.469-.782.156-1.547.156Z"/><text font-family="sans-serif" font-size="14" textLength="41" x="173" y="574.842">Attack</text><path style="stroke:#181818;stroke-width:.5px" d="M145 585.41h71M145 593.41h71"/></g><g id="elem_Presence"><rect fill="#F1F1F1" height="48" id="Presence" rx="2.5" ry="2.5" style="stroke:#181818;stroke-width:.5px" width="93" x="301" y="553.41"/><circle cx="316" cy="569.41" fill="#ADD1B2" style="stroke:#181818;stroke-width:1px" r="11"/><path d="M315.469 576.332q-1.75 0-2.89-.735-1.126-.75-1.688-2.093-.547-1.36-.547-3.157 0-2.03.656-3.484.656-1.453 1.938-2.234 1.28-.782 3.156-.782.89 0 1.562.188.672.172 1.36.516l-.813 2.015q-.625-.312-1.172-.437-.531-.125-1.015-.125-1.172 0-1.875.531-.704.531-1 1.484-.297.953-.297 2.22 0 2.015.719 2.983.718.954 2.312.954.594 0 1.219-.157.625-.156 1.453-.53v2.218q-.735.312-1.531.469-.782.156-1.547.156Z"/><text font-family="sans-serif" font-size="14" textLength="61" x="330" y="574.842">Presence</text><path style="stroke:#181818;stroke-width:.5px" d="M302 585.41h91M302 593.41h91"/></g><g id="link_Component_Attacker" fill="none"><path d="M179.985 403.68c.16 19.85.195 24.73.325 41.39" id="Component-backto-Attacker" style="stroke:#181818;stroke-width:1px"/><path style="stroke:#181818;stroke-width:1px" d="m179.84 385.68-5.855 18.048 12-.097-6.145-17.951z"/></g><g id="link_Component_Defender" fill="none"><path d="M124.459 398.414c-19.83 19.85-29.979 29.996-46.629 46.656" id="Component-backto-Defender" style="stroke:#181818;stroke-width:1px"/><path style="stroke:#181818;stroke-width:1px" d="m137.18 385.68-16.966 8.494 8.49 8.48 8.476-16.974z"/></g><g id="link_Game_Message" fill="none"><path d="M331.776 124.409c-2.63 61.32-6.366 148.741-8.276 193.621" id="Game-backto-Message" style="stroke:#181818;stroke-width:1px"/><path style="stroke:#181818;stroke-width:1px" d="m332.29 112.42-4.253 5.823 3.739 6.166 4.253-5.823-3.739-6.166z"/></g><g id="link_Entity_Message"><path d="M265.09 239.67c13.71 24.28 29.08 51.495 41.3 73.145" fill="none" id="Entity-to-Message" style="stroke:#181818;stroke-width:1px"/><path fill="#181818" style="stroke:#181818;stroke-width:1px" d="m309.34 318.04-.94-9.804-1.518 5.45-5.45-1.517 7.908 5.871z"/></g><g id="link_Entity_Component"><path d="M224.763 250.413c-8.87 17.82-14.583 29.297-24.103 48.417" fill="none" id="Entity-backto-Component" style="stroke:#181818;stroke-width:1px"/><path fill="#181818" style="stroke:#181818;stroke-width:1px" d="m230.11 239.67-6.255 3.589.908 7.154 6.254-3.59-.907-7.153z"/><text font-family="sans-serif" font-size="13" textLength="7" x="219.567" y="261.187">1</text><text font-family="sans-serif" font-size="13" textLength="7" x="196.475" y="287.495">*</text></g><g id="link_Game_Entity"><path d="M296.478 122.883c-12.11 19.84-19.308 31.627-30.028 49.177" fill="none" id="Game-backto-Entity" style="stroke:#181818;stroke-width:1px"/><path fill="#181818" style="stroke:#181818;stroke-width:1px" d="m302.73 112.64-6.54 3.037.288 7.206 6.54-3.038-.288-7.205z"/><text font-family="sans-serif" font-size="13" textLength="7" x="291.432" y="134.08">1</text><text font-family="sans-serif" font-size="13" textLength="7" x="262.843" y="160.329">*</text></g><g id="link_Message_Attack" fill="none"><path d="M303.135 382.922c-14.86 30.02-34.235 67.208-61.635 110.488-13.2 20.85-29.89 43.34-42.48 59.64" id="Message-backto-Attack" style="stroke:#181818;stroke-width:1px"/><path style="stroke:#181818;stroke-width:1px" d="m311.12 366.79-13.363 13.47 10.755 5.324 2.608-18.794z"/></g><g id="link_Message_Presence" fill="none"><path d="M326.91 384.437c4.78 44.56 13.27 123.763 18.07 168.523" id="Message-backto-Presence" style="stroke:#181818;stroke-width:1px"/><path style="stroke:#181818;stroke-width:1px" d="m324.99 366.54-4.046 18.537 11.932-1.28-7.886-17.257z"/></g><g id="link_Game_Presence"><path d="M349.93 112.71c17.15 63.97 41.36 175.91 32.57 272.7-5.55 61.1-19.528 126.019-27.938 161.829" fill="none" id="Game-to-Presence" style="stroke:#181818;stroke-width:1px"/><path fill="#181818" style="stroke:#181818;stroke-width:1px" d="m353.19 553.08 5.952-7.847-4.809 2.98-2.98-4.81 1.837 9.677z"/></g><g id="link_Attacker_Presence"><path d="M217.15 493.67c27.75 17.61 60.634 38.495 88.434 56.135" fill="none" id="Attacker-to-Presence" style="stroke:#181818;stroke-width:1px"/><path fill="#181818" style="stroke:#181818;stroke-width:1px" d="m310.65 553.02-5.456-8.2 1.234 5.521-5.52 1.235 9.742 1.444z"/></g><g id="link_Attacker_Attack"><path d="M180.5 493.67v53.53" fill="none" id="Attacker-to-Attack" style="stroke:#181818;stroke-width:1px"/><path fill="#181818" style="stroke:#181818;stroke-width:1px" d="m180.5 553.2 4-9-4 4-4-4 4 9z"/></g><g id="link_Defender_Attack"><path d="M82.15 493.67c21.01 17.68 45.179 38.007 66.169 55.667" fill="none" id="Defender-to-Attack" style="stroke:#181818;stroke-width:1px"/><path fill="#181818" style="stroke:#181818;stroke-width:1px" d="m152.91 553.2-4.312-8.855.486 5.636-5.636.486 9.462 2.733z"/></g></svg>