<svg xmlns="http://www.w3.org/2000/svg" data-diagram-type="CLASS" height="344" preserveAspectRatio="none" style="background:#fff;width:165px;height:344px" width="165"><g id="elem_Enemy"><rect fill="#F1F1F1" height="64.297" id="Enemy" rx="2.5" ry="2.5" style="stroke:#181818;stroke-width:.5px" width="137.945" x="13.9" y="7"/><circle cx="54.861" cy="23" fill="#ADD1B2" style="stroke:#181818;stroke-width:1px" r="11"/><path d="M54.33 29.922q-1.75 0-2.891-.735-1.125-.75-1.688-2.093-.547-1.36-.547-3.157 0-2.03.657-3.484.656-1.453 1.937-2.234 1.281-.782 3.156-.782.891 0 1.563.188.672.172 1.36.516l-.813 2.015q-.625-.312-1.172-.437-.531-.125-1.016-.125-1.172 0-1.875.531-.703.531-1 1.484-.297.953-.297 2.22 0 2.015.72 2.983.718.954 2.312.954.593 0 1.218-.157.625-.156 1.454-.53v2.218q-.735.312-1.532.469-.78.156-1.547.156Z"/><text font-family="sans-serif" font-size="14" textLength="48.255" x="74.63" y="27.847">Enemy</text><path style="stroke:#181818;stroke-width:.5px" d="M14.9 39h135.945"/><path fill="transparent" style="stroke:#c82930;stroke-width:1px" d="M21.9 49.648h6v6h-6z"/><text font-family="sans-serif" font-size="14" textLength="111.945" x="33.9" y="55.995">Player objective</text><path style="stroke:#181818;stroke-width:.5px" d="M14.9 63.297h135.945"/></g><g id="elem_Player"><rect fill="#F1F1F1" height="64.297" id="Player" rx="2.5" ry="2.5" style="stroke:#181818;stroke-width:.5px" width="151.74" x="7" y="148.29"/><circle cx="56.837" cy="164.29" fill="#ADD1B2" style="stroke:#181818;stroke-width:1px" r="11"/><path d="M56.306 171.212q-1.75 0-2.89-.734-1.125-.75-1.688-2.094-.547-1.36-.547-3.156 0-2.032.656-3.485.657-1.453 1.938-2.234 1.281-.781 3.156-.781.89 0 1.563.187.672.172 1.359.516l-.813 2.015q-.624-.312-1.171-.437-.532-.125-1.016-.125-1.172 0-1.875.531-.703.531-1 1.484-.297.953-.297 2.22 0 2.015.719 2.983.719.954 2.312.954.594 0 1.22-.157.624-.156 1.452-.53v2.218q-.734.312-1.531.469-.781.156-1.547.156Z"/><text font-family="sans-serif" font-size="14" textLength="43.565" x="77.337" y="169.137">Player</text><path style="stroke:#181818;stroke-width:.5px" d="M8 180.29h149.74"/><path fill="transparent" style="stroke:#c82930;stroke-width:1px" d="M15 190.938h6v6h-6z"/><text font-family="sans-serif" font-size="14" textLength="125.74" x="27" y="197.285">Weapon objective</text><path style="stroke:#181818;stroke-width:.5px" d="M8 204.587h149.74"/></g><g id="elem_Weapon"><rect fill="#F1F1F1" height="48" id="Weapon" rx="2.5" ry="2.5" style="stroke:#181818;stroke-width:.5px" width="89.36" x="38.19" y="289.59"/><circle cx="53.19" cy="305.59" fill="#ADD1B2" style="stroke:#181818;stroke-width:1px" r="11"/><path d="M52.659 312.512q-1.75 0-2.89-.735-1.126-.75-1.688-2.093-.547-1.36-.547-3.157 0-2.03.656-3.484.656-1.453 1.938-2.234 1.28-.782 3.156-.782.89 0 1.562.188.672.172 1.36.516l-.813 2.015q-.625-.312-1.172-.437-.531-.125-1.015-.125-1.172 0-1.875.531-.704.531-1 1.484-.297.953-.297 2.22 0 2.015.718 2.983.72.954 2.313.954.594 0 1.219-.157.625-.156 1.453-.53v2.218q-.735.312-1.531.469-.782.156-1.547.156Z"/><text font-family="sans-serif" font-size="14" textLength="57.36" x="67.19" y="310.437">Weapon</text><path style="stroke:#181818;stroke-width:.5px" d="M39.19 321.59h87.36M39.19 329.59h87.36"/></g><g id="link_Player_Weapon"><path d="M82.87 212.85v70.39" fill="transparent" id="Player-to-Weapon" style="stroke:#181818;stroke-width:1px"/><path fill="#181818" style="stroke:#181818;stroke-width:1px" d="m82.87 289.24 4-9-4 4-4-4 4 9z"/><text font-family="sans-serif" font-size="13" textLength="22.966" x="83.87" y="255.657">uso</text></g><g id="link_Enemy_Player"><path d="M82.87 71.75v70.21" fill="transparent" id="Enemy-to-Player" style="stroke:#181818;stroke-width:1px"/><path fill="#181818" style="stroke:#181818;stroke-width:1px" d="m82.87 147.96 4-9-4 4-4-4 4 9z"/><text font-family="sans-serif" font-size="13" textLength="22.966" x="83.87" y="114.357">uso</text></g></svg>