<svg xmlns="http://www.w3.org/2000/svg" width="157" height="354" preserveAspectRatio="none" style="background:#fff;width:157px;height:354px"><g id="elem_Enemy"><rect id="Enemy" width="129.376" height="67.068" x="13.87" y="7" fill="#F1F1F1" rx="2.5" ry="2.5" style="stroke:#181818;stroke-width:.5px"/><circle cx="52.636" cy="23" r="11" fill="#ADD1B2" style="stroke:#181818;stroke-width:1px"/><path d="M52.105 29.922q-1.75 0-2.89-.735-1.126-.75-1.688-2.093-.547-1.36-.547-3.157 0-2.03.656-3.484.656-1.453 1.938-2.234 1.281-.782 3.156-.782.89 0 1.563.188.671.172 1.359.516l-.813 2.015q-.625-.312-1.172-.437-.53-.125-1.015-.125-1.172 0-1.875.531t-1 1.484-.297 2.22q0 2.015.719 2.983.718.954 2.312.954.594 0 1.219-.157.625-.156 1.453-.53v2.218q-.734.312-1.531.469-.781.156-1.547.156"/><text x="71.918" y="28.432" font-family="sans-serif" font-size="14" textLength="44.562">Enemy</text><path d="M14.87 39h127.376" style="stroke:#181818;stroke-width:.5px"/><path fill="none" d="M21.87 51.034h6v6h-6z" style="stroke:#c82930;stroke-width:1px"/><text x="33.87" y="57.966" font-family="sans-serif" font-size="14" textLength="103.376">Player objective</text><path d="M14.87 66.068h127.376" style="stroke:#181818;stroke-width:.5px"/></g><g id="elem_Player"><rect id="Player" width="143.124" height="67.068" x="7" y="153.07" fill="#F1F1F1" rx="2.5" ry="2.5" style="stroke:#181818;stroke-width:.5px"/><circle cx="53.935" cy="169.07" r="11" fill="#ADD1B2" style="stroke:#181818;stroke-width:1px"/><path d="M53.404 175.992q-1.75 0-2.891-.734-1.125-.75-1.687-2.094-.547-1.36-.547-3.156 0-2.032.656-3.485t1.937-2.234 3.157-.781q.89 0 1.562.187.672.172 1.36.516l-.813 2.015q-.625-.312-1.172-.437-.531-.125-1.016-.125-1.171 0-1.875.531-.703.531-1 1.484-.296.953-.296 2.22 0 2.015.718 2.983.72.954 2.313.954.594 0 1.219-.157.625-.156 1.453-.53v2.218q-.735.312-1.532.469-.78.156-1.546.156"/><text x="74.435" y="174.502" font-family="sans-serif" font-size="14" textLength="40.754">Player</text><path d="M8 185.07h141.124" style="stroke:#181818;stroke-width:.5px"/><path fill="none" d="M15 197.104h6v6h-6z" style="stroke:#c82930;stroke-width:1px"/><text x="27" y="204.036" font-family="sans-serif" font-size="14" textLength="117.124">Weapon objective</text><path d="M8 212.138h141.124" style="stroke:#181818;stroke-width:.5px"/></g><g id="elem_Weapon"><rect id="Weapon" width="86.502" height="48" x="35.31" y="299.14" fill="#F1F1F1" rx="2.5" ry="2.5" style="stroke:#181818;stroke-width:.5px"/><circle cx="50.31" cy="315.14" r="11" fill="#ADD1B2" style="stroke:#181818;stroke-width:1px"/><path d="M49.779 322.062q-1.75 0-2.89-.735-1.126-.75-1.688-2.093-.547-1.36-.547-3.156 0-2.032.656-3.485t1.938-2.234q1.28-.781 3.156-.781.89 0 1.562.187.672.172 1.36.516l-.813 2.015q-.625-.312-1.172-.437-.531-.125-1.015-.125-1.172 0-1.875.531t-1 1.484-.297 2.22q0 2.015.718 2.983.72.954 2.313.954.594 0 1.219-.157.625-.156 1.453-.53v2.218q-.734.312-1.531.469-.782.156-1.547.156"/><text x="64.31" y="320.572" font-family="sans-serif" font-size="14" textLength="54.502">Weapon</text><path d="M36.31 331.14h84.502M36.31 339.14h84.502" style="stroke:#181818;stroke-width:.5px"/></g><g id="link_Player_Weapon"><path id="Player-to-Weapon" fill="none" d="M78.56 220.52v72.33" style="stroke:#181818;stroke-width:1px"/><path fill="#181818" d="m78.56 298.85 4-9-4 4-4-4z" style="stroke:#181818;stroke-width:1px"/><text x="79.56" y="265.037" font-family="sans-serif" font-size="13" textLength="22.126">uso</text></g><g id="link_Enemy_Player"><path id="Enemy-to-Player" fill="none" d="M78.56 74.23v72.81" style="stroke:#181818;stroke-width:1px"/><path fill="#181818" d="m78.56 153.04 4-9-4 4-4-4z" style="stroke:#181818;stroke-width:1px"/><text x="79.56" y="118.967" font-family="sans-serif" font-size="13" textLength="22.126">uso</text></g></svg>