<svg xmlns="http://www.w3.org/2000/svg" height="354" preserveAspectRatio="none" style="background:#fff;width:159px;height:354px" width="159"><g id="elem_Enemy"><rect fill="#F1F1F1" height="67.068" id="Enemy" rx="2.5" ry="2.5" style="stroke:#181818;stroke-width:.5px" width="131" x="14" y="7"/><circle cx="53.3" cy="23" fill="#ADD1B2" style="stroke:#181818;stroke-width:1px" r="11"/><path d="M52.769 29.922q-1.75 0-2.89-.735-1.126-.75-1.688-2.093-.547-1.36-.547-3.157 0-2.03.656-3.484.656-1.453 1.938-2.234 1.28-.782 3.156-.782.89 0 1.562.188.672.172 1.36.516l-.813 2.015q-.625-.312-1.172-.437-.531-.125-1.015-.125-1.172 0-1.875.531-.704.531-1 1.484-.297.953-.297 2.22 0 2.015.718 2.983.72.954 2.313.954.594 0 1.219-.157.625-.156 1.453-.53v2.218q-.735.312-1.531.469-.782.156-1.547.156Z"/><text font-family="sans-serif" font-size="14" textLength="45" x="72.7" y="28.432">Enemy</text><path style="stroke:#181818;stroke-width:.5px" d="M15 39h129"/><path fill="none" style="stroke:#c82930;stroke-width:1px" d="M22 51.034h6v6h-6z"/><text font-family="sans-serif" font-size="14" textLength="105" x="34" y="57.966">Player objective</text><path style="stroke:#181818;stroke-width:.5px" d="M15 66.068h129"/></g><g id="elem_Player"><rect fill="#F1F1F1" height="67.068" id="Player" rx="2.5" ry="2.5" style="stroke:#181818;stroke-width:.5px" width="145" x="7" y="153.07"/><circle cx="54.75" cy="169.07" fill="#ADD1B2" style="stroke:#181818;stroke-width:1px" r="11"/><path d="M54.219 175.992q-1.75 0-2.89-.734-1.126-.75-1.688-2.094-.547-1.36-.547-3.156 0-2.032.656-3.485.656-1.453 1.938-2.234 1.28-.781 3.156-.781.89 0 1.562.187.672.172 1.36.516l-.813 2.015q-.625-.312-1.172-.437-.531-.125-1.015-.125-1.172 0-1.875.531-.703.531-1 1.484-.297.953-.297 2.22 0 2.015.718 2.983.72.954 2.313.954.594 0 1.219-.157.625-.156 1.453-.53v2.218q-.734.312-1.531.469-.782.156-1.547.156Z"/><text font-family="sans-serif" font-size="14" textLength="41" x="75.25" y="174.502">Player</text><path style="stroke:#181818;stroke-width:.5px" d="M8 185.07h143"/><path fill="none" style="stroke:#c82930;stroke-width:1px" d="M15 197.104h6v6h-6z"/><text font-family="sans-serif" font-size="14" textLength="119" x="27" y="204.036">Weapon objective</text><path style="stroke:#181818;stroke-width:.5px" d="M8 212.138h143"/></g><g id="elem_Weapon"><rect fill="#F1F1F1" height="48" id="Weapon" rx="2.5" ry="2.5" style="stroke:#181818;stroke-width:.5px" width="87" x="36" y="299.14"/><circle cx="51" cy="315.14" fill="#ADD1B2" style="stroke:#181818;stroke-width:1px" r="11"/><path d="M50.469 322.062q-1.75 0-2.89-.735-1.126-.75-1.688-2.093-.547-1.36-.547-3.156 0-2.032.656-3.485.656-1.453 1.938-2.234 1.28-.781 3.156-.781.89 0 1.562.187.672.172 1.36.516l-.813 2.015q-.625-.312-1.172-.437-.531-.125-1.015-.125-1.172 0-1.875.531-.703.531-1 1.484-.297.953-.297 2.22 0 2.015.718 2.983.72.954 2.313.954.594 0 1.219-.157.625-.156 1.453-.53v2.218q-.734.312-1.531.469-.782.156-1.547.156Z"/><text font-family="sans-serif" font-size="14" textLength="55" x="65" y="320.572">Weapon</text><path style="stroke:#181818;stroke-width:.5px" d="M37 331.14h85M37 339.14h85"/></g><g id="link_Player_Weapon"><path d="M79.5 220.52v72.33" fill="none" id="Player-to-Weapon" style="stroke:#181818;stroke-width:1px"/><path fill="#181818" style="stroke:#181818;stroke-width:1px" d="m79.5 298.85 4-9-4 4-4-4 4 9z"/><text font-family="sans-serif" font-size="13" textLength="22" x="80.5" y="265.037">uso</text></g><g id="link_Enemy_Player"><path d="M79.5 74.23v72.81" fill="none" id="Enemy-to-Player" style="stroke:#181818;stroke-width:1px"/><path fill="#181818" style="stroke:#181818;stroke-width:1px" d="m79.5 153.04 4-9-4 4-4-4 4 9z"/><text font-family="sans-serif" font-size="13" textLength="22" x="80.5" y="118.967">uso</text></g></svg>