<svg xmlns="http://www.w3.org/2000/svg" width="104" height="88" preserveAspectRatio="none" style="background:#fff;width:104px;height:88px"><g id="elem_Fruta"><rect id="Fruta" width="83.932" height="67.068" x="7" y="7" fill="#F1F1F1" rx="2.5" ry="2.5" style="stroke:#181818;stroke-width:.5px"/><circle cx="29.796" cy="23" r="11" fill="#ADD1B2" style="stroke:#181818;stroke-width:1px"/><path d="M29.265 29.922q-1.75 0-2.891-.735-1.125-.75-1.688-2.093-.546-1.36-.546-3.157 0-2.03.656-3.484.656-1.453 1.937-2.234 1.282-.782 3.157-.782.89 0 1.562.188.672.172 1.36.516l-.813 2.015q-.625-.312-1.172-.437-.531-.125-1.016-.125-1.171 0-1.875.531-.703.531-1 1.484-.296.953-.296 2.22 0 2.015.718 2.983.719.954 2.313.954.594 0 1.219-.157.625-.156 1.453-.53v2.218q-.735.312-1.532.469-.78.156-1.546.156"/><text x="45.528" y="28.432" font-family="sans-serif" font-size="14" textLength="34.608">Fruta</text><path d="M8 39h81.932" style="stroke:#181818;stroke-width:.5px"/><text x="13" y="57.966" font-family="sans-serif" font-size="14" textLength="71.932">int tamaño</text><path d="M8 66.068h81.932" style="stroke:#181818;stroke-width:.5px"/></g></svg>