<svg xmlns="http://www.w3.org/2000/svg" height="88" preserveAspectRatio="none" style="background:#fff;width:106px;height:88px" width="106"><g id="elem_Fruta"><rect fill="#F1F1F1" height="67.068" id="Fruta" rx="2.5" ry="2.5" style="stroke:#181818;stroke-width:.5px" width="85" x="7" y="7"/><circle cx="30.1" cy="23" fill="#ADD1B2" style="stroke:#181818;stroke-width:1px" r="11"/><path d="M29.569 29.922q-1.75 0-2.89-.735-1.126-.75-1.688-2.093-.547-1.36-.547-3.157 0-2.03.656-3.484.656-1.453 1.938-2.234 1.28-.782 3.156-.782.89 0 1.562.188.672.172 1.36.516l-.813 2.015q-.625-.312-1.172-.437-.531-.125-1.015-.125-1.172 0-1.875.531-.703.531-1 1.484-.297.953-.297 2.22 0 2.015.719 2.983.718.954 2.312.954.594 0 1.219-.157.625-.156 1.453-.53v2.218q-.734.312-1.531.469-.782.156-1.547.156Z"/><text font-family="sans-serif" font-size="14" textLength="35" x="45.9" y="28.432">Fruta</text><path style="stroke:#181818;stroke-width:.5px" d="M8 39h83"/><text font-family="sans-serif" font-size="14" textLength="73" x="13" y="57.966">int tamaño</text><path style="stroke:#181818;stroke-width:.5px" d="M8 66.068h83"/></g></svg>