<svg xmlns="http://www.w3.org/2000/svg" width="291" height="157" preserveAspectRatio="none" style="background:#fff;width:291px;height:157px"><g id="elem_Weapon"><rect id="Weapon" width="86.502" height="32" x="99.11" y="7" fill="#F1F1F1" rx="2.5" ry="2.5" style="stroke:#181818;stroke-width:.5px"/><circle cx="114.11" cy="23" r="11" fill="#ADD1B2" style="stroke:#181818;stroke-width:1px"/><path d="M113.579 29.922q-1.75 0-2.89-.735-1.126-.75-1.688-2.093-.547-1.36-.547-3.157 0-2.03.656-3.484.656-1.453 1.938-2.234 1.28-.782 3.156-.782.89 0 1.562.188.672.172 1.36.516l-.813 2.015q-.625-.312-1.172-.437-.531-.125-1.015-.125-1.172 0-1.875.531t-1 1.484-.297 2.22q0 2.015.719 2.983.718.954 2.312.954.594 0 1.219-.157.625-.156 1.453-.53v2.218q-.734.312-1.531.469-.782.156-1.547.156"/><text x="128.11" y="28.432" font-family="sans-serif" font-size="14" textLength="54.502">Weapon</text></g><g id="elem_AttackPower"><rect id="AttackPower" width="114.726" height="32" x="7" y="118" fill="#F1F1F1" rx="2.5" ry="2.5" style="stroke:#181818;stroke-width:.5px"/><circle cx="22" cy="134" r="11" fill="#ADD1B2" style="stroke:#181818;stroke-width:1px"/><path d="M21.469 140.922q-1.75 0-2.89-.734-1.126-.75-1.688-2.094-.547-1.36-.547-3.156 0-2.032.656-3.485t1.938-2.234q1.28-.781 3.156-.781.89 0 1.562.187.672.172 1.36.516l-.813 2.015q-.625-.312-1.172-.437-.531-.125-1.015-.125-1.172 0-1.875.531t-1 1.484-.297 2.22q0 2.015.718 2.983.72.954 2.313.954.594 0 1.219-.157.625-.156 1.453-.53v2.218q-.735.312-1.531.469-.782.156-1.547.156"/><text x="36" y="139.432" font-family="sans-serif" font-size="14" textLength="82.726">AttackPower</text></g><g id="elem_DefensePower"><rect id="DefensePower" width="127.704" height="32" x="156.51" y="118" fill="#F1F1F1" rx="2.5" ry="2.5" style="stroke:#181818;stroke-width:.5px"/><circle cx="171.51" cy="134" r="11" fill="#ADD1B2" style="stroke:#181818;stroke-width:1px"/><path d="M170.979 140.922q-1.75 0-2.89-.734-1.126-.75-1.688-2.094-.547-1.36-.547-3.156 0-2.032.656-3.485t1.938-2.234q1.28-.781 3.156-.781.89 0 1.562.187.672.172 1.36.516l-.813 2.015q-.625-.312-1.172-.437-.531-.125-1.015-.125-1.172 0-1.875.531t-1 1.484-.297 2.22q0 2.015.718 2.983.72.954 2.313.954.594 0 1.219-.157.625-.156 1.453-.53v2.218q-.734.312-1.531.469-.782.156-1.547.156"/><text x="185.51" y="139.432" font-family="sans-serif" font-size="14" textLength="95.704">DefensePower</text></g><g id="link_Weapon_AttackPower"><path id="Weapon-backto-AttackPower" fill="none" d="M124.534 48.917C109.714 69.617 90.27 96.8 75.37 117.62" style="stroke:#181818;stroke-width:1px"/><path fill="#181818" d="m131.52 39.16-6.745 2.55-.24 7.207 6.745-2.55z" style="stroke:#181818;stroke-width:1px"/><text x="109.03" y="83.897" font-family="sans-serif" font-size="13" textLength="51.389">parte de</text></g><g id="link_Weapon_DefensePower"><path id="Weapon-backto-DefensePower" fill="none" d="M160.196 48.917c14.82 20.7 34.264 47.883 49.164 68.703" style="stroke:#181818;stroke-width:1px"/><path fill="#181818" d="m153.21 39.16.24 7.207 6.746 2.55-.24-7.207z" style="stroke:#181818;stroke-width:1px"/><text x="187.03" y="83.897" font-family="sans-serif" font-size="13" textLength="51.389">parte de</text></g></svg>