<svg xmlns="http://www.w3.org/2000/svg" data-diagram-type="CLASS" height="170" preserveAspectRatio="none" style="background:#fff;width:171px;height:170px" width="171"><g id="elem_Fruta"><rect fill="#F1F1F1" height="48" id="Fruta" rx="2.5" ry="2.5" style="stroke:#181818;stroke-width:.5px" width="68.75" x="53.36" y="7"/><circle cx="68.36" cy="23" fill="#ADD1B2" style="stroke:#181818;stroke-width:1px" r="11"/><path d="M67.829 29.922q-1.75 0-2.89-.735-1.126-.75-1.688-2.093-.547-1.36-.547-3.157 0-2.03.656-3.484.656-1.453 1.938-2.234 1.28-.782 3.156-.782.89 0 1.562.188.672.172 1.36.516l-.813 2.015q-.625-.312-1.172-.437-.531-.125-1.015-.125-1.172 0-1.875.531-.704.531-1 1.484-.297.953-.297 2.22 0 2.015.719 2.983.718.954 2.312.954.594 0 1.219-.157.625-.156 1.453-.53v2.218q-.734.312-1.531.469-.782.156-1.547.156Z"/><text font-family="sans-serif" font-size="14" textLength="36.75" x="82.36" y="27.847">Fruta</text><path style="stroke:#181818;stroke-width:.5px" d="M54.36 39h66.75M54.36 47h66.75"/></g><g id="elem_Tallo"><rect fill="#F1F1F1" height="48" id="Tallo" rx="2.5" ry="2.5" style="stroke:#181818;stroke-width:.5px" width="65.476" x="7" y="115"/><circle cx="22" cy="131" fill="#ADD1B2" style="stroke:#181818;stroke-width:1px" r="11"/><path d="M21.469 137.922q-1.75 0-2.89-.734-1.126-.75-1.688-2.094-.547-1.36-.547-3.156 0-2.032.656-3.485.656-1.453 1.938-2.234 1.28-.781 3.156-.781.89 0 1.562.187.672.172 1.36.516l-.813 2.015q-.625-.312-1.172-.437-.531-.125-1.015-.125-1.172 0-1.875.531-.703.531-1 1.484-.297.953-.297 2.22 0 2.015.718 2.983.72.954 2.313.954.594 0 1.219-.157.625-.156 1.453-.53v2.218q-.735.312-1.531.469-.782.156-1.547.156Z"/><text font-family="sans-serif" font-size="14" textLength="33.476" x="36" y="135.847">Tallo</text><path style="stroke:#181818;stroke-width:.5px" d="M8 147h63.476M8 155h63.476"/></g><g id="elem_Piel"><rect fill="#F1F1F1" height="48" id="Piel" rx="2.5" ry="2.5" style="stroke:#181818;stroke-width:.5px" width="56.835" x="107.32" y="115"/><circle cx="122.32" cy="131" fill="#ADD1B2" style="stroke:#181818;stroke-width:1px" r="11"/><path d="M121.789 137.922q-1.75 0-2.89-.734-1.126-.75-1.688-2.094-.547-1.36-.547-3.156 0-2.032.656-3.485.656-1.453 1.938-2.234 1.28-.781 3.156-.781.89 0 1.562.187.672.172 1.36.516l-.813 2.015q-.625-.312-1.172-.437-.531-.125-1.015-.125-1.172 0-1.875.531-.704.531-1 1.484-.297.953-.297 2.22 0 2.015.718 2.983.72.954 2.313.954.594 0 1.219-.157.625-.156 1.453-.53v2.218q-.735.312-1.531.469-.782.156-1.547.156Z"/><text font-family="sans-serif" font-size="14" textLength="24.835" x="136.32" y="135.847">Piel</text><path style="stroke:#181818;stroke-width:.5px" d="M108.32 147h54.835M108.32 155h54.835"/></g><g id="link_Fruta_Tallo"><path d="M72.253 66.193c-8 17.68-14.013 30.937-22.003 48.597" fill="transparent" id="Fruta-backto-Tallo" style="stroke:#181818;stroke-width:1px"/><path fill="#181818" style="stroke:#181818;stroke-width:1px" d="m77.2 55.26-6.118 3.817 1.171 7.116 6.118-3.818L77.2 55.26z"/></g><g id="link_Fruta_Piel"><path d="M103.217 66.193c8 17.68 14.013 30.937 22.013 48.597" fill="transparent" id="Fruta-backto-Piel" style="stroke:#181818;stroke-width:1px"/><path fill="#181818" style="stroke:#181818;stroke-width:1px" d="m98.27 55.26-1.17 7.115 6.117 3.818 1.17-7.116-6.117-3.817z"/></g></svg>