<svg xmlns="http://www.w3.org/2000/svg" data-diagram-type="CLASS" height="155" preserveAspectRatio="none" style="background:#fff;width:301px;height:155px" width="301"><g id="elem_Weapon"><rect fill="#F1F1F1" height="32" id="Weapon" rx="2.5" ry="2.5" style="stroke:#181818;stroke-width:.5px" width="89.36" x="102.2" y="7"/><circle cx="117.2" cy="23" fill="#ADD1B2" style="stroke:#181818;stroke-width:1px" r="11"/><path d="M116.669 29.922q-1.75 0-2.89-.735-1.126-.75-1.688-2.093-.547-1.36-.547-3.157 0-2.03.656-3.484.656-1.453 1.938-2.234 1.28-.782 3.156-.782.89 0 1.562.188.672.172 1.36.516l-.813 2.015q-.625-.312-1.172-.437-.531-.125-1.015-.125-1.172 0-1.875.531-.703.531-1 1.484-.297.953-.297 2.22 0 2.015.719 2.983.718.954 2.312.954.594 0 1.219-.157.625-.156 1.453-.53v2.218q-.734.312-1.531.469-.782.156-1.547.156Z"/><text font-family="sans-serif" font-size="14" textLength="57.36" x="131.2" y="27.847">Weapon</text></g><g id="elem_AttackPower"><rect fill="#F1F1F1" height="32" id="AttackPower" rx="2.5" ry="2.5" style="stroke:#181818;stroke-width:.5px" width="119.767" x="7" y="116"/><circle cx="22" cy="132" fill="#ADD1B2" style="stroke:#181818;stroke-width:1px" r="11"/><path d="M21.469 138.922q-1.75 0-2.89-.734-1.126-.75-1.688-2.094-.547-1.36-.547-3.156 0-2.032.656-3.485.656-1.453 1.938-2.234 1.28-.781 3.156-.781.89 0 1.562.187.672.172 1.36.516l-.813 2.015q-.625-.312-1.172-.437-.531-.125-1.015-.125-1.172 0-1.875.531-.703.531-1 1.484-.297.953-.297 2.22 0 2.015.718 2.983.72.954 2.313.954.594 0 1.219-.157.625-.156 1.453-.53v2.218q-.735.312-1.531.469-.782.156-1.547.156Z"/><text font-family="sans-serif" font-size="14" textLength="87.767" x="36" y="136.847">AttackPower</text></g><g id="elem_DefensePower"><rect fill="#F1F1F1" height="32" id="DefensePower" rx="2.5" ry="2.5" style="stroke:#181818;stroke-width:.5px" width="132.543" x="161.61" y="116"/><circle cx="176.61" cy="132" fill="#ADD1B2" style="stroke:#181818;stroke-width:1px" r="11"/><path d="M176.079 138.922q-1.75 0-2.89-.734-1.126-.75-1.688-2.094-.547-1.36-.547-3.156 0-2.032.656-3.485.656-1.453 1.938-2.234 1.28-.781 3.156-.781.89 0 1.562.187.672.172 1.36.516l-.813 2.015q-.625-.312-1.172-.437-.531-.125-1.015-.125-1.172 0-1.875.531-.703.531-1 1.484-.297.953-.297 2.22 0 2.015.719 2.983.718.954 2.312.954.594 0 1.219-.157.625-.156 1.453-.53v2.218q-.734.312-1.531.469-.782.156-1.547.156Z"/><text font-family="sans-serif" font-size="14" textLength="100.543" x="190.61" y="136.847">DefensePower</text></g><g id="link_Weapon_AttackPower"><path d="M128.234 48.94C113.024 69.28 93.52 95.37 78.32 115.7" fill="transparent" id="Weapon-backto-AttackPower" style="stroke:#181818;stroke-width:1px"/><path fill="#181818" style="stroke:#181818;stroke-width:1px" d="m135.42 39.33-6.797 2.41-.39 7.2 6.797-2.41.39-7.2z"/><text font-family="sans-serif" font-size="13" textLength="55.041" x="112.67" y="82.067">parte de</text></g><g id="link_Weapon_DefensePower"><path d="M165.734 48.897c15.4 20.34 35.176 46.473 50.566 66.803" fill="transparent" id="Weapon-backto-DefensePower" style="stroke:#181818;stroke-width:1px"/><path fill="#181818" style="stroke:#181818;stroke-width:1px" d="m158.49 39.33.433 7.198 6.81 2.37-.432-7.199-6.811-2.369z"/><text font-family="sans-serif" font-size="13" textLength="55.041" x="193.23" y="82.067">parte de</text></g></svg>