<svg xmlns="http://www.w3.org/2000/svg" height="157" preserveAspectRatio="none" style="background:#fff;width:291px;height:157px" width="291"><g id="elem_Weapon"><rect fill="#F1F1F1" height="32" id="Weapon" rx="2.5" ry="2.5" style="stroke:#181818;stroke-width:.5px" width="87" x="98.5" y="7"/><circle cx="113.5" cy="23" fill="#ADD1B2" style="stroke:#181818;stroke-width:1px" r="11"/><path d="M112.969 29.922q-1.75 0-2.89-.735-1.126-.75-1.688-2.093-.547-1.36-.547-3.157 0-2.03.656-3.484.656-1.453 1.938-2.234 1.28-.782 3.156-.782.89 0 1.562.188.672.172 1.36.516l-.813 2.015q-.625-.312-1.172-.437-.531-.125-1.015-.125-1.172 0-1.875.531-.704.531-1 1.484-.297.953-.297 2.22 0 2.015.719 2.983.718.954 2.312.954.594 0 1.219-.157.625-.156 1.453-.53v2.218q-.734.312-1.531.469-.782.156-1.547.156Z"/><text font-family="sans-serif" font-size="14" textLength="55" x="127.5" y="28.432">Weapon</text></g><g id="elem_AttackPower"><rect fill="#F1F1F1" height="32" id="AttackPower" rx="2.5" ry="2.5" style="stroke:#181818;stroke-width:.5px" width="114" x="7" y="118"/><circle cx="22" cy="134" fill="#ADD1B2" style="stroke:#181818;stroke-width:1px" r="11"/><path d="M21.469 140.922q-1.75 0-2.89-.734-1.126-.75-1.688-2.094-.547-1.36-.547-3.156 0-2.032.656-3.485.656-1.453 1.938-2.234 1.28-.781 3.156-.781.89 0 1.562.187.672.172 1.36.516l-.813 2.015q-.625-.312-1.172-.437-.531-.125-1.015-.125-1.172 0-1.875.531-.703.531-1 1.484-.297.953-.297 2.22 0 2.015.718 2.983.72.954 2.313.954.594 0 1.219-.157.625-.156 1.453-.53v2.218q-.735.312-1.531.469-.782.156-1.547.156Z"/><text font-family="sans-serif" font-size="14" textLength="82" x="36" y="139.432">AttackPower</text></g><g id="elem_DefensePower"><rect fill="#F1F1F1" height="32" id="DefensePower" rx="2.5" ry="2.5" style="stroke:#181818;stroke-width:.5px" width="128" x="156" y="118"/><circle cx="171" cy="134" fill="#ADD1B2" style="stroke:#181818;stroke-width:1px" r="11"/><path d="M170.469 140.922q-1.75 0-2.89-.734-1.126-.75-1.688-2.094-.547-1.36-.547-3.156 0-2.032.656-3.485.656-1.453 1.938-2.234 1.28-.781 3.156-.781.89 0 1.562.187.672.172 1.36.516l-.813 2.015q-.625-.312-1.172-.437-.531-.125-1.015-.125-1.172 0-1.875.531-.703.531-1 1.484-.297.953-.297 2.22 0 2.015.719 2.983.718.954 2.312.954.594 0 1.219-.157.625-.156 1.453-.53v2.218q-.734.312-1.531.469-.782.156-1.547.156Z"/><text font-family="sans-serif" font-size="14" textLength="96" x="185" y="139.432">DefensePower</text></g><g id="link_Weapon_AttackPower"><path d="M124.168 48.92C109.358 69.62 89.91 96.8 75 117.62" fill="none" id="Weapon-backto-AttackPower" style="stroke:#181818;stroke-width:1px"/><path fill="#181818" style="stroke:#181818;stroke-width:1px" d="m131.15 39.16-6.744 2.552-.238 7.207 6.744-2.552.238-7.207z"/><text font-family="sans-serif" font-size="13" textLength="50" x="109" y="83.897">parte de</text></g><g id="link_Weapon_DefensePower"><path d="M159.832 48.92c14.81 20.7 34.258 47.88 49.168 68.7" fill="none" id="Weapon-backto-DefensePower" style="stroke:#181818;stroke-width:1px"/><path fill="#181818" style="stroke:#181818;stroke-width:1px" d="m152.85 39.16.238 7.207 6.744 2.552-.238-7.207-6.744-2.552z"/><text font-family="sans-serif" font-size="13" textLength="50" x="186" y="83.897">parte de</text></g></svg>