<svg xmlns="http://www.w3.org/2000/svg" width="167" height="170" preserveAspectRatio="none" style="background:#fff;width:167px;height:170px"><g id="elem_Fruta"><rect id="Fruta" width="66.608" height="48" x="52.36" y="7" fill="#F1F1F1" rx="2.5" ry="2.5" style="stroke:#181818;stroke-width:.5px"/><circle cx="67.36" cy="23" r="11" fill="#ADD1B2" style="stroke:#181818;stroke-width:1px"/><path d="M66.829 29.922q-1.75 0-2.89-.735-1.126-.75-1.688-2.093-.547-1.36-.547-3.157 0-2.03.656-3.484.656-1.453 1.938-2.234 1.28-.782 3.156-.782.89 0 1.562.188.672.172 1.36.516l-.813 2.015q-.625-.312-1.172-.437-.531-.125-1.015-.125-1.172 0-1.875.531t-1 1.484-.297 2.22q0 2.015.719 2.983.718.954 2.312.954.594 0 1.219-.157.625-.156 1.453-.53v2.218q-.734.312-1.531.469-.782.156-1.547.156"/><text x="81.36" y="28.432" font-family="sans-serif" font-size="14" textLength="34.608">Fruta</text><path d="M53.36 39h64.608M53.36 47h64.608" style="stroke:#181818;stroke-width:.5px"/></g><g id="elem_Tallo"><rect id="Tallo" width="63.332" height="48" x="7" y="115" fill="#F1F1F1" rx="2.5" ry="2.5" style="stroke:#181818;stroke-width:.5px"/><circle cx="22" cy="131" r="11" fill="#ADD1B2" style="stroke:#181818;stroke-width:1px"/><path d="M21.469 137.922q-1.75 0-2.89-.734-1.126-.75-1.688-2.094-.547-1.36-.547-3.156 0-2.032.656-3.485t1.938-2.234q1.28-.781 3.156-.781.89 0 1.562.187.672.172 1.36.516l-.813 2.015q-.625-.312-1.172-.437-.531-.125-1.015-.125-1.172 0-1.875.531t-1 1.484-.297 2.22q0 2.015.718 2.983.72.954 2.313.954.594 0 1.219-.157.625-.156 1.453-.53v2.218q-.735.312-1.531.469-.782.156-1.547.156"/><text x="36" y="136.432" font-family="sans-serif" font-size="14" textLength="31.332">Tallo</text><path d="M8 147h61.332M8 155h61.332" style="stroke:#181818;stroke-width:.5px"/></g><g id="elem_Piel"><rect id="Piel" width="55.59" height="48" x="104.87" y="115" fill="#F1F1F1" rx="2.5" ry="2.5" style="stroke:#181818;stroke-width:.5px"/><circle cx="119.87" cy="131" r="11" fill="#ADD1B2" style="stroke:#181818;stroke-width:1px"/><path d="M119.339 137.922q-1.75 0-2.89-.734-1.126-.75-1.688-2.094-.547-1.36-.547-3.156 0-2.032.656-3.485t1.938-2.234q1.28-.781 3.156-.781.89 0 1.562.187.672.172 1.36.516l-.813 2.015q-.625-.312-1.172-.437-.531-.125-1.015-.125-1.172 0-1.875.531t-1 1.484-.297 2.22q0 2.015.719 2.983.718.954 2.312.954.594 0 1.219-.157.625-.156 1.453-.53v2.218q-.734.312-1.531.469-.782.156-1.547.156"/><text x="133.87" y="136.432" font-family="sans-serif" font-size="14" textLength="23.59">Piel</text><path d="M105.87 147h53.59M105.87 155h53.59" style="stroke:#181818;stroke-width:.5px"/></g><g id="link_Fruta_Tallo"><path id="Fruta-backto-Tallo" fill="none" d="M70.49 66.232c-7.83 17.68-13.7 30.898-21.53 48.558" style="stroke:#181818;stroke-width:1px"/><path fill="#181818" d="m75.35 55.26-6.087 3.866 1.228 7.106 6.087-3.866z" style="stroke:#181818;stroke-width:1px"/></g><g id="link_Fruta_Piel"><path id="Fruta-backto-Piel" fill="none" d="M100.844 66.23c7.84 17.68 13.706 30.9 21.536 48.56" style="stroke:#181818;stroke-width:1px"/><path fill="#181818" d="m95.98 55.26-1.224 7.106 6.088 3.864 1.225-7.107z" style="stroke:#181818;stroke-width:1px"/></g></svg>