<svg xmlns="http://www.w3.org/2000/svg" height="170" preserveAspectRatio="none" style="background:#fff;width:169px;height:170px" width="169"><g id="elem_Fruta"><rect fill="#F1F1F1" height="48" id="Fruta" rx="2.5" ry="2.5" style="stroke:#181818;stroke-width:.5px" width="67" x="52.5" y="7"/><circle cx="67.5" cy="23" fill="#ADD1B2" style="stroke:#181818;stroke-width:1px" r="11"/><path d="M66.969 29.922q-1.75 0-2.89-.735-1.126-.75-1.688-2.093-.547-1.36-.547-3.157 0-2.03.656-3.484.656-1.453 1.938-2.234 1.28-.782 3.156-.782.89 0 1.562.188.672.172 1.36.516l-.813 2.015q-.625-.312-1.172-.437-.531-.125-1.015-.125-1.172 0-1.875.531-.704.531-1 1.484-.297.953-.297 2.22 0 2.015.719 2.983.718.954 2.312.954.594 0 1.219-.157.625-.156 1.453-.53v2.218q-.734.312-1.531.469-.782.156-1.547.156Z"/><text font-family="sans-serif" font-size="14" textLength="35" x="81.5" y="28.432">Fruta</text><path style="stroke:#181818;stroke-width:.5px" d="M53.5 39h65M53.5 47h65"/></g><g id="elem_Tallo"><rect fill="#F1F1F1" height="48" id="Tallo" rx="2.5" ry="2.5" style="stroke:#181818;stroke-width:.5px" width="64" x="7" y="115"/><circle cx="22" cy="131" fill="#ADD1B2" style="stroke:#181818;stroke-width:1px" r="11"/><path d="M21.469 137.922q-1.75 0-2.89-.734-1.126-.75-1.688-2.094-.547-1.36-.547-3.156 0-2.032.656-3.485.656-1.453 1.938-2.234 1.28-.781 3.156-.781.89 0 1.562.187.672.172 1.36.516l-.813 2.015q-.625-.312-1.172-.437-.531-.125-1.015-.125-1.172 0-1.875.531-.703.531-1 1.484-.297.953-.297 2.22 0 2.015.718 2.983.72.954 2.313.954.594 0 1.219-.157.625-.156 1.453-.53v2.218q-.735.312-1.531.469-.782.156-1.547.156Z"/><text font-family="sans-serif" font-size="14" textLength="32" x="36" y="136.432">Tallo</text><path style="stroke:#181818;stroke-width:.5px" d="M8 147h62M8 155h62"/></g><g id="elem_Piel"><rect fill="#F1F1F1" height="48" id="Piel" rx="2.5" ry="2.5" style="stroke:#181818;stroke-width:.5px" width="56" x="106" y="115"/><circle cx="121" cy="131" fill="#ADD1B2" style="stroke:#181818;stroke-width:1px" r="11"/><path d="M120.469 137.922q-1.75 0-2.89-.734-1.126-.75-1.688-2.094-.547-1.36-.547-3.156 0-2.032.656-3.485.656-1.453 1.938-2.234 1.28-.781 3.156-.781.89 0 1.562.187.672.172 1.36.516l-.813 2.015q-.625-.312-1.172-.437-.531-.125-1.015-.125-1.172 0-1.875.531-.704.531-1 1.484-.297.953-.297 2.22 0 2.015.719 2.983.718.954 2.312.954.594 0 1.219-.157.625-.156 1.453-.53v2.218q-.734.312-1.531.469-.782.156-1.547.156Z"/><text font-family="sans-serif" font-size="14" textLength="24" x="135" y="136.432">Piel</text><path style="stroke:#181818;stroke-width:.5px" d="M107 147h54M107 155h54"/></g><g id="link_Fruta_Tallo"><path d="M70.826 66.23c-7.84 17.68-13.706 30.9-21.536 48.56" fill="none" id="Fruta-backto-Tallo" style="stroke:#181818;stroke-width:1px"/><path fill="#181818" style="stroke:#181818;stroke-width:1px" d="m75.69 55.26-6.089 3.863 1.225 7.107 6.088-3.864-1.224-7.106z"/></g><g id="link_Fruta_Piel"><path d="M101.482 66.19c8.01 17.68 14.008 30.94 22.008 48.6" fill="none" id="Fruta-backto-Piel" style="stroke:#181818;stroke-width:1px"/><path fill="#181818" style="stroke:#181818;stroke-width:1px" d="m96.53 55.26-1.167 7.116 6.12 3.815 1.167-7.116-6.12-3.815z"/></g></svg>