<svg xmlns="http://www.w3.org/2000/svg" width="89" height="69" data-diagram-type="CLASS" preserveAspectRatio="none" style="background:#fff;width:89px;height:69px"><g id="elem_Fruta"><rect id="Fruta" width="68.75" height="48" x="7" y="7" fill="#F1F1F1" rx="2.5" ry="2.5" style="stroke:#181818;stroke-width:.5px"/><circle cx="22" cy="23" r="11" fill="#ADD1B2" style="stroke:#181818;stroke-width:1px"/><path d="M21.469 29.922q-1.75 0-2.89-.735-1.126-.75-1.688-2.093-.547-1.36-.547-3.157 0-2.03.656-3.484.656-1.453 1.938-2.234 1.28-.782 3.156-.782.89 0 1.562.188.672.172 1.36.516l-.813 2.015q-.625-.312-1.172-.437-.531-.125-1.015-.125-1.172 0-1.875.531t-1 1.484-.297 2.22q0 2.015.718 2.983.72.954 2.313.954.594 0 1.219-.157.625-.156 1.453-.53v2.218q-.735.312-1.531.469-.782.156-1.547.156"/><text x="36" y="27.847" font-family="sans-serif" font-size="14" textLength="36.75">Fruta</text><path d="M8 39h66.75M8 47h66.75" style="stroke:#181818;stroke-width:.5px"/></g></svg>