<svg xmlns="http://www.w3.org/2000/svg" width="230" height="343" preserveAspectRatio="none" style="background:#fff;width:230px;height:343px"><g id="elem_Entity"><rect id="Entity" width="69.296" height="32" x="88.58" y="7" fill="#F1F1F1" rx="2.5" ry="2.5" style="stroke:#181818;stroke-width:.5px"/><circle cx="103.58" cy="23" r="11" fill="#ADD1B2" style="stroke:#181818;stroke-width:1px"/><path d="M103.049 29.922q-1.75 0-2.89-.735-1.126-.75-1.688-2.093-.547-1.36-.547-3.157 0-2.03.656-3.484.656-1.453 1.938-2.234 1.28-.782 3.156-.782.89 0 1.562.188.672.172 1.36.516l-.813 2.015q-.625-.312-1.172-.437-.531-.125-1.015-.125-1.172 0-1.875.531t-1 1.484-.297 2.22q0 2.015.718 2.983.72.954 2.313.954.594 0 1.219-.157.625-.156 1.453-.53v2.218q-.734.312-1.531.469-.782.156-1.547.156"/><text x="117.58" y="28.432" font-family="sans-serif" font-size="14" textLength="37.296">Entity</text></g><g id="elem_Movable"><rect id="Movable" width="88.252" height="32" x="31.1" y="100" fill="#F1F1F1" rx="2.5" ry="2.5" style="stroke:#181818;stroke-width:.5px"/><circle cx="46.1" cy="116" r="11" fill="#ADD1B2" style="stroke:#181818;stroke-width:1px"/><path d="M45.569 122.922q-1.75 0-2.89-.734-1.126-.75-1.688-2.094-.547-1.36-.547-3.156 0-2.032.656-3.485t1.938-2.234q1.28-.781 3.156-.781.89 0 1.562.187.672.172 1.36.516l-.813 2.015q-.625-.312-1.172-.437-.531-.125-1.015-.125-1.172 0-1.875.531t-1 1.484-.297 2.22q0 2.015.718 2.984.72.953 2.313.953.594 0 1.219-.157.625-.156 1.453-.53v2.218q-.734.312-1.531.469-.782.156-1.547.156"/><text x="60.1" y="121.432" font-family="sans-serif" font-size="14" textLength="56.252">Movable</text></g><g id="elem_Visible"><rect id="Visible" width="74.448" height="32" x="7" y="211" fill="#F1F1F1" rx="2.5" ry="2.5" style="stroke:#181818;stroke-width:.5px"/><circle cx="22" cy="227" r="11" fill="#ADD1B2" style="stroke:#181818;stroke-width:1px"/><path d="M21.469 233.922q-1.75 0-2.89-.734-1.126-.75-1.688-2.094-.547-1.36-.547-3.156 0-2.032.656-3.485t1.938-2.234q1.28-.781 3.156-.781.89 0 1.562.187.672.172 1.36.516l-.813 2.015q-.625-.312-1.172-.437-.531-.125-1.015-.125-1.172 0-1.875.531t-1 1.484-.297 2.22q0 2.015.718 2.983.72.954 2.313.954.594 0 1.219-.157.625-.156 1.453-.53v2.218q-.735.312-1.531.469-.782.156-1.547.156"/><text x="36" y="232.432" font-family="sans-serif" font-size="14" textLength="42.448">Visible</text></g><g id="elem_Player"><rect id="Player" width="72.754" height="32" x="69.85" y="304" fill="#F1F1F1" rx="2.5" ry="2.5" style="stroke:#181818;stroke-width:.5px"/><circle cx="84.85" cy="320" r="11" fill="#ADD1B2" style="stroke:#181818;stroke-width:1px"/><path d="M84.319 326.922q-1.75 0-2.89-.735-1.126-.75-1.688-2.093-.547-1.36-.547-3.156 0-2.032.656-3.485t1.938-2.234q1.28-.781 3.156-.781.89 0 1.562.187.672.172 1.36.516l-.813 2.015q-.625-.312-1.172-.437-.531-.125-1.015-.125-1.172 0-1.875.531t-1 1.484-.297 2.22q0 2.015.718 2.983.72.954 2.313.954.594 0 1.219-.157.625-.156 1.453-.53v2.218q-.735.312-1.531.469-.782.156-1.547.156"/><text x="98.85" y="325.432" font-family="sans-serif" font-size="14" textLength="40.754">Player</text></g><g id="elem_NoMovable"><rect id="NoMovable" width="107.362" height="32" x="116.54" y="211" fill="#F1F1F1" rx="2.5" ry="2.5" style="stroke:#181818;stroke-width:.5px"/><circle cx="131.54" cy="227" r="11" fill="#ADD1B2" style="stroke:#181818;stroke-width:1px"/><path d="M131.009 233.922q-1.75 0-2.89-.734-1.126-.75-1.688-2.094-.547-1.36-.547-3.156 0-2.032.656-3.485t1.937-2.234 3.157-.781q.89 0 1.562.187.672.172 1.36.516l-.813 2.015q-.625-.312-1.172-.437-.531-.125-1.015-.125-1.172 0-1.875.531t-1 1.484-.297 2.22q0 2.015.719 2.983.718.954 2.312.954.594 0 1.219-.157.625-.156 1.453-.53v2.218q-.734.312-1.531.469-.782.156-1.547.156"/><text x="145.54" y="232.432" font-family="sans-serif" font-size="14" textLength="75.362">NoMovable</text></g><g id="link_Entity_Movable" fill="none"><path id="Entity-backto-Movable" d="M106.68 55.36c-8.88 16.83-14.6 27.69-23.43 44.43" style="stroke:#181818;stroke-width:1px"/><path d="m115.08 39.44-13.706 13.12 10.613 5.6z" style="stroke:#181818;stroke-width:1px"/></g><g id="link_Movable_Visible" fill="none"><path id="Movable-backto-Visible" d="M65.984 149.473c-5.89 20.7-11.464 40.327-17.384 61.147" style="stroke:#181818;stroke-width:1px"/><path d="m70.91 132.16-10.697 15.67 11.542 3.285z" style="stroke:#181818;stroke-width:1px"/></g><g id="link_Visible_Player" fill="none"><path id="Visible-backto-Player" d="M64.877 258.314c11.47 16.83 19.573 28.736 30.983 45.476" style="stroke:#181818;stroke-width:1px"/><path d="m54.74 243.44 5.179 18.253 9.916-6.758z" style="stroke:#181818;stroke-width:1px"/></g><g id="link_Entity_NoMovable" fill="none"><path id="Entity-backto-NoMovable" d="M130.839 56.712c8.71 37.44 27.061 116.308 35.811 153.928" style="stroke:#181818;stroke-width:1px"/><path d="m126.76 39.18-1.765 18.891 11.688-2.719z" style="stroke:#181818;stroke-width:1px"/></g><g id="link_NoMovable_Player" fill="none"><path id="NoMovable-backto-Player" d="M149.013 258.162c-11.84 16.83-20.313 28.888-32.093 45.628" style="stroke:#181818;stroke-width:1px"/><path d="m159.37 243.44-15.264 11.27 9.814 6.904z" style="stroke:#181818;stroke-width:1px"/></g><g id="link_Movable_NoMovable"><path id="Movable-NoMovable" fill="none" d="M79.415 138.207c3.2 13.91 8.215 28.513 19.805 42.793 9.94 12.23 18.903 19.203 31.993 26.583" style="stroke:#181818;stroke-width:1px"/><path fill="#181818" d="m78.07 132.36-1.88 9.668 3.001-4.795 4.795 3.001zM136.44 210.53l-5.875-7.904 1.52 5.448-5.45 1.52z" style="stroke:#181818;stroke-width:1px"/><text x="100.22" y="176.897" font-family="sans-serif" font-size="13" textLength="45.136">ERROR!</text></g></svg>