<svg xmlns="http://www.w3.org/2000/svg" height="379" preserveAspectRatio="none" style="background:#fff;width:103px;height:379px" width="103"><g id="elem_Entity"><rect fill="#F1F1F1" height="32" id="Entity" rx="2.5" ry="2.5" style="stroke:#181818;stroke-width:.5px" width="70" x="16.5" y="7"/><circle cx="31.5" cy="23" fill="#ADD1B2" style="stroke:#181818;stroke-width:1px" r="11"/><path d="M30.969 29.922q-1.75 0-2.89-.735-1.126-.75-1.688-2.093-.547-1.36-.547-3.157 0-2.03.656-3.484.656-1.453 1.938-2.234 1.28-.782 3.156-.782.89 0 1.562.188.672.172 1.36.516l-.813 2.015q-.625-.312-1.172-.437-.531-.125-1.015-.125-1.172 0-1.875.531-.703.531-1 1.484-.297.953-.297 2.22 0 2.015.718 2.983.72.954 2.313.954.594 0 1.219-.157.625-.156 1.453-.53v2.218q-.734.312-1.531.469-.782.156-1.547.156Z"/><text font-family="sans-serif" font-size="14" textLength="38" x="45.5" y="28.432">Entity</text></g><g id="elem_Movable"><rect fill="#F1F1F1" height="32" id="Movable" rx="2.5" ry="2.5" style="stroke:#181818;stroke-width:.5px" width="89" x="7" y="118"/><circle cx="22" cy="134" fill="#ADD1B2" style="stroke:#181818;stroke-width:1px" r="11"/><path d="M21.469 140.922q-1.75 0-2.89-.734-1.126-.75-1.688-2.094-.547-1.36-.547-3.156 0-2.032.656-3.485.656-1.453 1.938-2.234 1.28-.781 3.156-.781.89 0 1.562.187.672.172 1.36.516l-.813 2.015q-.625-.312-1.172-.437-.531-.125-1.015-.125-1.172 0-1.875.531-.703.531-1 1.484-.297.953-.297 2.22 0 2.015.718 2.983.72.954 2.313.954.594 0 1.219-.157.625-.156 1.453-.53v2.218q-.735.312-1.531.469-.782.156-1.547.156Z"/><text font-family="sans-serif" font-size="14" textLength="57" x="36" y="139.432">Movable</text></g><g id="elem_Visible"><rect fill="#F1F1F1" height="32" id="Visible" rx="2.5" ry="2.5" style="stroke:#181818;stroke-width:.5px" width="76" x="13.5" y="229"/><circle cx="28.5" cy="245" fill="#ADD1B2" style="stroke:#181818;stroke-width:1px" r="11"/><path d="M27.969 251.922q-1.75 0-2.89-.734-1.126-.75-1.688-2.094-.547-1.36-.547-3.156 0-2.032.656-3.485.656-1.453 1.938-2.234 1.28-.781 3.156-.781.89 0 1.562.187.672.172 1.36.516l-.813 2.015q-.625-.312-1.172-.437-.531-.125-1.015-.125-1.172 0-1.875.531-.703.531-1 1.484-.297.953-.297 2.22 0 2.015.718 2.983.72.954 2.313.954.594 0 1.219-.157.625-.156 1.453-.53v2.218q-.735.312-1.531.469-.782.156-1.547.156Z"/><text font-family="sans-serif" font-size="14" textLength="44" x="42.5" y="250.432">Visible</text></g><g id="elem_Player"><rect fill="#F1F1F1" height="32" id="Player" rx="2.5" ry="2.5" style="stroke:#181818;stroke-width:.5px" width="73" x="15" y="340"/><circle cx="30" cy="356" fill="#ADD1B2" style="stroke:#181818;stroke-width:1px" r="11"/><path d="M29.469 362.922q-1.75 0-2.89-.735-1.126-.75-1.688-2.093-.547-1.36-.547-3.156 0-2.032.656-3.485.656-1.453 1.938-2.234 1.28-.781 3.156-.781.89 0 1.562.187.672.172 1.36.516l-.813 2.015q-.625-.312-1.172-.437-.531-.125-1.015-.125-1.172 0-1.875.531-.703.531-1 1.484-.297.954-.297 2.22 0 2.015.718 2.983.72.954 2.313.954.594 0 1.219-.157.625-.156 1.453-.53v2.218q-.734.312-1.531.469-.782.156-1.547.156Z"/><text font-family="sans-serif" font-size="14" textLength="41" x="44" y="361.432">Player</text></g><g id="link_Entity_Movable"><path d="M51.5 57.16v60.46" fill="none" id="Entity-backto-Movable" style="stroke:#181818;stroke-width:1px"/><path fill="none" style="stroke:#181818;stroke-width:1px" d="m51.5 39.16-6 18h12l-6-18z"/><text font-family="sans-serif" font-size="13" textLength="33" x="52.5" y="83.897">es-un</text></g><g id="link_Movable_Visible"><path d="M51.5 168.16v60.46" fill="none" id="Movable-backto-Visible" style="stroke:#181818;stroke-width:1px"/><path fill="none" style="stroke:#181818;stroke-width:1px" d="m51.5 150.16-6 18h12l-6-18z"/><text font-family="sans-serif" font-size="13" textLength="33" x="52.5" y="194.897">es-un</text></g><g id="link_Visible_Player"><path d="M51.5 279.16v60.46" fill="none" id="Visible-backto-Player" style="stroke:#181818;stroke-width:1px"/><path fill="none" style="stroke:#181818;stroke-width:1px" d="m51.5 261.16-6 18h12l-6-18z"/><text font-family="sans-serif" font-size="13" textLength="33" x="52.5" y="305.897">es-un</text></g></svg>