<svg xmlns="http://www.w3.org/2000/svg" data-diagram-type="CLASS" height="392" preserveAspectRatio="none" style="background:#fff;width:104px;height:392px" width="104"><g id="elem_Entity"><rect fill="#F1F1F1" height="80.594" id="Entity" rx="2.5" ry="2.5" style="stroke:#181818;stroke-width:.5px" width="72.872" x="16.01" y="7"/><circle cx="31.01" cy="23" fill="#A9DCDF" style="stroke:#181818;stroke-width:1px" r="11"/><path d="m26.182 28.75 3.344-12.188h3.14l3.375 12.188h-2.468l-.735-3.016h-3.515l-.75 3.016h-2.391Zm4.406-8.047-.75 3h2.516l-.719-3q-.14-.578-.266-1.125-.125-.562-.265-1.14-.11.578-.25 1.14-.14.547-.266 1.125Z"/><text font-family="sans-serif" font-size="14" font-style="italic" textLength="40.872" x="45.01" y="27.847">Entity</text><path style="stroke:#181818;stroke-width:.5px" d="M17.01 39h70.872"/><path fill="transparent" style="stroke:#c82930;stroke-width:1px" d="M24.01 49.648h6v6h-6z"/><text font-family="sans-serif" font-size="14" textLength="12.776" x="36.01" y="55.995">id</text><path style="stroke:#181818;stroke-width:.5px" d="M17.01 63.297h70.872"/><circle cx="27.01" cy="76.945" fill="#84BE84" style="stroke:#038048;stroke-width:1px" r="3"/><text font-family="sans-serif" font-size="14" font-style="italic" textLength="36.107" x="36.01" y="80.292">tick()</text></g><g id="elem_Movable"><rect fill="#F1F1F1" height="113.188" id="Movable" rx="2.5" ry="2.5" style="stroke:#181818;stroke-width:.5px" width="90.898" x="7" y="147.6"/><circle cx="22" cy="163.6" fill="#A9DCDF" style="stroke:#181818;stroke-width:1px" r="11"/><path d="m17.172 169.35 3.344-12.188h3.14l3.375 12.188h-2.468l-.735-3.016h-3.515l-.75 3.016h-2.391Zm4.406-8.047-.75 3h2.516l-.719-3q-.14-.578-.266-1.125-.125-.562-.265-1.14-.11.578-.25 1.14-.14.547-.266 1.125Z"/><text font-family="sans-serif" font-size="14" font-style="italic" textLength="58.898" x="36" y="168.447">Movable</text><path style="stroke:#181818;stroke-width:.5px" d="M8 179.6h88.898"/><path fill="transparent" style="stroke:#c82930;stroke-width:1px" d="M15 190.248h6v6h-6z"/><text font-family="sans-serif" font-size="14" textLength="16.57" x="27" y="196.595">vx</text><path fill="transparent" style="stroke:#c82930;stroke-width:1px" d="M15 206.545h6v6h-6z"/><text font-family="sans-serif" font-size="14" textLength="16.57" x="27" y="212.892">vy</text><text font-family="sans-serif" font-size="14" textLength="13.337" x="27" y="229.189">-x</text><text font-family="sans-serif" font-size="14" textLength="13.337" x="27" y="245.486">-y</text><path style="stroke:#181818;stroke-width:.5px" d="M8 252.787h88.898"/></g><g id="elem_Enemy"><rect fill="#F1F1F1" height="64.297" id="Enemy" rx="2.5" ry="2.5" style="stroke:#181818;stroke-width:.5px" width="89.93" x="7.48" y="320.78"/><circle cx="26.834" cy="336.78" fill="#A9DCDF" style="stroke:#181818;stroke-width:1px" r="11"/><path d="m22.006 342.53 3.343-12.188h3.14l3.376 12.188h-2.469l-.734-3.016h-3.516l-.75 3.016h-2.39Zm4.406-8.047-.75 3h2.515l-.718-3q-.141-.578-.266-1.125-.125-.562-.266-1.14-.109.578-.25 1.14-.14.547-.265 1.125Z"/><text font-family="sans-serif" font-size="14" font-style="italic" textLength="48.255" x="41.801" y="341.627">Enemy</text><path style="stroke:#181818;stroke-width:.5px" d="M8.48 352.78h87.93"/><path fill="transparent" style="stroke:#c82930;stroke-width:1px" d="M15.48 363.428h6v6h-6z"/><text font-family="sans-serif" font-size="14" textLength="63.93" x="27.48" y="369.775">objective</text><path style="stroke:#181818;stroke-width:.5px" d="M8.48 377.077h87.93"/></g><g id="link_Entity_Movable" fill="transparent"><path d="M52.45 105.78v41.34" id="Entity-backto-Movable" style="stroke:#181818;stroke-width:1px"/><path style="stroke:#181818;stroke-width:1px" d="m52.45 87.78-6 18h12l-6-18z"/></g><g id="link_Movable_Enemy" fill="transparent"><path d="M52.45 279.08v41.32" id="Movable-backto-Enemy" style="stroke:#181818;stroke-width:1px"/><path style="stroke:#181818;stroke-width:1px" d="m52.45 261.08-6 18h12l-6-18z"/></g></svg>