<svg xmlns="http://www.w3.org/2000/svg" width="104" height="392" data-diagram-type="CLASS" preserveAspectRatio="none" style="background:#fff;width:104px;height:392px"><g id="elem_Entity"><rect id="Entity" width="72.872" height="80.594" x="16.01" y="7" fill="#F1F1F1" rx="2.5" ry="2.5" style="stroke:#181818;stroke-width:.5px"/><circle cx="31.01" cy="23" r="11" fill="#A9DCDF" style="stroke:#181818;stroke-width:1px"/><path d="m26.182 28.75 3.344-12.187h3.14l3.375 12.187h-2.468l-.735-3.016h-3.515l-.75 3.016zm4.406-8.047-.75 3h2.516l-.719-3q-.14-.578-.266-1.125-.125-.562-.265-1.14-.11.578-.25 1.14-.14.547-.266 1.125"/><text x="45.01" y="27.847" font-family="sans-serif" font-size="14" font-style="italic" textLength="40.872">Entity</text><path d="M17.01 39h70.872" style="stroke:#181818;stroke-width:.5px"/><path fill="transparent" d="M24.01 49.648h6v6h-6z" style="stroke:#c82930;stroke-width:1px"/><text x="36.01" y="55.995" font-family="sans-serif" font-size="14" textLength="12.776">id</text><path d="M17.01 63.297h70.872" style="stroke:#181818;stroke-width:.5px"/><circle cx="27.01" cy="76.945" r="3" fill="#84BE84" style="stroke:#038048;stroke-width:1px"/><text x="36.01" y="80.292" font-family="sans-serif" font-size="14" font-style="italic" textLength="36.107">tick()</text></g><g id="elem_Movable"><rect id="Movable" width="90.898" height="113.188" x="7" y="147.6" fill="#F1F1F1" rx="2.5" ry="2.5" style="stroke:#181818;stroke-width:.5px"/><circle cx="22" cy="163.6" r="11" fill="#A9DCDF" style="stroke:#181818;stroke-width:1px"/><path d="m17.172 169.35 3.344-12.187h3.14l3.375 12.187h-2.468l-.735-3.016h-3.515l-.75 3.016zm4.406-8.047-.75 3h2.516l-.719-3q-.14-.578-.266-1.125-.125-.562-.265-1.14-.11.578-.25 1.14-.14.547-.266 1.125"/><text x="36" y="168.447" font-family="sans-serif" font-size="14" font-style="italic" textLength="58.898">Movable</text><path d="M8 179.6h88.898" style="stroke:#181818;stroke-width:.5px"/><path fill="transparent" d="M15 190.248h6v6h-6z" style="stroke:#c82930;stroke-width:1px"/><text x="27" y="196.595" font-family="sans-serif" font-size="14" textLength="16.57">vx</text><path fill="transparent" d="M15 206.545h6v6h-6z" style="stroke:#c82930;stroke-width:1px"/><text x="27" y="212.892" font-family="sans-serif" font-size="14" textLength="16.57">vy</text><text x="27" y="229.189" font-family="sans-serif" font-size="14" textLength="13.337">-x</text><text x="27" y="245.486" font-family="sans-serif" font-size="14" textLength="13.337">-y</text><path d="M8 252.787h88.898" style="stroke:#181818;stroke-width:.5px"/></g><g id="elem_Enemy"><rect id="Enemy" width="89.93" height="64.297" x="7.48" y="320.78" fill="#F1F1F1" rx="2.5" ry="2.5" style="stroke:#181818;stroke-width:.5px"/><circle cx="26.834" cy="336.78" r="11" fill="#A9DCDF" style="stroke:#181818;stroke-width:1px"/><path d="m22.006 342.53 3.343-12.187h3.14l3.376 12.187h-2.469l-.734-3.016h-3.516l-.75 3.016zm4.406-8.047-.75 3h2.515l-.718-3q-.141-.578-.266-1.125-.125-.562-.266-1.14-.109.578-.25 1.14-.14.547-.265 1.125"/><text x="41.801" y="341.627" font-family="sans-serif" font-size="14" font-style="italic" textLength="48.255">Enemy</text><path d="M8.48 352.78h87.93" style="stroke:#181818;stroke-width:.5px"/><path fill="transparent" d="M15.48 363.428h6v6h-6z" style="stroke:#c82930;stroke-width:1px"/><text x="27.48" y="369.775" font-family="sans-serif" font-size="14" textLength="63.93">objective</text><path d="M8.48 377.077h87.93" style="stroke:#181818;stroke-width:.5px"/></g><g id="link_Entity_Movable" fill="transparent"><path id="Entity-backto-Movable" d="M52.45 105.78v41.34" style="stroke:#181818;stroke-width:1px"/><path d="m52.45 87.78-6 18h12z" style="stroke:#181818;stroke-width:1px"/></g><g id="link_Movable_Enemy" fill="transparent"><path id="Movable-backto-Enemy" d="M52.45 279.08v41.32" style="stroke:#181818;stroke-width:1px"/><path d="m52.45 261.08-6 18h12z" style="stroke:#181818;stroke-width:1px"/></g></svg>