<svg xmlns="http://www.w3.org/2000/svg" width="236" height="341" data-diagram-type="CLASS" preserveAspectRatio="none" style="background:#fff;width:236px;height:341px"><g id="elem_Entity"><rect id="Entity" width="72.872" height="32" x="93.58" y="7" fill="#F1F1F1" rx="2.5" ry="2.5" style="stroke:#181818;stroke-width:.5px"/><circle cx="108.58" cy="23" r="11" fill="#ADD1B2" style="stroke:#181818;stroke-width:1px"/><path d="M108.049 29.922q-1.75 0-2.89-.735-1.126-.75-1.688-2.093-.547-1.36-.547-3.157 0-2.03.656-3.484.656-1.453 1.938-2.234 1.28-.782 3.156-.782.89 0 1.562.188.672.172 1.36.516l-.813 2.015q-.625-.312-1.172-.437-.531-.125-1.015-.125-1.172 0-1.875.531t-1 1.484-.297 2.22q0 2.015.718 2.983.72.954 2.313.954.594 0 1.219-.157.625-.156 1.453-.53v2.218q-.734.312-1.531.469-.782.156-1.547.156"/><text x="122.58" y="27.847" font-family="sans-serif" font-size="14" textLength="40.872">Entity</text></g><g id="elem_Movable"><rect id="Movable" width="90.898" height="32" x="35.57" y="100" fill="#F1F1F1" rx="2.5" ry="2.5" style="stroke:#181818;stroke-width:.5px"/><circle cx="50.57" cy="116" r="11" fill="#ADD1B2" style="stroke:#181818;stroke-width:1px"/><path d="M50.039 122.922q-1.75 0-2.89-.734-1.126-.75-1.688-2.094-.547-1.36-.547-3.156 0-2.032.656-3.485t1.938-2.234q1.28-.781 3.156-.781.89 0 1.562.187.672.172 1.36.516l-.813 2.015q-.625-.312-1.172-.437-.531-.125-1.015-.125-1.172 0-1.875.531t-1 1.484-.297 2.22q0 2.015.718 2.984.72.953 2.313.953.594 0 1.219-.157.625-.156 1.453-.53v2.218q-.734.312-1.531.469-.782.156-1.547.156"/><text x="64.57" y="120.847" font-family="sans-serif" font-size="14" textLength="58.898">Movable</text></g><g id="elem_Visible"><rect id="Visible" width="78.04" height="32" x="7" y="209" fill="#F1F1F1" rx="2.5" ry="2.5" style="stroke:#181818;stroke-width:.5px"/><circle cx="22" cy="225" r="11" fill="#ADD1B2" style="stroke:#181818;stroke-width:1px"/><path d="M21.469 231.922q-1.75 0-2.89-.734-1.126-.75-1.688-2.094-.547-1.36-.547-3.156 0-2.032.656-3.485t1.938-2.234q1.28-.781 3.156-.781.89 0 1.562.187.672.172 1.36.516l-.813 2.015q-.625-.312-1.172-.437-.531-.125-1.015-.125-1.172 0-1.875.531t-1 1.484-.297 2.22q0 2.015.718 2.983.72.954 2.313.954.594 0 1.219-.157.625-.156 1.453-.53v2.218q-.735.312-1.531.469-.782.156-1.547.156"/><text x="36" y="229.847" font-family="sans-serif" font-size="14" textLength="46.04">Visible</text></g><g id="elem_Player"><rect id="Player" width="75.565" height="32" x="72.24" y="302" fill="#F1F1F1" rx="2.5" ry="2.5" style="stroke:#181818;stroke-width:.5px"/><circle cx="87.24" cy="318" r="11" fill="#ADD1B2" style="stroke:#181818;stroke-width:1px"/><path d="M86.709 324.922q-1.75 0-2.89-.735-1.126-.75-1.688-2.093-.547-1.36-.547-3.156 0-2.032.656-3.485t1.938-2.234q1.28-.781 3.156-.781.89 0 1.562.187.672.172 1.36.516l-.813 2.015q-.625-.312-1.172-.437-.531-.125-1.015-.125-1.172 0-1.875.531t-1 1.484-.297 2.22q0 2.015.718 2.983.72.954 2.313.954.594 0 1.219-.157.625-.156 1.453-.53v2.218q-.735.312-1.531.469-.782.156-1.547.156"/><text x="101.24" y="322.847" font-family="sans-serif" font-size="14" textLength="43.565">Player</text></g><g id="elem_NoMovable"><rect id="NoMovable" width="109.936" height="32" x="120.05" y="209" fill="#F1F1F1" rx="2.5" ry="2.5" style="stroke:#181818;stroke-width:.5px"/><circle cx="135.05" cy="225" r="11" fill="#ADD1B2" style="stroke:#181818;stroke-width:1px"/><path d="M134.519 231.922q-1.75 0-2.89-.734-1.126-.75-1.688-2.094-.547-1.36-.547-3.156 0-2.032.656-3.485t1.938-2.234q1.28-.781 3.156-.781.89 0 1.562.187.672.172 1.36.516l-.813 2.015q-.625-.312-1.172-.437-.531-.125-1.015-.125-1.172 0-1.875.531t-1 1.484-.297 2.22q0 2.015.719 2.983.718.954 2.312.954.594 0 1.219-.157.625-.156 1.453-.53v2.218q-.734.312-1.531.469-.782.156-1.547.156"/><text x="149.05" y="229.847" font-family="sans-serif" font-size="14" textLength="77.936">NoMovable</text></g><g id="link_Entity_Movable" fill="transparent"><path id="Entity-backto-Movable" d="M113.17 55.286C104.1 72.116 98.23 83.05 89.21 99.79" style="stroke:#181818;stroke-width:1px"/><path d="m121.71 39.44-13.821 12.999 10.563 5.693z" style="stroke:#181818;stroke-width:1px"/></g><g id="link_Movable_Visible" fill="transparent"><path id="Movable-backto-Visible" d="M70.409 149.436c-6.66 20.34-12.739 38.934-19.379 59.264" style="stroke:#181818;stroke-width:1px"/><path d="m76.01 132.33-11.303 15.24 11.404 3.733z" style="stroke:#181818;stroke-width:1px"/></g><g id="link_Visible_Player" fill="transparent"><path id="Visible-backto-Player" d="M67.237 256.162c11.84 16.83 20.313 28.888 32.083 45.628" style="stroke:#181818;stroke-width:1px"/><path d="m56.88 241.44 5.45 18.174 9.814-6.904z" style="stroke:#181818;stroke-width:1px"/></g><g id="link_Entity_NoMovable" fill="transparent"><path id="Entity-backto-NoMovable" d="M137.428 56.922c8.37 37.23 25.732 114.378 34.122 151.668" style="stroke:#181818;stroke-width:1px"/><path d="m133.48 39.36-1.906 18.878 11.708-2.632z" style="stroke:#181818;stroke-width:1px"/></g><g id="link_NoMovable_Player" fill="transparent"><path id="NoMovable-backto-Player" d="M153.529 256.088c-12.02 16.83-20.689 28.962-32.649 45.702" style="stroke:#181818;stroke-width:1px"/><path d="m163.99 241.44-15.344 11.16 9.765 6.975z" style="stroke:#181818;stroke-width:1px"/></g><g id="link_Movable_NoMovable"><path id="Movable-NoMovable" fill="transparent" d="M83.942 138.352c2.33 13.48 6.358 27.068 17.078 40.648 9.88 12.51 18.978 19.533 32.448 26.793" style="stroke:#181818;stroke-width:1px"/><path fill="#181818" d="m82.92 132.44-2.409 9.55 3.26-4.623 4.623 3.26zM138.75 208.64l-6.025-7.791 1.624 5.419-5.42 1.623z" style="stroke:#181818;stroke-width:1px"/><text x="102.02" y="175.067" font-family="sans-serif" font-size="13" textLength="50.756">ERROR!</text></g></svg>