<svg xmlns="http://www.w3.org/2000/svg" width="104" height="373" data-diagram-type="CLASS" preserveAspectRatio="none" style="background:#fff;width:104px;height:373px"><g id="elem_Entity"><rect id="Entity" width="72.872" height="32" x="16.01" y="7" fill="#F1F1F1" rx="2.5" ry="2.5" style="stroke:#181818;stroke-width:.5px"/><circle cx="31.01" cy="23" r="11" fill="#ADD1B2" style="stroke:#181818;stroke-width:1px"/><path d="M30.479 29.922q-1.75 0-2.89-.735-1.126-.75-1.688-2.093-.547-1.36-.547-3.157 0-2.03.656-3.484.656-1.453 1.938-2.234 1.28-.782 3.156-.782.89 0 1.562.188.672.172 1.36.516l-.813 2.015q-.625-.312-1.172-.437-.531-.125-1.015-.125-1.172 0-1.875.531t-1 1.484-.297 2.22q0 2.015.719 2.983.718.954 2.312.954.594 0 1.219-.157.625-.156 1.453-.53v2.218q-.735.312-1.531.469-.782.156-1.547.156"/><text x="45.01" y="27.847" font-family="sans-serif" font-size="14" textLength="40.872">Entity</text></g><g id="elem_Movable"><rect id="Movable" width="90.898" height="32" x="7" y="116" fill="#F1F1F1" rx="2.5" ry="2.5" style="stroke:#181818;stroke-width:.5px"/><circle cx="22" cy="132" r="11" fill="#ADD1B2" style="stroke:#181818;stroke-width:1px"/><path d="M21.469 138.922q-1.75 0-2.89-.734-1.126-.75-1.688-2.094-.547-1.36-.547-3.156 0-2.032.656-3.485t1.938-2.234q1.28-.781 3.156-.781.89 0 1.562.187.672.172 1.36.516l-.813 2.015q-.625-.312-1.172-.437-.531-.125-1.015-.125-1.172 0-1.875.531t-1 1.484-.297 2.22q0 2.015.718 2.983.72.954 2.313.954.594 0 1.219-.157.625-.156 1.453-.53v2.218q-.735.312-1.531.469-.782.156-1.547.156"/><text x="36" y="136.847" font-family="sans-serif" font-size="14" textLength="58.898">Movable</text></g><g id="elem_Visible"><rect id="Visible" width="78.04" height="32" x="13.43" y="225" fill="#F1F1F1" rx="2.5" ry="2.5" style="stroke:#181818;stroke-width:.5px"/><circle cx="28.43" cy="241" r="11" fill="#ADD1B2" style="stroke:#181818;stroke-width:1px"/><path d="M27.899 247.922q-1.75 0-2.89-.734-1.126-.75-1.688-2.094-.547-1.36-.547-3.156 0-2.032.656-3.485t1.938-2.234q1.28-.781 3.156-.781.89 0 1.562.187.672.172 1.36.516l-.813 2.015q-.625-.312-1.172-.437-.531-.125-1.015-.125-1.172 0-1.875.531t-1 1.484-.297 2.22q0 2.015.718 2.983.72.954 2.313.954.594 0 1.219-.157.625-.156 1.453-.53v2.218q-.735.312-1.531.469-.782.156-1.547.156"/><text x="42.43" y="245.847" font-family="sans-serif" font-size="14" textLength="46.04">Visible</text></g><g id="elem_Player"><rect id="Player" width="75.565" height="32" x="14.67" y="334" fill="#F1F1F1" rx="2.5" ry="2.5" style="stroke:#181818;stroke-width:.5px"/><circle cx="29.67" cy="350" r="11" fill="#ADD1B2" style="stroke:#181818;stroke-width:1px"/><path d="M29.139 356.922q-1.75 0-2.89-.735-1.126-.75-1.688-2.093-.547-1.36-.547-3.156 0-2.032.656-3.485t1.938-2.234q1.28-.781 3.156-.781.89 0 1.562.187.672.172 1.36.516l-.813 2.015q-.625-.312-1.172-.437-.531-.125-1.015-.125-1.172 0-1.875.531t-1 1.484-.297 2.22q0 2.015.719 2.983.718.954 2.312.954.594 0 1.219-.157.625-.156 1.453-.53v2.218q-.734.312-1.531.469-.782.156-1.547.156"/><text x="43.67" y="354.847" font-family="sans-serif" font-size="14" textLength="43.565">Player</text></g><g id="link_Entity_Movable"><path id="Entity-backto-Movable" fill="transparent" d="M52.45 57.33v58.37" style="stroke:#181818;stroke-width:1px"/><path fill="transparent" d="m52.45 39.33-6 18h12z" style="stroke:#181818;stroke-width:1px"/><text x="53.45" y="82.067" font-family="sans-serif" font-size="13" textLength="35.94">es-un</text></g><g id="link_Movable_Visible"><path id="Movable-backto-Visible" fill="transparent" d="M52.45 166.33v58.37" style="stroke:#181818;stroke-width:1px"/><path fill="transparent" d="m52.45 148.33-6 18h12z" style="stroke:#181818;stroke-width:1px"/><text x="53.45" y="191.067" font-family="sans-serif" font-size="13" textLength="35.94">es-un</text></g><g id="link_Visible_Player"><path id="Visible-backto-Player" fill="transparent" d="M52.45 275.33v58.37" style="stroke:#181818;stroke-width:1px"/><path fill="transparent" d="m52.45 257.33-6 18h12z" style="stroke:#181818;stroke-width:1px"/><text x="53.45" y="300.067" font-family="sans-serif" font-size="13" textLength="35.94">es-un</text></g></svg>