<svg xmlns="http://www.w3.org/2000/svg" height="316" preserveAspectRatio="none" style="background:#fff;width:258px;height:316px" width="258"><g id="elem_Fruta"><rect fill="#F1F1F1" height="86.136" id="Fruta" rx="2.5" ry="2.5" style="stroke:#181818;stroke-width:.5px" width="94" x="116" y="7"/><circle cx="143.15" cy="23" fill="#ADD1B2" style="stroke:#181818;stroke-width:1px" r="11"/><path d="M142.619 29.922q-1.75 0-2.89-.735-1.126-.75-1.688-2.093-.547-1.36-.547-3.157 0-2.03.656-3.484.656-1.453 1.938-2.234 1.28-.782 3.156-.782.89 0 1.562.188.672.172 1.36.516l-.813 2.015q-.625-.312-1.172-.437-.531-.125-1.015-.125-1.172 0-1.875.531-.703.531-1 1.484-.297.953-.297 2.22 0 2.015.719 2.983.718.954 2.312.954.594 0 1.219-.157.625-.156 1.453-.53v2.218q-.734.312-1.531.469-.782.156-1.547.156Z"/><text font-family="sans-serif" font-size="14" textLength="35" x="159.85" y="28.432">Fruta</text><path style="stroke:#181818;stroke-width:.5px" d="M117 39h92"/><text font-family="sans-serif" font-size="14" textLength="73" x="122" y="57.966">int tamaño</text><path style="stroke:#181818;stroke-width:.5px" d="M117 66.068h92"/><text font-family="sans-serif" font-size="14" textLength="82" x="122" y="85.034">void comer()</text></g><g id="elem_Manzana"><rect fill="#F1F1F1" height="48" id="Manzana" rx="2.5" ry="2.5" style="stroke:#181818;stroke-width:.5px" width="94" x="60" y="153.14"/><circle cx="75" cy="169.14" fill="#ADD1B2" style="stroke:#181818;stroke-width:1px" r="11"/><path d="M74.469 176.062q-1.75 0-2.89-.735-1.126-.75-1.688-2.093-.547-1.36-.547-3.157 0-2.03.656-3.484.656-1.453 1.938-2.234 1.28-.782 3.156-.782.89 0 1.562.188.672.172 1.36.516l-.813 2.015q-.625-.312-1.172-.437-.531-.125-1.015-.125-1.172 0-1.875.531-.704.531-1 1.484-.297.953-.297 2.22 0 2.015.719 2.983.718.954 2.312.954.594 0 1.219-.157.625-.156 1.453-.53v2.218q-.734.312-1.531.469-.782.156-1.547.156Z"/><text font-family="sans-serif" font-size="14" textLength="62" x="89" y="174.572">Manzana</text><path style="stroke:#181818;stroke-width:.5px" d="M61 185.14h92M61 193.14h92"/></g><g id="elem_Pera"><rect fill="#F1F1F1" height="48" id="Pera" rx="2.5" ry="2.5" style="stroke:#181818;stroke-width:.5px" width="62" x="189" y="153.14"/><circle cx="204" cy="169.14" fill="#ADD1B2" style="stroke:#181818;stroke-width:1px" r="11"/><path d="M203.469 176.062q-1.75 0-2.89-.735-1.126-.75-1.688-2.093-.547-1.36-.547-3.157 0-2.03.656-3.484.656-1.453 1.938-2.234 1.28-.782 3.156-.782.89 0 1.562.188.672.172 1.36.516l-.813 2.015q-.625-.312-1.172-.437-.531-.125-1.015-.125-1.172 0-1.875.531-.703.531-1 1.484-.297.953-.297 2.22 0 2.015.719 2.983.718.954 2.312.954.594 0 1.219-.157.625-.156 1.453-.53v2.218q-.734.312-1.531.469-.782.156-1.547.156Z"/><text font-family="sans-serif" font-size="14" textLength="30" x="218" y="174.572">Pera</text><path style="stroke:#181818;stroke-width:.5px" d="M190 185.14h60M190 193.14h60"/></g><g id="elem_Golden"><rect fill="#F1F1F1" height="48" id="Golden" rx="2.5" ry="2.5" style="stroke:#181818;stroke-width:.5px" width="80" x="7" y="261.14"/><circle cx="22" cy="277.14" fill="#ADD1B2" style="stroke:#181818;stroke-width:1px" r="11"/><path d="M21.469 284.062q-1.75 0-2.89-.735-1.126-.75-1.688-2.093-.547-1.36-.547-3.156 0-2.032.656-3.485.656-1.453 1.938-2.234 1.28-.781 3.156-.781.89 0 1.562.187.672.172 1.36.516l-.813 2.015q-.625-.312-1.172-.437-.531-.125-1.015-.125-1.172 0-1.875.531-.703.531-1 1.484-.297.953-.297 2.22 0 2.015.718 2.983.72.954 2.313.954.594 0 1.219-.157.625-.156 1.453-.53v2.218q-.735.312-1.531.469-.782.156-1.547.156Z"/><text font-family="sans-serif" font-size="14" textLength="48" x="36" y="282.572">Golden</text><path style="stroke:#181818;stroke-width:.5px" d="M8 293.14h78M8 301.14h78"/></g><g id="elem_PinkLady"><rect fill="#F1F1F1" height="48" id="PinkLady" rx="2.5" ry="2.5" style="stroke:#181818;stroke-width:.5px" width="91" x="122.5" y="261.14"/><circle cx="137.5" cy="277.14" fill="#ADD1B2" style="stroke:#181818;stroke-width:1px" r="11"/><path d="M136.969 284.062q-1.75 0-2.89-.735-1.126-.75-1.688-2.093-.547-1.36-.547-3.156 0-2.032.656-3.485.656-1.453 1.938-2.234 1.28-.781 3.156-.781.89 0 1.562.187.672.172 1.36.516l-.813 2.015q-.625-.312-1.172-.437-.531-.125-1.015-.125-1.172 0-1.875.531-.703.531-1 1.484-.297.953-.297 2.22 0 2.015.719 2.983.718.954 2.312.954.594 0 1.219-.157.625-.156 1.453-.53v2.218q-.734.312-1.531.469-.782.156-1.547.156Z"/><text font-family="sans-serif" font-size="14" textLength="59" x="151.5" y="282.572">PinkLady</text><path style="stroke:#181818;stroke-width:.5px" d="M123.5 293.14h89M123.5 301.14h89"/></g><g id="link_Fruta_Manzana" fill="none"><path d="M136.69 109.84c-8.88 19.85-11.78 26.3-19.24 42.96" id="Fruta-backto-Manzana" style="stroke:#181818;stroke-width:1px"/><path style="stroke:#181818;stroke-width:1px" d="m144.04 93.41-12.827 13.98 10.954 4.9 1.873-18.88z"/></g><g id="link_Fruta_Pera" fill="none"><path d="M189.76 109.791c9.04 19.85 12.01 26.349 19.6 43.009" id="Fruta-backto-Pera" style="stroke:#181818;stroke-width:1px"/><path style="stroke:#181818;stroke-width:1px" d="m182.3 93.41 2 18.868 10.92-4.974L182.3 93.41z"/></g><g id="link_Manzana_Golden" fill="none"><path d="M84.968 217.067c-10 17.68-14.838 26.203-24.828 43.863" id="Manzana-backto-Golden" style="stroke:#181818;stroke-width:1px"/><path style="stroke:#181818;stroke-width:1px" d="m93.83 201.4-14.084 12.714 10.445 5.907L93.83 201.4z"/></g><g id="link_Manzana_PinkLady" fill="none"><path d="M129.365 217.003c10.17 17.68 15.115 26.267 25.275 43.927" id="Manzana-backto-PinkLady" style="stroke:#181818;stroke-width:1px"/><path style="stroke:#181818;stroke-width:1px" d="m120.39 201.4 3.774 18.594 10.402-5.983L120.39 201.4z"/></g></svg>