<svg xmlns="http://www.w3.org/2000/svg" height="343" preserveAspectRatio="none" style="background:#fff;width:233px;height:343px" width="233"><g id="elem_Entity"><rect fill="#F1F1F1" height="32" id="Entity" rx="2.5" ry="2.5" style="stroke:#181818;stroke-width:.5px" width="70" x="89" y="7"/><circle cx="104" cy="23" fill="#ADD1B2" style="stroke:#181818;stroke-width:1px" r="11"/><path d="M103.469 29.922q-1.75 0-2.89-.735-1.126-.75-1.688-2.093-.547-1.36-.547-3.157 0-2.03.656-3.484.656-1.453 1.938-2.234 1.28-.782 3.156-.782.89 0 1.562.188.672.172 1.36.516l-.813 2.015q-.625-.312-1.172-.437-.531-.125-1.015-.125-1.172 0-1.875.531-.704.531-1 1.484-.297.953-.297 2.22 0 2.015.719 2.983.718.954 2.312.954.594 0 1.219-.157.625-.156 1.453-.53v2.218q-.734.312-1.531.469-.782.156-1.547.156Z"/><text font-family="sans-serif" font-size="14" textLength="38" x="118" y="28.432">Entity</text></g><g id="elem_Movable"><rect fill="#F1F1F1" height="32" id="Movable" rx="2.5" ry="2.5" style="stroke:#181818;stroke-width:.5px" width="89" x="31.5" y="100"/><circle cx="46.5" cy="116" fill="#ADD1B2" style="stroke:#181818;stroke-width:1px" r="11"/><path d="M45.969 122.922q-1.75 0-2.89-.734-1.126-.75-1.688-2.094-.547-1.36-.547-3.156 0-2.032.656-3.485.656-1.453 1.938-2.234 1.28-.781 3.156-.781.89 0 1.562.187.672.172 1.36.516l-.813 2.015q-.625-.312-1.172-.437-.531-.125-1.015-.125-1.172 0-1.875.531-.703.531-1 1.484-.297.954-.297 2.22 0 2.015.718 2.984.72.953 2.313.953.594 0 1.219-.157.625-.156 1.453-.53v2.218q-.734.312-1.531.469-.782.156-1.547.156Z"/><text font-family="sans-serif" font-size="14" textLength="57" x="60.5" y="121.432">Movable</text></g><g id="elem_Visible"><rect fill="#F1F1F1" height="32" id="Visible" rx="2.5" ry="2.5" style="stroke:#181818;stroke-width:.5px" width="76" x="7" y="211"/><circle cx="22" cy="227" fill="#ADD1B2" style="stroke:#181818;stroke-width:1px" r="11"/><path d="M21.469 233.922q-1.75 0-2.89-.734-1.126-.75-1.688-2.094-.547-1.36-.547-3.156 0-2.032.656-3.485.656-1.453 1.938-2.234 1.28-.781 3.156-.781.89 0 1.562.187.672.172 1.36.516l-.813 2.015q-.625-.312-1.172-.437-.531-.125-1.015-.125-1.172 0-1.875.531-.703.531-1 1.484-.297.953-.297 2.22 0 2.015.718 2.983.72.954 2.313.954.594 0 1.219-.157.625-.156 1.453-.53v2.218q-.735.312-1.531.469-.782.156-1.547.156Z"/><text font-family="sans-serif" font-size="14" textLength="44" x="36" y="232.432">Visible</text></g><g id="elem_Player"><rect fill="#F1F1F1" height="32" id="Player" rx="2.5" ry="2.5" style="stroke:#181818;stroke-width:.5px" width="73" x="71.5" y="304"/><circle cx="86.5" cy="320" fill="#ADD1B2" style="stroke:#181818;stroke-width:1px" r="11"/><path d="M85.969 326.922q-1.75 0-2.89-.735-1.126-.75-1.688-2.093-.547-1.36-.547-3.156 0-2.032.656-3.485.656-1.453 1.938-2.234 1.28-.781 3.156-.781.89 0 1.562.187.672.172 1.36.516l-.813 2.015q-.625-.312-1.172-.437-.531-.125-1.015-.125-1.172 0-1.875.531-.704.531-1 1.484-.297.954-.297 2.22 0 2.015.719 2.983.718.954 2.312.954.594 0 1.219-.157.625-.156 1.453-.53v2.218q-.734.312-1.531.469-.782.156-1.547.156Z"/><text font-family="sans-serif" font-size="14" textLength="41" x="100.5" y="325.432">Player</text></g><g id="elem_NoMovable"><rect fill="#F1F1F1" height="32" id="NoMovable" rx="2.5" ry="2.5" style="stroke:#181818;stroke-width:.5px" width="108" x="118" y="211"/><circle cx="133" cy="227" fill="#ADD1B2" style="stroke:#181818;stroke-width:1px" r="11"/><path d="M132.469 233.922q-1.75 0-2.89-.734-1.126-.75-1.688-2.094-.547-1.36-.547-3.156 0-2.032.656-3.485.656-1.453 1.938-2.234 1.28-.781 3.156-.781.89 0 1.562.187.672.172 1.36.516l-.813 2.015q-.625-.312-1.172-.437-.531-.125-1.015-.125-1.172 0-1.875.531-.703.531-1 1.484-.297.953-.297 2.22 0 2.015.719 2.983.718.954 2.312.954.594 0 1.219-.157.625-.156 1.453-.53v2.218q-.734.312-1.531.469-.782.156-1.547.156Z"/><text font-family="sans-serif" font-size="14" textLength="76" x="147" y="232.432">NoMovable</text></g><g id="link_Entity_Movable" fill="none"><path d="M107.46 55.36c-8.88 16.83-14.61 27.69-23.44 44.43" id="Entity-backto-Movable" style="stroke:#181818;stroke-width:1px"/><path style="stroke:#181818;stroke-width:1px" d="m115.86 39.44-13.706 13.12 10.613 5.6 3.093-18.72z"/></g><g id="link_Movable_Visible" fill="none"><path d="M66.764 149.473c-5.89 20.7-11.464 40.327-17.394 61.147" id="Movable-backto-Visible" style="stroke:#181818;stroke-width:1px"/><path style="stroke:#181818;stroke-width:1px" d="m71.69 132.16-10.697 15.67 11.542 3.285-.845-18.955z"/></g><g id="link_Visible_Player" fill="none"><path d="M65.935 258.24c11.65 16.83 19.945 28.81 31.535 45.55" id="Visible-backto-Player" style="stroke:#181818;stroke-width:1px"/><path style="stroke:#181818;stroke-width:1px" d="m55.69 243.44 5.312 18.215 9.866-6.83L55.69 243.44z"/></g><g id="link_Entity_NoMovable" fill="none"><path d="M131.768 56.693c8.89 37.44 27.642 116.327 36.582 153.947" id="Entity-backto-NoMovable" style="stroke:#181818;stroke-width:1px"/><path style="stroke:#181818;stroke-width:1px" d="m127.61 39.18-1.68 18.9 11.676-2.773-9.996-16.127z"/></g><g id="link_NoMovable_Player" fill="none"><path d="M150.783 258.162c-11.84 16.83-20.313 28.888-32.083 45.628" id="NoMovable-backto-Player" style="stroke:#181818;stroke-width:1px"/><path style="stroke:#181818;stroke-width:1px" d="m161.14 243.44-15.264 11.27 9.814 6.904 5.45-18.174z"/></g><g id="link_Movable_NoMovable"><path d="M80.16 138.228c3.19 13.92 8.2 28.532 19.84 42.772 10.08 12.32 19.225 19.347 32.495 26.717" fill="none" id="Movable-NoMovable" style="stroke:#181818;stroke-width:1px"/><path fill="#181818" style="stroke:#181818;stroke-width:1px" d="m78.82 132.38-1.888 9.666 3.005-4.792 4.792 3.005-5.909-7.879zM137.74 210.63l-5.926-7.867 1.555 5.44-5.44 1.554 9.811.873z"/><text font-family="sans-serif" font-size="13" textLength="45" x="101" y="176.897">ERROR!</text></g></svg>