<svg xmlns="http://www.w3.org/2000/svg" width="102" height="379" preserveAspectRatio="none" style="background:#fff;width:102px;height:379px"><g id="elem_Entity"><rect id="Entity" width="69.296" height="32" x="16.48" y="7" fill="#F1F1F1" rx="2.5" ry="2.5" style="stroke:#181818;stroke-width:.5px"/><circle cx="31.48" cy="23" r="11" fill="#ADD1B2" style="stroke:#181818;stroke-width:1px"/><path d="M30.949 29.922q-1.75 0-2.89-.735-1.126-.75-1.688-2.093-.547-1.36-.547-3.157 0-2.03.656-3.484.656-1.453 1.938-2.234 1.28-.782 3.156-.782.89 0 1.562.188.672.172 1.36.516l-.813 2.015q-.625-.312-1.172-.437-.531-.125-1.015-.125-1.172 0-1.875.531t-1 1.484-.297 2.22q0 2.015.718 2.983.72.954 2.313.954.594 0 1.219-.157.625-.156 1.453-.53v2.218q-.735.312-1.531.469-.782.156-1.547.156"/><text x="45.48" y="28.432" font-family="sans-serif" font-size="14" textLength="37.296">Entity</text></g><g id="elem_Movable"><rect id="Movable" width="88.252" height="32" x="7" y="118" fill="#F1F1F1" rx="2.5" ry="2.5" style="stroke:#181818;stroke-width:.5px"/><circle cx="22" cy="134" r="11" fill="#ADD1B2" style="stroke:#181818;stroke-width:1px"/><path d="M21.469 140.922q-1.75 0-2.89-.734-1.126-.75-1.688-2.094-.547-1.36-.547-3.156 0-2.032.656-3.485t1.938-2.234q1.28-.781 3.156-.781.89 0 1.562.187.672.172 1.36.516l-.813 2.015q-.625-.312-1.172-.437-.531-.125-1.015-.125-1.172 0-1.875.531t-1 1.484-.297 2.22q0 2.015.718 2.983.72.954 2.313.954.594 0 1.219-.157.625-.156 1.453-.53v2.218q-.735.312-1.531.469-.782.156-1.547.156"/><text x="36" y="139.432" font-family="sans-serif" font-size="14" textLength="56.252">Movable</text></g><g id="elem_Visible"><rect id="Visible" width="74.448" height="32" x="13.9" y="229" fill="#F1F1F1" rx="2.5" ry="2.5" style="stroke:#181818;stroke-width:.5px"/><circle cx="28.9" cy="245" r="11" fill="#ADD1B2" style="stroke:#181818;stroke-width:1px"/><path d="M28.369 251.922q-1.75 0-2.89-.734-1.126-.75-1.688-2.094-.547-1.36-.547-3.156 0-2.032.656-3.485t1.938-2.234q1.28-.781 3.156-.781.89 0 1.562.187.672.172 1.36.516l-.813 2.015q-.625-.312-1.172-.437-.531-.125-1.015-.125-1.172 0-1.875.531t-1 1.484-.297 2.22q0 2.015.718 2.983.72.954 2.313.954.594 0 1.219-.157.625-.156 1.453-.53v2.218q-.735.312-1.531.469-.782.156-1.547.156"/><text x="42.9" y="250.432" font-family="sans-serif" font-size="14" textLength="42.448">Visible</text></g><g id="elem_Player"><rect id="Player" width="72.754" height="32" x="14.75" y="340" fill="#F1F1F1" rx="2.5" ry="2.5" style="stroke:#181818;stroke-width:.5px"/><circle cx="29.75" cy="356" r="11" fill="#ADD1B2" style="stroke:#181818;stroke-width:1px"/><path d="M29.219 362.922q-1.75 0-2.89-.735-1.126-.75-1.688-2.093-.547-1.36-.547-3.156 0-2.032.656-3.485t1.938-2.234q1.28-.781 3.156-.781.89 0 1.562.187.672.172 1.36.516l-.813 2.015q-.625-.312-1.172-.437-.531-.125-1.015-.125-1.172 0-1.875.531t-1 1.484-.297 2.22q0 2.015.718 2.983.72.954 2.313.954.594 0 1.219-.157.625-.156 1.453-.53v2.218q-.734.312-1.531.469-.782.156-1.547.156"/><text x="43.75" y="361.432" font-family="sans-serif" font-size="14" textLength="40.754">Player</text></g><g id="link_Entity_Movable"><path id="Entity-backto-Movable" fill="none" d="M51.13 57.16v60.46" style="stroke:#181818;stroke-width:1px"/><path fill="none" d="m51.13 39.16-6 18h12z" style="stroke:#181818;stroke-width:1px"/><text x="52.13" y="83.897" font-family="sans-serif" font-size="13" textLength="33.813">es-un</text></g><g id="link_Movable_Visible"><path id="Movable-backto-Visible" fill="none" d="M51.13 168.16v60.46" style="stroke:#181818;stroke-width:1px"/><path fill="none" d="m51.13 150.16-6 18h12z" style="stroke:#181818;stroke-width:1px"/><text x="52.13" y="194.897" font-family="sans-serif" font-size="13" textLength="33.813">es-un</text></g><g id="link_Visible_Player"><path id="Visible-backto-Player" fill="none" d="M51.13 279.16v60.46" style="stroke:#181818;stroke-width:1px"/><path fill="none" d="m51.13 261.16-6 18h12z" style="stroke:#181818;stroke-width:1px"/><text x="52.13" y="305.897" font-family="sans-serif" font-size="13" textLength="33.813">es-un</text></g></svg>