<svg xmlns="http://www.w3.org/2000/svg" width="261" height="310" data-diagram-type="CLASS" preserveAspectRatio="none" style="background:#fff;width:261px;height:310px"><g id="elem_Fruta"><rect id="Fruta" width="101.27" height="80.594" x="115.2" y="7" fill="#F1F1F1" rx="2.5" ry="2.5" style="stroke:#181818;stroke-width:.5px"/><circle cx="144.834" cy="23" r="11" fill="#ADD1B2" style="stroke:#181818;stroke-width:1px"/><path d="M144.303 29.922q-1.75 0-2.89-.735-1.126-.75-1.688-2.093-.547-1.36-.547-3.157 0-2.03.656-3.484.656-1.453 1.938-2.234 1.281-.782 3.156-.782.89 0 1.563.188.671.172 1.359.516l-.813 2.015q-.625-.312-1.172-.437-.53-.125-1.015-.125-1.172 0-1.875.531t-1 1.484-.297 2.22q0 2.015.719 2.983.719.954 2.312.954.594 0 1.219-.157.625-.156 1.453-.53v2.218q-.734.312-1.531.469-.781.156-1.547.156"/><text x="162.086" y="27.847" font-family="sans-serif" font-size="14" textLength="36.75">Fruta</text><path d="M116.2 39h99.27" style="stroke:#181818;stroke-width:.5px"/><text x="121.2" y="55.995" font-family="sans-serif" font-size="14" textLength="76.426">int tamaño</text><path d="M116.2 63.297h99.27" style="stroke:#181818;stroke-width:.5px"/><text x="121.2" y="80.292" font-family="sans-serif" font-size="14" textLength="89.27">void comer()</text></g><g id="elem_Manzana"><rect id="Manzana" width="94.911" height="48" x="61.38" y="147.59" fill="#F1F1F1" rx="2.5" ry="2.5" style="stroke:#181818;stroke-width:.5px"/><circle cx="76.38" cy="163.59" r="11" fill="#ADD1B2" style="stroke:#181818;stroke-width:1px"/><path d="M75.849 170.512q-1.75 0-2.89-.734-1.126-.75-1.688-2.094-.547-1.36-.547-3.156 0-2.032.656-3.485t1.938-2.234q1.28-.781 3.156-.781.89 0 1.562.187.672.172 1.36.516l-.813 2.015q-.625-.312-1.172-.437-.531-.125-1.015-.125-1.172 0-1.875.531t-1 1.484-.297 2.22q0 2.015.718 2.983.72.954 2.313.954.594 0 1.219-.157.625-.156 1.453-.53v2.218q-.735.312-1.531.469-.782.156-1.547.156"/><text x="90.38" y="168.437" font-family="sans-serif" font-size="14" textLength="62.911">Manzana</text><path d="M62.38 179.59h92.911M62.38 187.59h92.911" style="stroke:#181818;stroke-width:.5px"/></g><g id="elem_Pera"><rect id="Pera" width="63.391" height="48" x="191.14" y="147.59" fill="#F1F1F1" rx="2.5" ry="2.5" style="stroke:#181818;stroke-width:.5px"/><circle cx="206.14" cy="163.59" r="11" fill="#ADD1B2" style="stroke:#181818;stroke-width:1px"/><path d="M205.609 170.512q-1.75 0-2.89-.734-1.126-.75-1.688-2.094-.547-1.36-.547-3.156 0-2.032.656-3.485t1.938-2.234q1.28-.781 3.156-.781.89 0 1.562.187.672.172 1.36.516l-.813 2.015q-.625-.312-1.172-.437-.531-.125-1.015-.125-1.172 0-1.875.531t-1 1.484-.297 2.22q0 2.015.718 2.983.72.954 2.313.954.594 0 1.219-.157.625-.156 1.453-.53v2.218q-.735.312-1.531.469-.782.156-1.547.156"/><text x="220.14" y="168.437" font-family="sans-serif" font-size="14" textLength="31.391">Pera</text><path d="M192.14 179.59h61.391M192.14 187.59h61.391" style="stroke:#181818;stroke-width:.5px"/></g><g id="elem_Golden"><rect id="Golden" width="81.677" height="48" x="7" y="255.59" fill="#F1F1F1" rx="2.5" ry="2.5" style="stroke:#181818;stroke-width:.5px"/><circle cx="22" cy="271.59" r="11" fill="#ADD1B2" style="stroke:#181818;stroke-width:1px"/><path d="M21.469 278.512q-1.75 0-2.89-.735-1.126-.75-1.688-2.093-.547-1.36-.547-3.157 0-2.03.656-3.484.656-1.453 1.938-2.234 1.28-.782 3.156-.782.89 0 1.562.188.672.172 1.36.516l-.813 2.015q-.625-.312-1.172-.437-.531-.125-1.015-.125-1.172 0-1.875.531t-1 1.484-.297 2.22q0 2.015.718 2.983.72.954 2.313.954.594 0 1.219-.157.625-.156 1.453-.53v2.218q-.735.312-1.531.469-.782.156-1.547.156"/><text x="36" y="276.437" font-family="sans-serif" font-size="14" textLength="49.677">Golden</text><path d="M8 287.59h79.677M8 295.59h79.677" style="stroke:#181818;stroke-width:.5px"/></g><g id="elem_PinkLady"><rect id="PinkLady" width="94.863" height="48" x="123.41" y="255.59" fill="#F1F1F1" rx="2.5" ry="2.5" style="stroke:#181818;stroke-width:.5px"/><circle cx="138.41" cy="271.59" r="11" fill="#ADD1B2" style="stroke:#181818;stroke-width:1px"/><path d="M137.879 278.512q-1.75 0-2.89-.735-1.126-.75-1.688-2.093-.547-1.36-.547-3.157 0-2.03.656-3.484.656-1.453 1.938-2.234 1.28-.782 3.156-.782.89 0 1.562.188.672.172 1.36.516l-.813 2.015q-.625-.312-1.172-.437-.531-.125-1.015-.125-1.172 0-1.875.531t-1 1.484-.297 2.22q0 2.015.719 2.983.718.954 2.312.954.594 0 1.219-.157.625-.156 1.453-.53v2.218q-.734.312-1.531.469-.782.156-1.547.156"/><text x="152.41" y="276.437" font-family="sans-serif" font-size="14" textLength="62.863">PinkLady</text><path d="M124.41 287.59h92.863M124.41 295.59h92.863" style="stroke:#181818;stroke-width:.5px"/></g><g id="link_Fruta_Manzana" fill="transparent"><path id="Fruta-backto-Manzana" d="M139.728 104.316c-9.1 19.53-12.158 26.084-19.948 42.794" style="stroke:#181818;stroke-width:1px"/><path d="m147.33 88-13.04 13.782 10.876 5.068z" style="stroke:#181818;stroke-width:1px"/></g><g id="link_Fruta_Pera" fill="transparent"><path id="Fruta-backto-Pera" d="M191.95 104.313c9.11 19.53 12.16 26.087 19.95 42.797" style="stroke:#181818;stroke-width:1px"/><path d="m184.34 88 2.172 18.849 10.875-5.073z" style="stroke:#181818;stroke-width:1px"/></g><g id="link_Manzana_Golden" fill="transparent"><path id="Manzana-backto-Golden" d="M86.475 211.453A85825 85825 0 0 1 61.19 255.38" style="stroke:#181818;stroke-width:1px"/><path d="m95.45 195.85-14.176 12.611 10.402 5.983z" style="stroke:#181818;stroke-width:1px"/></g><g id="link_Manzana_PinkLady" fill="transparent"><path id="Manzana-backto-PinkLady" d="M131.527 211.388c10.34 17.68 15.403 26.332 25.733 43.992" style="stroke:#181818;stroke-width:1px"/><path d="m122.44 195.85 3.908 18.567 10.358-6.058z" style="stroke:#181818;stroke-width:1px"/></g></svg>