<svg xmlns="http://www.w3.org/2000/svg" height="411" preserveAspectRatio="none" style="background:#fff;width:100px;height:411px" width="100"><g id="elem_Entity"><rect fill="#F1F1F1" height="86.136" id="Entity" rx="2.5" ry="2.5" style="stroke:#181818;stroke-width:.5px" width="68" x="16" y="7"/><circle cx="31" cy="23" fill="#A9DCDF" style="stroke:#181818;stroke-width:1px" r="11"/><path d="m26.172 28.75 3.344-12.188h3.14l3.375 12.188h-2.468l-.735-3.016h-3.516l-.75 3.016h-2.39Zm4.406-8.047-.75 3h2.516l-.719-3q-.14-.578-.266-1.125-.125-.562-.265-1.14-.11.578-.25 1.14-.14.547-.266 1.125Z"/><text font-family="sans-serif" font-size="14" font-style="italic" textLength="36" x="45" y="28.432">Entity</text><path style="stroke:#181818;stroke-width:.5px" d="M17 39h66"/><path fill="none" style="stroke:#c82930;stroke-width:1px" d="M24 51.034h6v6h-6z"/><text font-family="sans-serif" font-size="14" textLength="13" x="36" y="57.966">id</text><path style="stroke:#181818;stroke-width:.5px" d="M17 66.068h66"/><circle cx="27" cy="81.102" fill="#84BE84" style="stroke:#038048;stroke-width:1px" r="3"/><text font-family="sans-serif" font-size="14" font-style="italic" textLength="30" x="36" y="85.034">tick()</text></g><g id="elem_Movable"><rect fill="#F1F1F1" height="124.272" id="Movable" rx="2.5" ry="2.5" style="stroke:#181818;stroke-width:.5px" width="86" x="7" y="153.14"/><circle cx="22" cy="169.14" fill="#A9DCDF" style="stroke:#181818;stroke-width:1px" r="11"/><path d="m17.172 174.89 3.344-12.188h3.14l3.375 12.188h-2.468l-.735-3.016h-3.515l-.75 3.016h-2.391Zm4.406-8.047-.75 3h2.516l-.719-3q-.14-.578-.266-1.125-.125-.562-.265-1.14-.11.578-.25 1.14-.14.547-.266 1.125Z"/><text font-family="sans-serif" font-size="14" font-style="italic" textLength="54" x="36" y="174.572">Movable</text><path style="stroke:#181818;stroke-width:.5px" d="M8 185.14h84"/><path fill="none" style="stroke:#c82930;stroke-width:1px" d="M15 197.174h6v6h-6z"/><text font-family="sans-serif" font-size="14" textLength="14" x="27" y="204.106">vx</text><path fill="none" style="stroke:#c82930;stroke-width:1px" d="M15 216.242h6v6h-6z"/><text font-family="sans-serif" font-size="14" textLength="14" x="27" y="223.174">vy</text><text font-family="sans-serif" font-size="14" textLength="12" x="27" y="242.242">-x</text><text font-family="sans-serif" font-size="14" textLength="12" x="27" y="261.31">-y</text><path style="stroke:#181818;stroke-width:.5px" d="M8 269.412h84"/></g><g id="elem_Enemy"><rect fill="#F1F1F1" height="67.068" id="Enemy" rx="2.5" ry="2.5" style="stroke:#181818;stroke-width:.5px" width="86" x="7" y="337.41"/><circle cx="27.85" cy="353.41" fill="#A9DCDF" style="stroke:#181818;stroke-width:1px" r="11"/><path d="m23.022 359.16 3.344-12.188h3.14l3.375 12.188h-2.468l-.735-3.016h-3.515l-.75 3.016h-2.391Zm4.406-8.047-.75 3h2.516l-.719-3q-.14-.578-.266-1.125-.125-.562-.265-1.14-.11.578-.25 1.14-.14.547-.266 1.125Z"/><text font-family="sans-serif" font-size="14" font-style="italic" textLength="41" x="43.15" y="358.842">Enemy</text><path style="stroke:#181818;stroke-width:.5px" d="M8 369.41h84"/><path fill="none" style="stroke:#c82930;stroke-width:1px" d="M15 381.444h6v6h-6z"/><text font-family="sans-serif" font-size="14" textLength="60" x="27" y="388.376">objective</text><path style="stroke:#181818;stroke-width:.5px" d="M8 396.478h84"/></g><g id="link_Entity_Movable" fill="none"><path d="M50 111.53v41.14" id="Entity-backto-Movable" style="stroke:#181818;stroke-width:1px"/><path style="stroke:#181818;stroke-width:1px" d="m50 93.53-6 18h12l-6-18z"/></g><g id="link_Movable_Enemy" fill="none"><path d="M50 295.89v41.12" id="Movable-backto-Enemy" style="stroke:#181818;stroke-width:1px"/><path style="stroke:#181818;stroke-width:1px" d="m50 277.89-6 18h12l-6-18z"/></g></svg>