<svg xmlns="http://www.w3.org/2000/svg" width="256" height="316" preserveAspectRatio="none" style="background:#fff;width:256px;height:316px"><g id="elem_Fruta"><rect id="Fruta" width="93.802" height="86.136" x="115.82" y="7" fill="#F1F1F1" rx="2.5" ry="2.5" style="stroke:#181818;stroke-width:.5px"/><circle cx="143.057" cy="23" r="11" fill="#ADD1B2" style="stroke:#181818;stroke-width:1px"/><path d="M142.526 29.922q-1.75 0-2.89-.735-1.126-.75-1.688-2.093-.547-1.36-.547-3.157 0-2.03.656-3.484.657-1.453 1.938-2.234 1.281-.782 3.156-.782.89 0 1.563.188.671.172 1.359.516l-.813 2.015q-.625-.312-1.171-.437-.532-.125-1.016-.125-1.172 0-1.875.531t-1 1.484-.297 2.22q0 2.015.719 2.983.719.954 2.312.954.594 0 1.219-.157.625-.156 1.453-.53v2.218q-.734.312-1.531.469-.781.156-1.547.156"/><text x="159.777" y="28.432" font-family="sans-serif" font-size="14" textLength="34.608">Fruta</text><path d="M116.82 39h91.802" style="stroke:#181818;stroke-width:.5px"/><text x="121.82" y="57.966" font-family="sans-serif" font-size="14" textLength="71.932">int tamaño</text><path d="M116.82 66.068h91.802" style="stroke:#181818;stroke-width:.5px"/><text x="121.82" y="85.034" font-family="sans-serif" font-size="14" textLength="81.802">void comer()</text></g><g id="elem_Manzana"><rect id="Manzana" width="92.144" height="48" x="60.64" y="153.14" fill="#F1F1F1" rx="2.5" ry="2.5" style="stroke:#181818;stroke-width:.5px"/><circle cx="75.64" cy="169.14" r="11" fill="#ADD1B2" style="stroke:#181818;stroke-width:1px"/><path d="M75.109 176.062q-1.75 0-2.89-.735-1.126-.75-1.688-2.093-.547-1.36-.547-3.157 0-2.03.656-3.484.656-1.453 1.938-2.234 1.28-.782 3.156-.782.89 0 1.562.188.672.172 1.36.516l-.813 2.015q-.625-.312-1.172-.437-.531-.125-1.015-.125-1.172 0-1.875.531t-1 1.484-.297 2.22q0 2.015.719 2.983.718.954 2.312.954.594 0 1.219-.157.625-.156 1.453-.53v2.218q-.734.312-1.531.469-.782.156-1.547.156"/><text x="89.64" y="174.572" font-family="sans-serif" font-size="14" textLength="60.144">Manzana</text><path d="M61.64 185.14h90.144M61.64 193.14h90.144" style="stroke:#181818;stroke-width:.5px"/></g><g id="elem_Pera"><rect id="Pera" width="62.002" height="48" x="187.71" y="153.14" fill="#F1F1F1" rx="2.5" ry="2.5" style="stroke:#181818;stroke-width:.5px"/><circle cx="202.71" cy="169.14" r="11" fill="#ADD1B2" style="stroke:#181818;stroke-width:1px"/><path d="M202.179 176.062q-1.75 0-2.89-.735-1.126-.75-1.688-2.093-.547-1.36-.547-3.157 0-2.03.656-3.484.656-1.453 1.938-2.234 1.28-.782 3.156-.782.89 0 1.562.188.672.172 1.36.516l-.813 2.015q-.625-.312-1.172-.437-.531-.125-1.015-.125-1.172 0-1.875.531t-1 1.484-.297 2.22q0 2.015.719 2.983.718.954 2.312.954.594 0 1.219-.157.625-.156 1.453-.53v2.218q-.734.312-1.531.469-.782.156-1.547.156"/><text x="216.71" y="174.572" font-family="sans-serif" font-size="14" textLength="30.002">Pera</text><path d="M188.71 185.14h60.002M188.71 193.14h60.002" style="stroke:#181818;stroke-width:.5px"/></g><g id="elem_Golden"><rect id="Golden" width="79.432" height="48" x="7" y="261.14" fill="#F1F1F1" rx="2.5" ry="2.5" style="stroke:#181818;stroke-width:.5px"/><circle cx="22" cy="277.14" r="11" fill="#ADD1B2" style="stroke:#181818;stroke-width:1px"/><path d="M21.469 284.062q-1.75 0-2.89-.735-1.126-.75-1.688-2.093-.547-1.36-.547-3.156 0-2.032.656-3.485t1.938-2.234q1.28-.781 3.156-.781.89 0 1.562.187.672.172 1.36.516l-.813 2.015q-.625-.312-1.172-.437-.531-.125-1.015-.125-1.172 0-1.875.531t-1 1.484-.297 2.22q0 2.015.718 2.983.72.954 2.313.954.594 0 1.219-.157.625-.156 1.453-.53v2.218q-.735.312-1.531.469-.782.156-1.547.156"/><text x="36" y="282.572" font-family="sans-serif" font-size="14" textLength="47.432">Golden</text><path d="M8 293.14h77.432M8 301.14h77.432" style="stroke:#181818;stroke-width:.5px"/></g><g id="elem_PinkLady"><rect id="PinkLady" width="91.15" height="48" x="121.14" y="261.14" fill="#F1F1F1" rx="2.5" ry="2.5" style="stroke:#181818;stroke-width:.5px"/><circle cx="136.14" cy="277.14" r="11" fill="#ADD1B2" style="stroke:#181818;stroke-width:1px"/><path d="M135.609 284.062q-1.75 0-2.89-.735-1.126-.75-1.688-2.093-.547-1.36-.547-3.156 0-2.032.656-3.485t1.938-2.234q1.28-.781 3.156-.781.89 0 1.562.187.672.172 1.36.516l-.813 2.015q-.625-.312-1.172-.437-.531-.125-1.015-.125-1.172 0-1.875.531t-1 1.484-.297 2.22q0 2.015.718 2.983.72.954 2.313.954.594 0 1.219-.157.625-.156 1.453-.53v2.218q-.735.312-1.531.469-.782.156-1.547.156"/><text x="150.14" y="282.572" font-family="sans-serif" font-size="14" textLength="59.15">PinkLady</text><path d="M122.14 293.14h89.15M122.14 301.14h89.15" style="stroke:#181818;stroke-width:.5px"/></g><g id="link_Fruta_Manzana" fill="none"><path id="Fruta-backto-Manzana" d="M136.403 109.838c-8.89 19.85-11.773 26.302-19.233 42.962" style="stroke:#181818;stroke-width:1px"/><path d="m143.76 93.41-12.833 13.975 10.952 4.905z" style="stroke:#181818;stroke-width:1px"/></g><g id="link_Fruta_Pera" fill="none"><path id="Fruta-backto-Pera" d="M189.027 109.838c8.89 19.85 11.773 26.302 19.233 42.962" style="stroke:#181818;stroke-width:1px"/><path d="m181.67 93.41 1.881 18.88 10.952-4.905z" style="stroke:#181818;stroke-width:1px"/></g><g id="link_Manzana_Golden" fill="none"><path id="Manzana-backto-Golden" d="M84.682 217.064c-10.01 17.68-14.832 26.206-24.832 43.866" style="stroke:#181818;stroke-width:1px"/><path d="m93.55 201.4-14.09 12.708 10.443 5.912z" style="stroke:#181818;stroke-width:1px"/></g><g id="link_Manzana_PinkLady" fill="none"><path id="Manzana-backto-PinkLady" d="M128.748 217.064c10.01 17.68 14.832 26.206 24.832 43.866" style="stroke:#181818;stroke-width:1px"/><path d="m119.88 201.4 3.647 18.62 10.443-5.912z" style="stroke:#181818;stroke-width:1px"/></g></svg>