<svg xmlns="http://www.w3.org/2000/svg" width="98" height="411" preserveAspectRatio="none" style="background:#fff;width:98px;height:411px"><g id="elem_Entity"><rect id="Entity" width="66.748" height="86.136" x="16.12" y="7" fill="#F1F1F1" rx="2.5" ry="2.5" style="stroke:#181818;stroke-width:.5px"/><circle cx="31.12" cy="23" r="11" fill="#A9DCDF" style="stroke:#181818;stroke-width:1px"/><path d="m26.292 28.75 3.344-12.187h3.14l3.375 12.187h-2.469l-.734-3.016h-3.515l-.75 3.016zm4.406-8.047-.75 3h2.516l-.719-3q-.14-.578-.266-1.125-.125-.562-.265-1.14-.11.578-.25 1.14-.14.547-.266 1.125"/><text x="45.12" y="28.432" font-family="sans-serif" font-size="14" font-style="italic" textLength="34.748">Entity</text><path d="M17.12 39h64.748" style="stroke:#181818;stroke-width:.5px"/><path fill="none" d="M24.12 51.034h6v6h-6z" style="stroke:#c82930;stroke-width:1px"/><text x="36.12" y="57.966" font-family="sans-serif" font-size="14" textLength="12.222">id</text><path d="M17.12 66.068h64.748" style="stroke:#181818;stroke-width:.5px"/><circle cx="27.12" cy="81.102" r="3" fill="#84BE84" style="stroke:#038048;stroke-width:1px"/><text x="36.12" y="85.034" font-family="sans-serif" font-size="14" font-style="italic" textLength="29.652">tick()</text></g><g id="elem_Movable"><rect id="Movable" width="84.85" height="124.272" x="7.07" y="153.14" fill="#F1F1F1" rx="2.5" ry="2.5" style="stroke:#181818;stroke-width:.5px"/><circle cx="22.07" cy="169.14" r="11" fill="#A9DCDF" style="stroke:#181818;stroke-width:1px"/><path d="m17.242 174.89 3.344-12.187h3.14l3.375 12.187h-2.468l-.735-3.016h-3.515l-.75 3.016zm4.406-8.047-.75 3h2.516l-.719-3q-.14-.578-.266-1.125-.125-.562-.265-1.14-.11.578-.25 1.14-.14.547-.266 1.125"/><text x="36.07" y="174.572" font-family="sans-serif" font-size="14" font-style="italic" textLength="52.85">Movable</text><path d="M8.07 185.14h82.85" style="stroke:#181818;stroke-width:.5px"/><path fill="none" d="M15.07 197.174h6v6h-6z" style="stroke:#c82930;stroke-width:1px"/><text x="27.07" y="204.106" font-family="sans-serif" font-size="14" textLength="14.518">vx</text><path fill="none" d="M15.07 216.242h6v6h-6z" style="stroke:#c82930;stroke-width:1px"/><text x="27.07" y="223.174" font-family="sans-serif" font-size="14" textLength="14.252">vy</text><text x="27.07" y="242.242" font-family="sans-serif" font-size="14" textLength="11.914">-x</text><text x="27.07" y="261.31" font-family="sans-serif" font-size="14" textLength="11.648">-y</text><path d="M8.07 269.412h82.85" style="stroke:#181818;stroke-width:.5px"/></g><g id="elem_Enemy"><rect id="Enemy" width="84.982" height="67.068" x="7" y="337.41" fill="#F1F1F1" rx="2.5" ry="2.5" style="stroke:#181818;stroke-width:.5px"/><circle cx="27.358" cy="353.41" r="11" fill="#A9DCDF" style="stroke:#181818;stroke-width:1px"/><path d="m22.53 359.16 3.343-12.187h3.14l3.376 12.187H29.92l-.734-3.016H25.67l-.75 3.016zm4.406-8.047-.75 3H28.7l-.718-3q-.141-.578-.266-1.125-.125-.562-.266-1.14-.109.578-.25 1.14-.14.547-.265 1.125"/><text x="42.548" y="358.842" font-family="sans-serif" font-size="14" font-style="italic" textLength="41.076">Enemy</text><path d="M8 369.41h82.982" style="stroke:#181818;stroke-width:.5px"/><path fill="none" d="M15 381.444h6v6h-6z" style="stroke:#c82930;stroke-width:1px"/><text x="27" y="388.376" font-family="sans-serif" font-size="14" textLength="58.982">objective</text><path d="M8 396.478h82.982" style="stroke:#181818;stroke-width:.5px"/></g><g id="link_Entity_Movable" fill="none"><path id="Entity-backto-Movable" d="M49.49 111.53v41.14" style="stroke:#181818;stroke-width:1px"/><path d="m49.49 93.53-6 18h12z" style="stroke:#181818;stroke-width:1px"/></g><g id="link_Movable_Enemy" fill="none"><path id="Movable-backto-Enemy" d="M49.49 295.89v41.12" style="stroke:#181818;stroke-width:1px"/><path d="m49.49 277.89-6 18h12z" style="stroke:#181818;stroke-width:1px"/></g></svg>