<svg xmlns="http://www.w3.org/2000/svg" width="256" height="405" preserveAspectRatio="none" style="background:#fff;width:256px;height:405px"><g id="elem_EsComible"><rect id="EsComible" width="100.628" height="67.068" x="112.4" y="7" fill="#F1F1F1" rx="2.5" ry="2.5" style="stroke:#181818;stroke-width:.5px"/><circle cx="127.4" cy="23" r="11" fill="#ADD1B2" style="stroke:#181818;stroke-width:1px"/><path d="M126.869 29.922q-1.75 0-2.89-.735-1.126-.75-1.688-2.093-.547-1.36-.547-3.157 0-2.03.656-3.484.656-1.453 1.938-2.234 1.28-.782 3.156-.782.89 0 1.562.188.672.172 1.36.516l-.813 2.015q-.625-.312-1.172-.437-.531-.125-1.015-.125-1.172 0-1.875.531t-1 1.484-.297 2.22q0 2.015.719 2.983.718.954 2.312.954.594 0 1.219-.157.625-.156 1.453-.53v2.218q-.734.312-1.531.469-.782.156-1.547.156"/><text x="141.4" y="28.432" font-family="sans-serif" font-size="14" textLength="68.628">EsComible</text><path d="M113.4 39h98.628M113.4 47h98.628" style="stroke:#181818;stroke-width:.5px"/><text x="118.4" y="65.966" font-family="sans-serif" font-size="14" textLength="81.802">void comer()</text></g><g id="elem_Fruta"><rect id="Fruta" width="66.608" height="48" x="129.41" y="134.07" fill="#F1F1F1" rx="2.5" ry="2.5" style="stroke:#181818;stroke-width:.5px"/><circle cx="144.41" cy="150.07" r="11" fill="#ADD1B2" style="stroke:#181818;stroke-width:1px"/><path d="M143.879 156.992q-1.75 0-2.89-.734-1.126-.75-1.688-2.094-.547-1.36-.547-3.156 0-2.032.656-3.485t1.938-2.234q1.28-.781 3.156-.781.89 0 1.562.187.672.172 1.36.516l-.813 2.015q-.625-.312-1.172-.437-.531-.125-1.015-.125-1.172 0-1.875.531t-1 1.484-.297 2.22q0 2.015.719 2.983.718.954 2.312.954.594 0 1.219-.157.625-.156 1.453-.53v2.218q-.734.312-1.531.469-.782.156-1.547.156"/><text x="158.41" y="155.502" font-family="sans-serif" font-size="14" textLength="34.608">Fruta</text><path d="M130.41 166.07h64.608M130.41 174.07h64.608" style="stroke:#181818;stroke-width:.5px"/></g><g id="elem_Manzana"><rect id="Manzana" width="92.144" height="48" x="60.64" y="242.07" fill="#F1F1F1" rx="2.5" ry="2.5" style="stroke:#181818;stroke-width:.5px"/><circle cx="75.64" cy="258.07" r="11" fill="#ADD1B2" style="stroke:#181818;stroke-width:1px"/><path d="M75.109 264.992q-1.75 0-2.89-.735-1.126-.75-1.688-2.093-.547-1.36-.547-3.156 0-2.032.656-3.485t1.938-2.234q1.28-.781 3.156-.781.89 0 1.562.187.672.172 1.36.516l-.813 2.015q-.625-.312-1.172-.437-.531-.125-1.015-.125-1.172 0-1.875.531t-1 1.484-.297 2.22q0 2.015.719 2.983.718.954 2.312.954.594 0 1.219-.157.625-.156 1.453-.53v2.218q-.734.312-1.531.469-.782.156-1.547.156"/><text x="89.64" y="263.502" font-family="sans-serif" font-size="14" textLength="60.144">Manzana</text><path d="M61.64 274.07h90.144M61.64 282.07h90.144" style="stroke:#181818;stroke-width:.5px"/></g><g id="elem_Pera"><rect id="Pera" width="62.002" height="48" x="187.71" y="242.07" fill="#F1F1F1" rx="2.5" ry="2.5" style="stroke:#181818;stroke-width:.5px"/><circle cx="202.71" cy="258.07" r="11" fill="#ADD1B2" style="stroke:#181818;stroke-width:1px"/><path d="M202.179 264.992q-1.75 0-2.89-.735-1.126-.75-1.688-2.093-.547-1.36-.547-3.156 0-2.032.656-3.485t1.938-2.234q1.28-.781 3.156-.781.89 0 1.562.187.672.172 1.36.516l-.813 2.015q-.625-.312-1.172-.437-.531-.125-1.015-.125-1.172 0-1.875.531t-1 1.484-.297 2.22q0 2.015.719 2.983.718.954 2.312.954.594 0 1.219-.157.625-.156 1.453-.53v2.218q-.734.312-1.531.469-.782.156-1.547.156"/><text x="216.71" y="263.502" font-family="sans-serif" font-size="14" textLength="30.002">Pera</text><path d="M188.71 274.07h60.002M188.71 282.07h60.002" style="stroke:#181818;stroke-width:.5px"/></g><g id="elem_Golden"><rect id="Golden" width="79.432" height="48" x="7" y="350.07" fill="#F1F1F1" rx="2.5" ry="2.5" style="stroke:#181818;stroke-width:.5px"/><circle cx="22" cy="366.07" r="11" fill="#ADD1B2" style="stroke:#181818;stroke-width:1px"/><path d="M21.469 372.992q-1.75 0-2.89-.735-1.126-.75-1.688-2.093-.547-1.36-.547-3.156 0-2.032.656-3.485t1.938-2.234q1.28-.781 3.156-.781.89 0 1.562.187.672.172 1.36.516l-.813 2.015q-.625-.312-1.172-.437-.531-.125-1.015-.125-1.172 0-1.875.531t-1 1.484-.297 2.22q0 2.015.718 2.983.72.954 2.313.954.594 0 1.219-.157.625-.156 1.453-.53v2.218q-.735.312-1.531.469-.782.156-1.547.156"/><text x="36" y="371.502" font-family="sans-serif" font-size="14" textLength="47.432">Golden</text><path d="M8 382.07h77.432M8 390.07h77.432" style="stroke:#181818;stroke-width:.5px"/></g><g id="elem_PinkLady"><rect id="PinkLady" width="91.15" height="48" x="121.14" y="350.07" fill="#F1F1F1" rx="2.5" ry="2.5" style="stroke:#181818;stroke-width:.5px"/><circle cx="136.14" cy="366.07" r="11" fill="#ADD1B2" style="stroke:#181818;stroke-width:1px"/><path d="M135.609 372.992q-1.75 0-2.89-.735-1.126-.75-1.688-2.093-.547-1.36-.547-3.156 0-2.032.656-3.485t1.938-2.234q1.28-.781 3.156-.781.89 0 1.562.187.672.172 1.36.516l-.813 2.015q-.625-.312-1.172-.437-.531-.125-1.015-.125-1.172 0-1.875.531t-1 1.484-.297 2.22q0 2.015.718 2.983.72.954 2.313.954.594 0 1.219-.157.625-.156 1.453-.53v2.218q-.735.312-1.531.469-.782.156-1.547.156"/><text x="150.14" y="371.502" font-family="sans-serif" font-size="14" textLength="59.15">PinkLady</text><path d="M122.14 382.07h89.15M122.14 390.07h89.15" style="stroke:#181818;stroke-width:.5px"/></g><g id="link_Fruta_Manzana" fill="none"><path id="Fruta-backto-Manzana" d="M142.022 198.246 118.98 241.86" style="stroke:#181818;stroke-width:1px"/><path d="m150.43 182.33-13.713 13.113 10.61 5.605z" style="stroke:#181818;stroke-width:1px"/></g><g id="link_Fruta_Pera" fill="none"><path id="Fruta-backto-Pera" d="M183.41 198.25c9.33 17.68 13.72 25.95 23.05 43.61" style="stroke:#181818;stroke-width:1px"/><path d="m175.01 182.33 3.094 18.72 10.613-5.601z" style="stroke:#181818;stroke-width:1px"/></g><g id="link_EsComible_Fruta" fill="none"><path id="EsComible-backto-Fruta" d="M162.72 92.33v41.4" style="stroke:#181818;stroke-width:1px;stroke-dasharray:7 7"/><path d="m162.72 74.33-6 18h12z" style="stroke:#181818;stroke-width:1px"/></g><g id="link_Manzana_Golden" fill="none"><path id="Manzana-backto-Golden" d="M84.682 305.994C74.672 323.674 69.85 332.2 59.85 349.86" style="stroke:#181818;stroke-width:1px"/><path d="m93.55 290.33-14.09 12.708 10.443 5.912z" style="stroke:#181818;stroke-width:1px"/></g><g id="link_Manzana_PinkLady" fill="none"><path id="Manzana-backto-PinkLady" d="M128.748 305.994c10.01 17.68 14.832 26.206 24.832 43.866" style="stroke:#181818;stroke-width:1px"/><path d="m119.88 290.33 3.647 18.62 10.443-5.912z" style="stroke:#181818;stroke-width:1px"/></g></svg>