<svg xmlns="http://www.w3.org/2000/svg" data-diagram-type="CLASS" height="402" preserveAspectRatio="none" style="background:#fff;width:261px;height:402px" width="261"><g id="elem_EsComible"><rect fill="#F1F1F1" height="64.297" id="EsComible" rx="2.5" ry="2.5" style="stroke:#181818;stroke-width:.5px" width="105.397" x="113.14" y="7"/><circle cx="128.14" cy="23" fill="#ADD1B2" style="stroke:#181818;stroke-width:1px" r="11"/><path d="M127.609 29.922q-1.75 0-2.89-.735-1.126-.75-1.688-2.093-.547-1.36-.547-3.157 0-2.03.656-3.484.656-1.453 1.938-2.234 1.28-.782 3.156-.782.89 0 1.562.188.672.172 1.36.516l-.813 2.015q-.625-.312-1.172-.437-.531-.125-1.015-.125-1.172 0-1.875.531-.704.531-1 1.484-.297.953-.297 2.22 0 2.015.719 2.983.718.954 2.312.954.594 0 1.219-.157.625-.156 1.453-.53v2.218q-.735.312-1.531.469-.782.156-1.547.156Z"/><text font-family="sans-serif" font-size="14" textLength="73.397" x="142.14" y="27.847">EsComible</text><path style="stroke:#181818;stroke-width:.5px" d="M114.14 39h103.397M114.14 47h103.397"/><text font-family="sans-serif" font-size="14" textLength="89.27" x="119.14" y="63.995">void comer()</text></g><g id="elem_Fruta"><rect fill="#F1F1F1" height="48" id="Fruta" rx="2.5" ry="2.5" style="stroke:#181818;stroke-width:.5px" width="68.75" x="131.46" y="131.3"/><circle cx="146.46" cy="147.3" fill="#ADD1B2" style="stroke:#181818;stroke-width:1px" r="11"/><path d="M145.929 154.222q-1.75 0-2.89-.734-1.126-.75-1.688-2.094-.547-1.36-.547-3.156 0-2.032.656-3.485.656-1.453 1.938-2.234 1.28-.781 3.156-.781.89 0 1.562.187.672.172 1.36.516l-.813 2.015q-.625-.312-1.172-.437-.531-.125-1.015-.125-1.172 0-1.875.531-.703.531-1 1.484-.297.954-.297 2.22 0 2.015.719 2.984.718.953 2.312.953.594 0 1.219-.157.625-.156 1.453-.53v2.218q-.734.312-1.531.469-.782.156-1.547.156Z"/><text font-family="sans-serif" font-size="14" textLength="36.75" x="160.46" y="152.147">Fruta</text><path style="stroke:#181818;stroke-width:.5px" d="M132.46 163.3h66.75M132.46 171.3h66.75"/></g><g id="elem_Manzana"><rect fill="#F1F1F1" height="48" id="Manzana" rx="2.5" ry="2.5" style="stroke:#181818;stroke-width:.5px" width="94.911" x="61.38" y="239.3"/><circle cx="76.38" cy="255.3" fill="#ADD1B2" style="stroke:#181818;stroke-width:1px" r="11"/><path d="M75.849 262.222q-1.75 0-2.89-.734-1.126-.75-1.688-2.094-.547-1.36-.547-3.156 0-2.032.656-3.485.656-1.453 1.938-2.234 1.28-.781 3.156-.781.89 0 1.562.187.672.172 1.36.516l-.813 2.015q-.625-.312-1.172-.437-.531-.125-1.015-.125-1.172 0-1.875.531-.704.531-1 1.484-.297.954-.297 2.22 0 2.015.718 2.983.72.954 2.313.954.594 0 1.219-.157.625-.156 1.453-.53v2.218q-.735.312-1.531.469-.782.156-1.547.156Z"/><text font-family="sans-serif" font-size="14" textLength="62.911" x="90.38" y="260.147">Manzana</text><path style="stroke:#181818;stroke-width:.5px" d="M62.38 271.3h92.911M62.38 279.3h92.911"/></g><g id="elem_Pera"><rect fill="#F1F1F1" height="48" id="Pera" rx="2.5" ry="2.5" style="stroke:#181818;stroke-width:.5px" width="63.391" x="191.14" y="239.3"/><circle cx="206.14" cy="255.3" fill="#ADD1B2" style="stroke:#181818;stroke-width:1px" r="11"/><path d="M205.609 262.222q-1.75 0-2.89-.734-1.126-.75-1.688-2.094-.547-1.36-.547-3.156 0-2.032.656-3.485.656-1.453 1.938-2.234 1.28-.781 3.156-.781.89 0 1.562.187.672.172 1.36.516l-.813 2.015q-.625-.312-1.172-.437-.531-.125-1.015-.125-1.172 0-1.875.531-.704.531-1 1.484-.297.954-.297 2.22 0 2.015.718 2.983.72.954 2.313.954.594 0 1.219-.157.625-.156 1.453-.53v2.218q-.735.312-1.531.469-.782.156-1.547.156Z"/><text font-family="sans-serif" font-size="14" textLength="31.391" x="220.14" y="260.147">Pera</text><path style="stroke:#181818;stroke-width:.5px" d="M192.14 271.3h61.391M192.14 279.3h61.391"/></g><g id="elem_Golden"><rect fill="#F1F1F1" height="48" id="Golden" rx="2.5" ry="2.5" style="stroke:#181818;stroke-width:.5px" width="81.677" x="7" y="347.3"/><circle cx="22" cy="363.3" fill="#ADD1B2" style="stroke:#181818;stroke-width:1px" r="11"/><path d="M21.469 370.222q-1.75 0-2.89-.734-1.126-.75-1.688-2.094-.547-1.36-.547-3.156 0-2.032.656-3.485.656-1.453 1.938-2.234 1.28-.781 3.156-.781.89 0 1.562.187.672.172 1.36.516l-.813 2.015q-.625-.312-1.172-.437-.531-.125-1.015-.125-1.172 0-1.875.531-.703.531-1 1.484-.297.954-.297 2.22 0 2.015.718 2.983.72.954 2.313.954.594 0 1.219-.157.625-.156 1.453-.53v2.218q-.735.312-1.531.469-.782.156-1.547.156Z"/><text font-family="sans-serif" font-size="14" textLength="49.677" x="36" y="368.147">Golden</text><path style="stroke:#181818;stroke-width:.5px" d="M8 379.3h79.677M8 387.3h79.677"/></g><g id="elem_PinkLady"><rect fill="#F1F1F1" height="48" id="PinkLady" rx="2.5" ry="2.5" style="stroke:#181818;stroke-width:.5px" width="94.863" x="123.41" y="347.3"/><circle cx="138.41" cy="363.3" fill="#ADD1B2" style="stroke:#181818;stroke-width:1px" r="11"/><path d="M137.879 370.222q-1.75 0-2.89-.734-1.126-.75-1.688-2.094-.547-1.36-.547-3.156 0-2.032.656-3.485.656-1.453 1.938-2.234 1.28-.781 3.156-.781.89 0 1.562.187.672.172 1.36.516l-.813 2.015q-.625-.312-1.172-.437-.531-.125-1.015-.125-1.172 0-1.875.531-.703.531-1 1.484-.297.954-.297 2.22 0 2.015.719 2.983.718.954 2.312.954.594 0 1.219-.157.625-.156 1.453-.53v2.218q-.734.312-1.531.469-.782.156-1.547.156Z"/><text font-family="sans-serif" font-size="14" textLength="62.863" x="152.41" y="368.147">PinkLady</text><path style="stroke:#181818;stroke-width:.5px" d="M124.41 379.3h92.863M124.41 387.3h92.863"/></g><g id="link_Fruta_Manzana" fill="transparent"><path d="M144.81 195.416c-9.5 17.68-14 26.014-23.49 43.674" id="Fruta-backto-Manzana" style="stroke:#181818;stroke-width:1px"/><path style="stroke:#181818;stroke-width:1px" d="m153.33 179.56-13.805 13.016 10.57 5.68 3.235-18.696z"/></g><g id="link_Fruta_Pera" fill="transparent"><path d="M186.87 195.416c9.5 17.68 13.99 26.014 23.49 43.674" id="Fruta-backto-Pera" style="stroke:#181818;stroke-width:1px"/><path style="stroke:#181818;stroke-width:1px" d="m178.35 179.56 3.235 18.696 10.57-5.68-13.805-13.016z"/></g><g id="link_EsComible_Fruta" fill="transparent"><path d="M165.84 89.65v41.23" id="EsComible-backto-Fruta" style="stroke:#181818;stroke-width:1px;stroke-dasharray:7 7"/><path style="stroke:#181818;stroke-width:1px" d="m165.84 71.65-6 18h12l-6-18z"/></g><g id="link_Manzana_Golden" fill="transparent"><path d="M86.475 303.163A85825.165 85825.165 0 0 1 61.19 347.09" id="Manzana-backto-Golden" style="stroke:#181818;stroke-width:1px"/><path style="stroke:#181818;stroke-width:1px" d="m95.45 287.56-14.176 12.611 10.402 5.983 3.774-18.594z"/></g><g id="link_Manzana_PinkLady" fill="transparent"><path d="M131.527 303.098c10.34 17.68 15.403 26.332 25.733 43.992" id="Manzana-backto-PinkLady" style="stroke:#181818;stroke-width:1px"/><path style="stroke:#181818;stroke-width:1px" d="m122.44 287.56 3.908 18.567 10.358-6.058-14.266-12.509z"/></g></svg>