<svg xmlns="http://www.w3.org/2000/svg" width="261" height="402" data-diagram-type="CLASS" preserveAspectRatio="none" style="background:#fff;width:261px;height:402px"><g id="elem_EsComible"><rect id="EsComible" width="105.397" height="64.297" x="113.14" y="7" fill="#F1F1F1" rx="2.5" ry="2.5" style="stroke:#181818;stroke-width:.5px"/><circle cx="128.14" cy="23" r="11" fill="#ADD1B2" style="stroke:#181818;stroke-width:1px"/><path d="M127.609 29.922q-1.75 0-2.89-.735-1.126-.75-1.688-2.093-.547-1.36-.547-3.157 0-2.03.656-3.484.656-1.453 1.938-2.234 1.28-.782 3.156-.782.89 0 1.562.188.672.172 1.36.516l-.813 2.015q-.625-.312-1.172-.437-.531-.125-1.015-.125-1.172 0-1.875.531t-1 1.484-.297 2.22q0 2.015.719 2.983.718.954 2.312.954.594 0 1.219-.157.625-.156 1.453-.53v2.218q-.735.312-1.531.469-.782.156-1.547.156"/><text x="142.14" y="27.847" font-family="sans-serif" font-size="14" textLength="73.397">EsComible</text><path d="M114.14 39h103.397M114.14 47h103.397" style="stroke:#181818;stroke-width:.5px"/><text x="119.14" y="63.995" font-family="sans-serif" font-size="14" textLength="89.27">void comer()</text></g><g id="elem_Fruta"><rect id="Fruta" width="68.75" height="48" x="131.46" y="131.3" fill="#F1F1F1" rx="2.5" ry="2.5" style="stroke:#181818;stroke-width:.5px"/><circle cx="146.46" cy="147.3" r="11" fill="#ADD1B2" style="stroke:#181818;stroke-width:1px"/><path d="M145.929 154.222q-1.75 0-2.89-.734-1.126-.75-1.688-2.094-.547-1.36-.547-3.156 0-2.032.656-3.485t1.938-2.234q1.28-.781 3.156-.781.89 0 1.562.187.672.172 1.36.516l-.813 2.015q-.625-.312-1.172-.437-.531-.125-1.015-.125-1.172 0-1.875.531t-1 1.484-.297 2.22q0 2.015.719 2.984.718.953 2.312.953.594 0 1.219-.157.625-.156 1.453-.53v2.218q-.734.312-1.531.469-.782.156-1.547.156"/><text x="160.46" y="152.147" font-family="sans-serif" font-size="14" textLength="36.75">Fruta</text><path d="M132.46 163.3h66.75M132.46 171.3h66.75" style="stroke:#181818;stroke-width:.5px"/></g><g id="elem_Manzana"><rect id="Manzana" width="94.911" height="48" x="61.38" y="239.3" fill="#F1F1F1" rx="2.5" ry="2.5" style="stroke:#181818;stroke-width:.5px"/><circle cx="76.38" cy="255.3" r="11" fill="#ADD1B2" style="stroke:#181818;stroke-width:1px"/><path d="M75.849 262.222q-1.75 0-2.89-.734-1.126-.75-1.688-2.094-.547-1.36-.547-3.156 0-2.032.656-3.485t1.938-2.234q1.28-.781 3.156-.781.89 0 1.562.187.672.172 1.36.516l-.813 2.015q-.625-.312-1.172-.437-.531-.125-1.015-.125-1.172 0-1.875.531t-1 1.484-.297 2.22q0 2.015.718 2.983.72.954 2.313.954.594 0 1.219-.157.625-.156 1.453-.53v2.218q-.735.312-1.531.469-.782.156-1.547.156"/><text x="90.38" y="260.147" font-family="sans-serif" font-size="14" textLength="62.911">Manzana</text><path d="M62.38 271.3h92.911M62.38 279.3h92.911" style="stroke:#181818;stroke-width:.5px"/></g><g id="elem_Pera"><rect id="Pera" width="63.391" height="48" x="191.14" y="239.3" fill="#F1F1F1" rx="2.5" ry="2.5" style="stroke:#181818;stroke-width:.5px"/><circle cx="206.14" cy="255.3" r="11" fill="#ADD1B2" style="stroke:#181818;stroke-width:1px"/><path d="M205.609 262.222q-1.75 0-2.89-.734-1.126-.75-1.688-2.094-.547-1.36-.547-3.156 0-2.032.656-3.485t1.938-2.234q1.28-.781 3.156-.781.89 0 1.562.187.672.172 1.36.516l-.813 2.015q-.625-.312-1.172-.437-.531-.125-1.015-.125-1.172 0-1.875.531t-1 1.484-.297 2.22q0 2.015.718 2.983.72.954 2.313.954.594 0 1.219-.157.625-.156 1.453-.53v2.218q-.735.312-1.531.469-.782.156-1.547.156"/><text x="220.14" y="260.147" font-family="sans-serif" font-size="14" textLength="31.391">Pera</text><path d="M192.14 271.3h61.391M192.14 279.3h61.391" style="stroke:#181818;stroke-width:.5px"/></g><g id="elem_Golden"><rect id="Golden" width="81.677" height="48" x="7" y="347.3" fill="#F1F1F1" rx="2.5" ry="2.5" style="stroke:#181818;stroke-width:.5px"/><circle cx="22" cy="363.3" r="11" fill="#ADD1B2" style="stroke:#181818;stroke-width:1px"/><path d="M21.469 370.222q-1.75 0-2.89-.734-1.126-.75-1.688-2.094-.547-1.36-.547-3.156 0-2.032.656-3.485t1.938-2.234q1.28-.781 3.156-.781.89 0 1.562.187.672.172 1.36.516l-.813 2.015q-.625-.312-1.172-.437-.531-.125-1.015-.125-1.172 0-1.875.531t-1 1.484-.297 2.22q0 2.015.718 2.983.72.954 2.313.954.594 0 1.219-.157.625-.156 1.453-.53v2.218q-.735.312-1.531.469-.782.156-1.547.156"/><text x="36" y="368.147" font-family="sans-serif" font-size="14" textLength="49.677">Golden</text><path d="M8 379.3h79.677M8 387.3h79.677" style="stroke:#181818;stroke-width:.5px"/></g><g id="elem_PinkLady"><rect id="PinkLady" width="94.863" height="48" x="123.41" y="347.3" fill="#F1F1F1" rx="2.5" ry="2.5" style="stroke:#181818;stroke-width:.5px"/><circle cx="138.41" cy="363.3" r="11" fill="#ADD1B2" style="stroke:#181818;stroke-width:1px"/><path d="M137.879 370.222q-1.75 0-2.89-.734-1.126-.75-1.688-2.094-.547-1.36-.547-3.156 0-2.032.656-3.485t1.938-2.234q1.28-.781 3.156-.781.89 0 1.562.187.672.172 1.36.516l-.813 2.015q-.625-.312-1.172-.437-.531-.125-1.015-.125-1.172 0-1.875.531t-1 1.484-.297 2.22q0 2.015.719 2.983.718.954 2.312.954.594 0 1.219-.157.625-.156 1.453-.53v2.218q-.734.312-1.531.469-.782.156-1.547.156"/><text x="152.41" y="368.147" font-family="sans-serif" font-size="14" textLength="62.863">PinkLady</text><path d="M124.41 379.3h92.863M124.41 387.3h92.863" style="stroke:#181818;stroke-width:.5px"/></g><g id="link_Fruta_Manzana" fill="transparent"><path id="Fruta-backto-Manzana" d="M144.81 195.416c-9.5 17.68-14 26.014-23.49 43.674" style="stroke:#181818;stroke-width:1px"/><path d="m153.33 179.56-13.805 13.016 10.57 5.68z" style="stroke:#181818;stroke-width:1px"/></g><g id="link_Fruta_Pera" fill="transparent"><path id="Fruta-backto-Pera" d="M186.87 195.416c9.5 17.68 13.99 26.014 23.49 43.674" style="stroke:#181818;stroke-width:1px"/><path d="m178.35 179.56 3.235 18.696 10.57-5.68z" style="stroke:#181818;stroke-width:1px"/></g><g id="link_EsComible_Fruta" fill="transparent"><path id="EsComible-backto-Fruta" d="M165.84 89.65v41.23" style="stroke:#181818;stroke-width:1px;stroke-dasharray:7 7"/><path d="m165.84 71.65-6 18h12z" style="stroke:#181818;stroke-width:1px"/></g><g id="link_Manzana_Golden" fill="transparent"><path id="Manzana-backto-Golden" d="M86.475 303.163A85825 85825 0 0 1 61.19 347.09" style="stroke:#181818;stroke-width:1px"/><path d="m95.45 287.56-14.176 12.611 10.402 5.983z" style="stroke:#181818;stroke-width:1px"/></g><g id="link_Manzana_PinkLady" fill="transparent"><path id="Manzana-backto-PinkLady" d="M131.527 303.098c10.34 17.68 15.403 26.332 25.733 43.992" style="stroke:#181818;stroke-width:1px"/><path d="m122.44 287.56 3.908 18.567 10.358-6.058z" style="stroke:#181818;stroke-width:1px"/></g></svg>