<svg xmlns="http://www.w3.org/2000/svg" height="405" preserveAspectRatio="none" style="background:#fff;width:258px;height:405px" width="258"><g id="elem_EsComible"><rect fill="#F1F1F1" height="67.068" id="EsComible" rx="2.5" ry="2.5" style="stroke:#181818;stroke-width:.5px" width="102" x="112" y="7"/><circle cx="127" cy="23" fill="#ADD1B2" style="stroke:#181818;stroke-width:1px" r="11"/><path d="M126.469 29.922q-1.75 0-2.89-.735-1.126-.75-1.688-2.093-.547-1.36-.547-3.157 0-2.03.656-3.484.656-1.453 1.938-2.234 1.28-.782 3.156-.782.89 0 1.562.188.672.172 1.36.516l-.813 2.015q-.625-.312-1.172-.437-.531-.125-1.015-.125-1.172 0-1.875.531-.704.531-1 1.484-.297.953-.297 2.22 0 2.015.719 2.983.718.954 2.312.954.594 0 1.219-.157.625-.156 1.453-.53v2.218q-.734.312-1.531.469-.782.156-1.547.156Z"/><text font-family="sans-serif" font-size="14" textLength="70" x="141" y="28.432">EsComible</text><path style="stroke:#181818;stroke-width:.5px" d="M113 39h100M113 47h100"/><text font-family="sans-serif" font-size="14" textLength="82" x="118" y="65.966">void comer()</text></g><g id="elem_Fruta"><rect fill="#F1F1F1" height="48" id="Fruta" rx="2.5" ry="2.5" style="stroke:#181818;stroke-width:.5px" width="67" x="129.5" y="134.07"/><circle cx="144.5" cy="150.07" fill="#ADD1B2" style="stroke:#181818;stroke-width:1px" r="11"/><path d="M143.969 156.992q-1.75 0-2.89-.734-1.126-.75-1.688-2.094-.547-1.36-.547-3.156 0-2.032.656-3.485.656-1.453 1.938-2.234 1.28-.781 3.156-.781.89 0 1.562.187.672.172 1.36.516l-.813 2.015q-.625-.312-1.172-.437-.531-.125-1.015-.125-1.172 0-1.875.531-.703.531-1 1.484-.297.953-.297 2.22 0 2.015.719 2.983.718.954 2.312.954.594 0 1.219-.157.625-.156 1.453-.53v2.218q-.734.312-1.531.469-.782.156-1.547.156Z"/><text font-family="sans-serif" font-size="14" textLength="35" x="158.5" y="155.502">Fruta</text><path style="stroke:#181818;stroke-width:.5px" d="M130.5 166.07h65M130.5 174.07h65"/></g><g id="elem_Manzana"><rect fill="#F1F1F1" height="48" id="Manzana" rx="2.5" ry="2.5" style="stroke:#181818;stroke-width:.5px" width="94" x="60" y="242.07"/><circle cx="75" cy="258.07" fill="#ADD1B2" style="stroke:#181818;stroke-width:1px" r="11"/><path d="M74.469 264.992q-1.75 0-2.89-.735-1.126-.75-1.688-2.093-.547-1.36-.547-3.156 0-2.032.656-3.485.656-1.453 1.938-2.234 1.28-.781 3.156-.781.89 0 1.562.187.672.172 1.36.516l-.813 2.015q-.625-.312-1.172-.437-.531-.125-1.015-.125-1.172 0-1.875.531-.704.531-1 1.484-.297.954-.297 2.22 0 2.015.719 2.983.718.954 2.312.954.594 0 1.219-.157.625-.156 1.453-.53v2.218q-.734.312-1.531.469-.782.156-1.547.156Z"/><text font-family="sans-serif" font-size="14" textLength="62" x="89" y="263.502">Manzana</text><path style="stroke:#181818;stroke-width:.5px" d="M61 274.07h92M61 282.07h92"/></g><g id="elem_Pera"><rect fill="#F1F1F1" height="48" id="Pera" rx="2.5" ry="2.5" style="stroke:#181818;stroke-width:.5px" width="62" x="189" y="242.07"/><circle cx="204" cy="258.07" fill="#ADD1B2" style="stroke:#181818;stroke-width:1px" r="11"/><path d="M203.469 264.992q-1.75 0-2.89-.735-1.126-.75-1.688-2.093-.547-1.36-.547-3.156 0-2.032.656-3.485.656-1.453 1.938-2.234 1.28-.781 3.156-.781.89 0 1.562.187.672.172 1.36.516l-.813 2.015q-.625-.312-1.172-.437-.531-.125-1.015-.125-1.172 0-1.875.531-.703.531-1 1.484-.297.954-.297 2.22 0 2.015.719 2.983.718.954 2.312.954.594 0 1.219-.157.625-.156 1.453-.53v2.218q-.734.312-1.531.469-.782.156-1.547.156Z"/><text font-family="sans-serif" font-size="14" textLength="30" x="218" y="263.502">Pera</text><path style="stroke:#181818;stroke-width:.5px" d="M190 274.07h60M190 282.07h60"/></g><g id="elem_Golden"><rect fill="#F1F1F1" height="48" id="Golden" rx="2.5" ry="2.5" style="stroke:#181818;stroke-width:.5px" width="80" x="7" y="350.07"/><circle cx="22" cy="366.07" fill="#ADD1B2" style="stroke:#181818;stroke-width:1px" r="11"/><path d="M21.469 372.992q-1.75 0-2.89-.735-1.126-.75-1.688-2.093-.547-1.36-.547-3.156 0-2.032.656-3.485.656-1.453 1.938-2.234 1.28-.781 3.156-.781.89 0 1.562.187.672.172 1.36.516l-.813 2.015q-.625-.312-1.172-.437-.531-.125-1.015-.125-1.172 0-1.875.531-.703.531-1 1.484-.297.954-.297 2.22 0 2.015.718 2.983.72.954 2.313.954.594 0 1.219-.157.625-.156 1.453-.53v2.218q-.735.312-1.531.469-.782.156-1.547.156Z"/><text font-family="sans-serif" font-size="14" textLength="48" x="36" y="371.502">Golden</text><path style="stroke:#181818;stroke-width:.5px" d="M8 382.07h78M8 390.07h78"/></g><g id="elem_PinkLady"><rect fill="#F1F1F1" height="48" id="PinkLady" rx="2.5" ry="2.5" style="stroke:#181818;stroke-width:.5px" width="91" x="122.5" y="350.07"/><circle cx="137.5" cy="366.07" fill="#ADD1B2" style="stroke:#181818;stroke-width:1px" r="11"/><path d="M136.969 372.992q-1.75 0-2.89-.735-1.126-.75-1.688-2.093-.547-1.36-.547-3.156 0-2.032.656-3.485.656-1.453 1.938-2.234 1.28-.781 3.156-.781.89 0 1.562.187.672.172 1.36.516l-.813 2.015q-.625-.312-1.172-.437-.531-.125-1.015-.125-1.172 0-1.875.531-.703.531-1 1.484-.297.954-.297 2.22 0 2.015.719 2.983.718.954 2.312.954.594 0 1.219-.157.625-.156 1.453-.53v2.218q-.734.312-1.531.469-.782.156-1.547.156Z"/><text font-family="sans-serif" font-size="14" textLength="59" x="151.5" y="371.502">PinkLady</text><path style="stroke:#181818;stroke-width:.5px" d="M123.5 382.07h89M123.5 390.07h89"/></g><g id="link_Fruta_Manzana" fill="none"><path d="M142.302 198.246 119.26 241.86" id="Fruta-backto-Manzana" style="stroke:#181818;stroke-width:1px"/><path style="stroke:#181818;stroke-width:1px" d="m150.71 182.33-13.713 13.113 10.61 5.605 3.103-18.718z"/></g><g id="link_Fruta_Pera" fill="none"><path d="M184.03 198.186c9.5 17.68 13.99 26.014 23.49 43.674" id="Fruta-backto-Pera" style="stroke:#181818;stroke-width:1px"/><path style="stroke:#181818;stroke-width:1px" d="m175.51 182.33 3.235 18.696 10.57-5.68-13.805-13.016z"/></g><g id="link_EsComible_Fruta" fill="none"><path d="M163 92.33v41.4" id="EsComible-backto-Fruta" style="stroke:#181818;stroke-width:1px;stroke-dasharray:7 7"/><path style="stroke:#181818;stroke-width:1px" d="m163 74.33-6 18h12l-6-18z"/></g><g id="link_Manzana_Golden" fill="none"><path d="M84.968 305.998c-10 17.68-14.838 26.202-24.828 43.862" id="Manzana-backto-Golden" style="stroke:#181818;stroke-width:1px"/><path style="stroke:#181818;stroke-width:1px" d="m93.83 290.33-14.084 12.714 10.445 5.907 3.639-18.621z"/></g><g id="link_Manzana_PinkLady" fill="none"><path d="M129.365 305.933c10.17 17.68 15.115 26.267 25.275 43.927" id="Manzana-backto-PinkLady" style="stroke:#181818;stroke-width:1px"/><path style="stroke:#181818;stroke-width:1px" d="m120.39 290.33 3.774 18.595 10.402-5.984-14.176-12.611z"/></g></svg>