<svg xmlns="http://www.w3.org/2000/svg" width="122" height="101" data-diagram-type="CLASS" preserveAspectRatio="none" style="background:#fff;width:122px;height:101px"><g id="elem_Fruta"><rect id="Fruta" width="101.27" height="80.594" x="7" y="7" fill="#F1F1F1" rx="2.5" ry="2.5" style="stroke:#181818;stroke-width:.5px"/><circle cx="36.634" cy="23" r="11" fill="#ADD1B2" style="stroke:#181818;stroke-width:1px"/><path d="M36.103 29.922q-1.75 0-2.89-.735-1.126-.75-1.688-2.093-.547-1.36-.547-3.157 0-2.03.656-3.484.657-1.453 1.938-2.234 1.281-.782 3.156-.782.89 0 1.563.188.671.172 1.359.516l-.813 2.015q-.625-.312-1.172-.437-.53-.125-1.015-.125-1.172 0-1.875.531t-1 1.484-.297 2.22q0 2.015.719 2.983.718.954 2.312.954.594 0 1.219-.157.625-.156 1.453-.53v2.218q-.734.312-1.531.469-.781.156-1.547.156"/><text x="53.886" y="27.847" font-family="sans-serif" font-size="14" textLength="36.75">Fruta</text><path d="M8 39h99.27" style="stroke:#181818;stroke-width:.5px"/><text x="13" y="55.995" font-family="sans-serif" font-size="14" textLength="76.426">int tamaño</text><path d="M8 63.297h99.27" style="stroke:#181818;stroke-width:.5px"/><text x="13" y="80.292" font-family="sans-serif" font-size="14" textLength="89.27">void comer()</text></g></svg>