<svg xmlns="http://www.w3.org/2000/svg" width="147" height="290" preserveAspectRatio="none" style="background:#fff;width:147px;height:290px"><g id="elem_Object"><rect id="Object" width="74.826" height="32" x="36.4" y="7" fill="#F1F1F1" rx="2.5" ry="2.5" style="stroke:#181818;stroke-width:.5px"/><circle cx="51.4" cy="23" r="11" fill="#ADD1B2" style="stroke:#181818;stroke-width:1px"/><path d="M50.869 29.922q-1.75 0-2.89-.735-1.126-.75-1.688-2.093-.547-1.36-.547-3.157 0-2.03.656-3.484.656-1.453 1.938-2.234 1.28-.782 3.156-.782.89 0 1.562.188.672.172 1.36.516l-.813 2.015q-.625-.312-1.172-.437-.531-.125-1.015-.125-1.172 0-1.875.531t-1 1.484-.297 2.22q0 2.015.718 2.983.72.954 2.313.954.594 0 1.219-.157.625-.156 1.453-.53v2.218q-.735.312-1.531.469-.782.156-1.547.156"/><text x="65.4" y="28.432" font-family="sans-serif" font-size="14" textLength="42.826">Object</text></g><g id="elem_Sword"><rect id="Sword" width="73.552" height="32" x="37.03" y="100" fill="#F1F1F1" rx="2.5" ry="2.5" style="stroke:#181818;stroke-width:.5px"/><circle cx="52.03" cy="116" r="11" fill="#ADD1B2" style="stroke:#181818;stroke-width:1px"/><path d="M51.499 122.922q-1.75 0-2.89-.734-1.126-.75-1.688-2.094-.547-1.36-.547-3.156 0-2.032.656-3.485t1.938-2.234q1.28-.781 3.156-.781.89 0 1.562.187.672.172 1.36.516l-.813 2.015q-.625-.312-1.172-.437-.531-.125-1.015-.125-1.172 0-1.875.531t-1 1.484-.297 2.22q0 2.015.718 2.984.72.953 2.313.953.594 0 1.219-.157.625-.156 1.453-.53v2.218q-.734.312-1.531.469-.782.156-1.547.156"/><text x="66.03" y="121.432" font-family="sans-serif" font-size="14" textLength="41.552">Sword</text></g><g id="elem_Takeable"><rect id="Takeable" width="133.618" height="72.48" x="7" y="211" fill="#F1F1F1" rx="2.5" ry="2.5" style="stroke:#181818;stroke-width:.5px"/><circle cx="41.186" cy="233.706" r="11" fill="#ADD1B2" style="stroke:#181818;stroke-width:1px"/><path d="M40.655 240.628q-1.75 0-2.89-.734-1.126-.75-1.688-2.094-.547-1.36-.547-3.157 0-2.03.656-3.484.656-1.453 1.938-2.234 1.28-.782 3.156-.782.89 0 1.562.188.672.172 1.36.516l-.813 2.015q-.625-.312-1.172-.437-.53-.125-1.015-.125-1.172 0-1.875.531t-1 1.484-.297 2.22q0 2.015.719 2.983.718.954 2.312.954.594 0 1.219-.157.625-.156 1.453-.53v2.218q-.734.312-1.531.469-.782.156-1.547.156"/><text x="68.498" y="228.828" font-family="sans-serif" font-size="12" font-style="italic" textLength="40.884">«mixin»</text><text x="59.45" y="247.31" font-family="sans-serif" font-size="14" textLength="58.982">Takeable</text><path d="M8 256.412h131.618" style="stroke:#181818;stroke-width:.5px"/><circle cx="18" cy="271.446" r="3" fill="#84BE84" style="stroke:#038048;stroke-width:1px"/><text x="27" y="275.378" font-family="sans-serif" font-size="14" textLength="107.618">putInInventory()</text></g><g id="link_Object_Sword" fill="none"><path id="Object-backto-Sword" d="M73.81 57.44v42.35" style="stroke:#181818;stroke-width:1px"/><path d="m73.81 39.44-6 18h12z" style="stroke:#181818;stroke-width:1px"/></g><g id="link_Sword_Takeable"><path id="Sword-Takeable" fill="none" d="M73.81 132.33v78.37" style="stroke:#181818;stroke-width:1px"/><text x="74.81" y="176.897" font-family="sans-serif" font-size="13" textLength="39.13">assign</text></g></svg>