<svg xmlns="http://www.w3.org/2000/svg" height="290" preserveAspectRatio="none" style="background:#fff;width:149px;height:290px" width="149"><g id="elem_Object"><rect fill="#F1F1F1" height="32" id="Object" rx="2.5" ry="2.5" style="stroke:#181818;stroke-width:.5px" width="76" x="36.5" y="7"/><circle cx="51.5" cy="23" fill="#ADD1B2" style="stroke:#181818;stroke-width:1px" r="11"/><path d="M50.969 29.922q-1.75 0-2.89-.735-1.126-.75-1.688-2.093-.547-1.36-.547-3.157 0-2.03.656-3.484.656-1.453 1.938-2.234 1.28-.782 3.156-.782.89 0 1.562.188.672.172 1.36.516l-.813 2.015q-.625-.312-1.172-.437-.531-.125-1.015-.125-1.172 0-1.875.531-.703.531-1 1.484-.297.953-.297 2.22 0 2.015.718 2.983.72.954 2.313.954.594 0 1.219-.157.625-.156 1.453-.53v2.218q-.734.312-1.531.469-.782.156-1.547.156Z"/><text font-family="sans-serif" font-size="14" textLength="44" x="65.5" y="28.432">Object</text></g><g id="elem_Sword"><rect fill="#F1F1F1" height="32" id="Sword" rx="2.5" ry="2.5" style="stroke:#181818;stroke-width:.5px" width="74" x="37.5" y="100"/><circle cx="52.5" cy="116" fill="#ADD1B2" style="stroke:#181818;stroke-width:1px" r="11"/><path d="M51.969 122.922q-1.75 0-2.89-.734-1.126-.75-1.688-2.094-.547-1.36-.547-3.156 0-2.032.656-3.485.656-1.453 1.938-2.234 1.28-.781 3.156-.781.89 0 1.562.187.672.172 1.36.516l-.813 2.015q-.625-.312-1.172-.437-.531-.125-1.015-.125-1.172 0-1.875.531-.703.531-1 1.484-.297.954-.297 2.22 0 2.015.718 2.984.72.953 2.313.953.594 0 1.219-.157.625-.156 1.453-.53v2.218q-.734.312-1.531.469-.782.156-1.547.156Z"/><text font-family="sans-serif" font-size="14" textLength="42" x="66.5" y="121.432">Sword</text></g><g id="elem_Takeable"><rect fill="#F1F1F1" height="72.48" id="Takeable" rx="2.5" ry="2.5" style="stroke:#181818;stroke-width:.5px" width="135" x="7" y="211"/><circle cx="41.35" cy="233.706" fill="#ADD1B2" style="stroke:#181818;stroke-width:1px" r="11"/><path d="M40.819 240.628q-1.75 0-2.89-.734-1.126-.75-1.688-2.094-.547-1.36-.547-3.157 0-2.03.656-3.484.656-1.453 1.938-2.234 1.28-.782 3.156-.782.89 0 1.562.188.672.172 1.36.516l-.813 2.015q-.625-.312-1.172-.437-.531-.125-1.015-.125-1.172 0-1.875.531-.703.531-1 1.484-.297.953-.297 2.22 0 2.015.718 2.983.72.954 2.313.954.594 0 1.219-.157.625-.156 1.453-.53v2.218q-.734.312-1.531.469-.782.156-1.547.156Z"/><text font-family="sans-serif" font-size="12" font-style="italic" textLength="42" x="68.65" y="228.828">«mixin»</text><text font-family="sans-serif" font-size="14" textLength="60" x="59.65" y="247.31">Takeable</text><path style="stroke:#181818;stroke-width:.5px" d="M8 256.412h133"/><circle cx="18" cy="271.446" fill="#84BE84" style="stroke:#038048;stroke-width:1px" r="3"/><text font-family="sans-serif" font-size="14" textLength="109" x="27" y="275.378">putInInventory()</text></g><g id="link_Object_Sword" fill="none"><path d="M74.5 57.44v42.35" id="Object-backto-Sword" style="stroke:#181818;stroke-width:1px"/><path style="stroke:#181818;stroke-width:1px" d="m74.5 39.44-6 18h12l-6-18z"/></g><g id="link_Sword_Takeable"><path d="M74.5 132.33v78.37" fill="none" id="Sword-Takeable" style="stroke:#181818;stroke-width:1px"/><text font-family="sans-serif" font-size="13" textLength="38" x="75.5" y="176.897">assign</text></g></svg>