<svg xmlns="http://www.w3.org/2000/svg" data-diagram-type="CLASS" height="280" preserveAspectRatio="none" style="background:#fff;width:154px;height:280px" width="154"><g id="elem_Object"><rect fill="#F1F1F1" height="32" id="Object" rx="2.5" ry="2.5" style="stroke:#181818;stroke-width:.5px" width="77.596" x="38.22" y="7"/><circle cx="53.22" cy="23" fill="#ADD1B2" style="stroke:#181818;stroke-width:1px" r="11"/><path d="M52.689 29.922q-1.75 0-2.89-.735-1.126-.75-1.688-2.093-.547-1.36-.547-3.157 0-2.03.656-3.484.656-1.453 1.938-2.234 1.28-.782 3.156-.782.89 0 1.562.188.672.172 1.36.516l-.813 2.015q-.625-.312-1.172-.437-.531-.125-1.015-.125-1.172 0-1.875.531-.703.531-1 1.484-.297.953-.297 2.22 0 2.015.718 2.983.72.954 2.313.954.594 0 1.219-.157.625-.156 1.453-.53v2.218q-.735.312-1.531.469-.782.156-1.547.156Z"/><text font-family="sans-serif" font-size="14" textLength="45.596" x="67.22" y="27.847">Object</text></g><g id="elem_Sword"><rect fill="#F1F1F1" height="32" id="Sword" rx="2.5" ry="2.5" style="stroke:#181818;stroke-width:.5px" width="75.545" x="39.25" y="100"/><circle cx="54.25" cy="116" fill="#ADD1B2" style="stroke:#181818;stroke-width:1px" r="11"/><path d="M53.719 122.922q-1.75 0-2.89-.734-1.126-.75-1.688-2.094-.547-1.36-.547-3.156 0-2.032.656-3.485.656-1.453 1.938-2.234 1.28-.781 3.156-.781.89 0 1.562.187.672.172 1.36.516l-.813 2.015q-.625-.312-1.172-.437-.531-.125-1.015-.125-1.172 0-1.875.531-.703.531-1 1.484-.297.954-.297 2.22 0 2.015.718 2.984.72.953 2.313.953.594 0 1.219-.157.625-.156 1.453-.53v2.218q-.734.312-1.531.469-.782.156-1.547.156Z"/><text font-family="sans-serif" font-size="14" textLength="43.545" x="68.25" y="120.847">Sword</text></g><g id="elem_Takeable"><rect fill="#F1F1F1" height="64.563" id="Takeable" rx="2.5" ry="2.5" style="stroke:#181818;stroke-width:.5px" width="140.044" x="7" y="209"/><circle cx="41.901" cy="229.133" fill="#ADD1B2" style="stroke:#181818;stroke-width:1px" r="11"/><path d="M41.37 236.055q-1.75 0-2.891-.735-1.125-.75-1.688-2.093-.547-1.36-.547-3.157 0-2.03.657-3.484.656-1.453 1.937-2.234 1.281-.782 3.156-.782.891 0 1.563.188.672.172 1.36.515l-.813 2.016q-.625-.312-1.172-.437-.531-.125-1.016-.125-1.172 0-1.875.53-.703.532-1 1.485-.297.953-.297 2.219 0 2.016.72 2.984.718.953 2.312.953.593 0 1.218-.156t1.453-.531v2.219q-.734.312-1.53.468-.782.157-1.548.157Z"/><text font-family="sans-serif" font-size="12" font-style="italic" textLength="47.877" x="68.295" y="225.139">«mixin»</text><text font-family="sans-serif" font-size="14" textLength="63.82" x="60.323" y="240.964">Takeable</text><path style="stroke:#181818;stroke-width:.5px" d="M8 249.266h138.044"/><circle cx="18" cy="262.914" fill="#84BE84" style="stroke:#038048;stroke-width:1px" r="3"/><text font-family="sans-serif" font-size="14" textLength="114.044" x="27" y="266.261">putInInventory()</text></g><g id="link_Object_Sword" fill="transparent"><path d="M77.02 57.43v42.36" id="Object-backto-Sword" style="stroke:#181818;stroke-width:1px"/><path style="stroke:#181818;stroke-width:1px" d="m77.02 39.43-6 18h12l-6-18z"/></g><g id="link_Sword_Takeable"><path d="M77.02 132.36v76.21" fill="transparent" id="Sword-Takeable" style="stroke:#181818;stroke-width:1px"/><text font-family="sans-serif" font-size="13" textLength="41.615" x="78.02" y="175.067">assign</text></g></svg>