<svg xmlns="http://www.w3.org/2000/svg" height="208" preserveAspectRatio="none" style="background:#fff;width:237px;height:208px" width="237"><g id="elem_Fruta"><rect fill="#F1F1F1" height="86.136" id="Fruta" rx="2.5" ry="2.5" style="stroke:#181818;stroke-width:.5px" width="94" x="7" y="7"/><circle cx="34.15" cy="23" fill="#ADD1B2" style="stroke:#181818;stroke-width:1px" r="11"/><path d="M33.619 29.922q-1.75 0-2.89-.735-1.126-.75-1.688-2.093-.547-1.36-.547-3.157 0-2.03.656-3.484.656-1.453 1.938-2.234 1.28-.782 3.156-.782.89 0 1.562.188.672.172 1.36.516l-.813 2.015q-.625-.312-1.172-.437-.531-.125-1.015-.125-1.172 0-1.875.531-.703.531-1 1.484-.297.953-.297 2.22 0 2.015.718 2.983.72.954 2.313.954.594 0 1.219-.157.625-.156 1.453-.53v2.218q-.735.312-1.531.469-.782.156-1.547.156Z"/><text font-family="sans-serif" font-size="14" textLength="35" x="50.85" y="28.432">Fruta</text><path style="stroke:#181818;stroke-width:.5px" d="M8 39h92"/><text font-family="sans-serif" font-size="14" textLength="73" x="13" y="57.966">int tamaño</text><path style="stroke:#181818;stroke-width:.5px" d="M8 66.068h92"/><text font-family="sans-serif" font-size="14" textLength="82" x="13" y="85.034">void comer()</text></g><g id="elem_Manzana"><rect fill="#F1F1F1" height="48" id="Manzana" rx="2.5" ry="2.5" style="stroke:#181818;stroke-width:.5px" width="94" x="136" y="26.07"/><circle cx="151" cy="42.07" fill="#ADD1B2" style="stroke:#181818;stroke-width:1px" r="11"/><path d="M150.469 48.992q-1.75 0-2.89-.734-1.126-.75-1.688-2.094-.547-1.36-.547-3.157 0-2.03.656-3.484.656-1.453 1.938-2.234 1.28-.782 3.156-.782.89 0 1.562.188.672.172 1.36.516l-.813 2.015q-.625-.312-1.172-.437-.531-.125-1.015-.125-1.172 0-1.875.531-.703.531-1 1.484-.297.953-.297 2.22 0 2.015.719 2.983.718.954 2.312.954.594 0 1.219-.157.625-.156 1.453-.53v2.218q-.734.312-1.531.469-.782.156-1.547.156Z"/><text font-family="sans-serif" font-size="14" textLength="62" x="165" y="47.502">Manzana</text><path style="stroke:#181818;stroke-width:.5px" d="M137 58.07h92M137 66.07h92"/></g><g id="elem_Pera"><rect fill="#F1F1F1" height="48" id="Pera" rx="2.5" ry="2.5" style="stroke:#181818;stroke-width:.5px" width="62" x="23" y="153.14"/><circle cx="38" cy="169.14" fill="#ADD1B2" style="stroke:#181818;stroke-width:1px" r="11"/><path d="M37.469 176.062q-1.75 0-2.89-.735-1.126-.75-1.688-2.093-.547-1.36-.547-3.157 0-2.03.656-3.484.656-1.453 1.938-2.234 1.28-.782 3.156-.782.89 0 1.562.188.672.172 1.36.516l-.813 2.015q-.625-.312-1.172-.437-.531-.125-1.015-.125-1.172 0-1.875.531-.703.531-1 1.484-.297.953-.297 2.22 0 2.015.718 2.983.72.954 2.313.954.594 0 1.219-.157.625-.156 1.453-.53v2.218q-.734.312-1.531.469-.782.156-1.547.156Z"/><text font-family="sans-serif" font-size="14" textLength="30" x="52" y="174.572">Pera</text><path style="stroke:#181818;stroke-width:.5px" d="M24 185.14h60M24 193.14h60"/></g></svg>