<svg xmlns="http://www.w3.org/2000/svg" width="245" height="202" data-diagram-type="CLASS" preserveAspectRatio="none" style="background:#fff;width:245px;height:202px"><g id="elem_Fruta"><rect id="Fruta" width="101.27" height="80.594" x="7" y="7" fill="#F1F1F1" rx="2.5" ry="2.5" style="stroke:#181818;stroke-width:.5px"/><circle cx="36.634" cy="23" r="11" fill="#ADD1B2" style="stroke:#181818;stroke-width:1px"/><path d="M36.103 29.922q-1.75 0-2.89-.735-1.126-.75-1.688-2.093-.547-1.36-.547-3.157 0-2.03.656-3.484.657-1.453 1.938-2.234 1.281-.782 3.156-.782.89 0 1.563.188.671.172 1.359.516l-.813 2.015q-.625-.312-1.172-.437-.53-.125-1.015-.125-1.172 0-1.875.531t-1 1.484-.297 2.22q0 2.015.719 2.983.718.954 2.312.954.594 0 1.219-.157.625-.156 1.453-.53v2.218q-.734.312-1.531.469-.781.156-1.547.156"/><text x="53.886" y="27.847" font-family="sans-serif" font-size="14" textLength="36.75">Fruta</text><path d="M8 39h99.27" style="stroke:#181818;stroke-width:.5px"/><text x="13" y="55.995" font-family="sans-serif" font-size="14" textLength="76.426">int tamaño</text><path d="M8 63.297h99.27" style="stroke:#181818;stroke-width:.5px"/><text x="13" y="80.292" font-family="sans-serif" font-size="14" textLength="89.27">void comer()</text></g><g id="elem_Manzana"><rect id="Manzana" width="94.911" height="48" x="143.18" y="23.29" fill="#F1F1F1" rx="2.5" ry="2.5" style="stroke:#181818;stroke-width:.5px"/><circle cx="158.18" cy="39.29" r="11" fill="#ADD1B2" style="stroke:#181818;stroke-width:1px"/><path d="M157.649 46.212q-1.75 0-2.89-.735-1.126-.75-1.688-2.093-.547-1.36-.547-3.157 0-2.03.656-3.484.656-1.453 1.938-2.234 1.28-.782 3.156-.782.89 0 1.562.188.672.172 1.36.516l-.813 2.015q-.625-.312-1.172-.437-.531-.125-1.015-.125-1.172 0-1.875.531t-1 1.484-.297 2.22q0 2.015.719 2.983.718.954 2.312.954.594 0 1.219-.157.625-.156 1.453-.53v2.218q-.734.312-1.531.469-.782.156-1.547.156"/><text x="172.18" y="44.137" font-family="sans-serif" font-size="14" textLength="62.911">Manzana</text><path d="M144.18 55.29h92.911M144.18 63.29h92.911" style="stroke:#181818;stroke-width:.5px"/></g><g id="elem_Pera"><rect id="Pera" width="63.391" height="48" x="25.94" y="147.59" fill="#F1F1F1" rx="2.5" ry="2.5" style="stroke:#181818;stroke-width:.5px"/><circle cx="40.94" cy="163.59" r="11" fill="#ADD1B2" style="stroke:#181818;stroke-width:1px"/><path d="M40.409 170.512q-1.75 0-2.89-.734-1.126-.75-1.688-2.094-.547-1.36-.547-3.156 0-2.032.656-3.485t1.938-2.234q1.28-.781 3.156-.781.89 0 1.562.187.672.172 1.36.516l-.813 2.015q-.625-.312-1.172-.437-.531-.125-1.015-.125-1.172 0-1.875.531t-1 1.484-.297 2.22q0 2.015.718 2.983.72.954 2.313.954.594 0 1.219-.157.625-.156 1.453-.53v2.218q-.735.312-1.531.469-.782.156-1.547.156"/><text x="54.94" y="168.437" font-family="sans-serif" font-size="14" textLength="31.391">Pera</text><path d="M26.94 179.59h61.391M26.94 187.59h61.391" style="stroke:#181818;stroke-width:.5px"/></g></svg>