<svg xmlns="http://www.w3.org/2000/svg" width="234" height="208" preserveAspectRatio="none" style="background:#fff;width:234px;height:208px"><g id="elem_Fruta"><rect id="Fruta" width="93.802" height="86.136" x="7" y="7" fill="#F1F1F1" rx="2.5" ry="2.5" style="stroke:#181818;stroke-width:.5px"/><circle cx="34.237" cy="23" r="11" fill="#ADD1B2" style="stroke:#181818;stroke-width:1px"/><path d="M33.706 29.922q-1.75 0-2.89-.735-1.126-.75-1.688-2.093-.547-1.36-.547-3.157 0-2.03.656-3.484.657-1.453 1.938-2.234 1.281-.782 3.156-.782.89 0 1.563.188.671.172 1.359.516l-.813 2.015q-.625-.312-1.171-.437-.532-.125-1.016-.125-1.172 0-1.875.531t-1 1.484-.297 2.22q0 2.015.719 2.983.719.954 2.312.954.594 0 1.219-.157.625-.156 1.453-.53v2.218q-.734.312-1.531.469-.781.156-1.547.156"/><text x="50.957" y="28.432" font-family="sans-serif" font-size="14" textLength="34.608">Fruta</text><path d="M8 39h91.802" style="stroke:#181818;stroke-width:.5px"/><text x="13" y="57.966" font-family="sans-serif" font-size="14" textLength="71.932">int tamaño</text><path d="M8 66.068h91.802" style="stroke:#181818;stroke-width:.5px"/><text x="13" y="85.034" font-family="sans-serif" font-size="14" textLength="81.802">void comer()</text></g><g id="elem_Manzana"><rect id="Manzana" width="92.144" height="48" x="135.83" y="26.07" fill="#F1F1F1" rx="2.5" ry="2.5" style="stroke:#181818;stroke-width:.5px"/><circle cx="150.83" cy="42.07" r="11" fill="#ADD1B2" style="stroke:#181818;stroke-width:1px"/><path d="M150.299 48.992q-1.75 0-2.89-.734-1.126-.75-1.688-2.094-.547-1.36-.547-3.157 0-2.03.656-3.484.656-1.453 1.938-2.234 1.28-.782 3.156-.782.89 0 1.562.188.672.172 1.36.516l-.813 2.015q-.625-.312-1.172-.437-.531-.125-1.015-.125-1.172 0-1.875.531t-1 1.484-.297 2.22q0 2.015.719 2.983.718.954 2.312.954.594 0 1.219-.157.625-.156 1.453-.53v2.218q-.734.312-1.531.469-.782.156-1.547.156"/><text x="164.83" y="47.502" font-family="sans-serif" font-size="14" textLength="60.144">Manzana</text><path d="M136.83 58.07h90.144M136.83 66.07h90.144" style="stroke:#181818;stroke-width:.5px"/></g><g id="elem_Pera"><rect id="Pera" width="62.002" height="48" x="22.9" y="153.14" fill="#F1F1F1" rx="2.5" ry="2.5" style="stroke:#181818;stroke-width:.5px"/><circle cx="37.9" cy="169.14" r="11" fill="#ADD1B2" style="stroke:#181818;stroke-width:1px"/><path d="M37.369 176.062q-1.75 0-2.89-.735-1.126-.75-1.688-2.093-.547-1.36-.547-3.157 0-2.03.656-3.484.656-1.453 1.938-2.234 1.28-.782 3.156-.782.89 0 1.562.188.672.172 1.36.516l-.813 2.015q-.625-.312-1.172-.437-.531-.125-1.015-.125-1.172 0-1.875.531t-1 1.484-.297 2.22q0 2.015.718 2.983.72.954 2.313.954.594 0 1.219-.157.625-.156 1.453-.53v2.218q-.735.312-1.531.469-.782.156-1.547.156"/><text x="51.9" y="174.572" font-family="sans-serif" font-size="14" textLength="30.002">Pera</text><path d="M23.9 185.14h60.002M23.9 193.14h60.002" style="stroke:#181818;stroke-width:.5px"/></g></svg>