<svg xmlns="http://www.w3.org/2000/svg" height="414" preserveAspectRatio="none" style="background:#fff;width:462px;height:414px" width="462"><g id="elem_Manager"><rect fill="#F1F1F1" height="32" id="Manager" rx="2.5" ry="2.5" style="stroke:#181818;stroke-width:.5px" width="89" x="167.5" y="191"/><circle cx="182.5" cy="207" fill="#A9DCDF" style="stroke:#181818;stroke-width:1px" r="11"/><path d="m177.672 212.75 3.344-12.188h3.14l3.375 12.188h-2.469l-.734-3.016h-3.516l-.75 3.016h-2.39Zm4.406-8.047-.75 3h2.516l-.719-3q-.14-.578-.266-1.125-.125-.562-.265-1.14-.11.578-.25 1.14-.14.547-.266 1.125Z"/><text font-family="sans-serif" font-size="14" font-style="italic" textLength="57" x="196.5" y="212.432">Manager</text></g><g id="elem_Component"><rect fill="#F1F1F1" height="32" id="Component" rx="2.5" ry="2.5" style="stroke:#181818;stroke-width:.5px" width="104" x="7" y="283"/><circle cx="22" cy="299" fill="#A9DCDF" style="stroke:#181818;stroke-width:1px" r="11"/><path d="m17.172 304.75 3.344-12.188h3.14l3.375 12.188h-2.468l-.735-3.016h-3.515l-.75 3.016h-2.391Zm4.406-8.047-.75 3h2.516l-.719-3q-.14-.578-.266-1.125-.125-.562-.265-1.14-.11.578-.25 1.14-.14.547-.266 1.125Z"/><text font-family="sans-serif" font-size="14" font-style="italic" textLength="72" x="36" y="304.432">Component</text></g><g id="elem_PhysicsManager"><rect fill="#F1F1F1" height="32" id="PhysicsManager" rx="2.5" ry="2.5" style="stroke:#181818;stroke-width:.5px" width="142" x="313" y="283"/><circle cx="328" cy="299" fill="#ADD1B2" style="stroke:#181818;stroke-width:1px" r="11"/><path d="M327.469 305.922q-1.75 0-2.89-.735-1.126-.75-1.688-2.093-.547-1.36-.547-3.156 0-2.032.656-3.485.656-1.453 1.938-2.234 1.28-.781 3.156-.781.89 0 1.562.187.672.172 1.36.516l-.813 2.015q-.625-.312-1.172-.437-.531-.125-1.015-.125-1.172 0-1.875.531-.704.531-1 1.484-.297.954-.297 2.22 0 2.015.719 2.983.718.954 2.312.954.594 0 1.219-.157.625-.156 1.453-.53v2.218q-.735.312-1.531.469-.782.156-1.547.156Z"/><text font-family="sans-serif" font-size="14" textLength="110" x="342" y="304.432">PhysicsManager</text></g><g id="elem_AudioManager"><rect fill="#F1F1F1" height="32" id="AudioManager" rx="2.5" ry="2.5" style="stroke:#181818;stroke-width:.5px" width="132" x="146" y="283"/><circle cx="161" cy="299" fill="#ADD1B2" style="stroke:#181818;stroke-width:1px" r="11"/><path d="M160.469 305.922q-1.75 0-2.89-.735-1.126-.75-1.688-2.093-.547-1.36-.547-3.156 0-2.032.656-3.485.656-1.453 1.938-2.234 1.28-.781 3.156-.781.89 0 1.562.187.672.172 1.36.516l-.813 2.015q-.625-.312-1.172-.437-.531-.125-1.015-.125-1.172 0-1.875.531-.703.531-1 1.484-.297.954-.297 2.22 0 2.015.719 2.983.718.954 2.312.954.594 0 1.219-.157.625-.156 1.453-.53v2.218q-.734.312-1.531.469-.782.156-1.547.156Z"/><text font-family="sans-serif" font-size="14" textLength="100" x="175" y="304.432">AudioManager</text></g><g id="elem_Game"><rect fill="#F1F1F1" height="32" id="Game" rx="2.5" ry="2.5" style="stroke:#181818;stroke-width:.5px" width="71" x="100.5" y="7"/><circle cx="115.5" cy="23" fill="#ADD1B2" style="stroke:#181818;stroke-width:1px" r="11"/><path d="M114.969 29.922q-1.75 0-2.89-.735-1.126-.75-1.688-2.093-.547-1.36-.547-3.157 0-2.03.656-3.484.656-1.453 1.938-2.234 1.28-.782 3.156-.782.89 0 1.562.188.672.172 1.36.516l-.813 2.015q-.625-.312-1.172-.437-.531-.125-1.015-.125-1.172 0-1.875.531-.704.531-1 1.484-.297.953-.297 2.22 0 2.015.719 2.983.718.954 2.312.954.594 0 1.219-.157.625-.156 1.453-.53v2.218q-.734.312-1.531.469-.782.156-1.547.156Z"/><text font-family="sans-serif" font-size="14" textLength="39" x="129.5" y="28.432">Game</text></g><g id="elem_Scenario"><rect fill="#F1F1F1" height="32" id="Scenario" rx="2.5" ry="2.5" style="stroke:#181818;stroke-width:.5px" width="90" x="42" y="99"/><circle cx="57" cy="115" fill="#ADD1B2" style="stroke:#181818;stroke-width:1px" r="11"/><path d="M56.469 121.922q-1.75 0-2.89-.734-1.126-.75-1.688-2.094-.547-1.36-.547-3.156 0-2.032.656-3.485.656-1.453 1.938-2.234 1.28-.781 3.156-.781.89 0 1.562.187.672.172 1.36.516l-.813 2.015q-.625-.312-1.172-.437-.531-.125-1.015-.125-1.172 0-1.875.531-.703.531-1 1.484-.297.954-.297 2.22 0 2.015.718 2.984.72.953 2.313.953.594 0 1.219-.157.625-.156 1.453-.53v2.218q-.734.312-1.531.469-.782.156-1.547.156Z"/><text font-family="sans-serif" font-size="14" textLength="58" x="71" y="120.432">Scenario</text></g><g id="elem_Entity"><rect fill="#F1F1F1" height="32" id="Entity" rx="2.5" ry="2.5" style="stroke:#181818;stroke-width:.5px" width="70" x="44" y="191"/><circle cx="59" cy="207" fill="#ADD1B2" style="stroke:#181818;stroke-width:1px" r="11"/><path d="M58.469 213.922q-1.75 0-2.89-.734-1.126-.75-1.688-2.094-.547-1.36-.547-3.156 0-2.032.656-3.485.656-1.453 1.938-2.234 1.28-.781 3.156-.781.89 0 1.562.187.672.172 1.36.516l-.813 2.015q-.625-.312-1.172-.437-.531-.125-1.015-.125-1.172 0-1.875.531-.703.531-1 1.484-.297.953-.297 2.22 0 2.015.718 2.983.72.954 2.313.954.594 0 1.219-.157.625-.156 1.453-.53v2.218q-.734.312-1.531.469-.782.156-1.547.156Z"/><text font-family="sans-serif" font-size="14" textLength="38" x="73" y="212.432">Entity</text></g><g id="elem_PhysicsComponent"><rect fill="#F1F1F1" height="32" id="PhysicsComponent" rx="2.5" ry="2.5" style="stroke:#181818;stroke-width:.5px" width="159" x="270.5" y="375"/><circle cx="285.5" cy="391" fill="#ADD1B2" style="stroke:#181818;stroke-width:1px" r="11"/><path d="M284.969 397.922q-1.75 0-2.89-.735-1.126-.75-1.688-2.093-.547-1.36-.547-3.156 0-2.032.656-3.485.656-1.453 1.938-2.234 1.28-.781 3.156-.781.89 0 1.562.187.672.172 1.36.516l-.813 2.015q-.625-.312-1.172-.437-.531-.125-1.015-.125-1.172 0-1.875.531-.704.531-1 1.484-.297.954-.297 2.22 0 2.015.719 2.983.718.954 2.312.954.594 0 1.219-.157.625-.156 1.453-.53v2.218q-.735.312-1.531.469-.782.156-1.547.156Z"/><text font-family="sans-serif" font-size="14" textLength="127" x="299.5" y="396.432">PhysicsComponent</text></g><g id="elem_AudioComponent"><rect fill="#F1F1F1" height="32" id="AudioComponent" rx="2.5" ry="2.5" style="stroke:#181818;stroke-width:.5px" width="149" x="52.5" y="375"/><circle cx="67.5" cy="391" fill="#ADD1B2" style="stroke:#181818;stroke-width:1px" r="11"/><path d="M66.969 397.922q-1.75 0-2.89-.735-1.126-.75-1.688-2.093-.547-1.36-.547-3.156 0-2.032.656-3.485.656-1.453 1.938-2.234 1.28-.781 3.156-.781.89 0 1.562.187.672.172 1.36.516l-.813 2.015q-.625-.312-1.172-.437-.531-.125-1.015-.125-1.172 0-1.875.531-.704.531-1 1.484-.297.954-.297 2.22 0 2.015.719 2.983.718.954 2.312.954.594 0 1.219-.157.625-.156 1.453-.53v2.218q-.734.312-1.531.469-.782.156-1.547.156Z"/><text font-family="sans-serif" font-size="14" textLength="117" x="81.5" y="396.432">AudioComponent</text></g><g id="link_Manager_PhysicsManager" fill="none"><path d="M257.517 231.817c31.6 16.54 65.453 34.243 97.013 50.763" id="Manager-backto-PhysicsManager" style="stroke:#181818;stroke-width:1px"/><path style="stroke:#181818;stroke-width:1px" d="m241.57 223.47 13.165 13.663 5.565-10.632-18.73-3.031z"/></g><g id="link_Manager_AudioManager" fill="none"><path d="M212 241.27v41.39" id="Manager-backto-AudioManager" style="stroke:#181818;stroke-width:1px"/><path style="stroke:#181818;stroke-width:1px" d="m212 223.27-6 18h12l-6-18z"/></g><g id="link_Game_Manager"><path d="M146.972 50.274c14.3 34.26 44.308 106.096 58.648 140.436" fill="none" id="Game-backto-Manager" style="stroke:#181818;stroke-width:1px"/><path fill="#181818" style="stroke:#181818;stroke-width:1px" d="m142.35 39.2-1.38 7.078 6.002 3.996 1.38-7.078-6.002-3.996z"/><text font-family="sans-serif" font-size="13" textLength="7" x="136.223" y="60.77">1</text><text font-family="sans-serif" font-size="13" textLength="7" x="195.224" y="179.207">*</text></g><g id="link_Game_Scenario"><path d="M121.952 49.81c-9.01 16.55-17.572 32.27-26.602 48.85" fill="none" id="Game-backto-Scenario" style="stroke:#181818;stroke-width:1px"/><path fill="#181818" style="stroke:#181818;stroke-width:1px" d="m127.69 39.27-6.382 3.357.644 7.182 6.382-3.357-.644-7.182z"/></g><g id="link_Scenario_Entity"><path d="M84.578 143.223c-1.47 16.55-2.738 30.857-4.218 47.437" fill="none" id="Scenario-backto-Entity" style="stroke:#181818;stroke-width:1px"/><path fill="#181818" style="stroke:#181818;stroke-width:1px" d="m85.64 131.27-4.515 5.623 3.453 6.33 4.516-5.623-3.454-6.33z"/><text font-family="sans-serif" font-size="13" textLength="7" x="77.152" y="152.861">1</text><text font-family="sans-serif" font-size="13" textLength="34" x="40.984" y="179.14">many</text></g><g id="link_Entity_Component"><path d="M73.005 234.984c-3.68 16.55-6.915 31.096-10.595 47.676" fill="none" id="Entity-backto-Component" style="stroke:#181818;stroke-width:1px"/><path fill="#181818" style="stroke:#181818;stroke-width:1px" d="m75.61 223.27-5.207 4.989 2.602 6.725 5.207-4.989-2.602-6.725z"/><text font-family="sans-serif" font-size="13" textLength="7" x="66.5" y="244.861">1</text><text font-family="sans-serif" font-size="13" textLength="34" x="23.738" y="271.14">many</text></g><g id="link_Component_PhysicsComponent" fill="none"><path d="M126.216 320.79c53.47 16.54 120.524 37.27 173.924 53.79" id="Component-backto-PhysicsComponent" style="stroke:#181818;stroke-width:1px"/><path style="stroke:#181818;stroke-width:1px" d="m109.02 315.47 15.423 11.051 3.546-11.464-18.969.413z"/></g><g id="link_Component_AudioComponent" fill="none"><path d="M81.388 329.634c12.5 16.55 21.492 28.446 34.022 45.026" id="Component-backto-AudioComponent" style="stroke:#181818;stroke-width:1px"/><path style="stroke:#181818;stroke-width:1px" d="m70.54 315.27 6.06 17.98 9.576-7.233L70.54 315.27z"/></g><g id="link_PhysicsManager_PhysicsComponent"><path d="M378.23 315.27c-6.25 16.55-14.05 37.197-20.31 53.777" fill="none" id="PhysicsManager-to-PhysicsComponent" style="stroke:#181818;stroke-width:1px"/><path fill="#181818" style="stroke:#181818;stroke-width:1px" d="m355.8 374.66 6.921-7.007-5.155 2.33-2.33-5.156.564 9.833z"/></g><g id="link_AudioManager_AudioComponent"><path d="M197.58 315.27c-15.63 16.55-36.31 38.448-51.97 55.028" fill="none" id="AudioManager-to-AudioComponent" style="stroke:#181818;stroke-width:1px"/><path fill="#181818" style="stroke:#181818;stroke-width:1px" d="m141.49 374.66 9.088-3.796-5.655.161-.161-5.654-3.272 9.289z"/></g></svg>