<svg xmlns="http://www.w3.org/2000/svg" width="456" height="414" preserveAspectRatio="none" style="background:#fff;width:456px;height:414px"><g id="elem_Manager"><rect id="Manager" width="88.448" height="32" x="166.87" y="191" fill="#F1F1F1" rx="2.5" ry="2.5" style="stroke:#181818;stroke-width:.5px"/><circle cx="181.87" cy="207" r="11" fill="#A9DCDF" style="stroke:#181818;stroke-width:1px"/><path d="m177.042 212.75 3.344-12.187h3.14l3.375 12.187h-2.469l-.734-3.016h-3.516l-.75 3.016zm4.406-8.047-.75 3h2.516l-.719-3q-.14-.578-.266-1.125-.125-.562-.265-1.14-.11.578-.25 1.14-.14.547-.266 1.125"/><text x="195.87" y="212.432" font-family="sans-serif" font-size="14" font-style="italic" textLength="56.448">Manager</text></g><g id="elem_Component"><rect id="Component" width="104.184" height="32" x="7" y="283" fill="#F1F1F1" rx="2.5" ry="2.5" style="stroke:#181818;stroke-width:.5px"/><circle cx="22" cy="299" r="11" fill="#A9DCDF" style="stroke:#181818;stroke-width:1px"/><path d="m17.172 304.75 3.344-12.187h3.14l3.375 12.187h-2.468l-.735-3.016h-3.515l-.75 3.016zm4.406-8.047-.75 3h2.516l-.719-3q-.14-.578-.266-1.125-.125-.562-.265-1.14-.11.578-.25 1.14-.14.547-.266 1.125"/><text x="36" y="304.432" font-family="sans-serif" font-size="14" font-style="italic" textLength="72.184">Component</text></g><g id="elem_PhysicsManager"><rect id="PhysicsManager" width="139.352" height="32" x="310.42" y="283" fill="#F1F1F1" rx="2.5" ry="2.5" style="stroke:#181818;stroke-width:.5px"/><circle cx="325.42" cy="299" r="11" fill="#ADD1B2" style="stroke:#181818;stroke-width:1px"/><path d="M324.889 305.922q-1.75 0-2.89-.735-1.126-.75-1.688-2.093-.547-1.36-.547-3.156 0-2.032.656-3.485t1.938-2.234q1.28-.781 3.156-.781.89 0 1.562.187.672.172 1.36.516l-.813 2.015q-.625-.312-1.172-.437-.531-.125-1.015-.125-1.172 0-1.875.531t-1 1.484-.297 2.22q0 2.015.719 2.983.718.954 2.312.954.594 0 1.219-.157.625-.156 1.453-.53v2.218q-.734.312-1.531.469-.782.156-1.547.156"/><text x="339.42" y="304.432" font-family="sans-serif" font-size="14" textLength="107.352">PhysicsManager</text></g><g id="elem_AudioManager"><rect id="AudioManager" width="129.636" height="32" x="146.27" y="283" fill="#F1F1F1" rx="2.5" ry="2.5" style="stroke:#181818;stroke-width:.5px"/><circle cx="161.27" cy="299" r="11" fill="#ADD1B2" style="stroke:#181818;stroke-width:1px"/><path d="M160.739 305.922q-1.75 0-2.89-.735-1.126-.75-1.688-2.093-.547-1.36-.547-3.156 0-2.032.656-3.485t1.938-2.234q1.28-.781 3.156-.781.89 0 1.562.187.672.172 1.36.516l-.813 2.015q-.625-.312-1.172-.437-.531-.125-1.015-.125-1.172 0-1.875.531t-1 1.484-.297 2.22q0 2.015.719 2.983.718.954 2.312.954.594 0 1.219-.157.625-.156 1.453-.53v2.218q-.734.312-1.531.469-.782.156-1.547.156"/><text x="175.27" y="304.432" font-family="sans-serif" font-size="14" textLength="97.636">AudioManager</text></g><g id="elem_Game"><rect id="Game" width="71.032" height="32" x="98.58" y="7" fill="#F1F1F1" rx="2.5" ry="2.5" style="stroke:#181818;stroke-width:.5px"/><circle cx="113.58" cy="23" r="11" fill="#ADD1B2" style="stroke:#181818;stroke-width:1px"/><path d="M113.049 29.922q-1.75 0-2.89-.735-1.126-.75-1.688-2.093-.547-1.36-.547-3.157 0-2.03.656-3.484.656-1.453 1.938-2.234 1.28-.782 3.156-.782.89 0 1.562.188.672.172 1.36.516l-.813 2.015q-.625-.312-1.172-.437-.531-.125-1.015-.125-1.172 0-1.875.531t-1 1.484-.297 2.22q0 2.015.718 2.983.72.954 2.313.954.594 0 1.219-.157.625-.156 1.453-.53v2.218q-.734.312-1.531.469-.782.156-1.547.156"/><text x="127.58" y="28.432" font-family="sans-serif" font-size="14" textLength="39.032">Game</text></g><g id="elem_Scenario"><rect id="Scenario" width="88.672" height="32" x="41.76" y="99" fill="#F1F1F1" rx="2.5" ry="2.5" style="stroke:#181818;stroke-width:.5px"/><circle cx="56.76" cy="115" r="11" fill="#ADD1B2" style="stroke:#181818;stroke-width:1px"/><path d="M56.229 121.922q-1.75 0-2.89-.734-1.126-.75-1.688-2.094-.547-1.36-.547-3.156 0-2.032.656-3.485t1.938-2.234q1.28-.781 3.156-.781.89 0 1.562.187.672.172 1.36.516l-.813 2.015q-.625-.312-1.172-.437-.531-.125-1.015-.125-1.172 0-1.875.531t-1 1.484-.297 2.22q0 2.015.718 2.984.72.953 2.313.953.594 0 1.219-.157.625-.156 1.453-.53v2.218q-.735.312-1.531.469-.782.156-1.547.156"/><text x="70.76" y="120.432" font-family="sans-serif" font-size="14" textLength="56.672">Scenario</text></g><g id="elem_Entity"><rect id="Entity" width="69.296" height="32" x="43.44" y="191" fill="#F1F1F1" rx="2.5" ry="2.5" style="stroke:#181818;stroke-width:.5px"/><circle cx="58.44" cy="207" r="11" fill="#ADD1B2" style="stroke:#181818;stroke-width:1px"/><path d="M57.909 213.922q-1.75 0-2.89-.734-1.126-.75-1.688-2.094-.547-1.36-.547-3.156 0-2.032.656-3.485t1.938-2.234q1.28-.781 3.156-.781.89 0 1.562.187.672.172 1.36.516l-.813 2.015q-.625-.312-1.172-.437-.531-.125-1.015-.125-1.172 0-1.875.531t-1 1.484-.297 2.22q0 2.015.718 2.983.72.954 2.313.954.594 0 1.219-.157.625-.156 1.453-.53v2.218q-.735.312-1.531.469-.782.156-1.547.156"/><text x="72.44" y="212.432" font-family="sans-serif" font-size="14" textLength="37.296">Entity</text></g><g id="elem_PhysicsComponent"><rect id="PhysicsComponent" width="157.748" height="32" x="267.22" y="375" fill="#F1F1F1" rx="2.5" ry="2.5" style="stroke:#181818;stroke-width:.5px"/><circle cx="282.22" cy="391" r="11" fill="#ADD1B2" style="stroke:#181818;stroke-width:1px"/><path d="M281.689 397.922q-1.75 0-2.89-.735-1.126-.75-1.688-2.093-.547-1.36-.547-3.156 0-2.032.656-3.485t1.938-2.234q1.28-.781 3.156-.781.89 0 1.562.187.672.172 1.36.516l-.813 2.015q-.625-.312-1.172-.437-.531-.125-1.015-.125-1.172 0-1.875.531t-1 1.484-.297 2.22q0 2.015.719 2.983.718.954 2.312.954.594 0 1.219-.157.625-.156 1.453-.53v2.218q-.734.312-1.531.469-.782.156-1.547.156"/><text x="296.22" y="396.432" font-family="sans-serif" font-size="14" textLength="125.748">PhysicsComponent</text></g><g id="elem_AudioComponent"><rect id="AudioComponent" width="148.032" height="32" x="51.08" y="375" fill="#F1F1F1" rx="2.5" ry="2.5" style="stroke:#181818;stroke-width:.5px"/><circle cx="66.08" cy="391" r="11" fill="#ADD1B2" style="stroke:#181818;stroke-width:1px"/><path d="M65.549 397.922q-1.75 0-2.89-.735-1.126-.75-1.688-2.093-.547-1.36-.547-3.156 0-2.032.656-3.485t1.938-2.234q1.28-.781 3.156-.781.89 0 1.562.187.672.172 1.36.516l-.813 2.015q-.625-.312-1.172-.437-.531-.125-1.015-.125-1.172 0-1.875.531t-1 1.484-.297 2.22q0 2.015.718 2.983.72.954 2.313.954.594 0 1.219-.157.625-.156 1.453-.53v2.218q-.734.312-1.531.469-.782.156-1.547.156"/><text x="80.08" y="396.432" font-family="sans-serif" font-size="14" textLength="116.032">AudioComponent</text></g><g id="link_Manager_PhysicsManager" fill="none"><path id="Manager-backto-PhysicsManager" d="M256.027 231.933c31.05 16.54 64.093 34.127 95.113 50.647" style="stroke:#181818;stroke-width:1px"/><path d="m240.14 223.47 13.066 13.758 5.642-10.59z" style="stroke:#181818;stroke-width:1px"/></g><g id="link_Manager_AudioManager" fill="none"><path id="Manager-backto-AudioManager" d="M211.09 241.27v41.39" style="stroke:#181818;stroke-width:1px"/><path d="m211.09 223.27-6 18h12z" style="stroke:#181818;stroke-width:1px"/></g><g id="link_Game_Manager"><path id="Game-backto-Manager" fill="none" d="M145.197 50.251c14.5 34.26 44.903 106.119 59.423 140.459" style="stroke:#181818;stroke-width:1px"/><path fill="#181818" d="m140.52 39.2-1.345 7.084 6.022 3.967 1.345-7.085z" style="stroke:#181818;stroke-width:1px"/><text x="134.482" y="60.77" font-family="sans-serif" font-size="13" textLength="7.436">1</text><text x="194.22" y="179.207" font-family="sans-serif" font-size="13" textLength="7.163">*</text></g><g id="link_Game_Scenario"><path id="Game-backto-Scenario" fill="none" d="M120.301 49.857c-8.83 16.55-17.181 32.223-26.031 48.803" style="stroke:#181818;stroke-width:1px"/><path fill="#181818" d="m125.95 39.27-6.353 3.41.704 7.177 6.354-3.41z" style="stroke:#181818;stroke-width:1px"/></g><g id="link_Scenario_Entity"><path id="Scenario-backto-Entity" fill="none" d="M83.668 143.223c-1.47 16.55-2.738 30.857-4.208 47.437" style="stroke:#181818;stroke-width:1px"/><path fill="#181818" d="m84.73 131.27-4.515 5.623 3.453 6.33 4.515-5.623z" style="stroke:#181818;stroke-width:1px"/><text x="76.307" y="152.861" font-family="sans-serif" font-size="13" textLength="7.436">1</text><text x="40.107" y="179.14" font-family="sans-serif" font-size="13" textLength="34.112">many</text></g><g id="link_Entity_Component"><path id="Entity-backto-Component" fill="none" d="M72.387 235.01c-3.5 16.55-6.557 31.07-10.057 47.65" style="stroke:#181818;stroke-width:1px"/><path fill="#181818" d="m74.87 223.27-5.155 5.043 2.672 6.697 5.155-5.042z" style="stroke:#181818;stroke-width:1px"/><text x="65.879" y="244.861" font-family="sans-serif" font-size="13" textLength="7.436">1</text><text x="23.619" y="271.14" font-family="sans-serif" font-size="13" textLength="34.112">many</text></g><g id="link_Component_PhysicsComponent" fill="none"><path id="Component-backto-PhysicsComponent" d="M125.605 320.857c52.73 16.54 118.645 37.203 171.315 53.723" style="stroke:#181818;stroke-width:1px"/><path d="m108.43 315.47 15.38 11.112 3.59-11.45z" style="stroke:#181818;stroke-width:1px"/></g><g id="link_Component_AudioComponent" fill="none"><path id="Component-backto-AudioComponent" d="M80.93 329.788c12.13 16.55 20.75 28.292 32.91 44.872" style="stroke:#181818;stroke-width:1px"/><path d="m70.29 315.27 5.801 18.065 9.68-7.094z" style="stroke:#181818;stroke-width:1px"/></g><g id="link_PhysicsManager_PhysicsComponent"><path id="PhysicsManager-to-PhysicsComponent" fill="none" d="M374.32 315.27c-6.25 16.55-14.05 37.197-20.31 53.777" style="stroke:#181818;stroke-width:1px"/><path fill="#181818" d="m351.89 374.66 6.921-7.007-5.155 2.33-2.33-5.156z" style="stroke:#181818;stroke-width:1px"/></g><g id="link_AudioManager_AudioComponent"><path id="AudioManager-to-AudioComponent" fill="none" d="M196.5 315.27c-15.81 16.55-36.765 38.472-52.605 55.052" style="stroke:#181818;stroke-width:1px"/><path fill="#181818" d="m139.75 374.66 9.11-3.744-5.656.129-.13-5.656z" style="stroke:#181818;stroke-width:1px"/></g></svg>