<svg xmlns="http://www.w3.org/2000/svg" width="475" height="414" data-diagram-type="CLASS" preserveAspectRatio="none" style="background:#fff;width:475px;height:414px"><g id="elem_Manager"><rect id="Manager" width="93.366" height="32" x="174.96" y="191" fill="#F1F1F1" rx="2.5" ry="2.5" style="stroke:#181818;stroke-width:.5px"/><circle cx="189.96" cy="207" r="11" fill="#A9DCDF" style="stroke:#181818;stroke-width:1px"/><path d="m185.132 212.75 3.344-12.187h3.14l3.375 12.187h-2.469l-.734-3.016h-3.516l-.75 3.016zm4.406-8.047-.75 3h2.516l-.719-3q-.14-.578-.266-1.125-.125-.562-.265-1.14-.11.578-.25 1.14-.14.547-.266 1.125"/><text x="203.96" y="211.847" font-family="sans-serif" font-size="14" font-style="italic" textLength="61.366">Manager</text></g><g id="elem_Component"><rect id="Component" width="113.279" height="32" x="7" y="283" fill="#F1F1F1" rx="2.5" ry="2.5" style="stroke:#181818;stroke-width:.5px"/><circle cx="22" cy="299" r="11" fill="#A9DCDF" style="stroke:#181818;stroke-width:1px"/><path d="m17.172 304.75 3.344-12.187h3.14l3.375 12.187h-2.468l-.735-3.016h-3.515l-.75 3.016zm4.406-8.047-.75 3h2.516l-.719-3q-.14-.578-.266-1.125-.125-.562-.265-1.14-.11.578-.25 1.14-.14.547-.266 1.125"/><text x="36" y="303.847" font-family="sans-serif" font-size="14" font-style="italic" textLength="81.279">Component</text></g><g id="elem_PhysicsManager"><rect id="PhysicsManager" width="145.142" height="32" x="323.07" y="283" fill="#F1F1F1" rx="2.5" ry="2.5" style="stroke:#181818;stroke-width:.5px"/><circle cx="338.07" cy="299" r="11" fill="#ADD1B2" style="stroke:#181818;stroke-width:1px"/><path d="M337.539 305.922q-1.75 0-2.89-.735-1.126-.75-1.688-2.093-.547-1.36-.547-3.156 0-2.032.656-3.485t1.938-2.234q1.28-.781 3.156-.781.89 0 1.562.187.672.172 1.36.516l-.813 2.015q-.625-.312-1.172-.437-.531-.125-1.015-.125-1.172 0-1.875.531t-1 1.484-.297 2.22q0 2.015.719 2.983.718.954 2.312.954.594 0 1.219-.157.625-.156 1.453-.53v2.218q-.735.312-1.531.469-.782.156-1.547.156"/><text x="352.07" y="303.847" font-family="sans-serif" font-size="14" textLength="113.142">PhysicsManager</text></g><g id="elem_AudioManager"><rect id="AudioManager" width="133.158" height="32" x="155.06" y="283" fill="#F1F1F1" rx="2.5" ry="2.5" style="stroke:#181818;stroke-width:.5px"/><circle cx="170.06" cy="299" r="11" fill="#ADD1B2" style="stroke:#181818;stroke-width:1px"/><path d="M169.529 305.922q-1.75 0-2.89-.735-1.126-.75-1.688-2.093-.547-1.36-.547-3.156 0-2.032.656-3.485t1.938-2.234q1.28-.781 3.156-.781.89 0 1.562.187.672.172 1.36.516l-.813 2.015q-.625-.312-1.172-.437-.531-.125-1.015-.125-1.172 0-1.875.531t-1 1.484-.297 2.22q0 2.015.719 2.983.718.954 2.312.954.594 0 1.219-.157.625-.156 1.453-.53v2.218q-.734.312-1.531.469-.782.156-1.547.156"/><text x="184.06" y="303.847" font-family="sans-serif" font-size="14" textLength="101.158">AudioManager</text></g><g id="elem_Game"><rect id="Game" width="73.679" height="32" x="105.8" y="7" fill="#F1F1F1" rx="2.5" ry="2.5" style="stroke:#181818;stroke-width:.5px"/><circle cx="120.8" cy="23" r="11" fill="#ADD1B2" style="stroke:#181818;stroke-width:1px"/><path d="M120.269 29.922q-1.75 0-2.89-.735-1.126-.75-1.688-2.093-.547-1.36-.547-3.157 0-2.03.656-3.484.656-1.453 1.938-2.234 1.28-.782 3.156-.782.89 0 1.562.188.672.172 1.36.516l-.813 2.015q-.625-.312-1.172-.437-.531-.125-1.015-.125-1.172 0-1.875.531t-1 1.484-.297 2.22q0 2.015.718 2.983.72.954 2.313.954.594 0 1.219-.157.625-.156 1.453-.53v2.218q-.734.312-1.531.469-.782.156-1.547.156"/><text x="134.8" y="27.847" font-family="sans-serif" font-size="14" textLength="41.679">Game</text></g><g id="elem_Scenario"><rect id="Scenario" width="92.86" height="32" x="42.21" y="99" fill="#F1F1F1" rx="2.5" ry="2.5" style="stroke:#181818;stroke-width:.5px"/><circle cx="57.21" cy="115" r="11" fill="#ADD1B2" style="stroke:#181818;stroke-width:1px"/><path d="M56.679 121.922q-1.75 0-2.89-.734-1.126-.75-1.688-2.094-.547-1.36-.547-3.156 0-2.032.656-3.485t1.938-2.234q1.28-.781 3.156-.781.89 0 1.562.187.672.172 1.36.516l-.813 2.015q-.625-.312-1.172-.437-.531-.125-1.015-.125-1.172 0-1.875.531t-1 1.484-.297 2.22q0 2.015.718 2.984.72.953 2.313.953.594 0 1.219-.157.625-.156 1.453-.53v2.218q-.734.312-1.531.469-.782.156-1.547.156"/><text x="71.21" y="119.847" font-family="sans-serif" font-size="14" textLength="60.86">Scenario</text></g><g id="elem_Entity"><rect id="Entity" width="72.872" height="32" x="47.2" y="191" fill="#F1F1F1" rx="2.5" ry="2.5" style="stroke:#181818;stroke-width:.5px"/><circle cx="62.2" cy="207" r="11" fill="#ADD1B2" style="stroke:#181818;stroke-width:1px"/><path d="M61.669 213.922q-1.75 0-2.89-.734-1.126-.75-1.688-2.094-.547-1.36-.547-3.156 0-2.032.656-3.485t1.938-2.234q1.28-.781 3.156-.781.89 0 1.562.187.672.172 1.36.516l-.813 2.015q-.625-.312-1.172-.437-.531-.125-1.015-.125-1.172 0-1.875.531t-1 1.484-.297 2.22q0 2.015.719 2.983.718.954 2.312.954.594 0 1.219-.157.625-.156 1.453-.53v2.218q-.734.312-1.531.469-.782.156-1.547.156"/><text x="76.2" y="211.847" font-family="sans-serif" font-size="14" textLength="40.872">Entity</text></g><g id="elem_PhysicsComponent"><rect id="PhysicsComponent" width="165.055" height="32" x="278.11" y="375" fill="#F1F1F1" rx="2.5" ry="2.5" style="stroke:#181818;stroke-width:.5px"/><circle cx="293.11" cy="391" r="11" fill="#ADD1B2" style="stroke:#181818;stroke-width:1px"/><path d="M292.579 397.922q-1.75 0-2.89-.735-1.126-.75-1.688-2.093-.547-1.36-.547-3.156 0-2.032.656-3.485t1.938-2.234q1.28-.781 3.156-.781.89 0 1.562.187.672.172 1.36.516l-.813 2.015q-.625-.312-1.172-.437-.531-.125-1.015-.125-1.172 0-1.875.531t-1 1.484-.297 2.22q0 2.015.719 2.983.718.954 2.312.954.594 0 1.219-.157.625-.156 1.453-.53v2.218q-.734.312-1.531.469-.782.156-1.547.156"/><text x="307.11" y="395.847" font-family="sans-serif" font-size="14" textLength="133.055">PhysicsComponent</text></g><g id="elem_AudioComponent"><rect id="AudioComponent" width="153.071" height="32" x="56.1" y="375" fill="#F1F1F1" rx="2.5" ry="2.5" style="stroke:#181818;stroke-width:.5px"/><circle cx="71.1" cy="391" r="11" fill="#ADD1B2" style="stroke:#181818;stroke-width:1px"/><path d="M70.569 397.922q-1.75 0-2.89-.735-1.126-.75-1.688-2.093-.547-1.36-.547-3.156 0-2.032.656-3.485t1.938-2.234q1.28-.781 3.156-.781.89 0 1.562.187.672.172 1.36.516l-.813 2.015q-.625-.312-1.172-.437-.531-.125-1.015-.125-1.172 0-1.875.531t-1 1.484-.297 2.22q0 2.015.718 2.983.72.954 2.313.954.594 0 1.219-.157.625-.156 1.453-.53v2.218q-.735.312-1.531.469-.782.156-1.547.156"/><text x="85.1" y="395.847" font-family="sans-serif" font-size="14" textLength="121.071">AudioComponent</text></g><g id="link_Manager_PhysicsManager" fill="transparent"><path id="Manager-backto-PhysicsManager" d="M267.537 231.741c31.97 16.54 66.363 34.319 98.293 50.839" style="stroke:#181818;stroke-width:1px"/><path d="m251.55 223.47 13.23 13.6 5.514-10.658z" style="stroke:#181818;stroke-width:1px"/></g><g id="link_Manager_AudioManager" fill="transparent"><path id="Manager-backto-AudioManager" d="M221.64 241.27v41.39" style="stroke:#181818;stroke-width:1px"/><path d="m221.64 223.27-6 18h12z" style="stroke:#181818;stroke-width:1px"/></g><g id="link_Game_Manager"><path id="Game-backto-Manager" fill="transparent" d="M154.018 50.208C168.888 84.468 200.1 156.37 215 190.71" style="stroke:#181818;stroke-width:1px"/><path fill="#181818" d="m149.24 39.2-1.28 7.096 6.058 3.912 1.28-7.097z" style="stroke:#181818;stroke-width:1px"/><text x="142.146" y="59.139" font-family="sans-serif" font-size="13" textLength="8.271">1</text><text x="205.888" y="179.918" font-family="sans-serif" font-size="13" textLength="6.5">*</text></g><g id="link_Game_Scenario"><path id="Game-backto-Scenario" fill="transparent" d="M127.306 49.56c-9.93 16.55-19.516 32.52-29.466 49.1" style="stroke:#181818;stroke-width:1px"/><path fill="#181818" d="m133.48 39.27-6.517 3.087.343 7.203 6.517-3.087z" style="stroke:#181818;stroke-width:1px"/></g><g id="link_Scenario_Entity"><path id="Scenario-backto-Entity" fill="transparent" d="M87.124 143.252c-.92 16.55-1.714 30.828-2.634 47.408" style="stroke:#181818;stroke-width:1px"/><path fill="#181818" d="m87.79 131.27-4.327 5.769 3.661 6.213 4.327-5.77z" style="stroke:#181818;stroke-width:1px"/><text x="78.287" y="150.935" font-family="sans-serif" font-size="13" textLength="8.271">1</text><text x="42.904" y="179.852" font-family="sans-serif" font-size="13" textLength="36.563">many</text></g><g id="link_Entity_Component"><path id="Entity-backto-Component" fill="transparent" d="M77.645 234.984c-3.68 16.55-6.915 31.096-10.595 47.676" style="stroke:#181818;stroke-width:1px"/><path fill="#181818" d="m80.25 223.27-5.207 4.989 2.602 6.725 5.207-4.989z" style="stroke:#181818;stroke-width:1px"/><text x="69.939" y="242.935" font-family="sans-serif" font-size="13" textLength="8.271">1</text><text x="26.31" y="271.852" font-family="sans-serif" font-size="13" textLength="36.563">many</text></g><g id="link_Component_PhysicsComponent" fill="transparent"><path id="Component-backto-PhysicsComponent" d="M131.926 320.692c54.56 16.54 123.324 37.368 177.824 53.888" style="stroke:#181818;stroke-width:1px"/><path d="m114.7 315.47 15.485 10.964 3.482-11.484z" style="stroke:#181818;stroke-width:1px"/></g><g id="link_Component_AudioComponent" fill="transparent"><path id="Component-backto-AudioComponent" d="M86.293 329.554c12.69 16.55 21.877 28.526 34.587 45.106" style="stroke:#181818;stroke-width:1px"/><path d="m75.34 315.27 6.191 17.935 9.523-7.302z" style="stroke:#181818;stroke-width:1px"/></g><g id="link_PhysicsManager_PhysicsComponent"><path id="PhysicsManager-to-PhysicsComponent" fill="transparent" d="M389.7 315.27c-6.43 16.55-14.478 37.217-20.918 53.797" style="stroke:#181818;stroke-width:1px"/><path fill="#181818" d="m366.61 374.66 6.987-6.941-5.177 2.28-2.28-5.177z" style="stroke:#181818;stroke-width:1px"/></g><g id="link_AudioManager_AudioComponent"><path id="AudioManager-to-AudioComponent" fill="transparent" d="M206.54 315.27c-16.36 16.55-38.11 38.544-54.51 55.124" style="stroke:#181818;stroke-width:1px"/><path fill="#181818" d="m147.81 374.66 9.173-3.586-5.657.031-.03-5.656z" style="stroke:#181818;stroke-width:1px"/></g></svg>