<svg xmlns="http://www.w3.org/2000/svg" xmlns:xlink="http://www.w3.org/1999/xlink" width="1019.541" height="602.783" id="svg22274" version="1.1"><defs id="defs22276"><symbol id="symbol27475"><path d="M38.86 25.95c.08-.64.14-1.29.14-1.95s-.06-1.31-.14-1.95l4.23-3.31c.38-.3.49-.84.24-1.28l-4-6.93c-.25-.43-.77-.61-1.22-.43l-4.98 2.01c-1.03-.79-2.16-1.46-3.38-1.97L29 4.84c-.09-.47-.5-.84-1-.84h-8c-.5 0-.91.37-.99.84l-.75 5.3a14.8 14.8 0 0 0-3.38 1.97L9.9 10.1a1 1 0 0 0-1.22.43l-4 6.93c-.25.43-.14.97.24 1.28l4.22 3.31C9.06 22.69 9 23.34 9 24s.06 1.31.14 1.95l-4.22 3.31c-.38.3-.49.84-.24 1.28l4 6.93c.25.43.77.61 1.22.43l4.98-2.01c1.03.79 2.16 1.46 3.38 1.97l.75 5.3c.08.47.49.84.99.84h8c.5 0 .91-.37.99-.84l.75-5.3a14.8 14.8 0 0 0 3.38-1.97l4.98 2.01a1 1 0 0 0 1.22-.43l4-6.93c.25-.43.14-.97-.24-1.28l-4.22-3.31zM24 31c-3.87 0-7-3.13-7-7s3.13-7 7-7 7 3.13 7 7-3.13 7-7 7z" style="stroke:none" id="path27479"/></symbol><symbol id="symbol27251"><path d="M35.27 11.69A4.015 4.015 0 0 0 32 10l-22 .02c-2.21 0-4 1.77-4 3.98v20c0 2.21 1.79 3.98 4 3.98L32 38c1.35 0 2.54-.67 3.27-1.69L44 24l-8.73-12.31z" style="stroke:none" id="path27255"/></symbol></defs><g id="layer1" transform="translate(29.258 -481.674)"><path d="m10 543.79 22.857-18.57-24.286 87.142 85.919-92.857L8.57 680.934l104.286-164.286L11.43 749.505l144.693-230L7.142 818.076l210.613-297.142L10 886.648l269.388-365.714L5.714 955.219 341.02 519.505 5.714 1023.791l396.94-504.286-355.511 530 417.143-528.571L120 1046.648l405.918-527.143-333.06 530 394.693-530-321.837 528.571 383.47-527.142-310.613 521.428 372.245-520L411.43 1045.22l361.02-525.714-288.163 525.714 349.796-522.857-276.94 525.714 338.572-528.571L630 1048.076l325.143-525.714-252.286 524.286 250.857-413.214-178 413.214 176.572-302.143-103.715 302.143 103.715-191.072-30.857 191.072 33.714-80" id="background" style="fill:none;fill-rule:evenodd;stroke:#2f2f2f;stroke-width:50px;stroke-linecap:round;stroke-linejoin:round;stroke-miterlimit:4;stroke-dasharray:none;stroke-opacity:1"/><g id="g143583" transform="translate(60 -60)"><path id="container" d="M104.132 642.077h622.76v252.76h-622.76z" style="fill:none;fill-opacity:1;stroke:#ceff01;stroke-width:10px;stroke-linecap:round;stroke-linejoin:round;stroke-miterlimit:4;stroke-dasharray:none;stroke-dashoffset:0;stroke-opacity:1"/><g transform="matrix(.85798 0 0 .80117 249.052 152.44)" style="fill:#fff;fill-opacity:1" id="marcador-type-5-8"><path class="obj-type" id="path40292-1" d="M103.007 562.515 73.87 618.683l67.6-54.92-33.8 81.132 78.09-81.132-29.137 84.876 71.097-83.628-26.807 83.628 59.442-79.883-19.814 78.635 53.614-79.883-25.642 78.635 45.456-43.686" style="fill:none;fill-rule:evenodd;stroke:#ceff01;stroke-width:36.1843px;stroke-linecap:round;stroke-linejoin:round;stroke-miterlimit:4;stroke-dasharray:none;stroke-opacity:1"/><text xml:space="preserve" style="letter-spacing:0;word-spacing:0;fill:#2f2f2f;fill-opacity:1;stroke:none;stroke-width:1px;stroke-linecap:butt;stroke-linejoin:miter;stroke-opacity:1;font-family:sans-serif;font-size:45px;font-style:normal;font-weight:400;line-height:125%" x="193.256" y="622.154" id="text40169-1-1"><tspan id="tspan40171-8-5" x="193.256" y="622.154" style="font-variant:normal;-inkscape-font-specification:&quot;Fira Sans Bold&quot;;text-align:center;text-anchor:middle;fill:#2f2f2f;fill-opacity:1;font-family:Fira Sans;font-style:normal;font-weight:700;font-stretch:100%">Nave</tspan></text></g><g id="g41614"><g id="g41609"><use mask="none" clip-path="none" height="100%" width="100%" y="0" x="0" transform="translate(131.644 708.457)" xlink:href="#symbol27475" style="fill:#ceff01;fill-opacity:1;stroke:#ceff01;stroke-opacity:1" id="use41338"/><text id="text41385" y="740.253" x="185.649" style="letter-spacing:0;word-spacing:0;fill:#000;fill-opacity:1;stroke:none;stroke-width:1px;stroke-linecap:butt;stroke-linejoin:miter;stroke-opacity:1;font-family:sans-serif;font-size:45px;font-style:normal;font-weight:400;line-height:125%" xml:space="preserve"><tspan style="font-variant:normal;-inkscape-font-specification:&quot;Fira Sans&quot;;fill:#fff;fill-opacity:1;font-family:Fira Sans;font-size:27.5px;font-style:normal;font-weight:400;font-stretch:100%" y="740.253" x="185.649" id="tspan41387">Moverse a la izquierda</tspan></text></g><g class="api-item" id="g41410" transform="translate(55.907)"><use mask="none" clip-path="none" height="100%" width="100%" y="0" x="0" transform="translate(75.737 765.79)" xlink:href="#symbol27475" style="fill:#ceff01;fill-opacity:1;stroke:#ceff01;stroke-opacity:1" id="use41338-4"/><text id="text41389" y="799.938" x="129.742" style="letter-spacing:0;word-spacing:0;fill:#000;fill-opacity:1;stroke:none;stroke-width:1px;stroke-linecap:butt;stroke-linejoin:miter;stroke-opacity:1;font-family:sans-serif;font-size:45px;font-style:normal;font-weight:400;line-height:125%" xml:space="preserve"><tspan style="font-variant:normal;-inkscape-font-specification:&quot;Fira Sans&quot;;fill:#fff;fill-opacity:1;font-family:Fira Sans;font-size:27.5px;font-style:normal;font-weight:400;font-stretch:100%" y="799.938" x="129.742" id="tspan41391">Moverse a la derecha.</tspan></text></g><g class="api-item" id="g41420" transform="translate(55.907 -60)"><use mask="none" clip-path="none" height="100%" width="100%" y="0" x="0" transform="translate(75.737 883.66)" xlink:href="#symbol27475" style="fill:#ceff01;fill-opacity:1;stroke:#ceff01;stroke-opacity:1" id="use41338-0"/><text id="text41397" y="915.457" x="128.697" style="letter-spacing:0;word-spacing:0;fill:#000;fill-opacity:1;stroke:none;stroke-width:1px;stroke-linecap:butt;stroke-linejoin:miter;stroke-opacity:1;font-family:sans-serif;font-size:45px;font-style:normal;font-weight:400;line-height:125%" xml:space="preserve"><tspan style="font-variant:normal;-inkscape-font-specification:&quot;Fira Sans&quot;;fill:#fff;fill-opacity:1;font-family:Fira Sans;font-size:27.5px;font-style:normal;font-weight:400;font-stretch:100%" y="915.457" x="128.697" id="tspan41399">Disparar.</tspan></text></g></g><text xml:space="preserve" style="letter-spacing:0;word-spacing:0;fill:#000;fill-opacity:1;stroke:none;stroke-width:1px;stroke-linecap:butt;stroke-linejoin:miter;stroke-opacity:1;font-family:sans-serif;font-size:45px;font-style:normal;font-weight:400;line-height:125%" x="574.376" y="743.306" id="text41385-9"><tspan id="tspan41387-7" x="574.376" y="743.306" style="font-variant:normal;-inkscape-font-specification:&quot;Fira Sans&quot;;fill:#fff;fill-opacity:1;font-family:Fira Sans;font-size:27.5px;font-style:normal;font-weight:400;font-stretch:100%">Gráfico,</tspan></text><use id="use41481" style="fill:#ceff01;fill-opacity:1;stroke:#ceff01;stroke-opacity:1" xlink:href="#symbol27251" transform="translate(511.742 708.457)" x="0" y="0" width="100%" height="100%"/><g transform="translate(0 -60)" class="state-item" id="g41642"><text xml:space="preserve" style="letter-spacing:0;word-spacing:0;fill:#000;fill-opacity:1;stroke:none;stroke-width:1px;stroke-linecap:butt;stroke-linejoin:miter;stroke-opacity:1;font-family:sans-serif;font-size:45px;font-style:normal;font-weight:400;line-height:125%" x="574.376" y="857.972" id="text41385-9-7"><tspan id="tspan41387-7-4" x="574.376" y="857.972" style="font-variant:normal;-inkscape-font-specification:&quot;Fira Sans&quot;;fill:#fff;fill-opacity:1;font-family:Fira Sans;font-size:27.5px;font-style:normal;font-weight:400;font-stretch:100%">Posición.</tspan></text><use id="use41481-82" style="fill:#ceff01;fill-opacity:1;stroke:#ceff01;stroke-opacity:1" xlink:href="#symbol27251" transform="translate(511.742 823.124)" x="0" y="0" width="100%" height="100%"/></g><path style="fill:none;fill-rule:evenodd;stroke:#fff;stroke-width:10px;stroke-linecap:butt;stroke-linejoin:miter;stroke-miterlimit:4;stroke-dasharray:none;stroke-opacity:1" d="M146.177 996.43v-51.973h268.206v-49.974" id="path143649" class="is-a"/><path style="fill:none;fill-rule:evenodd;stroke:#fff;stroke-width:10px;stroke-linecap:butt;stroke-linejoin:miter;stroke-miterlimit:4;stroke-dasharray:none;stroke-opacity:1" d="M683.31 996.43v-51.973H415.105v-49.974" id="path143649-3" class="is-a"/><path style="fill:none;fill-rule:evenodd;stroke:#fff;stroke-width:10px;stroke-linecap:butt;stroke-linejoin:miter;stroke-miterlimit:4;stroke-dasharray:none;stroke-opacity:1" d="m396.742 913.457 18-17 16 17" id="path143686" class="is-a-arrow"/></g><g id="marcador-type-5-8-5" style="fill:#fff;fill-opacity:1" transform="matrix(.85798 0 0 .80117 576.282 488.853)"><path style="fill:none;fill-rule:evenodd;stroke:#ff3d01;stroke-width:36.1843px;stroke-linecap:round;stroke-linejoin:round;stroke-miterlimit:4;stroke-dasharray:none;stroke-opacity:1" d="M103.007 562.515 73.87 618.683l67.6-54.92-33.8 81.132 78.09-81.132-29.137 84.876 71.097-83.628-26.807 83.628 59.442-79.883-19.814 78.635 53.614-79.883-25.642 78.635 45.456-43.686" id="path40292-1-5" class="obj-type"/><text id="text40169-1-1-9" y="622.154" x="193.256" style="letter-spacing:0;word-spacing:0;fill:#2f2f2f;fill-opacity:1;stroke:none;stroke-width:1px;stroke-linecap:butt;stroke-linejoin:miter;stroke-opacity:1;font-family:sans-serif;font-size:45px;font-style:normal;font-weight:400;line-height:125%" xml:space="preserve"><tspan style="font-variant:normal;-inkscape-font-specification:&quot;Fira Sans Bold&quot;;text-align:center;text-anchor:middle;fill:#2f2f2f;fill-opacity:1;font-family:Fira Sans;font-style:normal;font-weight:700;font-stretch:100%" y="622.154" x="193.256" id="tspan40171-8-5-6">Enemigo</tspan></text></g><g id="marcador-type-5-2" style="fill:#fff;fill-opacity:1" transform="matrix(.85798 0 0 .80117 34.282 488.853)"><path style="fill:none;fill-rule:evenodd;stroke:#ffb401;stroke-width:36.1843px;stroke-linecap:round;stroke-linejoin:round;stroke-miterlimit:4;stroke-dasharray:none;stroke-opacity:1" d="M103.007 562.515 73.87 618.683l67.6-54.92-33.8 81.132 78.09-81.132-29.137 84.876 71.097-83.628-26.807 83.628 59.442-79.883-19.814 78.635 53.614-79.883-25.642 78.635 45.456-43.686" id="path40292-0" class="obj-type"/><text id="text40169-1-2" y="622.154" x="193.256" style="letter-spacing:0;word-spacing:0;fill:#2f2f2f;fill-opacity:1;stroke:none;stroke-width:1px;stroke-linecap:butt;stroke-linejoin:miter;stroke-opacity:1;font-family:sans-serif;font-size:45px;font-style:normal;font-weight:400;line-height:125%" xml:space="preserve"><tspan style="font-variant:normal;-inkscape-font-specification:&quot;Fira Sans Bold&quot;;text-align:center;text-anchor:middle;fill:#2f2f2f;fill-opacity:1;font-family:Fira Sans;font-style:normal;font-weight:700;font-stretch:100%" y="622.154" x="193.256" id="tspan40171-8-7">Prota</tspan></text></g></g></svg>