<svg xmlns="http://www.w3.org/2000/svg" xmlns:xlink="http://www.w3.org/1999/xlink" width="1019.541" height="602.783" id="svg22274" version="1.1"><defs id="defs22276"><symbol id="symbol65227"><path d="M38.86 25.95c.08-.64.14-1.29.14-1.95s-.06-1.31-.14-1.95l4.23-3.31c.38-.3.49-.84.24-1.28l-4-6.93c-.25-.43-.77-.61-1.22-.43l-4.98 2.01c-1.03-.79-2.16-1.46-3.38-1.97L29 4.84c-.09-.47-.5-.84-1-.84h-8c-.5 0-.91.37-.99.84l-.75 5.3a14.8 14.8 0 0 0-3.38 1.97L9.9 10.1a1 1 0 0 0-1.22.43l-4 6.93c-.25.43-.14.97.24 1.28l4.22 3.31C9.06 22.69 9 23.34 9 24s.06 1.31.14 1.95l-4.22 3.31c-.38.3-.49.84-.24 1.28l4 6.93c.25.43.77.61 1.22.43l4.98-2.01c1.03.79 2.16 1.46 3.38 1.97l.75 5.3c.08.47.49.84.99.84h8c.5 0 .91-.37.99-.84l.75-5.3a14.8 14.8 0 0 0 3.38-1.97l4.98 2.01a1 1 0 0 0 1.22-.43l4-6.93c.25-.43.14-.97-.24-1.28l-4.22-3.31zM24 31c-3.87 0-7-3.13-7-7s3.13-7 7-7 7 3.13 7 7-3.13 7-7 7z" style="stroke:none" id="path65231"/></symbol></defs><g id="layer1" transform="translate(29.258 -481.674)"><path d="m10 543.79 22.857-18.57-24.286 87.142 85.919-92.857L8.57 680.934l104.286-164.286L11.43 749.505l144.693-230L7.142 818.076l210.613-297.142L10 886.648l269.388-365.714L5.714 955.219 341.02 519.505 5.714 1023.791l396.94-504.286-355.511 530 417.143-528.571L120 1046.648l405.918-527.143-333.06 530 394.693-530-321.837 528.571 383.47-527.142-310.613 521.428 372.245-520L411.43 1045.22l361.02-525.714-288.163 525.714 349.796-522.857-276.94 525.714 338.572-528.571L630 1048.076l325.143-525.714-252.286 524.286 250.857-413.214-178 413.214 176.572-302.143-103.715 302.143 103.715-191.072-30.857 191.072 33.714-80" id="background" style="fill:none;fill-rule:evenodd;stroke:#2f2f2f;stroke-width:50px;stroke-linecap:round;stroke-linejoin:round;stroke-miterlimit:4;stroke-dasharray:none;stroke-opacity:1"/><g id="g86931" transform="matrix(2 0 0 2 -122.14 -562.431)"><g transform="matrix(.85798 0 0 .80117 74.282 126.44)" style="fill:#fff;fill-opacity:1" id="marcador-type-5-8"><path class="obj-type" id="path40292-1" d="M103.007 562.515 73.87 618.683l67.6-54.92-33.8 81.132 78.09-81.132-29.137 84.876 71.097-83.628-26.807 83.628 59.442-79.883-19.814 78.635 53.614-79.883-25.642 78.635 45.456-43.686" style="fill:#cbcbcb;fill-opacity:1;fill-rule:evenodd;stroke:#a3a3a3;stroke-width:36.1843px;stroke-linecap:round;stroke-linejoin:round;stroke-miterlimit:4;stroke-dasharray:none;stroke-opacity:1"/><text xml:space="preserve" style="letter-spacing:0;word-spacing:0;fill:#2f2f2f;fill-opacity:1;stroke:none;stroke-width:1px;stroke-linecap:butt;stroke-linejoin:miter;stroke-opacity:1;font-family:sans-serif;font-size:45px;font-style:normal;font-weight:400;line-height:125%" x="193.256" y="622.154" id="text40169-1-1"><tspan id="tspan40171-8-5" x="193.256" y="622.154" style="font-variant:normal;-inkscape-font-specification:&quot;Fira Sans Bold&quot;;text-align:center;text-anchor:middle;fill:#2f2f2f;fill-opacity:1;font-family:Fira Sans;font-style:normal;font-weight:700;font-stretch:100%">Tipo</tspan></text></g><path class="factory" id="rect86791-4-8" d="m274.01 655.226 21.307-29.293v29.293l29.2-29.293v29.293l29.2-29.293v29.293h11.25l8-55.687h10.507V693.374H274.01z" style="fill:none;fill-opacity:1;stroke:#cbcbcb;stroke-width:4.16561px;stroke-linecap:round;stroke-linejoin:round;stroke-miterlimit:4;stroke-dasharray:none;stroke-dashoffset:0;stroke-opacity:1"/></g><g id="g88303" transform="translate(74.43 -36)"><g id="g88308" class="api-item"><text xml:space="preserve" style="letter-spacing:0;word-spacing:0;fill:#fff;fill-opacity:1;stroke:none;stroke-width:1px;stroke-linecap:butt;stroke-linejoin:miter;stroke-opacity:1;font-family:sans-serif;font-size:45px;font-style:normal;font-weight:400;line-height:125%" x="398.742" y="902.457" id="text86938"><tspan id="tspan86940" x="398.742" y="902.457" style="font-variant:normal;-inkscape-font-specification:&quot;Fira Sans&quot;;fill:#fff;fill-opacity:1;font-family:Fira Sans;font-size:27.5px;font-style:normal;font-weight:400;font-stretch:100%">Nuevo objeto.</tspan></text><use id="use88289" style="fill:#dedede;fill-opacity:1;stroke:#000" xlink:href="#symbol65227" transform="translate(342.737 870.647)" x="0" y="0" width="100%" height="100%"/></g></g></g></svg>