<svg xmlns="http://www.w3.org/2000/svg" id="svg22274" width="1019.541" height="602.783" version="1.1"><g id="layer1" transform="translate(29.258 -481.674)"><path id="background" d="m10 543.79 22.857-18.57-24.286 87.142 85.919-92.857L8.57 680.934l104.286-164.286L11.43 749.505l144.693-230L7.142 818.076l210.613-297.142L10 886.648l269.388-365.714L5.714 955.219 341.02 519.505 5.714 1023.791l396.94-504.286-355.511 530 417.143-528.571L120 1046.648l405.918-527.143-333.06 530 394.693-530-321.837 528.571 383.47-527.142-310.613 521.428 372.245-520L411.43 1045.22l361.02-525.714-288.163 525.714 349.796-522.857-276.94 525.714 338.572-528.571L630 1048.076l325.143-525.714-252.286 524.286 250.857-413.214-178 413.214 176.572-302.143-103.715 302.143 103.715-191.072-30.857 191.072 33.714-80" style="fill:none;fill-rule:evenodd;stroke:#2f2f2f;stroke-width:50px;stroke-linecap:round;stroke-linejoin:round;stroke-miterlimit:4;stroke-dasharray:none;stroke-opacity:1"/><g id="marcador-type-5" style="fill:#fff;fill-opacity:1" transform="matrix(.85798 0 0 .80117 13.754 146.44)"><path id="path40292" d="m103.008 562.515-29.139 56.168 67.6-54.92-33.8 81.132 78.09-81.132-29.137 84.876 71.097-83.628-26.807 83.628 59.442-79.883-19.814 78.635 53.614-79.883-25.642 78.635 45.456-43.686" class="obj-type" style="fill:none;fill-rule:evenodd;stroke:#f0ff01;stroke-width:36.1843px;stroke-linecap:round;stroke-linejoin:round;stroke-miterlimit:4;stroke-dasharray:none;stroke-opacity:1"/><text xml:space="preserve" id="text40169-1" x="193.256" y="622.154" style="letter-spacing:0;word-spacing:0;fill:#2f2f2f;fill-opacity:1;stroke:none;stroke-width:1px;stroke-linecap:butt;stroke-linejoin:miter;stroke-opacity:1;font-family:sans-serif;font-size:45px;font-style:normal;font-weight:400;line-height:125%"><tspan id="tspan40171-8" x="193.256" y="622.154" style="font-variant:normal;-inkscape-font-specification:&quot;Fira Sans Bold&quot;;text-align:center;text-anchor:middle;fill:#2f2f2f;fill-opacity:1;font-family:Fira Sans;font-style:normal;font-weight:700;font-stretch:100%">Marcador</tspan></text></g><g id="marcador-type-5-1" style="fill:#fff;fill-opacity:1" transform="matrix(.85798 0 0 .80117 314.018 146.44)"><path id="path40292-9" d="m103.008 562.515-29.139 56.168 67.6-54.92-33.8 81.132 78.09-81.132-29.137 84.876 71.097-83.628-26.807 83.628 59.442-79.883-19.814 78.635 53.614-79.883-25.642 78.635 45.456-43.686" class="obj-type" style="fill:none;fill-rule:evenodd;stroke:#01f0ff;stroke-width:36.1843px;stroke-linecap:round;stroke-linejoin:round;stroke-miterlimit:4;stroke-dasharray:none;stroke-opacity:1"/><text xml:space="preserve" id="text40169-1-0" x="193.256" y="622.154" style="letter-spacing:0;word-spacing:0;fill:#2f2f2f;fill-opacity:1;stroke:none;stroke-width:1px;stroke-linecap:butt;stroke-linejoin:miter;stroke-opacity:1;font-family:sans-serif;font-size:45px;font-style:normal;font-weight:400;line-height:125%"><tspan id="tspan40171-8-8" x="193.256" y="622.154" style="font-variant:normal;-inkscape-font-specification:&quot;Fira Sans Bold&quot;;text-align:center;text-anchor:middle;fill:#2f2f2f;fill-opacity:1;font-family:Fira Sans;font-style:normal;font-weight:700;font-stretch:100%">Defensa</tspan></text></g><g id="marcador-type-5-8" style="fill:#fff;fill-opacity:1" transform="matrix(.85798 0 0 .80117 614.282 146.44)"><path id="path40292-1" d="m103.008 562.515-29.139 56.168 67.6-54.92-33.8 81.132 78.09-81.132-29.137 84.876 71.097-83.628-26.807 83.628 59.442-79.883-19.814 78.635 53.614-79.883-25.642 78.635 45.456-43.686" class="obj-type" style="fill:none;fill-rule:evenodd;stroke:#ff3d01;stroke-width:36.1843px;stroke-linecap:round;stroke-linejoin:round;stroke-miterlimit:4;stroke-dasharray:none;stroke-opacity:1"/><text xml:space="preserve" id="text40169-1-1" x="193.256" y="622.154" style="letter-spacing:0;word-spacing:0;fill:#2f2f2f;fill-opacity:1;stroke:none;stroke-width:1px;stroke-linecap:butt;stroke-linejoin:miter;stroke-opacity:1;font-family:sans-serif;font-size:45px;font-style:normal;font-weight:400;line-height:125%"><tspan id="tspan40171-8-5" x="193.256" y="622.154" style="font-variant:normal;-inkscape-font-specification:&quot;Fira Sans Bold&quot;;text-align:center;text-anchor:middle;fill:#2f2f2f;fill-opacity:1;font-family:Fira Sans;font-style:normal;font-weight:700;font-stretch:100%">Enemigo</tspan></text></g><g id="marcador-type-5-2" style="fill:#fff;fill-opacity:1" transform="matrix(.85798 0 0 .80117 110.282 377.382)"><path id="path40292-0" d="m103.008 562.515-29.139 56.168 67.6-54.92-33.8 81.132 78.09-81.132-29.137 84.876 71.097-83.628-26.807 83.628 59.442-79.883-19.814 78.635 53.614-79.883-25.642 78.635 45.456-43.686" class="obj-type" style="fill:none;fill-rule:evenodd;stroke:#ffb401;stroke-width:36.1843px;stroke-linecap:round;stroke-linejoin:round;stroke-miterlimit:4;stroke-dasharray:none;stroke-opacity:1"/><text xml:space="preserve" id="text40169-1-2" x="193.256" y="622.154" style="letter-spacing:0;word-spacing:0;fill:#2f2f2f;fill-opacity:1;stroke:none;stroke-width:1px;stroke-linecap:butt;stroke-linejoin:miter;stroke-opacity:1;font-family:sans-serif;font-size:45px;font-style:normal;font-weight:400;line-height:125%"><tspan id="tspan40171-8-7" x="193.256" y="622.154" style="font-variant:normal;-inkscape-font-specification:&quot;Fira Sans Bold&quot;;text-align:center;text-anchor:middle;fill:#2f2f2f;fill-opacity:1;font-family:Fira Sans;font-style:normal;font-weight:700;font-stretch:100%">Prota</tspan></text></g><g id="marcador-type-5-21" style="fill:#fff;fill-opacity:1" transform="matrix(.85798 0 0 .80117 468.282 377.382)"><path id="path40292-98" d="m103.008 562.515-29.139 56.168 67.6-54.92-33.8 81.132 78.09-81.132-29.137 84.876 71.097-83.628-26.807 83.628 59.442-79.883-19.814 78.635 53.614-79.883-25.642 78.635 45.456-43.686" class="obj-type" style="fill:none;fill-rule:evenodd;stroke:#fc01ff;stroke-width:36.1843px;stroke-linecap:round;stroke-linejoin:round;stroke-miterlimit:4;stroke-dasharray:none;stroke-opacity:1"/><text xml:space="preserve" id="text40169-1-3" x="193.256" y="622.154" style="letter-spacing:0;word-spacing:0;fill:#2f2f2f;fill-opacity:1;stroke:none;stroke-width:1px;stroke-linecap:butt;stroke-linejoin:miter;stroke-opacity:1;font-family:sans-serif;font-size:45px;font-style:normal;font-weight:400;line-height:125%"><tspan id="tspan40171-8-9" x="193.256" y="622.154" style="font-variant:normal;-inkscape-font-specification:&quot;Fira Sans Bold&quot;;text-align:center;text-anchor:middle;fill:#2f2f2f;fill-opacity:1;font-family:Fira Sans;font-style:normal;font-weight:700;font-stretch:100%">Disparo</tspan></text></g><path id="rect86791" d="m213.725 675.226 21.307-29.293v29.293l29.2-29.293v29.293l29.2-29.293v29.293h11.25l8-55.687h10.507v93.835H213.725z" class="factory" style="fill:none;fill-opacity:1;stroke:#cbcbcb;stroke-width:4.16561px;stroke-linecap:round;stroke-linejoin:round;stroke-miterlimit:4;stroke-dasharray:none;stroke-dashoffset:0;stroke-opacity:1"/><path id="rect86791-4" d="m513.01 675.226 21.307-29.293v29.293l29.2-29.293v29.293l29.2-29.293v29.293h11.25l8-55.687h10.507v93.835H513.01z" class="factory" style="fill:none;fill-opacity:1;stroke:#cbcbcb;stroke-width:4.16561px;stroke-linecap:round;stroke-linejoin:round;stroke-miterlimit:4;stroke-dasharray:none;stroke-dashoffset:0;stroke-opacity:1"/><path id="rect86791-4-8" d="m814.01 675.226 21.307-29.293v29.293l29.2-29.293v29.293l29.2-29.293v29.293h11.25l8-55.687h10.507v93.835H814.01z" class="factory" style="fill:none;fill-opacity:1;stroke:#cbcbcb;stroke-width:4.16561px;stroke-linecap:round;stroke-linejoin:round;stroke-miterlimit:4;stroke-dasharray:none;stroke-dashoffset:0;stroke-opacity:1"/><path id="rect86791-4-8-6-1" d="m338.01 906.227 21.307-29.293v29.293l29.2-29.293v29.293l29.2-29.293v29.293h11.25l8-55.687h10.507v93.834H338.01z" class="factory" style="fill:none;fill-opacity:1;stroke:#cbcbcb;stroke-width:4.16561px;stroke-linecap:round;stroke-linejoin:round;stroke-miterlimit:4;stroke-dasharray:none;stroke-dashoffset:0;stroke-opacity:1"/><path id="rect86791-4-8-6" d="m667.01 906.227 21.307-29.293v29.293l29.2-29.293v29.293l29.2-29.293v29.293h11.25l8-55.687h10.507v93.834H667.01z" class="factory" style="fill:none;fill-opacity:1;stroke:#cbcbcb;stroke-width:4.16561px;stroke-linecap:round;stroke-linejoin:round;stroke-miterlimit:4;stroke-dasharray:none;stroke-dashoffset:0;stroke-opacity:1"/></g></svg>