<svg xmlns="http://www.w3.org/2000/svg" xmlns:xlink="http://www.w3.org/1999/xlink" width="1019.541" height="602.783" id="svg22274" version="1.1"><defs id="defs22276"><symbol id="symbol27475"><path d="M38.86 25.95c.08-.64.14-1.29.14-1.95s-.06-1.31-.14-1.95l4.23-3.31c.38-.3.49-.84.24-1.28l-4-6.93c-.25-.43-.77-.61-1.22-.43l-4.98 2.01c-1.03-.79-2.16-1.46-3.38-1.97L29 4.84c-.09-.47-.5-.84-1-.84h-8c-.5 0-.91.37-.99.84l-.75 5.3a14.8 14.8 0 0 0-3.38 1.97L9.9 10.1a1 1 0 0 0-1.22.43l-4 6.93c-.25.43-.14.97.24 1.28l4.22 3.31C9.06 22.69 9 23.34 9 24s.06 1.31.14 1.95l-4.22 3.31c-.38.3-.49.84-.24 1.28l4 6.93c.25.43.77.61 1.22.43l4.98-2.01c1.03.79 2.16 1.46 3.38 1.97l.75 5.3c.08.47.49.84.99.84h8c.5 0 .91-.37.99-.84l.75-5.3a14.8 14.8 0 0 0 3.38-1.97l4.98 2.01a1 1 0 0 0 1.22-.43l4-6.93c.25-.43.14-.97-.24-1.28l-4.22-3.31zM24 31c-3.87 0-7-3.13-7-7s3.13-7 7-7 7 3.13 7 7-3.13 7-7 7z" style="stroke:none" id="path27479"/></symbol></defs><g id="layer1" transform="translate(29.258 -481.674)"><path d="m10 543.79 22.857-18.57-24.286 87.142 85.919-92.857L8.57 680.934l104.286-164.286L11.43 749.505l144.693-230L7.142 818.076l210.613-297.142L10 886.648l269.388-365.714L5.714 955.219 341.02 519.505 5.714 1023.791l396.94-504.286-355.511 530 417.143-528.571L120 1046.648l405.918-527.143-333.06 530 394.693-530-321.837 528.571 383.47-527.142-310.613 521.428 372.245-520L411.43 1045.22l361.02-525.714-288.163 525.714 349.796-522.857-276.94 525.714 338.572-528.571L630 1048.076l325.143-525.714-252.286 524.286 250.857-413.214-178 413.214 176.572-302.143-103.715 302.143 103.715-191.072-30.857 191.072 33.714-80" id="background" style="fill:none;fill-rule:evenodd;stroke:#2f2f2f;stroke-width:50px;stroke-linecap:round;stroke-linejoin:round;stroke-miterlimit:4;stroke-dasharray:none;stroke-opacity:1"/><path style="fill:none;fill-opacity:1;stroke:#ff3d01;stroke-width:10px;stroke-linecap:round;stroke-linejoin:round;stroke-miterlimit:4;stroke-dasharray:none;stroke-dashoffset:0;stroke-opacity:1" d="M133.023 640.967h374.979v318.98h-374.98z" id="container"/><g id="marcador-type-5-8" style="fill:#fff;fill-opacity:1" transform="matrix(.85798 0 0 .80117 154.052 152.44)"><path style="fill:none;fill-rule:evenodd;stroke:#ff3d01;stroke-width:36.1843px;stroke-linecap:round;stroke-linejoin:round;stroke-miterlimit:4;stroke-dasharray:none;stroke-opacity:1" d="M103.007 562.515 73.87 618.683l67.6-54.92-33.8 81.132 78.09-81.132-29.137 84.876 71.097-83.628-26.807 83.628 59.442-79.883-19.814 78.635 53.614-79.883-25.642 78.635 45.456-43.686" id="path40292-1" class="obj-type"/><text id="text40169-1-1" y="622.154" x="193.256" style="letter-spacing:0;word-spacing:0;fill:#2f2f2f;fill-opacity:1;stroke:none;stroke-width:1px;stroke-linecap:butt;stroke-linejoin:miter;stroke-opacity:1;font-family:sans-serif;font-size:45px;font-style:normal;font-weight:400;line-height:125%" xml:space="preserve"><tspan style="font-variant:normal;-inkscape-font-specification:&quot;Fira Sans Bold&quot;;text-align:center;text-anchor:middle;fill:#2f2f2f;fill-opacity:1;font-family:Fira Sans;font-style:normal;font-weight:700;font-stretch:100%" y="622.154" x="193.256" id="tspan40171-8-5">Enemigo</tspan></text></g><g id="g41425" transform="translate(75.907)"><use mask="none" clip-path="none" height="100%" width="100%" y="0" x="0" transform="translate(75.737 708.457)" xlink:href="#symbol27475" style="fill:#ff3d01;fill-opacity:1;stroke:#000" id="use41338"/><text id="text41385" y="740.253" x="129.742" style="letter-spacing:0;word-spacing:0;fill:#000;fill-opacity:1;stroke:none;stroke-width:1px;stroke-linecap:butt;stroke-linejoin:miter;stroke-opacity:1;font-family:sans-serif;font-size:45px;font-style:normal;font-weight:400;line-height:125%" xml:space="preserve"><tspan style="font-variant:normal;-inkscape-font-specification:&quot;Fira Sans&quot;;fill:#fff;fill-opacity:1;font-family:Fira Sans;font-size:27.5px;font-style:normal;font-weight:400;font-stretch:100%" y="740.253" x="129.742" id="tspan41387">Moverse a la izquierda</tspan></text><use mask="none" clip-path="none" height="100%" width="100%" y="0" x="0" transform="translate(713.222 710.457)" xlink:href="#symbol27475" style="fill:#cbcbcb;fill-opacity:1;stroke:#000" id="use41338-01"/><g id="g41410" class="api-item"><use id="use41338-4" style="fill:#ff3d01;fill-opacity:1;stroke:#000" xlink:href="#symbol27475" transform="translate(75.737 765.79)" x="0" y="0" width="100%" height="100%" clip-path="none" mask="none"/><text xml:space="preserve" style="letter-spacing:0;word-spacing:0;fill:#000;fill-opacity:1;stroke:none;stroke-width:1px;stroke-linecap:butt;stroke-linejoin:miter;stroke-opacity:1;font-family:sans-serif;font-size:45px;font-style:normal;font-weight:400;line-height:125%" x="129.742" y="799.938" id="text41389"><tspan id="tspan41391" x="129.742" y="799.938" style="font-variant:normal;-inkscape-font-specification:&quot;Fira Sans&quot;;fill:#fff;fill-opacity:1;font-family:Fira Sans;font-size:27.5px;font-style:normal;font-weight:400;font-stretch:100%">Moverse a la derecha.</tspan></text></g><g id="g41415" class="api-item"><use id="use41338-5" style="fill:#ff3d01;fill-opacity:1;stroke:#000" xlink:href="#symbol27475" transform="translate(75.737 823.124)" x="0" y="0" width="100%" height="100%" clip-path="none" mask="none"/><text xml:space="preserve" style="letter-spacing:0;word-spacing:0;fill:#000;fill-opacity:1;stroke:none;stroke-width:1px;stroke-linecap:butt;stroke-linejoin:miter;stroke-opacity:1;font-family:sans-serif;font-size:45px;font-style:normal;font-weight:400;line-height:125%" x="131.282" y="856.432" id="text41393"><tspan id="tspan41395" x="131.282" y="856.432" style="font-variant:normal;-inkscape-font-specification:&quot;Fira Sans&quot;;fill:#fff;fill-opacity:1;font-family:Fira Sans;font-size:27.5px;font-style:normal;font-weight:400;font-stretch:100%">Avanzar.</tspan></text></g><g id="g41420" class="api-item"><use id="use41338-0" style="fill:#ff3d01;fill-opacity:1;stroke:#000" xlink:href="#symbol27475" transform="translate(75.737 883.66)" x="0" y="0" width="100%" height="100%" clip-path="none" mask="none"/><text xml:space="preserve" style="letter-spacing:0;word-spacing:0;fill:#000;fill-opacity:1;stroke:none;stroke-width:1px;stroke-linecap:butt;stroke-linejoin:miter;stroke-opacity:1;font-family:sans-serif;font-size:45px;font-style:normal;font-weight:400;line-height:125%" x="128.697" y="915.457" id="text41397"><tspan id="tspan41399" x="128.697" y="915.457" style="font-variant:normal;-inkscape-font-specification:&quot;Fira Sans&quot;;fill:#fff;fill-opacity:1;font-family:Fira Sans;font-size:27.5px;font-style:normal;font-weight:400;font-stretch:100%">Disparar.</tspan></text></g></g><g id="marcador-type-5-21" style="fill:#fff;fill-opacity:1" transform="matrix(.85798 0 0 .80117 559.675 159.924)"><path style="fill:none;fill-rule:evenodd;stroke:#fc01ff;stroke-width:36.1843px;stroke-linecap:round;stroke-linejoin:round;stroke-miterlimit:4;stroke-dasharray:none;stroke-opacity:1" d="M103.007 562.515 73.87 618.683l67.6-54.92-33.8 81.132 78.09-81.132-29.137 84.876 71.097-83.628-26.807 83.628 59.442-79.883-19.814 78.635 53.614-79.883-25.642 78.635 45.456-43.686" id="path40292-98" class="obj-type"/><text id="text40169-1-3" y="622.154" x="193.256" style="letter-spacing:0;word-spacing:0;fill:#2f2f2f;fill-opacity:1;stroke:none;stroke-width:1px;stroke-linecap:butt;stroke-linejoin:miter;stroke-opacity:1;font-family:sans-serif;font-size:45px;font-style:normal;font-weight:400;line-height:125%" xml:space="preserve"><tspan style="font-variant:normal;-inkscape-font-specification:&quot;Fira Sans Bold&quot;;text-align:center;text-anchor:middle;fill:#2f2f2f;fill-opacity:1;font-family:Fira Sans;font-style:normal;font-weight:700;font-stretch:100%" y="622.154" x="193.256" id="tspan40171-8-9">Disparo</tspan></text></g><path style="fill:none;fill-opacity:1;stroke:#cbcbcb;stroke-width:4.16561px;stroke-linecap:round;stroke-linejoin:round;stroke-miterlimit:4;stroke-dasharray:none;stroke-dashoffset:0;stroke-opacity:1" d="m758.403 688.769 21.307-29.293v29.293l29.2-29.293v29.293l29.2-29.293v29.293h11.25l8-55.687h10.507v93.834H758.403z" id="rect86791-4-8-6" class="factory"/><path style="fill:none;fill-rule:evenodd;stroke:#fff;stroke-width:10px;stroke-linecap:butt;stroke-linejoin:miter;stroke-miterlimit:4;stroke-dasharray:none;stroke-opacity:1" d="M14.742 1018.457s-32-138 134-112" id="path125234" class="message"/><path style="fill:none;fill-rule:evenodd;stroke:#fff;stroke-width:10px;stroke-linecap:butt;stroke-linejoin:miter;stroke-miterlimit:4;stroke-dasharray:none;stroke-opacity:1" d="m136.742 888.457 12 20-18 16" id="path125236" class="message"/><path class="message" id="path125253" d="M322.834 908.457s338 32 472-146" style="fill:none;fill-rule:evenodd;stroke:#fff;stroke-width:10px;stroke-linecap:butt;stroke-linejoin:miter;stroke-miterlimit:4;stroke-dasharray:none;stroke-opacity:1"/><path class="message" id="path125255" d="m766.834 764.457 28-2 4 26" style="fill:none;fill-rule:evenodd;stroke:#fff;stroke-width:10px;stroke-linecap:butt;stroke-linejoin:miter;stroke-miterlimit:4;stroke-dasharray:none;stroke-opacity:1"/><path style="fill:none;fill-rule:evenodd;stroke:#fc01ff;stroke-width:10px;stroke-linecap:butt;stroke-linejoin:miter;stroke-miterlimit:4;stroke-dasharray:none;stroke-opacity:1" d="M828.742 758.457s32 38-6 98" id="path125274" class="creation"/><path style="fill:none;fill-rule:evenodd;stroke:#fc01ff;stroke-width:10px;stroke-linecap:butt;stroke-linejoin:miter;stroke-miterlimit:4;stroke-dasharray:none;stroke-opacity:1" d="m844.742 852.457-22 2-12-16" id="path125276" class="creation"/><circle r="20" cy="894.457" cx="807.227" id="path125263" style="fill:#fc01ff;fill-opacity:1;stroke:#fc01ff;stroke-width:10px;stroke-linecap:round;stroke-linejoin:round;stroke-miterlimit:4;stroke-dasharray:none;stroke-dashoffset:0;stroke-opacity:1" class="creation"/></g></svg>