<svg xmlns="http://www.w3.org/2000/svg" xmlns:xlink="http://www.w3.org/1999/xlink" width="1019.541" height="602.783" id="svg22274" version="1.1"><defs id="defs22276"><symbol id="symbol167294"><path d="M38.86 25.95c.08-.64.14-1.29.14-1.95s-.06-1.31-.14-1.95l4.23-3.31c.38-.3.49-.84.24-1.28l-4-6.93c-.25-.43-.77-.61-1.22-.43l-4.98 2.01c-1.03-.79-2.16-1.46-3.38-1.97L29 4.84c-.09-.47-.5-.84-1-.84h-8c-.5 0-.91.37-.99.84l-.75 5.3a14.8 14.8 0 0 0-3.38 1.97L9.9 10.1a1 1 0 0 0-1.22.43l-4 6.93c-.25.43-.14.97.24 1.28l4.22 3.31C9.06 22.69 9 23.34 9 24s.06 1.31.14 1.95l-4.22 3.31c-.38.3-.49.84-.24 1.28l4 6.93c.25.43.77.61 1.22.43l4.98-2.01c1.03.79 2.16 1.46 3.38 1.97l.75 5.3c.08.47.49.84.99.84h8c.5 0 .91-.37.99-.84l.75-5.3a14.8 14.8 0 0 0 3.38-1.97l4.98 2.01a1 1 0 0 0 1.22-.43l4-6.93c.25-.43.14-.97-.24-1.28l-4.22-3.31zM24 31c-3.87 0-7-3.13-7-7s3.13-7 7-7 7 3.13 7 7-3.13 7-7 7z" style="stroke:none" id="path167298"/></symbol></defs><g id="layer1" transform="translate(29.258 -481.674)"><path d="m10 543.79 22.857-18.57-24.286 87.142 85.919-92.857L8.57 680.934l104.286-164.286L11.43 749.505l144.693-230L7.142 818.076l210.613-297.142L10 886.648l269.388-365.714L5.714 955.219 341.02 519.505 5.714 1023.791l396.94-504.286-355.511 530 417.143-528.571L120 1046.648l405.918-527.143-333.06 530 394.693-530-321.837 528.571 383.47-527.142-310.613 521.428 372.245-520L411.43 1045.22l361.02-525.714-288.163 525.714 349.796-522.857-276.94 525.714 338.572-528.571L630 1048.076l325.143-525.714-252.286 524.286 250.857-413.214-178 413.214 176.572-302.143-103.715 302.143 103.715-191.072-30.857 191.072 33.714-80" id="background" style="fill:none;fill-rule:evenodd;stroke:#2f2f2f;stroke-width:50px;stroke-linecap:round;stroke-linejoin:round;stroke-miterlimit:4;stroke-dasharray:none;stroke-opacity:1"/><g id="marcador-type-5-8" style="fill:#fff;fill-opacity:1" transform="matrix(.85798 0 0 .80117 142.282 284.44)"><path style="fill:none;fill-rule:evenodd;stroke:#ff3d01;stroke-width:36.1843px;stroke-linecap:round;stroke-linejoin:round;stroke-miterlimit:4;stroke-dasharray:none;stroke-opacity:1" d="M103.007 562.515 73.87 618.683l67.6-54.92-33.8 81.132 78.09-81.132-29.137 84.876 71.097-83.628-26.807 83.628 59.442-79.883-19.814 78.635 53.614-79.883-25.642 78.635 45.456-43.686" id="path40292-1" class="obj-type"/><text id="text40169-1-1" y="622.154" x="193.256" style="letter-spacing:0;word-spacing:0;fill:#2f2f2f;fill-opacity:1;stroke:none;stroke-width:1px;stroke-linecap:butt;stroke-linejoin:miter;stroke-opacity:1;font-family:sans-serif;font-size:45px;font-style:normal;font-weight:400;line-height:125%" xml:space="preserve"><tspan style="font-variant:normal;-inkscape-font-specification:&quot;Fira Sans Bold&quot;;text-align:center;text-anchor:middle;fill:#2f2f2f;fill-opacity:1;font-family:Fira Sans;font-style:normal;font-weight:700;font-stretch:100%" y="622.154" x="193.256" id="tspan40171-8-5">Enemigo</tspan></text></g><path style="fill:none;fill-opacity:1;stroke:#cbcbcb;stroke-width:4.16561px;stroke-linecap:round;stroke-linejoin:round;stroke-miterlimit:4;stroke-dasharray:none;stroke-dashoffset:0;stroke-opacity:1" d="m342.01 813.226 21.307-29.293v29.293l29.2-29.293v29.293l29.2-29.293v29.293h11.25l8-55.687h10.507V851.374H342.01z" id="rect86791-4-8" class="factory"/><g transform="matrix(.85798 0 0 .80117 473.282 144.382)" style="fill:#fff;fill-opacity:1" id="marcador-type-5-8-9"><path class="obj-type" id="path40292-1-8" d="M103.007 562.515 73.87 618.683l67.6-54.92-33.8 81.132 78.09-81.132-29.137 84.876 71.097-83.628-26.807 83.628 59.442-79.883-19.814 78.635 53.614-79.883-25.642 78.635 45.456-43.686" style="fill:none;fill-rule:evenodd;stroke:#ceff01;stroke-width:36.1843px;stroke-linecap:round;stroke-linejoin:round;stroke-miterlimit:4;stroke-dasharray:none;stroke-opacity:1"/><text xml:space="preserve" style="letter-spacing:0;word-spacing:0;fill:#2f2f2f;fill-opacity:1;stroke:none;stroke-width:1px;stroke-linecap:butt;stroke-linejoin:miter;stroke-opacity:1;font-family:sans-serif;font-size:45px;font-style:normal;font-weight:400;line-height:125%" x="193.256" y="622.154" id="text40169-1-1-1"><tspan id="tspan40171-8-5-5" x="193.256" y="622.154" style="font-variant:normal;-inkscape-font-specification:&quot;Fira Sans Bold&quot;;text-align:center;text-anchor:middle;fill:#2f2f2f;fill-opacity:1;font-family:Fira Sans;font-style:normal;font-weight:700;font-stretch:100%">Nave</tspan></text></g><path style="fill:none;fill-opacity:1;stroke:#cbcbcb;stroke-width:4.16561px;stroke-linecap:round;stroke-linejoin:round;stroke-miterlimit:4;stroke-dasharray:none;stroke-dashoffset:0;stroke-opacity:1" d="m675.725 673.226 21.307-29.293v29.293l29.2-29.293v29.293l29.2-29.293v29.293h11.25l8-55.687h10.507V711.374H675.725z" id="rect86791" class="factory"/><use id="use199300" style="fill:#cbcbcb;fill-opacity:1;stroke:#000" xlink:href="#symbol167294" transform="translate(706.452 694.457)" x="0" y="0" width="100%" height="100%"/><use id="use199300-6" style="fill:#cbcbcb;fill-opacity:1;stroke:#000" xlink:href="#symbol167294" transform="translate(372.737 836.457)" x="0" y="0" width="100%" height="100%"/><path style="fill:none;fill-rule:evenodd;stroke:#fff;stroke-width:10px;stroke-linecap:butt;stroke-linejoin:miter;stroke-miterlimit:4;stroke-dasharray:none;stroke-opacity:1" d="M152.742 982.457s134 48 226-98" id="path199329" class="message"/><path style="fill:none;fill-rule:evenodd;stroke:#fff;stroke-width:10.1px;stroke-linecap:butt;stroke-linejoin:miter;stroke-miterlimit:4;stroke-dasharray:none;stroke-opacity:1" d="m346.742 894.457 30-8v32" id="path199331" class="message"/><path style="fill:none;fill-rule:evenodd;stroke:#fff;stroke-width:10px;stroke-linecap:butt;stroke-linejoin:miter;stroke-miterlimit:4;stroke-dasharray:none;stroke-opacity:1" d="M412.742 888.457s212-4 292-148" id="path199333" class="message"/><path style="fill:none;fill-rule:evenodd;stroke:#fff;stroke-width:9.9px;stroke-linecap:butt;stroke-linejoin:miter;stroke-miterlimit:4;stroke-dasharray:none;stroke-opacity:1" d="m706.742 770.457-2-28-26 6" id="path199335" class="message"/><path style="fill:none;fill-rule:evenodd;stroke:#ceff01;stroke-width:10px;stroke-linecap:butt;stroke-linejoin:miter;stroke-miterlimit:4;stroke-dasharray:none;stroke-opacity:1" d="M656.742 694.457s-124 26-154 74" id="path199337" class="message"/><path style="fill:none;fill-rule:evenodd;stroke:#ceff01;stroke-width:10px;stroke-linecap:butt;stroke-linejoin:miter;stroke-miterlimit:4;stroke-dasharray:none;stroke-opacity:1" d="M502.742 744.457v22h22" id="path199339" class="message"/><circle style="fill:#ceff01;fill-opacity:1;stroke:#ceff01;stroke-width:10px;stroke-linecap:round;stroke-linejoin:round;stroke-miterlimit:4;stroke-dasharray:none;stroke-dashoffset:0;stroke-opacity:1" id="path199341" cx="478.742" cy="794.457" r="16" class="message"/><circle style="fill:#ff3d01;fill-opacity:1;stroke:#ff3d01;stroke-width:10px;stroke-linecap:round;stroke-linejoin:round;stroke-miterlimit:4;stroke-dasharray:none;stroke-dashoffset:0;stroke-opacity:1" id="path199341-2" cx="478.742" cy="828.457" r="16" class="message"/><path style="fill:none;fill-rule:evenodd;stroke:#ff3d01;stroke-width:10px;stroke-linecap:butt;stroke-linejoin:miter;stroke-miterlimit:4;stroke-dasharray:none;stroke-opacity:1" d="M328.742 834.457s-66-20-158 68" id="path199358" class="message"/><path style="fill:none;fill-rule:evenodd;stroke:#ff3d01;stroke-width:10px;stroke-linecap:butt;stroke-linejoin:miter;stroke-miterlimit:4;stroke-dasharray:none;stroke-opacity:1" d="m173.467 879.635-7.03 24.629 26.514-4.126" id="path199360" class="message"/><circle style="fill:#ff3d01;fill-opacity:1;stroke:#ff3d01;stroke-width:10px;stroke-linecap:round;stroke-linejoin:round;stroke-miterlimit:4;stroke-dasharray:none;stroke-dashoffset:0;stroke-opacity:1" id="path199341-2-2" cx="140.742" cy="936.457" r="16" class="message"/></g></svg>