<svg width="593.535" height="476.586" viewBox="0 0 556.439 446.8" id="svg2" version="1.1" xmlns:xlink="http://www.w3.org/1999/xlink" xmlns="http://www.w3.org/2000/svg"><defs id="defs4"><linearGradient id="linearGradient4223"><stop style="stop-color:#f95;stop-opacity:1" offset="0" id="stop4225"/><stop style="stop-color:#f95;stop-opacity:0" offset="1" id="stop4227"/></linearGradient><linearGradient id="linearGradient4199"><stop style="stop-color:navy;stop-opacity:1" offset="0" id="stop4201"/><stop style="stop-color:#c87137;stop-opacity:0" offset="1" id="stop4203"/></linearGradient><linearGradient xlink:href="#linearGradient4199" id="linearGradient4205" x1="11.123" y1="505.87" x2="627.294" y2="55.342" gradientUnits="userSpaceOnUse"/><linearGradient xlink:href="#linearGradient4223" id="linearGradient4229" x1="99.515" y1="336.164" x2="423.744" y2="77.565" gradientUnits="userSpaceOnUse" gradientTransform="translate(-34.345 88.893)"/><linearGradient xlink:href="#linearGradient4223" id="linearGradient4237" gradientUnits="userSpaceOnUse" x1="99.515" y1="336.164" x2="423.744" y2="77.565" gradientTransform="translate(38.386 -34.345)"/><linearGradient xlink:href="#linearGradient4223" id="linearGradient4239" gradientUnits="userSpaceOnUse" x1="99.515" y1="336.164" x2="423.744" y2="77.565" gradientTransform="translate(111.117 86.873)"/><marker orient="auto" refY="0" refX="0" id="marker7666" style="overflow:visible"><path id="path7668" d="m0 0 5-5-17.5 5L5 5 0 0Z" style="fill:#000;fill-opacity:1;fill-rule:evenodd;stroke:#000;stroke-width:1pt;stroke-opacity:1" transform="matrix(.8 0 0 .8 10 0)"/></marker><marker orient="auto" refY="0" refX="0" id="Arrow1Lstart" style="overflow:visible"><path id="path4268" d="m0 0 5-5-17.5 5L5 5 0 0Z" style="fill:#000;fill-opacity:1;fill-rule:evenodd;stroke:#000;stroke-width:1pt;stroke-opacity:1" transform="matrix(.8 0 0 .8 10 0)"/></marker><marker orient="auto" refY="0" refX="0" id="Arrow1Lend" style="overflow:visible"><path id="path4271" d="m0 0 5-5-17.5 5L5 5 0 0Z" style="fill:#000;fill-opacity:1;fill-rule:evenodd;stroke:#000;stroke-width:1pt;stroke-opacity:1" transform="matrix(-.8 0 0 -.8 -10 0)"/></marker></defs><g id="layer1" transform="translate(-53.049 -55.52)"><path style="fill:#fff;fill-opacity:1;stroke-width:1.2439px" id="rect1" d="M42.384 47.396h577.681v462.145H42.384z"/><path style="fill:url(#linearGradient4205);fill-opacity:1;fill-rule:evenodd;stroke:#1a267f;stroke-width:3px;stroke-linecap:butt;stroke-linejoin:miter;stroke-miterlimit:4;stroke-dasharray:none;stroke-opacity:1" d="M54.549 195.753v305.066h389.918V195.753H390.93v246.476H108.086V195.753H54.55z" id="rect3336"/><circle style="fill:url(#linearGradient4229);fill-opacity:1;fill-rule:evenodd;stroke:#954e19;stroke-width:3px;stroke-linecap:butt;stroke-linejoin:miter;stroke-miterlimit:4;stroke-dasharray:none;stroke-opacity:1" id="path3361" cx="170.716" cy="368.489" r="51.518"/><circle style="fill:url(#linearGradient4239);fill-opacity:1;fill-rule:evenodd;stroke:#954e19;stroke-width:3px;stroke-linecap:butt;stroke-linejoin:miter;stroke-miterlimit:4;stroke-dasharray:none;stroke-opacity:1" id="circle4233" cx="316.178" cy="366.469" r="51.518"/><circle cy="245.25" cx="243.447" id="circle4235" style="fill:url(#linearGradient4237);fill-opacity:1;fill-rule:evenodd;stroke:#954e19;stroke-width:3px;stroke-linecap:butt;stroke-linejoin:miter;stroke-miterlimit:4;stroke-dasharray:none;stroke-opacity:1" r="51.518"/><path style="fill:none;fill-rule:evenodd;stroke:#000;stroke-width:3px;stroke-linecap:butt;stroke-linejoin:miter;stroke-miterlimit:4;stroke-dasharray:none;stroke-opacity:1;marker-end:url(#Arrow1Lend)" d="M608.633 67.954s-62.358-43.298-206.071 42.426l-115.158 68.69" id="path7664"/></g></svg>