<svg xmlns="http://www.w3.org/2000/svg" width="238" height="436" preserveAspectRatio="none" style="background:#fff;width:238px;height:436px"><g id="elem_Entity"><rect id="Entity" width="66.748" height="32" x="163" y="100" fill="#F1F1F1" rx="2.5" ry="2.5" style="stroke:#181818;stroke-width:.5px"/><circle cx="178" cy="116" r="11" fill="#A9DCDF" style="stroke:#181818;stroke-width:1px"/><path d="m173.172 121.75 3.344-12.187h3.14l3.375 12.187h-2.469l-.734-3.016h-3.516l-.75 3.016zm4.406-8.047-.75 3h2.516l-.719-3q-.14-.578-.266-1.125-.125-.562-.265-1.14-.11.578-.25 1.14-.14.547-.266 1.125"/><text x="192" y="121.432" font-family="sans-serif" font-size="14" font-style="italic" textLength="34.748">Entity</text></g><g id="elem_Movable"><rect id="Movable" width="84.85" height="32" x="106.95" y="193" fill="#F1F1F1" rx="2.5" ry="2.5" style="stroke:#181818;stroke-width:.5px"/><circle cx="121.95" cy="209" r="11" fill="#A9DCDF" style="stroke:#181818;stroke-width:1px"/><path d="m117.122 214.75 3.344-12.187h3.14l3.375 12.187h-2.468l-.735-3.016h-3.516l-.75 3.016zm4.406-8.047-.75 3h2.516l-.719-3q-.14-.578-.266-1.125-.125-.562-.265-1.14-.11.578-.25 1.14-.14.547-.266 1.125"/><text x="135.95" y="214.432" font-family="sans-serif" font-size="14" font-style="italic" textLength="52.85">Movable</text></g><g id="elem_Weapon"><rect id="Weapon" width="86.502" height="32" x="101.13" y="397" fill="#F1F1F1" rx="2.5" ry="2.5" style="stroke:#181818;stroke-width:.5px"/><circle cx="116.13" cy="413" r="11" fill="#ADD1B2" style="stroke:#181818;stroke-width:1px"/><path d="M115.599 419.922q-1.75 0-2.89-.735-1.126-.75-1.688-2.093-.547-1.36-.547-3.156 0-2.032.656-3.485t1.938-2.234q1.28-.781 3.156-.781.89 0 1.562.187.672.172 1.36.516l-.813 2.015q-.625-.312-1.172-.437-.531-.125-1.015-.125-1.172 0-1.875.531t-1 1.484-.297 2.22q0 2.015.718 2.983.72.954 2.313.954.594 0 1.219-.157.625-.156 1.453-.53v2.218q-.735.312-1.531.469-.782.156-1.547.156"/><text x="130.13" y="418.432" font-family="sans-serif" font-size="14" textLength="54.502">Weapon</text></g><g id="elem_Player"><rect id="Player" width="72.754" height="32" x="7" y="286" fill="#F1F1F1" rx="2.5" ry="2.5" style="stroke:#181818;stroke-width:.5px"/><circle cx="22" cy="302" r="11" fill="#ADD1B2" style="stroke:#181818;stroke-width:1px"/><path d="M21.469 308.922q-1.75 0-2.89-.735-1.126-.75-1.688-2.093-.547-1.36-.547-3.156 0-2.032.656-3.485t1.938-2.234q1.28-.781 3.156-.781.89 0 1.562.187.672.172 1.36.516l-.813 2.015q-.625-.312-1.172-.437-.531-.125-1.015-.125-1.172 0-1.875.531t-1 1.484-.297 2.22q0 2.015.718 2.983.72.954 2.313.954.594 0 1.219-.157.625-.156 1.453-.53v2.218q-.735.312-1.531.469-.782.156-1.547.156"/><text x="36" y="307.432" font-family="sans-serif" font-size="14" textLength="40.754">Player</text></g><g id="elem_Enemy"><rect id="Enemy" width="76.562" height="32" x="115.1" y="286" fill="#F1F1F1" rx="2.5" ry="2.5" style="stroke:#181818;stroke-width:.5px"/><circle cx="130.1" cy="302" r="11" fill="#ADD1B2" style="stroke:#181818;stroke-width:1px"/><path d="M129.569 308.922q-1.75 0-2.89-.735-1.126-.75-1.688-2.093-.547-1.36-.547-3.156 0-2.032.656-3.485t1.938-2.234q1.28-.781 3.156-.781.89 0 1.562.187.672.172 1.36.516l-.813 2.015q-.625-.312-1.172-.437-.531-.125-1.015-.125-1.172 0-1.875.531t-1 1.484-.297 2.22q0 2.015.718 2.983.72.954 2.313.954.594 0 1.219-.157.625-.156 1.453-.53v2.218q-.734.312-1.531.469-.782.156-1.547.156"/><text x="144.1" y="307.432" font-family="sans-serif" font-size="14" textLength="44.562">Enemy</text></g><g id="elem_Game"><rect id="Game" width="71.032" height="32" x="160.86" y="7" fill="#F1F1F1" rx="2.5" ry="2.5" style="stroke:#181818;stroke-width:.5px"/><circle cx="175.86" cy="23" r="11" fill="#ADD1B2" style="stroke:#181818;stroke-width:1px"/><path d="M175.329 29.922q-1.75 0-2.89-.735-1.126-.75-1.688-2.093-.547-1.36-.547-3.157 0-2.03.656-3.484.656-1.453 1.938-2.234 1.28-.782 3.156-.782.89 0 1.562.188.672.172 1.36.516l-.813 2.015q-.625-.312-1.172-.437-.531-.125-1.015-.125-1.172 0-1.875.531t-1 1.484-.297 2.22q0 2.015.719 2.983.718.954 2.312.954.594 0 1.219-.157.625-.156 1.453-.53v2.218q-.734.312-1.531.469-.782.156-1.547.156"/><text x="189.86" y="28.432" font-family="sans-serif" font-size="14" textLength="39.032">Game</text></g><g id="link_Entity_Movable" fill="none"><path id="Entity-backto-Movable" d="M180.142 148.434c-8.69 16.83-14.262 27.616-22.912 44.356" style="stroke:#181818;stroke-width:1px"/><path d="m188.4 132.44-13.59 13.241 10.663 5.505z" style="stroke:#181818;stroke-width:1px"/></g><g id="link_Entity_Weapon" fill="none"><path id="Entity-backto-Weapon" d="M204.563 149.872c8.16 33.98 20.527 100.338 4.817 168.128-7.35 31.7-31.96 61.36-48.7 78.59" style="stroke:#181818;stroke-width:1px"/><path d="m200.36 132.37-1.631 18.903 11.668-2.802z" style="stroke:#181818;stroke-width:1px"/></g><g id="link_Movable_Player" fill="none"><path id="Movable-backto-Player" d="M117.74 237.163c-19.61 16.83-37.14 31.887-56.65 48.627" style="stroke:#181818;stroke-width:1px"/><path d="m131.4 225.44-17.567 7.17 7.815 9.106z" style="stroke:#181818;stroke-width:1px"/></g><g id="link_Movable_Enemy" fill="none"><path id="Movable-backto-Enemy" d="M150.85 243.423c.74 16.83 1.12 25.627 1.86 42.367" style="stroke:#181818;stroke-width:1px"/><path d="m150.06 225.44-5.203 18.246 11.988-.527z" style="stroke:#181818;stroke-width:1px"/></g><g id="link_Game_Entity"><path id="Game-backto-Entity" fill="none" d="M196.38 51.44v48.35" style="stroke:#181818;stroke-width:1px"/><path fill="#181818" d="m196.38 39.44-4 6 4 6 4-6z" style="stroke:#181818;stroke-width:1px"/><text x="188.417" y="60.767" font-family="sans-serif" font-size="13" textLength="7.436">1</text><text x="188.207" y="88.314" font-family="sans-serif" font-size="13" textLength="7.163">*</text></g><g id="link_Player_Weapon"><path id="Player-backto-Weapon" fill="none" d="M65.578 326.96c19.19 20.7 45.252 48.84 64.552 69.66" style="stroke:#181818;stroke-width:1px"/><path fill="none" d="m57.42 318.16 1.146 7.12 7.012 1.68-1.145-7.12z" style="stroke:#181818;stroke-width:1px"/><text x="100.92" y="362.897" font-family="sans-serif" font-size="13" textLength="75.218">aggregation</text></g></svg>