<svg xmlns="http://www.w3.org/2000/svg" height="436" preserveAspectRatio="none" style="background:#fff;width:239px;height:436px" width="239"><g id="elem_Entity"><rect fill="#F1F1F1" height="32" id="Entity" rx="2.5" ry="2.5" style="stroke:#181818;stroke-width:.5px" width="68" x="162.5" y="100"/><circle cx="177.5" cy="116" fill="#A9DCDF" style="stroke:#181818;stroke-width:1px" r="11"/><path d="m172.672 121.75 3.344-12.188h3.14l3.375 12.188h-2.469l-.734-3.016h-3.516l-.75 3.016h-2.39Zm4.406-8.047-.75 3h2.516l-.719-3q-.14-.578-.266-1.125-.125-.562-.265-1.14-.11.578-.25 1.14-.14.547-.266 1.125Z"/><text font-family="sans-serif" font-size="14" font-style="italic" textLength="36" x="191.5" y="121.432">Entity</text></g><g id="elem_Movable"><rect fill="#F1F1F1" height="32" id="Movable" rx="2.5" ry="2.5" style="stroke:#181818;stroke-width:.5px" width="86" x="105.5" y="193"/><circle cx="120.5" cy="209" fill="#A9DCDF" style="stroke:#181818;stroke-width:1px" r="11"/><path d="m115.672 214.75 3.344-12.188h3.14l3.375 12.188h-2.469l-.734-3.016h-3.516l-.75 3.016h-2.39Zm4.406-8.047-.75 3h2.516l-.719-3q-.14-.578-.266-1.125-.125-.562-.265-1.14-.11.578-.25 1.14-.14.547-.266 1.125Z"/><text font-family="sans-serif" font-size="14" font-style="italic" textLength="54" x="134.5" y="214.432">Movable</text></g><g id="elem_Weapon"><rect fill="#F1F1F1" height="32" id="Weapon" rx="2.5" ry="2.5" style="stroke:#181818;stroke-width:.5px" width="87" x="100" y="397"/><circle cx="115" cy="413" fill="#ADD1B2" style="stroke:#181818;stroke-width:1px" r="11"/><path d="M114.469 419.922q-1.75 0-2.89-.735-1.126-.75-1.688-2.093-.547-1.36-.547-3.156 0-2.032.656-3.485.656-1.453 1.938-2.234 1.28-.781 3.156-.781.89 0 1.562.187.672.172 1.36.516l-.813 2.015q-.625-.312-1.172-.437-.531-.125-1.015-.125-1.172 0-1.875.531-.704.531-1 1.484-.297.954-.297 2.22 0 2.015.719 2.983.718.954 2.312.954.594 0 1.219-.157.625-.156 1.453-.53v2.218q-.734.312-1.531.469-.782.156-1.547.156Z"/><text font-family="sans-serif" font-size="14" textLength="55" x="129" y="418.432">Weapon</text></g><g id="elem_Player"><rect fill="#F1F1F1" height="32" id="Player" rx="2.5" ry="2.5" style="stroke:#181818;stroke-width:.5px" width="73" x="7" y="286"/><circle cx="22" cy="302" fill="#ADD1B2" style="stroke:#181818;stroke-width:1px" r="11"/><path d="M21.469 308.922q-1.75 0-2.89-.735-1.126-.75-1.688-2.093-.547-1.36-.547-3.156 0-2.032.656-3.485.656-1.453 1.938-2.234 1.28-.781 3.156-.781.89 0 1.562.187.672.172 1.36.516l-.813 2.015q-.625-.312-1.172-.437-.531-.125-1.015-.125-1.172 0-1.875.531-.703.531-1 1.484-.297.954-.297 2.22 0 2.015.718 2.983.72.954 2.313.954.594 0 1.219-.157.625-.156 1.453-.53v2.218q-.735.312-1.531.469-.782.156-1.547.156Z"/><text font-family="sans-serif" font-size="14" textLength="41" x="36" y="307.432">Player</text></g><g id="elem_Enemy"><rect fill="#F1F1F1" height="32" id="Enemy" rx="2.5" ry="2.5" style="stroke:#181818;stroke-width:.5px" width="77" x="115" y="286"/><circle cx="130" cy="302" fill="#ADD1B2" style="stroke:#181818;stroke-width:1px" r="11"/><path d="M129.469 308.922q-1.75 0-2.89-.735-1.126-.75-1.688-2.093-.547-1.36-.547-3.156 0-2.032.656-3.485.656-1.453 1.938-2.234 1.28-.781 3.156-.781.89 0 1.562.187.672.172 1.36.516l-.813 2.015q-.625-.312-1.172-.437-.531-.125-1.015-.125-1.172 0-1.875.531-.703.531-1 1.484-.297.954-.297 2.22 0 2.015.719 2.983.718.954 2.312.954.594 0 1.219-.157.625-.156 1.453-.53v2.218q-.734.312-1.531.469-.782.156-1.547.156Z"/><text font-family="sans-serif" font-size="14" textLength="45" x="144" y="307.432">Enemy</text></g><g id="elem_Game"><rect fill="#F1F1F1" height="32" id="Game" rx="2.5" ry="2.5" style="stroke:#181818;stroke-width:.5px" width="71" x="161" y="7"/><circle cx="176" cy="23" fill="#ADD1B2" style="stroke:#181818;stroke-width:1px" r="11"/><path d="M175.469 29.922q-1.75 0-2.89-.735-1.126-.75-1.688-2.093-.547-1.36-.547-3.157 0-2.03.656-3.484.656-1.453 1.938-2.234 1.28-.782 3.156-.782.89 0 1.562.188.672.172 1.36.516l-.813 2.015q-.625-.312-1.172-.437-.531-.125-1.015-.125-1.172 0-1.875.531-.703.531-1 1.484-.297.953-.297 2.22 0 2.015.719 2.983.718.954 2.312.954.594 0 1.219-.157.625-.156 1.453-.53v2.218q-.734.312-1.531.469-.782.156-1.547.156Z"/><text font-family="sans-serif" font-size="14" textLength="39" x="190" y="28.432">Game</text></g><g id="link_Entity_Movable" fill="none"><path d="M179.96 148.36c-8.88 16.83-14.61 27.69-23.44 44.43" id="Entity-backto-Movable" style="stroke:#181818;stroke-width:1px"/><path style="stroke:#181818;stroke-width:1px" d="m188.36 132.44-13.706 13.12 10.613 5.6 3.093-18.72z"/></g><g id="link_Entity_Weapon" fill="none"><path d="M204.999 149.877c8.48 34.06 21.311 100.593 4.501 168.123-7.9 31.73-32.76 61.39-49.61 78.6" id="Entity-backto-Weapon" style="stroke:#181818;stroke-width:1px"/><path style="stroke:#181818;stroke-width:1px" d="m200.65 132.41-1.474 18.916 11.645-2.899-10.171-16.017z"/></g><g id="link_Movable_Player" fill="none"><path d="M117.084 237.225c-19.43 16.83-36.714 31.825-56.034 48.565" id="Movable-backto-Player" style="stroke:#181818;stroke-width:1px"/><path style="stroke:#181818;stroke-width:1px" d="m130.69 225.44-17.534 7.25 7.857 9.07 9.677-16.32z"/></g><g id="link_Movable_Enemy" fill="none"><path d="M150.333 243.413c.92 16.83 1.407 25.637 2.327 42.377" id="Movable-backto-Enemy" style="stroke:#181818;stroke-width:1px"/><path style="stroke:#181818;stroke-width:1px" d="m149.35 225.44-5.009 18.3 11.982-.654-6.973-17.646z"/></g><g id="link_Game_Entity"><path d="M196.5 51.44v48.35" fill="none" id="Game-backto-Entity" style="stroke:#181818;stroke-width:1px"/><path fill="#181818" style="stroke:#181818;stroke-width:1px" d="m196.5 39.44-4 6 4 6 4-6-4-6z"/><text font-family="sans-serif" font-size="13" textLength="7" x="188.472" y="60.767">1</text><text font-family="sans-serif" font-size="13" textLength="7" x="188.297" y="88.314">*</text></g><g id="link_Player_Weapon"><path d="M65.514 327c19 20.7 44.776 48.8 63.876 69.62" fill="none" id="Player-backto-Weapon" style="stroke:#181818;stroke-width:1px"/><path fill="none" style="stroke:#181818;stroke-width:1px" d="m57.4 318.16 1.11 7.125L65.515 327l-1.11-7.125-7.005-1.715z"/><text font-family="sans-serif" font-size="13" textLength="74" x="100.5" y="362.897">aggregation</text></g></svg>