<svg xmlns="http://www.w3.org/2000/svg" width="245" height="434" data-diagram-type="CLASS" preserveAspectRatio="none" style="background:#fff;width:245px;height:434px"><g id="elem_Entity"><rect id="Entity" width="72.872" height="32" x="165.35" y="100" fill="#F1F1F1" rx="2.5" ry="2.5" style="stroke:#181818;stroke-width:.5px"/><circle cx="180.35" cy="116" r="11" fill="#A9DCDF" style="stroke:#181818;stroke-width:1px"/><path d="m175.522 121.75 3.344-12.187h3.14l3.375 12.187h-2.469l-.734-3.016h-3.516l-.75 3.016zm4.406-8.047-.75 3h2.516l-.719-3q-.14-.578-.266-1.125-.125-.562-.265-1.14-.11.578-.25 1.14-.14.547-.266 1.125"/><text x="194.35" y="120.847" font-family="sans-serif" font-size="14" font-style="italic" textLength="40.872">Entity</text></g><g id="elem_Movable"><rect id="Movable" width="90.898" height="32" x="107.33" y="193" fill="#F1F1F1" rx="2.5" ry="2.5" style="stroke:#181818;stroke-width:.5px"/><circle cx="122.33" cy="209" r="11" fill="#A9DCDF" style="stroke:#181818;stroke-width:1px"/><path d="m117.502 214.75 3.344-12.187h3.14l3.375 12.187h-2.469l-.734-3.016h-3.516l-.75 3.016zm4.406-8.047-.75 3h2.516l-.719-3q-.14-.578-.266-1.125-.125-.562-.265-1.14-.11.578-.25 1.14-.14.547-.266 1.125"/><text x="136.33" y="213.847" font-family="sans-serif" font-size="14" font-style="italic" textLength="58.898">Movable</text></g><g id="elem_Weapon"><rect id="Weapon" width="89.36" height="32" x="103.1" y="395" fill="#F1F1F1" rx="2.5" ry="2.5" style="stroke:#181818;stroke-width:.5px"/><circle cx="118.1" cy="411" r="11" fill="#ADD1B2" style="stroke:#181818;stroke-width:1px"/><path d="M117.569 417.922q-1.75 0-2.89-.735-1.126-.75-1.688-2.093-.547-1.36-.547-3.156 0-2.032.656-3.485t1.938-2.234q1.28-.781 3.156-.781.89 0 1.562.187.672.172 1.36.516l-.813 2.015q-.625-.312-1.172-.437-.531-.125-1.015-.125-1.172 0-1.875.531t-1 1.484-.297 2.22q0 2.015.718 2.983.72.954 2.313.954.594 0 1.219-.157.625-.156 1.453-.53v2.218q-.735.312-1.531.469-.782.156-1.547.156"/><text x="132.1" y="415.847" font-family="sans-serif" font-size="14" textLength="57.36">Weapon</text></g><g id="elem_Player"><rect id="Player" width="75.565" height="32" x="7" y="286" fill="#F1F1F1" rx="2.5" ry="2.5" style="stroke:#181818;stroke-width:.5px"/><circle cx="22" cy="302" r="11" fill="#ADD1B2" style="stroke:#181818;stroke-width:1px"/><path d="M21.469 308.922q-1.75 0-2.89-.735-1.126-.75-1.688-2.093-.547-1.36-.547-3.156 0-2.032.656-3.485t1.938-2.234q1.28-.781 3.156-.781.89 0 1.562.187.672.172 1.36.516l-.813 2.015q-.625-.312-1.172-.437-.531-.125-1.015-.125-1.172 0-1.875.531t-1 1.484-.297 2.22q0 2.015.718 2.983.72.954 2.313.954.594 0 1.219-.157.625-.156 1.453-.53v2.218q-.735.312-1.531.469-.782.156-1.547.156"/><text x="36" y="306.847" font-family="sans-serif" font-size="14" textLength="43.565">Player</text></g><g id="elem_Enemy"><rect id="Enemy" width="80.255" height="32" x="117.66" y="286" fill="#F1F1F1" rx="2.5" ry="2.5" style="stroke:#181818;stroke-width:.5px"/><circle cx="132.66" cy="302" r="11" fill="#ADD1B2" style="stroke:#181818;stroke-width:1px"/><path d="M132.129 308.922q-1.75 0-2.89-.735-1.126-.75-1.688-2.093-.547-1.36-.547-3.156 0-2.032.656-3.485t1.938-2.234q1.28-.781 3.156-.781.89 0 1.562.187.672.172 1.36.516l-.813 2.015q-.625-.312-1.172-.437-.531-.125-1.015-.125-1.172 0-1.875.531t-1 1.484-.297 2.22q0 2.015.719 2.983.718.954 2.312.954.594 0 1.219-.157.625-.156 1.453-.53v2.218q-.734.312-1.531.469-.782.156-1.547.156"/><text x="146.66" y="306.847" font-family="sans-serif" font-size="14" textLength="48.255">Enemy</text></g><g id="elem_Game"><rect id="Game" width="73.679" height="32" x="164.94" y="7" fill="#F1F1F1" rx="2.5" ry="2.5" style="stroke:#181818;stroke-width:.5px"/><circle cx="179.94" cy="23" r="11" fill="#ADD1B2" style="stroke:#181818;stroke-width:1px"/><path d="M179.409 29.922q-1.75 0-2.89-.735-1.126-.75-1.688-2.093-.547-1.36-.547-3.157 0-2.03.656-3.484.656-1.453 1.938-2.234 1.28-.782 3.156-.782.89 0 1.562.188.672.172 1.36.516l-.813 2.015q-.625-.312-1.172-.437-.531-.125-1.015-.125-1.172 0-1.875.531t-1 1.484-.297 2.22q0 2.015.719 2.983.718.954 2.312.954.594 0 1.219-.157.625-.156 1.453-.53v2.218q-.734.312-1.531.469-.782.156-1.547.156"/><text x="193.94" y="27.847" font-family="sans-serif" font-size="14" textLength="41.679">Game</text></g><g id="link_Entity_Movable" fill="transparent"><path id="Entity-backto-Movable" d="M184.938 148.29c-9.06 16.83-14.948 27.76-23.968 44.5" style="stroke:#181818;stroke-width:1px"/><path d="m193.47 132.44-13.815 13.005 10.566 5.688z" style="stroke:#181818;stroke-width:1px"/></g><g id="link_Entity_Weapon" fill="transparent"><path id="Entity-backto-Weapon" d="M210.544 149.843c8.76 34.06 22.086 100.617 5.236 168.157-7.78 31.22-32.95 59.77-50.38 76.52" style="stroke:#181818;stroke-width:1px"/><path d="m206.06 132.41-1.327 18.927 11.621-2.989z" style="stroke:#181818;stroke-width:1px"/></g><g id="link_Movable_Player" fill="transparent"><path id="Movable-backto-Player" d="M120.693 237.036c-19.98 16.83-37.983 32.014-57.863 48.754" style="stroke:#181818;stroke-width:1px"/><path d="m134.46 225.44-17.632 7.007 7.73 9.178z" style="stroke:#181818;stroke-width:1px"/></g><g id="link_Movable_Enemy" fill="transparent"><path id="Movable-backto-Enemy" d="M154.623 243.413c.93 16.83 1.407 25.637 2.327 42.377" style="stroke:#181818;stroke-width:1px"/><path d="m153.63 225.44-4.998 18.304 11.982-.662z" style="stroke:#181818;stroke-width:1px"/></g><g id="link_Game_Entity"><path id="Game-backto-Entity" fill="transparent" d="M201.78 51.44v48.35" style="stroke:#181818;stroke-width:1px"/><path fill="#181818" d="m201.78 39.44-4 6 4 6 4-6z" style="stroke:#181818;stroke-width:1px"/><text x="192.548" y="59.159" font-family="sans-serif" font-size="13" textLength="8.271">1</text><text x="194.867" y="89.025" font-family="sans-serif" font-size="13" textLength="6.5">*</text></g><g id="link_Player_Weapon"><path id="Player-backto-Weapon" fill="transparent" d="M67.862 326.975c19.58 20.34 45.628 47.395 65.188 67.725" style="stroke:#181818;stroke-width:1px"/><path fill="transparent" d="m59.54 318.33 1.28 7.097 7.042 1.548-1.28-7.096z" style="stroke:#181818;stroke-width:1px"/><text x="103.45" y="361.067" font-family="sans-serif" font-size="13" textLength="78.933">aggregation</text></g></svg>