<svg xmlns="http://www.w3.org/2000/svg" data-diagram-type="CLASS" height="434" preserveAspectRatio="none" style="background:#fff;width:245px;height:434px" width="245"><g id="elem_Entity"><rect fill="#F1F1F1" height="32" id="Entity" rx="2.5" ry="2.5" style="stroke:#181818;stroke-width:.5px" width="72.872" x="165.35" y="100"/><circle cx="180.35" cy="116" fill="#A9DCDF" style="stroke:#181818;stroke-width:1px" r="11"/><path d="m175.522 121.75 3.344-12.188h3.14l3.375 12.188h-2.469l-.734-3.016h-3.516l-.75 3.016h-2.39Zm4.406-8.047-.75 3h2.516l-.719-3q-.14-.578-.266-1.125-.125-.562-.265-1.14-.11.578-.25 1.14-.14.547-.266 1.125Z"/><text font-family="sans-serif" font-size="14" font-style="italic" textLength="40.872" x="194.35" y="120.847">Entity</text></g><g id="elem_Movable"><rect fill="#F1F1F1" height="32" id="Movable" rx="2.5" ry="2.5" style="stroke:#181818;stroke-width:.5px" width="90.898" x="107.33" y="193"/><circle cx="122.33" cy="209" fill="#A9DCDF" style="stroke:#181818;stroke-width:1px" r="11"/><path d="m117.502 214.75 3.344-12.188h3.14l3.375 12.188h-2.469l-.734-3.016h-3.516l-.75 3.016h-2.39Zm4.406-8.047-.75 3h2.516l-.719-3q-.14-.578-.266-1.125-.125-.562-.265-1.14-.11.578-.25 1.14-.14.547-.266 1.125Z"/><text font-family="sans-serif" font-size="14" font-style="italic" textLength="58.898" x="136.33" y="213.847">Movable</text></g><g id="elem_Weapon"><rect fill="#F1F1F1" height="32" id="Weapon" rx="2.5" ry="2.5" style="stroke:#181818;stroke-width:.5px" width="89.36" x="103.1" y="395"/><circle cx="118.1" cy="411" fill="#ADD1B2" style="stroke:#181818;stroke-width:1px" r="11"/><path d="M117.569 417.922q-1.75 0-2.89-.735-1.126-.75-1.688-2.093-.547-1.36-.547-3.156 0-2.032.656-3.485.656-1.453 1.938-2.234 1.28-.781 3.156-.781.89 0 1.562.187.672.172 1.36.516l-.813 2.015q-.625-.312-1.172-.437-.531-.125-1.015-.125-1.172 0-1.875.531-.704.531-1 1.484-.297.954-.297 2.22 0 2.015.718 2.983.72.954 2.313.954.594 0 1.219-.157.625-.156 1.453-.53v2.218q-.735.312-1.531.469-.782.156-1.547.156Z"/><text font-family="sans-serif" font-size="14" textLength="57.36" x="132.1" y="415.847">Weapon</text></g><g id="elem_Player"><rect fill="#F1F1F1" height="32" id="Player" rx="2.5" ry="2.5" style="stroke:#181818;stroke-width:.5px" width="75.565" x="7" y="286"/><circle cx="22" cy="302" fill="#ADD1B2" style="stroke:#181818;stroke-width:1px" r="11"/><path d="M21.469 308.922q-1.75 0-2.89-.735-1.126-.75-1.688-2.093-.547-1.36-.547-3.156 0-2.032.656-3.485.656-1.453 1.938-2.234 1.28-.781 3.156-.781.89 0 1.562.187.672.172 1.36.516l-.813 2.015q-.625-.312-1.172-.437-.531-.125-1.015-.125-1.172 0-1.875.531-.703.531-1 1.484-.297.954-.297 2.22 0 2.015.718 2.983.72.954 2.313.954.594 0 1.219-.157.625-.156 1.453-.53v2.218q-.735.312-1.531.469-.782.156-1.547.156Z"/><text font-family="sans-serif" font-size="14" textLength="43.565" x="36" y="306.847">Player</text></g><g id="elem_Enemy"><rect fill="#F1F1F1" height="32" id="Enemy" rx="2.5" ry="2.5" style="stroke:#181818;stroke-width:.5px" width="80.255" x="117.66" y="286"/><circle cx="132.66" cy="302" fill="#ADD1B2" style="stroke:#181818;stroke-width:1px" r="11"/><path d="M132.129 308.922q-1.75 0-2.89-.735-1.126-.75-1.688-2.093-.547-1.36-.547-3.156 0-2.032.656-3.485.656-1.453 1.938-2.234 1.28-.781 3.156-.781.89 0 1.562.187.672.172 1.36.516l-.813 2.015q-.625-.312-1.172-.437-.531-.125-1.015-.125-1.172 0-1.875.531-.703.531-1 1.484-.297.954-.297 2.22 0 2.015.719 2.983.718.954 2.312.954.594 0 1.219-.157.625-.156 1.453-.53v2.218q-.734.312-1.531.469-.782.156-1.547.156Z"/><text font-family="sans-serif" font-size="14" textLength="48.255" x="146.66" y="306.847">Enemy</text></g><g id="elem_Game"><rect fill="#F1F1F1" height="32" id="Game" rx="2.5" ry="2.5" style="stroke:#181818;stroke-width:.5px" width="73.679" x="164.94" y="7"/><circle cx="179.94" cy="23" fill="#ADD1B2" style="stroke:#181818;stroke-width:1px" r="11"/><path d="M179.409 29.922q-1.75 0-2.89-.735-1.126-.75-1.688-2.093-.547-1.36-.547-3.157 0-2.03.656-3.484.656-1.453 1.938-2.234 1.28-.782 3.156-.782.89 0 1.562.188.672.172 1.36.516l-.813 2.015q-.625-.312-1.172-.437-.531-.125-1.015-.125-1.172 0-1.875.531-.703.531-1 1.484-.297.953-.297 2.22 0 2.015.719 2.983.718.954 2.312.954.594 0 1.219-.157.625-.156 1.453-.53v2.218q-.734.312-1.531.469-.782.156-1.547.156Z"/><text font-family="sans-serif" font-size="14" textLength="41.679" x="193.94" y="27.847">Game</text></g><g id="link_Entity_Movable" fill="transparent"><path d="M184.938 148.29c-9.06 16.83-14.948 27.76-23.968 44.5" id="Entity-backto-Movable" style="stroke:#181818;stroke-width:1px"/><path style="stroke:#181818;stroke-width:1px" d="m193.47 132.44-13.815 13.005 10.566 5.688 3.249-18.693z"/></g><g id="link_Entity_Weapon" fill="transparent"><path d="M210.544 149.843c8.76 34.06 22.086 100.617 5.236 168.157-7.78 31.22-32.95 59.77-50.38 76.52" id="Entity-backto-Weapon" style="stroke:#181818;stroke-width:1px"/><path style="stroke:#181818;stroke-width:1px" d="m206.06 132.41-1.327 18.927 11.621-2.989-10.294-15.938z"/></g><g id="link_Movable_Player" fill="transparent"><path d="M120.693 237.036c-19.98 16.83-37.983 32.014-57.863 48.754" id="Movable-backto-Player" style="stroke:#181818;stroke-width:1px"/><path style="stroke:#181818;stroke-width:1px" d="m134.46 225.44-17.632 7.007 7.73 9.178 9.902-16.185z"/></g><g id="link_Movable_Enemy" fill="transparent"><path d="M154.623 243.413c.93 16.83 1.407 25.637 2.327 42.377" id="Movable-backto-Enemy" style="stroke:#181818;stroke-width:1px"/><path style="stroke:#181818;stroke-width:1px" d="m153.63 225.44-4.998 18.304 11.982-.662-6.984-17.642z"/></g><g id="link_Game_Entity"><path d="M201.78 51.44v48.35" fill="transparent" id="Game-backto-Entity" style="stroke:#181818;stroke-width:1px"/><path fill="#181818" style="stroke:#181818;stroke-width:1px" d="m201.78 39.44-4 6 4 6 4-6-4-6z"/><text font-family="sans-serif" font-size="13" textLength="8.271" x="192.548" y="59.159">1</text><text font-family="sans-serif" font-size="13" textLength="6.5" x="194.867" y="89.025">*</text></g><g id="link_Player_Weapon"><path d="M67.862 326.975c19.58 20.34 45.628 47.395 65.188 67.725" fill="transparent" id="Player-backto-Weapon" style="stroke:#181818;stroke-width:1px"/><path fill="transparent" style="stroke:#181818;stroke-width:1px" d="m59.54 318.33 1.28 7.097 7.042 1.548-1.28-7.096-7.042-1.549z"/><text font-family="sans-serif" font-size="13" textLength="78.933" x="103.45" y="361.067">aggregation</text></g></svg>